<svg width="18" height="16" viewBox="0 0 18 16" fill="none" xmlns="http://www.w3.org/2000/svg">
<path d="M18 1.58203C18 0.708293 17.2917 0 16.418 0H1.58203C0.708293 0 0 0.708293 0 1.58203V4.74609C0 5.03733 0.236109 5.27344 0.527344 5.27344H17.4727C17.7639 5.27344 18 5.03733 18 4.74609V1.58203Z" fill="#7D81E7"/>
<path d="M16.418 0H9V5.27344H17.4727C17.7639 5.27344 18 5.03733 18 4.74609V1.58203C18 0.708293 17.2917 0 16.418 0Z" fill="#5E69E2"/>
<path d="M2.84766 2.90039H2.14453C1.8533 2.90039 1.61719 2.66428 1.61719 2.37305C1.61719 2.08181 1.8533 1.8457 2.14453 1.8457H2.84766C3.13889 1.8457 3.375 2.08181 3.375 2.37305C3.375 2.66428 3.13889 2.90039 2.84766 2.90039Z" fill="#FFF79F"/>
<path d="M5.66016 2.90039H4.95703C4.6658 2.90039 4.42969 2.66428 4.42969 2.37305C4.42969 2.08181 4.6658 1.8457 4.95703 1.8457H5.66016C5.95139 1.8457 6.1875 2.08181 6.1875 2.37305C6.1875 2.66428 5.95139 2.90039 5.66016 2.90039Z" fill="#90E36A"/>
<path d="M8.47266 2.90039H7.76953C7.4783 2.90039 7.24219 2.66428 7.24219 2.37305C7.24219 2.08181 7.4783 1.8457 7.76953 1.8457H8.47266C8.76389 1.8457 9 2.08181 9 2.37305C9 2.66428 8.76389 2.90039 8.47266 2.90039Z" fill="#FF80A7"/>
<path d="M0 4.74609V14.6567C0 15.3974 0.709699 16 1.58203 16H16.418C17.2903 16 18 15.3974 18 14.6567V4.74609H0Z" fill="#F9F9F9"/>
<path d="M9 16H16.418C17.2903 16 18 15.411 18 14.687V5H9V16Z" fill="#E2DFF4"/>
<path d="M6.0848 13.2541C5.69882 13.2541 5.67608 13.2502 5.65101 13.2459C5.48222 13.217 5.35883 13.0706 5.35883 12.8994V9.38672C5.35883 9.19255 5.51626 9.03516 5.71039 9.03516C5.90452 9.03516 6.06195 9.19255 6.06195 9.38672V12.5508C6.3001 12.5507 6.63169 12.5495 6.93952 12.5478H6.94153C7.13478 12.5478 7.29196 12.7039 7.29305 12.8974C7.29411 13.0916 7.13763 13.2498 6.94346 13.251C6.54422 13.2532 6.27183 13.2541 6.0848 13.2541Z" fill="#0A789B"/>
<path d="M4.10665 10.8928C4.25308 10.6985 4.34002 10.4571 4.34002 10.1957C4.34002 9.55575 3.81939 9.03516 3.17951 9.03516H2.15833C1.96419 9.03516 1.80676 9.19255 1.80676 9.38672V12.9023C1.80676 12.9959 1.84403 13.0855 1.91026 13.1515C1.97618 13.2171 2.06537 13.2539 2.15833 13.2539H2.15987C2.16929 13.2539 3.10245 13.2497 3.35786 13.2497C4.0735 13.2497 4.65572 12.6675 4.65572 11.9519C4.65572 11.515 4.43849 11.1281 4.10665 10.8928ZM3.17951 9.73828C3.43172 9.73828 3.63689 9.94345 3.63689 10.1957C3.63689 10.4479 3.43172 10.653 3.17951 10.653C3.10431 10.653 2.50985 10.654 2.50985 10.654V9.73828H3.17951ZM3.35786 12.5466C3.2037 12.5466 2.80576 12.5481 2.50989 12.5493V11.3583C2.60509 11.3579 3.35786 11.3572 3.35786 11.3572C3.68579 11.3572 3.95259 11.624 3.95259 11.9519C3.95259 12.2798 3.68579 12.5466 3.35786 12.5466Z" fill="#0A789B"/>
<path d="M14.3243 13.2539C13.1612 13.2539 12.2149 12.3076 12.2149 11.1445C12.2149 9.98142 13.1612 9.03516 14.3243 9.03516C14.7469 9.03516 15.1548 9.15979 15.5039 9.39558C15.6648 9.50428 15.7071 9.72281 15.5984 9.88369C15.4897 10.0446 15.2711 10.0869 15.1103 9.97822C14.8779 9.82125 14.6061 9.73825 14.3243 9.73825C13.5489 9.73825 12.918 10.3691 12.918 11.1445C12.918 11.9199 13.5489 12.5507 14.3243 12.5507C15.0318 12.5507 15.364 12.0387 15.4598 11.4961H14.79C14.5959 11.4961 14.4384 11.3387 14.4384 11.1445C14.4384 10.9503 14.5959 10.7929 14.79 10.7929H15.8417C16.0358 10.7929 16.1933 10.9503 16.1933 11.1445C16.1933 12.3865 15.4247 13.2539 14.3243 13.2539Z" fill="#08475E"/>
<path d="M9.40241 13.2539C8.2393 13.2539 7.29303 12.3076 7.29303 11.1445C7.29303 9.98142 8.2393 9.03516 9.40241 9.03516C10.5655 9.03516 11.5118 9.98142 11.5118 11.1445C11.5118 12.3076 10.5655 13.2539 9.40241 13.2539ZM9.40241 9.73828C8.627 9.73828 7.99616 10.3691 7.99616 11.1445C7.99616 11.9199 8.627 12.5508 9.40241 12.5508C10.1778 12.5508 10.8087 11.9199 10.8087 11.1445C10.8087 10.3691 10.1778 9.73828 9.40241 9.73828Z" fill="#0A789B"/>
<path d="M9.4024 9.03516C9.26476 9.03516 9.13032 9.04883 9 9.07411V9.79724C9.12758 9.75906 9.26258 9.73828 9.4024 9.73828C10.1778 9.73828 10.8086 10.3691 10.8086 11.1445C10.8086 11.9199 10.1778 12.5508 9.4024 12.5508C9.26258 12.5508 9.12755 12.53 9 12.4918V13.215C9.13036 13.2402 9.2648 13.2539 9.4024 13.2539C10.5655 13.2539 11.5118 12.3076 11.5118 11.1445C11.5118 9.98142 10.5655 9.03516 9.4024 9.03516Z" fill="#08475E"/>
</svg>
