<svg width="18" height="20" viewBox="0 0 18 20" fill="none" xmlns="http://www.w3.org/2000/svg">
<path d="M6.44776 19.049L15.8507 13.5731C18.7164 11.9042 18.7164 7.73212 15.8507 6.06327L6.44776 0.587356C3.58209 -1.08149 0 1.00457 0 4.34227V6.03542H3.31343V5.09419C3.31343 4.40271 3.76274 3.26178 5.55997 4.22984C7.0807 5.05962 11.7235 7.57199 13.8549 8.72445C14.3157 9.07019 14.9263 9.96911 13.682 10.7989C12.4378 11.6287 7.40328 14.602 5.04154 15.9849C4.4655 16.2154 3.31343 16.3653 3.31343 15.1206V14.0472H0V15.2941C0 18.6318 3.58209 20.7179 6.44776 19.049Z" fill="#15163D"/>
<ellipse cx="1.65261" cy="6.01427" rx="1.65261" ry="1.59386" fill="#15163D"/>
<ellipse cx="1.65261" cy="10.0519" rx="1.65261" ry="1.59386" fill="#15163D"/>
<ellipse cx="1.65261" cy="14.0475" rx="1.65261" ry="1.59386" fill="#15163D"/>
</svg>
