<svg width="18" height="17" viewBox="0 0 18 17" fill="none" xmlns="http://www.w3.org/2000/svg">
<path d="M2.70996 11.9557H14.559V12.4616H2.70996V11.9557Z" fill="#C4C4C4"/>
<path d="M14.5581 12.7147C14.8375 12.7147 15.064 12.4882 15.064 12.2088C15.064 11.9294 14.8375 11.7029 14.5581 11.7029C14.2787 11.7029 14.0522 11.9294 14.0522 12.2088C14.0522 12.4882 14.2787 12.7147 14.5581 12.7147Z" fill="#FFD600"/>
<path d="M8.63382 12.7147C8.91321 12.7147 9.13971 12.4882 9.13971 12.2088C9.13971 11.9294 8.91321 11.7029 8.63382 11.7029C8.35442 11.7029 8.12793 11.9294 8.12793 12.2088C8.12793 12.4882 8.35442 12.7147 8.63382 12.7147Z" fill="#839CDC"/>
<path d="M2.7095 12.7147C2.9889 12.7147 3.21539 12.4882 3.21539 12.2088C3.21539 11.9294 2.9889 11.7029 2.7095 11.7029C2.43011 11.7029 2.20361 11.9294 2.20361 12.2088C2.20361 12.4882 2.43011 12.7147 2.7095 12.7147Z" fill="#94E368"/>
<path d="M16.0032 0L14.5586 10.6911C14.6881 10.6911 14.8175 10.6417 14.9163 10.543L16.7186 8.74065C16.9084 8.5509 17.015 8.29354 17.015 8.02522V0.252944C17.015 0.113252 16.9017 0 16.762 0H16.0032Z" fill="#FFA800"/>
<path d="M12.1025 0.252944V8.02522C12.1025 8.29354 12.2091 8.5509 12.3989 8.74065L14.2012 10.543C14.3 10.6417 14.4295 10.6911 14.5589 10.6911C14.6351 10.6911 14.7112 10.6417 14.7693 10.543L15.8293 8.74065C15.9409 8.5509 16.0035 8.29354 16.0035 8.02522V0H12.3555C12.2158 0 12.1025 0.113252 12.1025 0.252944Z" fill="#FFD600"/>
<path d="M10.0784 0L8.63379 10.6911C8.76326 10.6911 8.89274 10.6417 8.99152 10.543L10.7938 8.74065C10.9836 8.5509 11.0902 8.29354 11.0902 8.02522V0.252944C11.0902 0.113252 10.9769 0 10.8372 0H10.0784Z" fill="#9088A1"/>
<path d="M6.17725 0.252944V8.02518C6.17725 8.29354 6.28385 8.55087 6.4736 8.74061L8.27591 10.5429C8.37469 10.6417 8.50417 10.6911 8.63364 10.6911C8.7098 10.6911 8.78591 10.6417 8.84402 10.5429L9.90396 8.74061C10.0156 8.55087 10.0783 8.29351 10.0783 8.02518V0H6.43019C6.2905 0 6.17725 0.113252 6.17725 0.252944Z" fill="#839CDC"/>
<path d="M4.15454 0L2.70996 10.6911C2.83943 10.6911 2.96891 10.6417 3.06769 10.543L4.87001 8.74065C5.05975 8.5509 5.16635 8.29354 5.16635 8.02522V0.252944C5.16635 0.113252 5.0531 0 4.91341 0H4.15454Z" fill="#DE7F7F"/>
<path d="M0.25293 0.252944V8.02518C0.25293 8.29354 0.359537 8.55087 0.549279 8.74061L2.35159 10.5429C2.45038 10.6417 2.57985 10.6911 2.70932 10.6911C2.78548 10.6911 2.8616 10.6417 2.91971 10.5429L3.97964 8.74061C4.09124 8.55087 4.15394 8.29351 4.15394 8.02518V0H0.505874C0.366181 0 0.25293 0.113252 0.25293 0.252944Z" fill="#FF8787"/>
<path d="M5.1657 13.9794H0.252944C0.113218 13.9794 0 13.8661 0 13.7265C0 13.5868 0.113218 13.4735 0.252944 13.4735H5.1657C5.30543 13.4735 5.41864 13.5868 5.41864 13.7265C5.41864 13.8661 5.30543 13.9794 5.1657 13.9794Z" fill="#FF8787"/>
<path d="M5.1657 14.9912H0.252944C0.113218 14.9912 0 14.878 0 14.7383C0 14.5986 0.113218 14.4854 0.252944 14.4854H5.1657C5.30543 14.4854 5.41864 14.5986 5.41864 14.7383C5.41864 14.878 5.30543 14.9912 5.1657 14.9912Z" fill="#FF8787"/>
<path d="M2.7093 16.5059H0.252944C0.113218 16.5059 0 16.3926 0 16.2529C0 16.1133 0.113218 16 0.252944 16H2.7093C2.84903 16 2.96225 16.1133 2.96225 16.2529C2.96225 16.3926 2.84903 16.5059 2.7093 16.5059Z" fill="#FF8787"/>
<path d="M11.0905 13.9794H6.17775C6.03802 13.9794 5.9248 13.8661 5.9248 13.7265C5.9248 13.5868 6.03802 13.4735 6.17775 13.4735H11.0905C11.2302 13.4735 11.3434 13.5868 11.3434 13.7265C11.3434 13.8661 11.2302 13.9794 11.0905 13.9794Z" fill="#839CDC"/>
<path d="M11.09 14.9912H6.17726C6.03753 14.9912 5.92432 14.878 5.92432 14.7383C5.92432 14.5986 6.03753 14.4854 6.17726 14.4854H11.09C11.2297 14.4854 11.3429 14.5986 11.3429 14.7383C11.3429 14.878 11.2297 14.9912 11.09 14.9912Z" fill="#839CDC"/>
<path d="M8.63362 16.5059H6.17726C6.03753 16.5059 5.92432 16.3926 5.92432 16.2529C5.92432 16.1133 6.03753 16 6.17726 16H8.63362C8.77334 16 8.88656 16.1133 8.88656 16.2529C8.88656 16.3926 8.77334 16.5059 8.63362 16.5059Z" fill="#839CDC"/>
<path d="M17.0148 13.9794H12.1021C11.9623 13.9794 11.8491 13.8661 11.8491 13.7265C11.8491 13.5868 11.9623 13.4735 12.1021 13.4735H17.0148C17.1545 13.4735 17.2678 13.5868 17.2678 13.7265C17.2678 13.8661 17.1545 13.9794 17.0148 13.9794Z" fill="#FFA800"/>
<path d="M17.0148 14.9912H12.1021C11.9623 14.9912 11.8491 14.878 11.8491 14.7383C11.8491 14.5986 11.9623 14.4854 12.1021 14.4854H17.0148C17.1545 14.4854 17.2678 14.5986 17.2678 14.7383C17.2678 14.878 17.1545 14.9912 17.0148 14.9912Z" fill="#FFA800"/>
<path d="M14.5585 16.5059H12.1021C11.9623 16.5059 11.8491 16.3926 11.8491 16.2529C11.8491 16.1133 11.9623 16 12.1021 16H14.5585C14.6982 16 14.8114 16.1133 14.8114 16.2529C14.8114 16.3926 14.6982 16.5059 14.5585 16.5059Z" fill="#FFA800"/>
</svg>
