<svg width="21" height="17" viewBox="0 0 21 17" fill="none" xmlns="http://www.w3.org/2000/svg">
<rect width="18" height="2" fill="url(#paint0_linear)"/>
<path d="M0.5 2.5H17.5V12C17.5 12.8284 16.8284 13.5 16 13.5H2C1.17157 13.5 0.5 12.8284 0.5 12V2.5Z" fill="white" stroke="#C4C4C4"/>
<line x1="2" y1="4.5" x2="14" y2="4.5" stroke="url(#paint1_linear)"/>
<line x1="2" y1="6.5" x2="14" y2="6.5" stroke="url(#paint2_linear)"/>
<line x1="2" y1="8.5" x2="14" y2="8.5" stroke="url(#paint3_linear)"/>
<line x1="2" y1="10.5" x2="14" y2="10.5" stroke="url(#paint4_linear)"/>
<path d="M10.9617 7.50147C10.6863 7.52265 10.4803 7.76302 10.5015 8.03835L10.8466 12.5251C10.8678 12.8004 11.1082 13.0065 11.3835 12.9853C11.6588 12.9641 11.8648 12.7237 11.8437 12.4484L11.5369 8.46018L15.5251 8.15339C15.8004 8.13221 16.0065 7.89185 15.9853 7.61652C15.9641 7.34119 15.7237 7.13516 15.4484 7.15634L10.9617 7.50147ZM18.3254 13.6204L11.3254 7.62037L10.6746 8.37963L17.6746 14.3796L18.3254 13.6204Z" fill="url(#paint5_radial)"/>
<defs>
<linearGradient id="paint0_linear" x1="9" y1="1" x2="9" y2="3" gradientUnits="userSpaceOnUse">
<stop stop-color="#FFA800"/>
<stop offset="1" stop-color="#C4C4C4" stop-opacity="0"/>
</linearGradient>
<linearGradient id="paint1_linear" x1="2" y1="4.5" x2="15.5" y2="4.5" gradientUnits="userSpaceOnUse">
<stop stop-color="#48CCCC"/>
<stop offset="1" stop-color="#48CCCC" stop-opacity="0"/>
</linearGradient>
<linearGradient id="paint2_linear" x1="2" y1="6.5" x2="15.5" y2="6.5" gradientUnits="userSpaceOnUse">
<stop stop-color="#FFEC78"/>
<stop offset="1" stop-color="white" stop-opacity="0"/>
</linearGradient>
<linearGradient id="paint3_linear" x1="2" y1="8.5" x2="15.5" y2="8.5" gradientUnits="userSpaceOnUse">
<stop stop-color="#839CDC"/>
<stop offset="1" stop-color="#839CDC" stop-opacity="0.17"/>
</linearGradient>
<linearGradient id="paint4_linear" x1="2" y1="10.5" x2="15.5" y2="10.5" gradientUnits="userSpaceOnUse">
<stop stop-color="#FF0000"/>
<stop offset="1" stop-color="#FF0000" stop-opacity="0"/>
</linearGradient>
<radialGradient id="paint5_radial" cx="0" cy="0" r="1" gradientUnits="userSpaceOnUse" gradientTransform="translate(11 8) rotate(38.0471) scale(14.6031 134.634)">
<stop stop-color="#15163D"/>
<stop offset="1" stop-color="#15163D" stop-opacity="0"/>
</radialGradient>
</defs>
</svg>
