<svg width="26" height="26" viewBox="0 0 26 26" fill="none" xmlns="http://www.w3.org/2000/svg">
<path d="M14.1891 20.5734C11.9037 20.8909 9.84422 20.6208 6.07871 16.5962C7.39777 17.22 10.6234 18.6935 13.1271 17.8745C15.6308 17.0555 17.3735 14.0564 17.5013 12.6208C17.3577 12.6081 16.4438 12.3097 15.1135 12.6254C14.1158 12.8622 13.3525 12.9028 12.4529 13.2568C13.8598 12.0798 14.8066 10.8122 16.4392 9.92191C17.8079 9.17557 18.9037 9.05605 21.2915 9.05151C22.1957 11.0853 22.5497 11.985 22.5542 14.3727C22.5581 16.418 21.348 18.172 19.6682 19.9758C19.8599 17.8226 20.1694 15.9691 19.8936 15.004C19.2442 16.6102 16.4746 20.2559 14.1891 20.5734Z" fill="url(#paint0_radial)"/>
<path d="M11.8099 4.69893C14.0953 4.38143 16.1548 4.65152 19.9203 8.67622C18.6012 8.0524 15.3756 6.5789 12.8719 7.39787C10.3682 8.21683 8.6255 11.216 8.49775 12.6515C8.6413 12.6643 9.55523 12.9627 10.8855 12.647C11.8833 12.4102 12.6465 12.3696 13.5461 12.0156C12.1392 13.1926 11.1925 14.4601 9.55978 15.3505C8.19115 16.0968 7.09534 16.2163 4.70754 16.2209C3.80336 14.1871 3.4493 13.2874 3.4448 10.8996C3.44095 8.85441 4.65105 7.10036 6.33082 5.29652C6.13915 7.44978 5.82959 9.30327 6.10546 10.2683C6.75481 8.66218 9.52446 5.01644 11.8099 4.69893Z" fill="url(#paint1_radial)"/>
<defs>
<radialGradient id="paint0_radial" cx="0" cy="0" r="1" gradientUnits="userSpaceOnUse" gradientTransform="translate(20 11.5) rotate(142.431) scale(16.4012 11.2379)">
<stop stop-color="#15163D"/>
<stop offset="1" stop-color="#15163D" stop-opacity="0"/>
</radialGradient>
<radialGradient id="paint1_radial" cx="0" cy="0" r="1" gradientUnits="userSpaceOnUse" gradientTransform="translate(6 13.5) rotate(-40.4622) scale(22.3439 15.3097)">
<stop stop-color="#48CCCC"/>
<stop offset="1" stop-color="#48CCCC" stop-opacity="0"/>
</radialGradient>
</defs>
</svg>
