<svg width="86" height="86" viewBox="0 0 86 86" fill="none" xmlns="http://www.w3.org/2000/svg">
<g style="mix-blend-mode:darken" opacity="0.3">
<circle cx="43" cy="43" r="43" fill="url(#paint0_radial)"/>
<circle cx="43" cy="43" r="43" fill="url(#paint1_radial)"/>
<circle cx="43" cy="43" r="43" fill="url(#paint2_radial)"/>
</g>
<g style="mix-blend-mode:screen" opacity="0.7">
<circle cx="43" cy="43" r="43" fill="url(#paint3_radial)"/>
</g>
<path d="M37.8209 59.9232L55.0597 49.884C60.3134 46.8244 60.3134 39.1756 55.0597 36.116L37.8209 26.0768C32.5672 23.0173 26 26.8417 26 32.9608V36.0649H32.0746V34.3393C32.0746 33.0716 32.8984 30.9799 36.1933 32.7547C38.9813 34.276 47.4931 38.882 51.4006 40.9948C52.2454 41.6287 53.3648 43.2767 51.0838 44.7979C48.8027 46.3192 39.5727 51.7703 35.2428 54.3057C34.1868 54.7283 32.0746 55.003 32.0746 52.7211V50.7532H26V53.0392C26 59.1583 32.5672 62.9827 37.8209 59.9232Z" fill="#15163D"/>
<ellipse cx="29.0298" cy="36.0258" rx="3.02978" ry="2.92208" fill="#15163D"/>
<ellipse cx="29.0298" cy="43.4287" rx="3.02978" ry="2.92208" fill="#15163D"/>
<ellipse cx="29.0298" cy="50.7534" rx="3.02978" ry="2.92208" fill="#15163D"/>
<defs>
<radialGradient id="paint0_radial" cx="0" cy="0" r="1" gradientUnits="userSpaceOnUse" gradientTransform="translate(47 49.5) rotate(43.8767) scale(36.0694)">
<stop stop-color="white" stop-opacity="0.06"/>
<stop offset="1" stop-color="white"/>
</radialGradient>
<radialGradient id="paint1_radial" cx="0" cy="0" r="1" gradientUnits="userSpaceOnUse" gradientTransform="translate(-3 6.75) rotate(38.5608) scale(67.7795)">
<stop/>
<stop offset="1" stop-opacity="0.12"/>
</radialGradient>
<radialGradient id="paint2_radial" cx="0" cy="0" r="1" gradientUnits="userSpaceOnUse" gradientTransform="translate(43 43) rotate(90) scale(43)">
<stop stop-color="white"/>
<stop offset="0.755208" stop-color="white" stop-opacity="0.861995"/>
<stop offset="0.838542" stop-color="white" stop-opacity="0.71875"/>
<stop offset="1" stop-color="white" stop-opacity="0"/>
</radialGradient>
<radialGradient id="paint3_radial" cx="0" cy="0" r="1" gradientUnits="userSpaceOnUse" gradientTransform="translate(-10.5) rotate(39.8315) scale(141.289)">
<stop stop-color="white" stop-opacity="0.06"/>
<stop offset="1" stop-color="white"/>
</radialGradient>
</defs>
</svg>
