<svg width="25" height="25" viewBox="0 0 25 25" fill="none" xmlns="http://www.w3.org/2000/svg">
<path fill-rule="evenodd" clip-rule="evenodd" d="M12.5 25C19.4036 25 25 19.4036 25 12.5C25 5.59644 19.4036 0 12.5 0C5.59644 0 0 5.59644 0 12.5C0 19.4036 5.59644 25 12.5 25ZM9.07051 4.99788C9.15521 5.20647 9.198 5.4297 9.19643 5.65482V5.70839C9.19103 5.93354 9.14131 6.15541 9.05013 6.36133C8.95894 6.56725 8.82808 6.75319 8.66501 6.90852C8.50194 7.06385 8.30987 7.18553 8.09976 7.2666C7.88965 7.34767 7.66562 7.38655 7.44048 7.38101C6.98267 7.38101 6.5436 7.19914 6.21988 6.87542C5.89616 6.5517 5.71429 6.11263 5.71429 5.65482C5.71429 5.19701 5.89616 4.75794 6.21988 4.43422C6.5436 4.1105 6.98267 3.92863 7.44048 3.92863H7.49405C7.71918 3.93019 7.94179 3.97607 8.14918 4.06367C8.35657 4.15126 8.54468 4.27885 8.70276 4.43914C8.86084 4.59943 8.9858 4.78929 9.07051 4.99788ZM5.95238 8.92863H8.92858V18.4524H5.95238V8.92863ZM20.2381 12.6667C20.2381 9.80363 18.4167 8.69053 16.6071 8.69053C16.0147 8.66087 15.4248 8.78706 14.8963 9.05652C14.3678 9.32599 13.9192 9.72931 13.5952 10.2262H13.5119V8.92863H10.7143V18.4524H13.6905V13.387C13.6475 12.8682 13.8109 12.3534 14.1452 11.9544C14.4796 11.5554 14.9579 11.3044 15.4762 11.256H15.5893C16.5357 11.256 17.2381 11.8512 17.2381 13.3512V18.4524H20.2143L20.2381 12.6667Z" fill="#15163D"/>
</svg>
