<?xml version="1.0" encoding="utf-8"?>
<svg version="1.1" xmlns:xlink="http://www.w3.org/1999/xlink" width="45px" height="37px" xmlns="http://www.w3.org/2000/svg">
  <g transform="matrix(1 0 0 1 -955 -600 )">
    <path d="M 12.19482421875 10.3036570743405  C 12.56103515625 9.94134692246203  12.744140625 9.457034372502  12.744140625 8.85071942446043  C 12.744140625 8.24440447641886  12.56103515625 7.75639488409272  12.19482421875 7.38669064748201  C 11.82861328125 7.0169864108713  11.34521484375 6.83213429256595  10.74462890625 6.83213429256595  C 10.11474609375 6.83213429256595  9.55810546875 7.02068345323741  9.07470703125 7.39778177458034  C 8.59130859375 7.77488009592326  8.349609375 8.25919264588329  8.349609375 8.85071942446043  C 8.349609375 9.42745803357314  8.59130859375 9.90437649880096  9.07470703125 10.2814748201439  C 9.55810546875 10.6585731414868  10.11474609375 10.8471223021583  10.74462890625 10.8471223021583  C 11.34521484375 10.8471223021583  11.82861328125 10.665967226219  12.19482421875 10.3036570743405  Z M 28.509521484375 21.2284172661871  C 28.883056640625 20.9030775379696  29.06982421875 20.5259792166267  29.06982421875 20.0971223021583  C 29.06982421875 19.6830535571543  28.883056640625 19.3133493205436  28.509521484375 18.9880095923261  C 28.135986328125 18.6626698641087  27.65625 18.5  27.0703125 18.5  C 26.6748046875 18.5  26.312255859375 18.6663669064748  25.982666015625 18.9991007194245  C 25.653076171875 19.3318345323741  25.48828125 19.6978417266187  25.48828125 20.0971223021583  C 25.48828125 20.5111910471623  25.653076171875 20.8845923261391  25.982666015625 21.2173261390887  C 26.312255859375 21.5500599520384  26.6748046875 21.7164268585132  27.0703125 21.7164268585132  C 27.65625 21.7164268585132  28.135986328125 21.5537569944045  28.509521484375 21.2284172661871  Z M 23.345947265625 10.3036570743405  C 23.704833984375 9.94134692246203  23.88427734375 9.457034372502  23.88427734375 8.85071942446043  C 23.88427734375 8.24440447641886  23.704833984375 7.75639488409272  23.345947265625 7.38669064748201  C 22.987060546875 7.0169864108713  22.50732421875 6.83213429256595  21.90673828125 6.83213429256595  C 21.27685546875 6.83213429256595  20.72021484375 7.02068345323741  20.23681640625 7.39778177458034  C 19.75341796875 7.77488009592326  19.51171875 8.25919264588329  19.51171875 8.85071942446043  C 19.51171875 9.42745803357314  19.75341796875 9.90437649880096  20.23681640625 10.2814748201439  C 20.72021484375 10.6585731414868  21.27685546875 10.8471223021583  21.90673828125 10.8471223021583  C 22.50732421875 10.8471223021583  22.987060546875 10.665967226219  23.345947265625 10.3036570743405  Z M 37.265625 21.2284172661871  C 37.646484375 20.9030775379696  37.8369140625 20.5259792166267  37.8369140625 20.0971223021583  C 37.8369140625 19.6830535571543  37.646484375 19.3133493205436  37.265625 18.9880095923261  C 36.884765625 18.6626698641087  36.40869140625 18.5  35.83740234375 18.5  C 35.44189453125 18.5  35.079345703125 18.6663669064748  34.749755859375 18.9991007194245  C 34.420166015625 19.3318345323741  34.25537109375 19.6978417266187  34.25537109375 20.0971223021583  C 34.25537109375 20.5111910471623  34.420166015625 20.8845923261391  34.749755859375 21.2173261390887  C 35.079345703125 21.5500599520384  35.44189453125 21.7164268585132  35.83740234375 21.7164268585132  C 36.40869140625 21.7164268585132  36.884765625 21.5537569944045  37.265625 21.2284172661871  Z M 28.992919921875 5.51229016786571  C 30.538330078125 7.23511191047162  31.5380859375 9.16127098321343  31.9921875 11.2907673860911  C 31.5380859375 11.2316147082334  31.025390625 11.2020383693046  30.4541015625 11.2020383693046  C 27.978515625 11.2020383693046  25.70068359375 11.7713828936851  23.62060546875 12.910071942446  C 21.54052734375 14.048760991207  19.903564453125 15.5904276578737  18.709716796875 17.535071942446  C 17.515869140625 19.4797162270184  16.9189453125 21.60551558753  16.9189453125 23.9124700239808  C 16.9189453125 25.0659472422062  17.08740234375 26.1898481215028  17.42431640625 27.2841726618705  C 16.91162109375 27.3285371702638  16.41357421875 27.3507194244604  15.93017578125 27.3507194244604  C 15.54931640625 27.3507194244604  15.18310546875 27.3396282973621  14.83154296875 27.3174460431655  C 14.47998046875 27.2952637889688  14.0771484375 27.2472022382094  13.623046875 27.1732613908873  C 13.1689453125 27.0993205435651  12.843017578125 27.0475619504396  12.645263671875 27.0179856115108  C 12.447509765625 26.9884092725819  12.04833984375 26.9107713828937  11.44775390625 26.785071942446  C 10.84716796875 26.6593725019984  10.48095703125 26.5817346123102  10.34912109375 26.5521582733813  L 4.7900390625 29.3693045563549  L 6.3720703125 24.5335731414868  C 2.1240234375 21.5315747402078  0 17.9084732214229  0 13.6642685851319  C 0 11.1650679456435  0.714111328125 8.86550759392486  2.142333984375 6.76558752997602  C 3.570556640625 4.66566746602718  5.504150390625 3.01308952837729  7.943115234375 1.80785371702638  C 10.382080078125 0.602617905675457  13.04443359375 0  15.93017578125 0  C 18.50830078125 0  20.943603515625 0.48800959232614  23.236083984375 1.46402877697842  C 25.528564453125 2.4400479616307  27.447509765625 3.78946842525979  28.992919921875 5.51229016786571  Z M 43.121337890625 17.8899880095923  C 44.373779296875 19.6867505995204  45 21.6350919264588  45 23.7350119904077  C 45 25.4652278177458  44.498291015625 27.1178057553957  43.494873046875 28.6927458033573  C 42.491455078125 30.2676858513189  41.1328125 31.6984412470024  39.4189453125 32.9850119904077  L 40.62744140625 37  L 36.2548828125 34.5821342925659  C 34.0576171875 35.1292965627498  32.4609375 35.4028776978417  31.46484375 35.4028776978417  C 28.9892578125 35.4028776978417  26.71142578125 34.8815947242206  24.63134765625 33.8390287769784  C 22.55126953125 32.7964628297362  20.914306640625 31.3804956035172  19.720458984375 29.5911270983213  C 18.526611328125 27.8017585931255  17.9296875 25.8497202238209  17.9296875 23.7350119904077  C 17.9296875 21.6203037569944  18.526611328125 19.6682653876898  19.720458984375 17.878896882494  C 20.914306640625 16.0895283772982  22.55126953125 14.6735611510791  24.63134765625 13.6309952038369  C 26.71142578125 12.5884292565947  28.9892578125 12.0671462829736  31.46484375 12.0671462829736  C 33.8232421875 12.0671462829736  36.04248046875 12.5884292565947  38.12255859375 13.6309952038369  C 40.20263671875 14.6735611510791  41.868896484375 16.0932254196643  43.121337890625 17.8899880095923  Z " fill-rule="nonzero" fill="#555555" stroke="none" transform="matrix(1 0 0 1 955 600 )" />
  </g>
</svg>