<?xml version="1.0" encoding="utf-8"?>
<svg version="1.1" xmlns:xlink="http://www.w3.org/1999/xlink" width="43px" height="35px" xmlns="http://www.w3.org/2000/svg">
  <g transform="matrix(1 0 0 1 -1038 -601 )">
    <path d="M 14.6890686001115 27.9975895316804  C 15.3365867261573 27.7806473829201  15.8362149098345 27.3989898989899  16.1879531511433 26.8526170798898  C 16.5237032905745 26.3062442607897  16.6116378509017 25.7518365472911  16.4517568321249 25.1893939393939  C 16.2918758133482 24.6269513314968  15.9321435211006 24.2252066115702  15.372559955382 23.9841597796143  C 14.8289644915412 23.7591827364555  14.2453987730061 23.7511478420569  13.6218627997769 23.9600550964187  C 12.9983268265477 24.1689623507805  12.5186837702175 24.5385674931129  12.1829336307864 25.068870523416  C 11.8311953894776 25.6152433425161  11.7272727272727 26.1656336088154  11.8711656441718 26.720041322314  C 12.0150585610708 27.2744490358127  12.3588027514408 27.6802112029385  12.9023982152817 27.9373278236915  C 13.4459936791225 28.1944444444444  14.0415504740658 28.2145316804408  14.6890686001115 27.9975895316804  Z M 17.914668153932 24.3818870523416  C 18.154489682097 24.2935032139578  18.3303588027514 24.1448576675849  18.4422755158951 23.9359504132231  C 18.5701803309165 23.7270431588613  18.5981595092025 23.5141184573003  18.5262130507529 23.2971763085399  C 18.4542665923034 23.0802341597796  18.3143707008738 22.9315886134068  18.106525376464 22.8512396694215  C 17.8826919501766 22.7708907254362  17.6548614984198 22.7749081726354  17.4230340211935 22.8632920110193  C 17.1912065439673 22.9516758494031  17.0193344487823 23.1003213957759  16.9074177356386 23.3092286501377  C 16.6356200037182 23.8073921028466  16.739542665923 24.1689623507805  17.2191857222532 24.3939393939394  C 17.4430191485406 24.4742883379247  17.6748466257669 24.4702708907254  17.914668153932 24.3818870523416  Z M 22.5552147239264 21.9232093663912  C 23.3146495631158 23.3775252525252  23.3346346904629 24.9081726354454  22.6151701059677 26.5151515151515  C 21.8957055214724 28.1542699724518  20.6326454731363 29.3595041322314  18.8259899609593 30.1308539944904  C 17.0193344487823 30.9022038567493  15.228667038483 30.9986225895317  13.4539877300614 30.4201101928375  C 11.7432608291504 29.8737373737374  10.5641383156721 28.8573232323232  9.91662018962633 27.370867768595  C 9.26910206358059 25.8844123048668  9.32106339468303 24.3778696051423  10.0725041829336 22.8512396694215  C 10.8239449711842 21.3567493112948  12.0350436884179 20.239898989899  13.7058003346347 19.5006887052342  C 15.3765569808515 18.7614784205693  17.0593047034765 18.6088154269972  18.7540435025098 19.0426997245179  C 20.5287228109314 19.5087235996327  21.7957798847369 20.4688934802571  22.5552147239264 21.9232093663912  Z M 26.919966536531 29.0340909090909  C 29.26222346161 27.1298209366391  30.3214352110058 25.0045913682277  30.0976017847183 22.6584022038567  C 29.9537088678193 21.1157024793388  29.2422383342629 19.7497704315886  27.9631901840491 18.5606060606061  C 26.6841420338353 17.3714416896235  25.0173824130879 16.4956382001837  22.962911321807 15.9331955922865  C 20.9084402305261 15.3707529843893  18.7140732478156 15.2020202020202  16.3798103736754 15.4269972451791  C 12.8144636549545 15.7966023875115  9.86066183305447 16.9335399449036  7.51840490797546 18.8378099173554  C 5.17614798289645 20.7420798898072  4.11693623350065 22.8673094582185  4.34076965978806 25.2134986225895  C 4.48466257668712 26.7561983471074  5.19613311024354 28.1221303948577  6.47518126045733 29.3112947658402  C 7.75422941067113 30.5004591368228  9.42098903141848 31.3762626262626  11.4754601226994 31.9387052341598  C 13.5299312139803 32.5011478420569  15.7242981966908 32.6698806244261  18.058561070831 32.4449035812672  C 21.623907789552 32.0752984389348  24.5777096114519 30.9383608815427  26.919966536531 29.0340909090909  Z M 36.6687116564417 19.9466253443526  C 37.2123071202826 20.7902892561983  37.484104852203 21.7263544536272  37.484104852203 22.7548209366391  C 37.484104852203 23.8475665748393  37.1883249674661 24.9684343434343  36.5967651979922 26.1174242424242  C 36.0052054285183 27.2664141414141  35.1338538761852 28.3671946740129  33.9827105409927 29.4197658402204  C 32.8315672058003 30.4723370064279  31.4845696226064 31.4164370982553  29.941717791411 32.2520661157025  C 28.3988659602157 33.0876951331497  26.5922104480387 33.7545913682277  24.5217512548801 34.2527548209366  C 22.4512920617215 34.7509182736455  20.2889012827663 35  18.0345789180145 35  C 15.7802565532627 35  13.5818925450827 34.7308310376492  11.4394868934746 34.1924931129477  C 9.29708124186652 33.6541551882461  7.37451199107641 32.9069100091827  5.67177914110429 31.9507575757576  C 3.96904629113218 30.9946051423324  2.59806655512177 29.7813360881543  1.55883993307306 28.3109504132231  C 0.519613311024354 26.840564738292  0 25.2376033057851  0 23.5020661157025  C 0 21.6540404040404  0.555586540249117 19.6854912764004  1.66675962074735 17.5964187327824  C 2.77793270124559 15.5073461891644  4.35675776166574 13.4343434343434  6.40323480200781 11.3774104683196  C 9.10522401933445 8.66161616161616  11.835192414947 6.7653810835629  14.5931399888455 5.68870523415978  C 17.351087562744 4.61202938475666  19.3216211191671 4.66827364554637  20.5047406581149 5.85743801652893  C 21.5439672801636 6.88590449954086  21.7038482989403 8.56519742883379  20.9843837144451 10.8953168044077  C 20.9204313069344 11.1202938475666  20.9124372559955 11.2809917355372  20.9604015616286 11.3774104683196  C 21.0083658672616 11.4738292011019  21.0883063766499 11.5300734618916  21.2002230897936 11.5461432506887  C 21.3121398029374 11.5622130394858  21.4280535415505 11.5581955922865  21.547964305633 11.5340909090909  C 21.6678750697156 11.5099862258953  21.7757947573899 11.4818640955005  21.8717233686559 11.4497245179063  L 22.0156162855549 11.4015151515152  C 24.2379624465514 10.4533976124885  26.2044989775051 9.97933884297521  27.9152258784161 9.97933884297521  C 29.625952779327 9.97933884297521  30.849042572969 10.4694674012856  31.5844952593419 11.4497245179063  C 32.3039598438371 12.4621212121212  32.3039598438371 13.8923324150597  31.5844952593419 15.7403581267218  C 31.5525190555865 15.9492653810836  31.5165458263618 16.1099632690542  31.4765755716676 16.2224517906336  C 31.4366053169734 16.334940312213  31.4725785461982 16.4353764921947  31.5844952593419 16.5237603305785  C 31.6964119724856 16.6121441689624  31.7923405837516 16.6724058769513  31.87228109314 16.7045454545455  C 31.9522216025284 16.7366850321396  32.0881204684886 16.7848943985308  32.2799776910206 16.849173553719  C 33.191299498048 17.1384297520661  34.0146867447481 17.5160697887971  34.750139431121 17.9820936639118  C 35.485592117494 18.4481175390266  36.1251161926009 19.1029614325069  36.6687116564417 19.9466253443526  Z M 33.287228109314 6.13464187327824  C 34.2305261200967 6.43193296602387  35.0379252649191 6.95821854912764  35.7094255437814 7.71349862258953  C 36.3809258226436 8.46877869605142  36.8166015988102 9.34056473829201  37.0164528722811 10.3288567493113  C 37.216304145752 11.3171487603306  37.1643428146496 12.2612488521579  36.8605688789738 13.1611570247934  C 36.7326640639524 13.5307621671258  36.4968395612567 13.8039485766759  36.1530953708868 13.9807162534435  C 35.8093511805168 14.1574839302112  35.4536159137386 14.1896235078053  35.0858895705521 14.0771349862259  C 34.7181632273657 13.9485766758494  34.4463654954453 13.7115472910927  34.2704963747909 13.3660468319559  C 34.0946272541365 13.0205463728191  34.0626510503811 12.6629935720845  34.1745677635248 12.2933884297521  C 34.4943298010783 11.2809917355372  34.3024725785462 10.3891184573003  33.5989960959286 9.61776859504132  C 32.895519613311 8.84641873278237  32.0401561628556 8.56519742883379  31.0329057445622 8.77410468319559  C 30.649191299498 8.8544536271809  30.2894590072504 8.79017447199265  29.9537088678193 8.58126721763086  C 29.6179587283882 8.37235996326905  29.4181074549173 8.07506887052342  29.3541550474066 7.68939393939394  C 29.2742145380182 7.30371900826446  29.3381669455289 6.94616620752984  29.5460122699387 6.61673553719008  C 29.7538575943484 6.28730486685032  30.0496374790853 6.08241505968778  30.4333519241495 6.00206611570248  C 31.3926380368098 5.79315886134068  32.3439300985313 5.83735078053259  33.287228109314 6.13464187327824  Z M 35.0619074177356 0.542355371900826  C 36.996467744934 1.14497245179063  38.6592303402119 2.22566574839302  40.0501952035694 3.78443526170799  C 41.4411600669269 5.32713498622589  42.340490797546 7.11489898989899  42.7481873954267 9.14772727272727  C 43.1558839933073 11.1805555555556  43.047964305633 13.1209825528007  42.4244283324038 14.9690082644628  C 42.2805354155047 15.4028925619835  42.0087376835843 15.7242883379247  41.6090351366425 15.9331955922865  C 41.2093325897007 16.1421028466483  40.7936419408812 16.1742424242424  40.361963190184 16.0296143250689  C 39.9302844394869 15.8849862258953  39.6105224019335 15.6117998163453  39.4026770775237 15.2100550964187  C 39.194831753114 14.8083103764922  39.1548614984198 14.3904958677686  39.2827663134412 13.9566115702479  C 39.730433166016 12.6388888888889  39.8103736754044 11.2568870523416  39.5225878416062 9.81060606060606  C 39.2348020078081 8.36432506887052  38.5952779327013 7.09481175390266  37.6040156162856 6.00206611570248  C 36.6127532998699 4.89325068870523  35.4296337609221 4.12591827364554  34.0546569994423 3.70006887052342  C 32.6796802379624 3.27421946740128  31.2967094255438 3.20592286501377  29.9057445621863 3.49517906336088  C 29.4580777096115 3.59159779614325  29.042387060792 3.51526629935721  28.6586726157278 3.26618457300275  C 28.2749581706637 3.0171028466483  28.0351366424986 2.66758494031221  27.9392080312326 2.21763085399449  C 27.8432794199665 1.76767676767677  27.9192229038855 1.35387970615243  28.1670384829894 0.976239669421489  C 28.4148540620933 0.598599632690542  28.7625952779327 0.361570247933885  29.2102621305075 0.265151515151515  C 31.1767986614612 -0.15266299357209  33.1273470905373 -0.0602617079889789  35.0619074177356 0.542355371900826  Z " fill-rule="nonzero" fill="#555555" stroke="none" transform="matrix(1 0 0 1 1038 601 )" />
  </g>
</svg>