<svg width="156" height="170" viewBox="0 0 156 170" fill="none" xmlns="http://www.w3.org/2000/svg">
<g filter="url(#filter0_d)">
<path d="M55.7313 13.5559C63.8487 8.86919 67.9077 6.52584 72.2225 5.60867C76.0408 4.79711 79.9865 4.79711 83.8048 5.60867C88.1196 6.52584 92.1786 8.86919 100.296 13.5559L128.745 29.9807C136.862 34.6676 140.921 37.0107 143.873 40.289C146.485 43.19 148.458 46.6072 149.664 50.3193C151.027 54.515 151.027 59.2019 151.027 68.5752V101.425C151.027 110.798 151.027 115.485 149.664 119.681C148.458 123.393 146.485 126.81 143.873 129.711C140.921 132.989 136.862 135.332 128.745 140.019L100.296 156.444C92.1786 161.131 88.1196 163.474 83.8048 164.391C79.9865 165.203 76.0408 165.203 72.2225 164.391C67.9077 163.474 63.8487 161.131 55.7313 156.444L27.2823 140.019C19.1648 135.332 15.1061 132.989 12.1542 129.711C9.54238 126.81 7.56941 123.393 6.36322 119.681C5 115.485 5 110.798 5 101.425V68.5752C5 59.2019 5 54.515 6.36322 50.3193C7.56941 46.6072 9.54238 43.19 12.1542 40.289C15.1061 37.0107 19.1648 34.6676 27.2823 29.9807L55.7313 13.5559Z" fill="url(#paint0_linear)"/>
</g>
<mask id="mask0" mask-type="alpha" maskUnits="userSpaceOnUse" x="47" y="33" width="65" height="105">
<path d="M111.828 33.3357H47.251V137.376H111.828V33.3357Z" fill="white"/>
<path fill-rule="evenodd" clip-rule="evenodd" d="M105.917 103.918C105.917 92.4305 97.8148 87.4911 87.81 83.7621L80.0805 81.1737L77.1243 80.0701V80.0827C67.6857 76.8223 60.7562 73.4495 60.7562 64.5677C60.7562 58.1886 65.0735 53.0651 71.9262 50.9337C72.0611 50.8766 74.6378 49.8158 79.7856 49.8158C85.0763 49.8158 89.0553 51.5619 89.0553 51.5619L89.0524 51.6763C92.9493 53.3248 95.918 56.0744 97.8715 59.8424C98.2425 60.5585 99.1203 60.8757 99.835 60.5018L102.74 58.9832C103.385 58.646 103.663 57.8628 103.333 57.2134C99.4231 49.5137 91.732 45.1817 82.7393 44.2177V38.3078C82.7393 37.5433 82.1197 36.9233 81.3548 36.9233H78.5088C77.7439 36.9233 77.1243 37.5433 77.1243 38.3078V44.2177C64.4601 45.0048 54.4241 52.8749 54.4241 64.5677C54.4241 76.6888 63.0537 81.2429 73.7387 85.0016L80.6621 87.1808L82.7393 87.9532V87.9528C92.5363 91.2132 99.4658 94.9235 99.4658 103.918C99.4658 110.256 95.8043 115.422 89.0542 117.905V117.909C89.0542 117.909 85.0752 119.656 79.7845 119.656C78.677 119.656 77.6883 119.607 76.8176 119.529C66.5994 118.938 59.6616 114.791 56.5731 107.891C56.2261 107.117 55.3012 106.751 54.5521 107.149L51.5619 108.74C50.9448 109.068 50.665 109.807 50.9505 110.446C54.9669 119.43 64.5027 124.739 77.1243 125.279V132.018C77.1243 132.783 77.7439 133.403 78.5088 133.403H81.3548C82.1197 133.403 82.7393 132.783 82.7393 132.018V125.167C96.3597 123.93 105.917 115.723 105.917 103.918Z" fill="black"/>
</mask>
<g mask="url(#mask0)">
<path fill-rule="evenodd" clip-rule="evenodd" d="M106 103.662C106 92.2313 97.909 87.3164 87.9186 83.606L80.2002 81.0304L77.2482 79.9323V79.9448C67.8231 76.7006 60.9036 73.3447 60.9036 64.507C60.9036 58.1595 65.2147 53.0615 72.0576 50.9407C72.1923 50.8839 74.7652 49.8284 79.9057 49.8284C85.1888 49.8284 89.1621 51.5658 89.1621 51.5658L89.1592 51.6797C93.0505 53.32 96.015 56.0558 97.9656 59.8052C98.336 60.5177 99.2127 60.8333 99.9263 60.4613L102.827 58.9502C103.471 58.6147 103.748 57.8354 103.419 57.1893C99.515 49.5278 91.8349 45.2173 82.8551 44.2581V38.3776C82.8551 37.6169 82.2365 37 81.4727 37H78.6307C77.8669 37 77.2482 37.6169 77.2482 38.3776V44.2581C64.6021 45.0413 54.5805 52.8723 54.5805 64.507C54.5805 76.5678 63.1978 81.0993 73.8675 84.8394L80.7809 87.0076L82.8551 87.7762V87.7759C92.6381 91.0201 99.5577 94.7119 99.5577 103.662C99.5577 109.968 95.9014 115.108 89.161 117.58V117.584C89.161 117.584 85.1877 119.321 79.9046 119.321C78.7987 119.321 77.8114 119.272 76.9419 119.195C66.7384 118.607 59.8106 114.481 56.7264 107.615C56.38 106.845 55.4565 106.48 54.7084 106.877L51.7225 108.46C51.1063 108.786 50.8268 109.522 51.112 110.157C55.1226 119.096 64.6448 124.38 77.2482 124.917V131.622C77.2482 132.383 77.8669 133 78.6307 133H81.4727C82.2365 133 82.8551 132.383 82.8551 131.622V124.805C96.456 123.575 106 115.408 106 103.662Z" fill="white"/>
<path d="M82.7379 86.6033L82.73 86.6008L81.9656 89.0013L81.9739 89.0038L82.7379 86.6033ZM77.5376 78.8329L77.1533 78.7013L76.3463 81.0878L76.7306 81.2194L77.5376 78.8329ZM76.75 45.1119H82.3557V42.591H76.75V45.1119ZM87.4181 83.5921L88.2924 81.2298L88.253 81.215L88.2132 81.2017L87.4181 83.5921ZM79.7013 80.9908L78.8252 83.3527L78.8653 83.3675L78.9062 83.3812L79.7013 80.9908ZM76.75 79.8818L77.6257 77.5202L74.2456 76.2497V79.8818H76.75ZM76.75 79.8944L75.9323 82.2772L79.2539 83.4324V79.8944H76.75ZM71.5604 50.6008L72.304 53.0077L72.4222 52.971L72.5361 52.9223L71.5604 50.6008ZM88.6613 51.2321L91.1645 51.2998L91.21 49.6053L89.6677 48.9239L88.6613 51.2321ZM88.6584 51.3471L86.1548 51.2793L86.109 52.9987L87.6828 53.6686L88.6584 51.3471ZM97.463 59.5537L99.6861 58.3935L97.463 59.5537ZM99.4232 60.2164L98.2628 57.9825L99.4232 60.2164ZM102.323 58.6902L103.484 60.9241L102.323 58.6902ZM102.915 56.9117L105.148 55.7706L102.915 56.9117ZM82.3557 43.8514H79.8517V46.1163L82.0889 46.3579L82.3557 43.8514ZM76.75 43.8514L76.9051 46.3676L79.2539 46.2205V43.8514H76.75ZM73.3699 84.8377L72.5386 87.2159L72.578 87.2299L72.6181 87.2426L73.3699 84.8377ZM80.2819 87.0277L81.1547 84.6651L81.0946 84.6423L81.0337 84.6232L80.2819 87.0277ZM82.3557 87.8039L81.4828 90.1669L84.86 91.431V87.8039H82.3557ZM82.3557 87.8036L83.1465 85.4117L79.8517 84.3081V87.8036H82.3557ZM88.6602 117.905L87.7952 115.539L86.1011 116.167L86.157 117.983L88.6602 117.905ZM88.6602 117.909L89.6667 120.217L91.2158 119.533L91.1631 117.831L88.6602 117.909ZM76.4437 119.536L76.6661 117.025L76.6271 117.022L76.5881 117.02L76.4437 119.536ZM56.2325 107.841L53.9467 108.871L56.2325 107.841ZM54.2149 107.095L53.0387 104.87L54.2149 107.095ZM51.2296 108.694L52.4058 110.919L51.2296 108.694ZM50.6193 110.408L52.9051 109.379L50.6193 110.408ZM76.75 125.315H79.2539V122.9L76.8567 122.797L76.75 125.315ZM82.3557 125.203L82.1293 122.692L79.8517 122.9V125.203H82.3557ZM86.5434 85.954C91.4633 87.8 95.5826 89.8334 98.4705 92.6168C101.252 95.2974 102.991 98.7683 102.991 103.848H108C108 97.3831 105.695 92.5998 101.934 88.9753C98.2807 85.4539 93.3608 83.1317 88.2924 81.2298L86.5434 85.954ZM78.9062 83.3812L86.6229 85.9825L88.2132 81.2017L80.4961 78.6004L78.9062 83.3812ZM75.8739 82.2433L78.8252 83.3527L80.577 78.6292L77.6257 77.5202L75.8739 82.2433ZM79.2539 79.8944V79.8818H74.2456V79.8944H79.2539ZM57.9045 64.3024C57.9045 69.5746 60.0137 73.3556 63.4686 76.175C66.7566 78.8582 71.232 80.6429 75.9323 82.2772L77.5673 77.5119C72.8448 75.8696 69.1496 74.3208 66.6227 72.2588C64.2627 70.3328 62.9131 67.9558 62.9131 64.3024H57.9045ZM70.8169 48.1938C63.1563 50.5921 57.9045 56.5645 57.9045 64.3024H62.9131C62.9131 59.2184 66.2813 54.8934 72.304 53.0077L70.8169 48.1938ZM79.4069 46.9564C73.9132 46.9564 71.0103 48.0979 70.5848 48.2792L72.5361 52.9223C72.3803 52.9886 74.6217 51.9982 79.4069 51.9982V46.9564ZM88.6613 51.2321C89.6677 48.9239 89.667 48.9235 89.6667 48.9235C89.6663 48.9232 89.6656 48.9232 89.6652 48.9228C89.6645 48.9224 89.6634 48.9221 89.6627 48.9217C89.6606 48.9206 89.6584 48.9199 89.6559 48.9188C89.6509 48.9167 89.6452 48.9141 89.6384 48.9109C89.6248 48.9051 89.6069 48.8976 89.5857 48.8885C89.5427 48.8705 89.4847 48.8464 89.412 48.8168C89.2666 48.7584 89.0624 48.6787 88.8049 48.5857C88.2899 48.3997 87.5585 48.1574 86.653 47.9173C84.8493 47.4385 82.3159 46.9564 79.4069 46.9564V51.9982C81.7801 51.9982 83.8736 52.3937 85.3765 52.7921C86.1244 52.9908 86.7164 53.1876 87.1115 53.3304C87.3088 53.4018 87.4564 53.4595 87.5488 53.4966C87.595 53.5154 87.6272 53.5287 87.6455 53.5363C87.6545 53.5403 87.6595 53.5424 87.6613 53.5431C87.662 53.5435 87.662 53.5435 87.6609 53.5431C87.6606 53.5428 87.6598 53.5424 87.6588 53.5421C87.6584 53.5421 87.6577 53.5417 87.657 53.5413C87.6566 53.5413 87.6563 53.541 87.6563 53.541C87.6555 53.5406 87.6552 53.5406 88.6613 51.2321ZM91.1617 51.4149L91.1645 51.2998L86.158 51.1643L86.1548 51.2793L91.1617 51.4149ZM99.6861 58.3935C97.4683 54.0872 94.0643 50.9123 89.6341 49.0256L87.6828 53.6686C91.0335 55.0956 93.5571 57.4471 95.2398 60.7139L99.6861 58.3935ZM98.2628 57.9825C98.8846 57.6555 99.4755 57.9843 99.6861 58.3935L95.2398 60.7139C96.1915 62.5621 98.5346 63.5287 100.583 62.4507L98.2628 57.9825ZM101.163 56.4563L98.2628 57.9825L100.583 62.4507L103.484 60.9241L101.163 56.4563ZM100.683 58.0531C100.351 57.3955 100.672 56.7148 101.163 56.4563L103.484 60.9241C105.264 59.9874 106.138 57.733 105.148 55.7706L100.683 58.0531ZM82.0889 46.3579C90.4389 47.2589 97.2513 51.2512 100.683 58.0531L105.148 55.7706C100.773 47.0963 92.2283 42.3815 82.6229 41.3449L82.0889 46.3579ZM79.8517 37.9122V43.8514H84.86V37.9122H79.8517ZM80.9735 39.0418C80.3539 39.0418 79.8517 38.536 79.8517 37.9122H84.86C84.86 35.7519 83.12 34 80.9735 34V39.0418ZM78.1321 39.0418H80.9735V34H78.1321V39.0418ZM79.2539 37.9122C79.2539 38.536 78.7518 39.0418 78.1321 39.0418V34C75.9856 34 74.2456 35.7519 74.2456 37.9122H79.2539ZM79.2539 43.8514V37.9122H74.2456V43.8514H79.2539ZM56.5914 64.3024C56.5914 54.3392 65.0757 47.1075 76.9051 46.3676L76.5945 41.3356C63.137 42.1774 51.5827 50.7637 51.5827 64.3024H56.5914ZM74.2009 82.46C68.8942 80.5808 64.4876 78.6242 61.3973 75.8423C58.4453 73.1851 56.5914 69.6806 56.5914 64.3024H51.5827C51.5827 71.1051 54.0366 75.98 58.0588 79.6005C61.9432 83.0971 67.1778 85.3173 72.5386 87.2159L74.2009 82.46ZM72.6181 87.2426L79.5301 89.4321L81.0337 84.6232L74.1217 82.4333L72.6181 87.2426ZM79.409 89.3903L81.4828 90.1669L83.2285 85.4413L81.1547 84.6651L79.409 89.3903ZM79.8517 87.8036V87.8039H84.86V87.8036H79.8517ZM101.559 103.848C101.559 98.5387 99.4669 94.6506 95.9744 91.7266C92.6327 88.9292 88.0628 87.0587 83.1465 85.4117L81.5652 90.1954C86.4295 91.825 90.2089 93.4576 92.7717 95.6028C95.1836 97.6222 96.5504 100.118 96.5504 103.848H101.559ZM89.5248 120.271C97.1532 117.445 101.559 111.372 101.559 103.848H96.5504C96.5504 109.061 93.6449 113.372 87.7952 115.539L89.5248 120.271ZM86.157 117.983L86.1573 117.987L91.1631 117.831V117.827L86.157 117.983ZM88.6602 117.909C87.6538 115.601 87.6545 115.6 87.6548 115.6C87.6552 115.6 87.6555 115.6 87.6559 115.599C87.6566 115.599 87.657 115.599 87.6577 115.599C87.6588 115.598 87.6595 115.598 87.6598 115.598C87.6609 115.597 87.6609 115.597 87.6602 115.598C87.6584 115.598 87.653 115.601 87.6441 115.605C87.6262 115.612 87.5939 115.626 87.5477 115.645C87.455 115.682 87.3078 115.739 87.1104 115.811C86.7153 115.954 86.1233 116.15 85.3754 116.349C83.8725 116.747 81.7787 117.143 79.4058 117.143V122.184C82.3145 122.184 84.8478 121.702 86.652 121.224C87.5574 120.983 88.2888 120.742 88.8035 120.555C89.0614 120.462 89.2655 120.383 89.4109 120.324C89.4837 120.295 89.5417 120.271 89.5847 120.253C89.6058 120.244 89.6233 120.236 89.6373 120.23C89.6441 120.227 89.6498 120.225 89.6549 120.222C89.6574 120.221 89.6595 120.22 89.6613 120.219C89.6624 120.219 89.6634 120.219 89.6642 120.218C89.6645 120.218 89.6652 120.218 89.6656 120.218C89.666 120.217 89.6667 120.217 88.6602 117.909ZM79.4058 117.143C78.3743 117.143 77.4613 117.097 76.6661 117.025L76.2213 122.047C77.1647 122.132 78.226 122.184 79.4058 122.184V117.143ZM53.9467 108.871C57.5287 116.925 65.4866 121.423 76.299 122.053L76.5881 117.02C66.998 116.461 61.1036 112.625 58.518 106.811L53.9467 108.871ZM55.3908 109.321C54.7339 109.673 54.1336 109.291 53.9467 108.871L58.518 106.811C57.6387 104.834 55.1917 103.717 53.0387 104.87L55.3908 109.321ZM52.4058 110.919L55.3908 109.321L53.0387 104.87L50.0537 106.468L52.4058 110.919ZM52.9051 109.379C53.1924 110.026 52.8757 110.668 52.4058 110.919L50.0537 106.468C48.3517 107.38 47.4763 109.508 48.3331 111.437L52.9051 109.379ZM76.8567 122.797C64.8576 122.28 56.4041 117.257 52.9051 109.379L48.3331 111.437C52.8542 121.617 63.441 127.266 76.6429 127.834L76.8567 122.797ZM79.2539 132.088V125.315H74.2456V132.088H79.2539ZM78.1321 130.958C78.7518 130.958 79.2539 131.464 79.2539 132.088H74.2456C74.2456 134.248 75.9856 136 78.1321 136V130.958ZM80.9735 130.958H78.1321V136H80.9735V130.958ZM79.8517 132.088C79.8517 131.464 80.3539 130.958 80.9735 130.958V136C83.12 136 84.86 134.248 84.86 132.088H79.8517ZM79.8517 125.203V132.088H84.86V125.203H79.8517ZM102.991 103.848C102.991 113.986 94.901 121.525 82.1293 122.692L82.5824 127.713C97.006 126.394 108 117.437 108 103.848H102.991Z" fill="white"/>
</g>
<defs>
<filter id="filter0_d" x="0.69718" y="0.69718" width="154.633" height="168.606" filterUnits="userSpaceOnUse" color-interpolation-filters="sRGB">
<feFlood flood-opacity="0" result="BackgroundImageFix"/>
<feColorMatrix in="SourceAlpha" type="matrix" values="0 0 0 0 0 0 0 0 0 0 0 0 0 0 0 0 0 0 127 0"/>
<feOffset/>
<feGaussianBlur stdDeviation="2.15141"/>
<feColorMatrix type="matrix" values="0 0 0 0 0.180392 0 0 0 0 0.8 0 0 0 0 0.741176 0 0 0 0.35 0"/>
<feBlend mode="normal" in2="BackgroundImageFix" result="effect1_dropShadow"/>
<feBlend mode="normal" in="SourceGraphic" in2="effect1_dropShadow" result="shape"/>
</filter>
<linearGradient id="paint0_linear" x1="4.86564" y1="25.5443" x2="143.614" y2="155.3" gradientUnits="userSpaceOnUse">
<stop stop-color="#3BCCD1"/>
<stop offset="1" stop-color="#12CB92"/>
</linearGradient>
</defs>
</svg>
