<svg width="42" height="38" viewBox="0 0 42 38" fill="none" xmlns="http://www.w3.org/2000/svg">
<path d="M14.04 35.86C13.3138 36.67 12.2962 37.1591 11.21 37.22H1.75C0.75 37.22 0.490027 36.61 1.09003 35.86L28.57 1.35999C29.3022 0.570869 30.3147 0.100505 31.39 0.0499878H40.85C41.85 0.0499878 42.11 0.659973 41.51 1.40997L14.04 35.86ZM10.81 18.95C10.7523 20.0652 10.3699 21.1392 9.71002 22.04L1.11002 32.54C0.500016 33.28 0 33.1 0 32.14V1.75C0.0026251 1.28668 0.187851 0.843063 0.515472 0.515442C0.843094 0.187821 1.28668 0.0026251 1.75 0H9.07001C9.53148 0 9.97407 0.1833 10.3004 0.509613C10.6267 0.835926 10.81 1.27851 10.81 1.73999V18.95ZM40.81 35.74C41.31 36.56 40.93 37.23 39.97 37.23H30.97C30.4406 37.1986 29.9246 37.0516 29.4581 36.7994C28.9916 36.5472 28.5861 36.1958 28.27 35.77L23.92 29.14C23.6657 28.7062 23.5427 28.208 23.5657 27.7057C23.5888 27.2034 23.757 26.7186 24.05 26.31L29.15 19.84C29.2586 19.6659 29.412 19.5243 29.5943 19.4302C29.7766 19.336 29.9809 19.2928 30.1857 19.3051C30.3905 19.3174 30.5882 19.3847 30.7579 19.5C30.9276 19.6152 31.0631 19.7742 31.15 19.96L40.81 35.74Z" fill="url(#paint0_linear)"/>
<defs>
<linearGradient id="paint0_linear" x1="0" y1="18.61" x2="41.83" y2="18.61" gradientUnits="userSpaceOnUse">
<stop stop-color="#9D3ADF"/>
<stop offset="0.21" stop-color="#8542D8"/>
<stop offset="0.64" stop-color="#4857C6"/>
<stop offset="1" stop-color="#106AB6"/>
</linearGradient>
</defs>
</svg>
