<svg width="200" height="186" viewBox="0 0 200 186" fill="none" xmlns="http://www.w3.org/2000/svg">
<path d="M92.6299 181.538C141.198 181.538 180.57 142.166 180.57 93.598C180.57 45.03 141.198 5.65796 92.6299 5.65796C44.062 5.65796 4.68994 45.03 4.68994 93.598C4.68994 142.166 44.062 181.538 92.6299 181.538Z" fill="#EFEFEF"/>
<path d="M28.0497 153.888C22.6809 148.689 18.1714 142.671 14.6897 136.058C-1.5503 105.148 -1.1003 74.398 17.4897 44.828C32.8997 20.458 55.6997 7.20801 84.4197 4.38801C119.34 0.968009 154.67 20.438 170.42 51.668C170.85 52.508 171.21 53.398 171.6 54.248C170.43 54.578 170.6 55.678 170.46 56.468C169.41 60.948 168.1 65.348 166.62 69.698C162.702 81.3808 157.001 92.3875 149.72 102.328C149 103.328 148.84 103.778 150.19 104.328C152.302 105.235 153.988 106.917 154.9 109.028C155.963 111.24 156.119 113.779 155.337 116.105C154.554 118.431 152.894 120.359 150.71 121.478C146.43 123.708 141.14 123.058 138.14 118.278C137.14 116.738 136.59 117.008 135.5 118.028C133.58 119.818 131.57 121.518 129.5 123.178C121.114 129.92 111.87 135.519 102.01 139.828C101.436 140.027 100.943 140.406 100.604 140.909C100.265 141.412 100.098 142.012 100.13 142.618C99.9061 146.087 98.6325 149.406 96.4779 152.134C94.3234 154.861 91.39 156.869 88.0672 157.89C84.7445 158.912 81.1897 158.898 77.8751 157.851C74.5604 156.803 71.6428 154.773 69.5097 152.028C69.1832 151.51 68.6927 151.116 68.1163 150.91C67.5399 150.703 66.9109 150.695 66.3297 150.888C59.6404 152.122 52.8861 152.974 46.0997 153.438C40.0897 153.908 34.0697 153.968 28.0497 153.888ZM98.6797 138.888C98.3882 136.846 97.6965 134.883 96.6445 133.109C95.5924 131.335 94.2005 129.787 92.5487 128.552C90.8969 127.317 89.0176 126.421 87.0186 125.914C85.0196 125.407 82.9403 125.3 80.8997 125.598L80.4597 125.678C71.9197 127.048 65.7897 135.238 67.2297 143.678C68.7597 152.678 76.3397 158.508 85.5297 157.098C89.6511 156.469 93.354 154.229 95.8239 150.871C98.2937 147.512 99.3282 143.309 98.6997 139.188C98.6997 139.108 98.6997 139.028 98.6997 138.948L98.6797 138.888ZM31.5897 108.668C31.8095 110.121 32.3135 111.516 33.0728 112.774C33.8322 114.032 34.8321 115.128 36.0154 115.999C37.1986 116.87 38.5419 117.499 39.9686 117.851C41.3952 118.203 42.8772 118.27 44.3297 118.048H44.5297C47.52 117.545 50.1882 115.876 51.9473 113.406C53.7064 110.936 54.4123 107.868 53.9097 104.878C53.4071 101.888 51.7372 99.2195 49.2674 97.4604C46.7975 95.7013 43.73 94.9954 40.7397 95.498C39.2798 95.753 37.8845 96.2931 36.6335 97.0875C35.3824 97.8819 34.3002 98.9151 33.4486 100.128C32.597 101.341 31.9927 102.71 31.6703 104.156C31.3479 105.602 31.3137 107.098 31.5697 108.558C31.579 108.594 31.5857 108.631 31.5897 108.668V108.668ZM67.3497 20.028C67.5982 22.169 68.6847 24.1244 70.3714 25.4662C72.0581 26.8081 74.2076 27.4272 76.3497 27.188L76.7897 27.128C78.9789 26.8674 80.9755 25.7495 82.342 24.0194C83.7085 22.2893 84.3334 20.088 84.0797 17.898L84.0197 17.528C83.864 16.4338 83.4942 15.3811 82.9313 14.43C82.3685 13.4788 81.6237 12.6479 80.7396 11.9848C79.8554 11.3217 78.8492 10.8394 77.7786 10.5654C76.7079 10.2914 75.5937 10.2311 74.4997 10.388H74.2897C72.1192 10.7071 70.1637 11.8735 68.8517 13.6317C67.5396 15.3899 66.9779 17.5965 67.2897 19.768L67.3497 20.028ZM154.27 111.828C153.85 107.828 150.27 104.098 144.7 104.828C140.27 105.428 137.19 110.008 137.95 114.488C138.348 116.622 139.551 118.521 141.309 119.794C143.068 121.067 145.248 121.616 147.4 121.328C152.07 120.598 155.32 115.828 154.27 111.828ZM87.3197 81.738C89.2178 81.7274 91.0343 80.9646 92.3708 79.6168C93.7074 78.269 94.455 76.4462 94.4497 74.5481C94.4444 72.65 93.6866 70.8314 92.3426 69.4911C90.9985 68.1508 89.1778 67.3981 87.2797 67.3981C85.3816 67.3981 83.5609 68.1508 82.2168 69.4911C80.8728 70.8314 80.115 72.65 80.1097 74.5481C80.1044 76.4462 80.852 78.269 82.1886 79.6168C83.5251 80.9646 85.3416 81.7274 87.2397 81.738H87.3197ZM38.2497 147.828C40.8097 147.438 42.8397 144.828 42.4497 142.528C42.2069 141.268 41.5044 140.144 40.4787 139.373C39.4529 138.602 38.1773 138.241 36.8997 138.358C36.2826 138.459 35.6916 138.68 35.1603 139.01C34.6291 139.34 34.1681 139.771 33.8039 140.279C33.4398 140.787 33.1795 141.362 33.038 141.971C32.8966 142.58 32.8768 143.211 32.9797 143.828V143.828C33.0961 145.002 33.6728 146.082 34.5837 146.832C35.4945 147.581 36.6653 147.94 37.8397 147.828C37.9761 147.839 38.1133 147.839 38.2497 147.828ZM55.5497 54.668C54.8243 54.8006 54.1814 55.2159 53.7622 55.8226C53.3431 56.4293 53.1821 57.1776 53.3147 57.903C53.4473 58.6284 53.8626 59.2714 54.4693 59.6905C55.076 60.1096 55.8243 60.2706 56.5497 60.138C56.9163 60.0708 57.2659 59.9316 57.5784 59.7284C57.8908 59.5253 58.1599 59.2622 58.3701 58.9544C58.5802 58.6466 58.7273 58.3002 58.8027 57.9352C58.8782 57.5702 58.8806 57.1939 58.8097 56.828V56.828C58.6088 56.1451 58.1715 55.5559 57.5762 55.1657C56.9808 54.7755 56.2661 54.6097 55.5597 54.698L55.5497 54.668ZM113.6 44.928C113.673 45.5219 113.975 46.0637 114.442 46.4375C114.909 46.8113 115.504 46.9873 116.1 46.928C116.378 46.9306 116.654 46.8784 116.913 46.7743C117.171 46.6702 117.406 46.5163 117.605 46.3212C117.803 46.1262 117.962 45.894 118.071 45.6378C118.18 45.3816 118.237 45.1064 118.24 44.828C118.254 44.6951 118.254 44.561 118.24 44.428C118.181 43.83 117.891 43.2786 117.431 42.8918C116.972 42.505 116.379 42.3134 115.78 42.358C115.165 42.4459 114.604 42.7559 114.202 43.2294C113.8 43.7029 113.586 44.3072 113.6 44.928V44.928ZM134.71 56.418C134.762 56.6853 134.867 56.9395 135.019 57.1659C135.17 57.3924 135.365 57.5865 135.592 57.7372C135.819 57.8878 136.073 57.992 136.341 58.0436C136.608 58.0953 136.883 58.0934 137.15 58.038H137.24C137.821 57.9847 138.358 57.7034 138.733 57.2555C139.107 56.8077 139.29 56.2298 139.24 55.648V55.408C139.139 54.8139 138.809 54.283 138.321 53.9295C137.833 53.5761 137.226 53.4283 136.63 53.518C135.29 53.558 134.46 54.828 134.71 56.418ZM9.9997 95.748C9.79736 95.7951 9.6063 95.8816 9.43745 96.0027C9.26859 96.1237 9.12526 96.2768 9.01566 96.4533C8.90606 96.6298 8.83233 96.8261 8.79871 97.0311C8.76508 97.2361 8.77222 97.4458 8.8197 97.648V97.648C8.84398 97.8729 8.91983 98.0891 9.04134 98.2799C9.16285 98.4707 9.32675 98.6308 9.52027 98.7479C9.7138 98.865 9.93173 98.9359 10.1571 98.9549C10.3825 98.974 10.6092 98.9409 10.8197 98.858C11.0234 98.8183 11.2162 98.7351 11.3848 98.6139C11.5533 98.4928 11.6937 98.3366 11.7963 98.1562C11.8989 97.9757 11.9612 97.7752 11.9791 97.5684C11.9969 97.3616 11.9698 97.1534 11.8997 96.958C11.8381 96.5658 11.6236 96.2139 11.303 95.9796C10.9825 95.7453 10.5821 95.6476 10.1897 95.708L9.9997 95.748ZM22.8997 54.748C23.0897 55.458 23.5097 55.948 24.2797 55.808C24.423 55.7967 24.5627 55.7571 24.6906 55.6915C24.8186 55.626 24.9323 55.5358 25.0253 55.4261C25.1182 55.3164 25.1885 55.1895 25.2322 55.0525C25.2759 54.9155 25.292 54.7712 25.2797 54.628V54.528C25.2708 54.3651 25.2298 54.2055 25.159 54.0585C25.0883 53.9114 24.9893 53.7798 24.8676 53.6711C24.7459 53.5624 24.6039 53.4788 24.4498 53.4251C24.2958 53.3713 24.1326 53.3486 23.9697 53.358H23.8997C23.1197 53.398 22.8997 53.998 22.8997 54.718V54.748Z" fill="black"/>
<path d="M154.9 29.438L109.35 74.998L108.99 107.298L154.9 153.178" stroke="#7533E2" stroke-width="20.45" stroke-miterlimit="10"/>
<path d="M93.0098 180.438C141.335 180.438 180.51 141.263 180.51 92.938C180.51 44.6131 141.335 5.43799 93.0098 5.43799C44.6848 5.43799 5.50977 44.6131 5.50977 92.938C5.50977 141.263 44.6848 180.438 93.0098 180.438Z" stroke="black" stroke-width="9.23" stroke-miterlimit="10"/>
<path d="M146.3 115.398C147.42 114.398 148.02 114.068 149.01 115.668C152.1 120.578 157.54 121.248 161.93 118.958C164.175 117.805 165.882 115.821 166.687 113.429C167.492 111.036 167.331 108.424 166.24 106.148C165.305 103.974 163.568 102.244 161.39 101.318C160 100.718 160.17 100.218 160.9 99.2181C168.381 88.9984 174.24 77.6852 178.27 65.6781C179.79 61.2081 181.14 56.6781 182.22 52.0781C182.41 51.2681 182.22 50.1481 183.4 49.8081C183 48.9181 182.62 48.0281 182.19 47.1481C181.76 46.2681 181.19 45.1481 180.65 44.2381L163.26 27.8281L117.72 73.3481L117.36 105.668L135.79 124.078C137.28 122.998 138.79 121.878 140.18 120.708C142.26 118.998 144.32 117.248 146.3 115.398ZM145.48 52.0381C145.22 50.3781 146.06 49.0981 147.43 49.0381C148.043 48.9458 148.668 49.0986 149.17 49.4635C149.671 49.8284 150.009 50.3761 150.11 50.9881C150.17 51.2804 150.171 51.5816 150.113 51.8744C150.056 52.1671 149.941 52.4457 149.776 52.6939C149.611 52.9421 149.398 53.1551 149.149 53.3206C148.901 53.4861 148.623 53.6008 148.33 53.6581C148.257 53.6685 148.183 53.6685 148.11 53.6581C147.838 53.7287 147.555 53.7447 147.277 53.7054C146.999 53.6661 146.731 53.5722 146.489 53.429C146.248 53.2859 146.037 53.0964 145.869 52.8714C145.701 52.6464 145.579 52.3904 145.51 52.1181C145.504 52.0817 145.504 52.0446 145.51 52.0081L145.48 52.0381ZM155.76 101.828C161.44 101.068 165.18 104.828 165.6 109.028C166.68 113.128 163.34 118.028 158.54 118.798C156.333 119.091 154.097 118.529 152.29 117.228C150.483 115.927 149.242 113.984 148.82 111.798C148.04 107.168 151.21 102.458 155.76 101.828Z" fill="black"/>
<path d="M188.69 63.0881C187.465 58.4719 185.689 54.0198 183.4 49.8281C182.21 50.1681 182.4 51.3081 182.23 52.1081C181.15 56.7181 179.8 61.2381 178.23 65.7081C174.207 77.7015 168.362 89.0039 160.9 99.2181C160.16 100.218 160.01 100.718 161.4 101.318C163.573 102.25 165.308 103.978 166.25 106.148C167.333 108.43 167.485 111.044 166.673 113.435C165.861 115.827 164.148 117.808 161.9 118.958C157.5 121.248 152.06 120.578 148.98 115.668C147.98 114.078 147.39 114.358 146.27 115.398C144.27 117.238 142.27 118.988 140.14 120.708C138.7 121.878 137.22 122.998 135.74 124.078L166.07 154.388L182.35 136.478C183.59 134.268 182.98 129.748 184.08 127.388C193.83 106.638 195.07 85.0681 188.69 63.0881Z" fill="#EFEFEF"/>
<path d="M158.54 118.828C163.33 118.038 166.68 113.168 165.6 109.058C165.17 104.918 161.45 101.058 155.76 101.868C151.21 102.488 148.04 107.188 148.82 111.788C149.231 113.983 150.468 115.937 152.276 117.246C154.084 118.556 156.326 119.122 158.54 118.828Z" fill="#EFEFEF"/>
<path d="M150.119 50.9882C150.016 50.3774 149.678 49.8313 149.177 49.4668C148.676 49.1023 148.052 48.9485 147.439 49.0382C146.069 49.0982 145.229 50.3782 145.489 52.0382C145.544 52.3138 145.653 52.5758 145.81 52.8091C145.966 53.0425 146.168 53.2425 146.402 53.3977C146.636 53.553 146.899 53.6603 147.175 53.7136C147.451 53.7669 147.734 53.765 148.009 53.7082H148.079C148.681 53.6548 149.237 53.3647 149.626 52.9016C150.014 52.4384 150.202 51.8401 150.149 51.2382L150.119 50.9882Z" fill="#EFEFEF"/>
<path d="M167.74 157.658C167.74 157.658 190.51 138.888 192.74 95.3278C191.96 48.8478 169.74 33.3278 161.99 28.0078L116.46 73.5278L116.1 105.828L166.9 156.828L167.74 157.658Z" stroke="black" stroke-width="9.23" stroke-miterlimit="10"/>
</svg>
