<svg width="135" height="217" viewBox="0 0 135 217" fill="none" xmlns="http://www.w3.org/2000/svg">
<path d="M132.07 99.507L104.914 72.3331V69.2052C104.914 48.4827 88.1124 31.4745 67.2081 31.4745C46.3039 31.4745 29.5023 48.2872 29.5023 69.2052V102.439C29.5023 104.59 30.2838 106.545 31.8467 107.913L59.0027 134.892V149.749C59.0027 154.05 62.5193 157.569 66.8174 157.569C71.1155 157.569 74.6321 154.05 74.6321 149.749V131.764C74.6321 129.613 73.8506 127.658 72.2877 126.29L45.1317 99.1161V69.2052C45.1317 57.0845 55.0954 47.1142 67.2081 47.1142C79.3209 47.1142 89.2846 57.0845 89.2846 69.2052V75.0701C89.2846 75.8521 89.2846 76.6341 89.48 77.416C89.48 77.416 89.48 77.416 89.48 77.6115C89.48 78.0025 89.6753 78.3935 89.8707 78.7845C90.2614 79.9575 91.2383 81.1305 92.2151 81.9124L118.98 108.695V149.945C118.98 178.292 95.9271 201.556 67.4035 201.556C40.0521 201.165 17.5849 180.051 15.8266 153.073C15.6313 148.772 11.7239 145.449 7.42585 145.84C3.12778 146.035 -0.19346 149.945 0.197274 154.246C2.54168 189.435 32.0421 217 67.2081 217C104.328 217 134.414 186.894 134.414 149.749V105.176C134.414 103.026 133.438 101.071 132.07 99.507Z" fill="#80225F"/>
<path d="M29.5004 143.494V149.75C29.5004 170.472 46.302 187.48 67.2062 187.48C88.1105 187.48 104.912 170.668 104.912 149.75V117.102C104.912 114.951 104.131 112.997 102.568 111.628L74.8255 83.8677V69.01C74.8255 64.7091 71.3089 61.1902 67.0109 61.1902C62.7128 61.1902 59.1962 64.7091 59.1962 69.01V87.1911C59.1962 89.3415 59.9776 91.2965 61.5406 92.665L89.2827 120.23V149.554C89.2827 161.675 79.319 171.645 67.2062 171.645C55.0935 171.645 45.1298 161.675 45.1298 149.554V142.321C45.7159 139.779 45.1298 137.042 43.1761 134.892H42.9807L42.7854 134.697L15.6294 107.523V67.2505C15.6294 38.7082 38.6827 15.6397 67.2062 15.6397C93.3854 15.6397 115.853 35.9712 118.392 61.9721V62.7541C118.783 67.055 122.495 70.183 126.793 69.9875C131.091 69.5965 134.217 65.8821 134.022 61.5812L133.826 60.4082C130.505 26.0009 101.786 0 67.2062 0C30.0865 0 0 30.1063 0 67.2505V110.846C0 112.997 0.781468 114.951 2.3444 116.32L29.5004 143.494Z" fill="#80225F"/>
</svg>
