<svg width="202" height="228" viewBox="0 0 202 228" fill="none" xmlns="http://www.w3.org/2000/svg">
<path d="M100.588 228C109.847 228 117.353 220.494 117.353 211.235C117.353 201.976 109.847 194.47 100.588 194.47C91.3296 194.47 83.8237 201.976 83.8237 211.235C83.8237 220.494 91.3296 228 100.588 228Z" fill="#2261F6"/>
<path d="M100.588 33.5295C109.847 33.5295 117.353 26.0236 117.353 16.7647C117.353 7.50583 109.847 0 100.588 0C91.3296 0 83.8237 7.50583 83.8237 16.7647C83.8237 26.0236 91.3296 33.5295 100.588 33.5295Z" fill="#2261F6"/>
<path d="M100.589 79.3527C107.996 79.3527 114 73.348 114 65.9409C114 58.5337 107.996 52.5291 100.589 52.5291C93.1814 52.5291 87.1768 58.5337 87.1768 65.9409C87.1768 73.348 93.1814 79.3527 100.589 79.3527Z" fill="#2261F6"/>
<path d="M53.6481 54.7648C61.0553 54.7648 67.0599 48.7601 67.0599 41.353C67.0599 33.9458 61.0553 27.9412 53.6481 27.9412C46.241 27.9412 40.2363 33.9458 40.2363 41.353C40.2363 48.7601 46.241 54.7648 53.6481 54.7648Z" fill="#2261F6"/>
<path d="M53.6481 201.177C61.0553 201.177 67.0599 195.172 67.0599 187.765C67.0599 180.358 61.0553 174.354 53.6481 174.354C46.241 174.354 40.2363 180.358 40.2363 187.765C40.2363 195.172 46.241 201.177 53.6481 201.177Z" fill="#2261F6"/>
<path d="M142.499 104.5C149.906 104.5 155.911 98.495 155.911 91.0878C155.911 83.6807 149.906 77.676 142.499 77.676C135.092 77.676 129.087 83.6807 129.087 91.0878C129.087 98.495 135.092 104.5 142.499 104.5Z" fill="#2261F6"/>
<path d="M142.499 150.883C149.906 150.883 155.911 144.879 155.911 137.472C155.911 130.064 149.906 124.06 142.499 124.06C135.092 124.06 129.087 130.064 129.087 137.472C129.087 144.879 135.092 150.883 142.499 150.883Z" fill="#2261F6"/>
<path d="M100.589 175.471C107.996 175.471 114 169.467 114 162.059C114 154.652 107.996 148.648 100.589 148.648C93.1814 148.648 87.1768 154.652 87.1768 162.059C87.1768 169.467 93.1814 175.471 100.589 175.471Z" fill="#2261F6"/>
<path d="M100.589 124.617C106.453 124.617 111.207 119.863 111.207 113.999C111.207 108.135 106.453 103.382 100.589 103.382C94.7249 103.382 89.9712 108.135 89.9712 113.999C89.9712 119.863 94.7249 124.617 100.589 124.617Z" fill="#2261F6"/>
<path d="M53.646 148.648C59.51 148.648 64.2636 143.895 64.2636 138.031C64.2636 132.167 59.51 127.413 53.646 127.413C47.782 127.413 43.0283 132.167 43.0283 138.031C43.0283 143.895 47.782 148.648 53.646 148.648Z" fill="#2261F6"/>
<path d="M53.646 101.706C59.51 101.706 64.2636 96.9518 64.2636 91.0879C64.2636 85.2239 59.51 80.4702 53.646 80.4702C47.782 80.4702 43.0283 85.2239 43.0283 91.0879C43.0283 96.9518 47.782 101.706 53.646 101.706Z" fill="#2261F6"/>
<path d="M7.82356 73.765C12.1444 73.765 15.6471 70.2623 15.6471 65.9415C15.6471 61.6207 12.1444 58.1179 7.82356 58.1179C3.50273 58.1179 0 61.6207 0 65.9415C0 70.2623 3.50273 73.765 7.82356 73.765Z" fill="#2261F6"/>
<path d="M7.82356 121.823C12.1444 121.823 15.6471 118.32 15.6471 114C15.6471 109.679 12.1444 106.176 7.82356 106.176C3.50273 106.176 0 109.679 0 114C0 118.32 3.50273 121.823 7.82356 121.823Z" fill="#2261F6"/>
<path d="M7.82356 169.881C12.1444 169.881 15.6471 166.379 15.6471 162.058C15.6471 157.737 12.1444 154.234 7.82356 154.234C3.50273 154.234 0 157.737 0 162.058C0 166.379 3.50273 169.881 7.82356 169.881Z" fill="#2261F6"/>
<path d="M142.501 58.1196C151.76 58.1196 159.266 50.6137 159.266 41.3548C159.266 32.0959 151.76 24.5901 142.501 24.5901C133.242 24.5901 125.736 32.0959 125.736 41.3548C125.736 50.6137 133.242 58.1196 142.501 58.1196Z" fill="#2261F6"/>
<path d="M142.501 203.971C151.76 203.971 159.266 196.465 159.266 187.206C159.266 177.947 151.76 170.441 142.501 170.441C133.242 170.441 125.736 177.947 125.736 187.206C125.736 196.465 133.242 203.971 142.501 203.971Z" fill="#2261F6"/>
<path d="M184.412 82.7055C193.671 82.7055 201.176 75.1997 201.176 65.9408C201.176 56.6819 193.671 49.176 184.412 49.176C175.153 49.176 167.647 56.6819 167.647 65.9408C167.647 75.1997 175.153 82.7055 184.412 82.7055Z" fill="#2261F6"/>
<path d="M184.412 178.824C193.671 178.824 201.176 171.318 201.176 162.059C201.176 152.801 193.671 145.295 184.412 145.295C175.153 145.295 167.647 152.801 167.647 162.059C167.647 171.318 175.153 178.824 184.412 178.824Z" fill="#2261F6"/>
<path d="M184.412 130.764C193.671 130.764 201.176 123.258 201.176 113.999C201.176 104.74 193.671 97.2341 184.412 97.2341C175.153 97.2341 167.647 104.74 167.647 113.999C167.647 123.258 175.153 130.764 184.412 130.764Z" fill="#2261F6"/>
</svg>
