<svg width="573" height="250" viewBox="0 0 573 250" fill="none" xmlns="http://www.w3.org/2000/svg">
<path fill-rule="evenodd" clip-rule="evenodd" d="M562.107 162.434C562.107 166.56 563.607 167.685 568.858 168.06H572.984V187.941H554.041C542.413 187.566 538.1 182.877 538.286 171.436V120.645H528.347V100.42H538.286V77.8605H562.107V100.42H572.984V120.645H562.107V162.434ZM505.429 187.941H481.609V120.647H472.044V100.42H481.609V95.823C481.609 72.5665 493.05 61.6881 516.869 62.4386V84.3822C508.617 85.3202 505.429 88.5083 505.429 95.823V100.42H516.869V120.647H505.429V187.941ZM436.801 100.42H460.621V146.179V153.629V196.104V201.579C460.621 223.777 450.19 234.689 428.529 234.986L408.293 235V213.02H425.36V213.02C433.613 212.083 436.801 208.894 436.801 201.579V196.104V189.661C429.904 189.661 427.785 189.712 422.735 189.712C410.731 189.712 400.415 186.336 393.664 180.147C387.474 174.52 384.474 166.268 384.474 154.827V100.42H408.293V152.129C408.293 161.882 414.106 168.1 422.735 168.1C431.549 168.1 433.373 168.094 436.801 168.094V146.179V100.42ZM320.628 62.9481V68.4235V100.4C327.526 100.4 329.645 100.35 334.695 100.35C346.698 100.35 357.014 103.726 363.766 109.915C369.955 115.542 372.956 123.794 372.956 135.235V188.064H349.137V137.933C349.137 128.181 343.323 121.962 334.695 121.962C325.88 121.962 324.057 121.969 320.628 121.969V188.064H296.809V70.0005V62.9481H320.628ZM224.946 150.964V152.652C224.946 161.092 232.261 167.281 242.013 167.281C251.391 167.281 258.518 161.467 258.518 153.965C258.518 150.026 256.643 146.462 253.454 144.025C250.265 141.586 248.015 140.648 238.262 137.085C210.879 127.332 201.126 117.016 201.126 97.8859C201.126 75.1924 217.819 60.0005 242.389 60.0005C266.771 60.0005 282.525 74.2545 284.588 98.2609H258.705C257.768 87.758 252.516 82.694 242.389 82.694C233.198 82.694 227.009 87.9461 227.009 95.8232C227.009 100.887 229.635 104.826 234.698 107.639C238.075 109.514 240.138 110.452 249.328 113.828C263.019 118.892 269.959 122.455 275.398 127.707C281.962 133.896 285.338 142.336 285.338 151.901C285.338 174.783 268.083 189.975 242.201 189.975C215.943 189.975 199.814 174.971 200.002 150.964H224.946Z" fill="#373241"/>
<path d="M152.152 114.64C153.727 116.441 154.853 118.694 154.853 121.171V172.523C154.853 215.315 120.191 250 77.4264 250C36.9126 250 2.926 218.243 0.225077 177.703C-0.225077 172.748 3.60123 168.243 8.55292 168.018C13.5046 167.568 18.0061 171.396 18.2312 176.351C20.2569 207.432 46.1408 231.757 77.6515 232.207C110.513 232.207 137.072 205.405 137.072 172.748V125.225L106.236 94.3694C105.111 93.4685 103.986 92.1171 103.535 90.7658C103.31 90.3153 103.085 89.8649 103.085 89.4144C103.085 89.1892 103.085 89.1892 103.085 89.1892C102.86 88.2883 102.86 87.3874 102.86 86.4865V79.7297C102.86 65.7658 91.3812 54.2793 77.4264 54.2793C63.4717 54.2793 51.9928 65.7658 51.9928 79.7297V114.189L83.2784 145.495C85.0791 147.072 85.9794 149.324 85.9794 151.802V172.523C85.9794 177.477 81.928 181.532 76.9763 181.532C72.0246 181.532 67.9732 177.477 67.9732 172.523V155.405L36.6875 124.324C34.8869 122.748 33.9866 120.495 33.9866 118.018V79.7297C33.9866 55.6306 53.3432 36.2613 77.4264 36.2613C101.51 36.2613 120.866 55.8559 120.866 79.7297V83.3333L152.152 114.64ZM33.9866 165.315L2.70092 134.009C0.900307 132.432 0 130.18 0 127.703V77.4775C0 34.6847 34.6618 0 77.4264 0C117.265 0 150.351 29.955 154.178 69.5946L154.403 70.9459C154.628 75.9009 151.027 80.1802 146.075 80.6306C141.123 80.8559 136.847 77.2523 136.397 72.2973V71.3964C133.471 41.4414 107.587 18.018 77.4264 18.018C44.5652 18.018 18.0061 44.5946 18.0061 77.4775V123.874L49.2918 155.18L49.5169 155.405H49.742C51.9928 157.883 52.668 161.036 51.9928 163.964V172.297C51.9928 186.261 63.4717 197.748 77.4264 197.748C91.3812 197.748 102.86 186.261 102.86 172.297V138.514L70.8992 106.757C69.0986 105.18 68.1983 102.928 68.1983 100.45V79.5045C68.1983 74.5495 72.2497 70.4955 77.2014 70.4955C82.1531 70.4955 86.2044 74.5495 86.2044 79.5045V96.6216L118.165 128.604C119.966 130.18 120.866 132.432 120.866 134.91V172.523C120.866 196.622 101.51 215.991 77.4264 215.991C53.3432 215.991 33.9866 196.396 33.9866 172.523V165.315Z" fill="#80225F"/>
</svg>
