<svg id="图层_1" data-name="图层 1" xmlns="http://www.w3.org/2000/svg" viewBox="0 0 1208 477"><defs><style>.cls-1{fill:#fff;}.cls-2{fill:#ffcc70;}.cls-3{fill:#4b39ef;}.cls-4{fill:#2e25d8;}</style></defs><path class="cls-1" d="M532.83,164.15,565.6,273.81l30.59-109.66H630.7l30.58,109.66,32.77-109.66h31.89l-47,145.7H643.59L613.44,204.78,583.3,309.85H547.91l-47.19-145.7Z"/><path class="cls-1" d="M729.44,309.85l60.29-145.7h35.61l60.29,145.7H849.37l-14.2-33.64H779.9l-14.2,33.64Zm78.2-110.53-20.75,50.9H828.4Z"/><path class="cls-1" d="M933.69,190.14H887.37v-26H1013v26H964.71V309.85h-31Z"/><path class="cls-1" d="M1014.73,309.85,1075,164.15h35.61l60.29,145.7h-36.26l-14.2-33.64h-55.27L1051,309.85Zm78.2-110.53-20.75,50.9h41.51Z"/><path class="cls-1" d="M57,90s29.73-18.09,105.87,12.46C217.31,124.3,295,181,347.45,278.34,391,359.12,386.58,370.11,379,408c-1,5,3-9-15-34-36.28-50.38-115-111-115-111L110,393,57,362,191,231l-30-74Z"/><path class="cls-2" d="M379.34,373.58s2.28,18.44,0,33.94c0,0,13.54-17.61,13.05-49.78Z"/><path class="cls-3" d="M368.28,380l-13.56,7.82L227.94,461l-93.8-54.15-24.21-14L232.27,270.73l-41.58-40.11L57.13,362.42,33.87,349v-224l38.19-22,12.31-7.09c1,.31,2.08.52,3,.83,2.93.94,5.64,1.88,8.35,2.71a13.28,13.28,0,0,1,2,.73,6.83,6.83,0,0,1,.84.32,3.65,3.65,0,0,1,.52.21c123.12,43.51,95.16,118.94,95.16,118.94l45.6,45.71c23.26-8.46,44.55-.73,63.12,14.92a7.3,7.3,0,0,1,1.05.94c24.83,21.18,44.86,56.45,58.22,85.35C364.42,371.18,366.51,375.67,368.28,380Z"/><path class="cls-3" d="M99.06,100.6s-10.29-4.77-41.56-11c0,0,21.53,15.66,26.93,33.46Z"/><path class="cls-4" d="M368.28,380l-13.56,7.82s-21.65-62.41-58.45-93.17c-20-16.75-49.76-14.71-67.87,4.1L127.79,403.2l-17.86-10.31L232.27,270.73l7.57-5.45c23.26-8.46,44.55-.73,63.12,14.92a7.3,7.3,0,0,1,1.05.94c24.62,22.53,45,57.28,58.22,85.35C364.42,371.18,366.51,375.67,368.28,380Z"/><path class="cls-2" d="M227.94,13,102.63,85.29c43.82,6.68,106.43,29,171.12,94.53,0,0,90.15,83.58,105.59,193.76L421.91,349v-224Z"/><path class="cls-1" d="M298.79,194.85c-10.23-11.48-17-17.74-17-17.74-5-5-10-9.81-14.92-14.4l33.6-33.6,31.93,32Z"/></svg>