<svg xmlns="http://www.w3.org/2000/svg" width="336" height="336" viewBox="0 0 336 336">
  <g id="组_72" data-name="组 72" transform="translate(-1560.563 -430.563)">
    <path id="路径_122" data-name="路径 122" d="M-319.733-2863.238s-23.839-17.064-70.332-6.252-58.693,34.731-103.024,26.081-57.306-38.925-91.905-47.575a208.784,208.784,0,0,0-38.472-5.611c-17.555-.979-26.587,0-26.587,0s-1.638,46.254,3.684,65.493,20.467,54.853,40.935,74.092,44.21,36.023,74.911,43.8,58.946,8.188,90.057-2.046,59.356-24.562,76.139-46.257,33.976-53.215,37.251-69.589S-319.733-2863.238-319.733-2863.238Z" transform="translate(2214.328 3470.395)" fill="#48cccc" opacity="0.5"/>
    <path id="路径_253" data-name="路径 253" d="M-320.9-2891.368s-6.721,28.834-48.06,30.679-32.428-16.765-71.5-10.9-28.249-24.08-71.906-25.073-44.927,26.818-87.313,25.073-50.368-25.073-50.368-25.073-1.638,46.254,3.684,65.493,20.467,54.853,40.935,74.092,44.21,36.023,74.911,43.8,58.946,8.188,90.057-2.046,59.356-24.561,76.139-46.257,33.976-53.214,37.251-69.589S-320.9-2891.368-320.9-2891.368Z" transform="translate(2214.328 3474.097)" fill="#48cccc" opacity="0.47"/>
    <g id="椭圆_12" data-name="椭圆 12" transform="translate(1560.563 430.563)" fill="none" stroke="#48cccc" stroke-width="5">
      <circle cx="168" cy="168" r="168" stroke="none"/>
      <circle cx="168" cy="168" r="165.5" fill="none"/>
    </g>
  </g>
</svg>
