<svg width="1033" height="91" viewBox="0 0 1033 91" fill="none" xmlns="http://www.w3.org/2000/svg">
<rect x="27" width="314" height="49" fill="#839CDC"/>
<rect x="341" width="314" height="49" fill="#FF0000" fill-opacity="0.47"/>
<rect x="655" width="314" height="49" fill="#48CCCC" fill-opacity="0.8"/>
<path d="M121.39 31H119.879L118.799 28.1016H114.39L113.371 31H111.86L115.894 20.4111H117.356L121.39 31ZM118.375 26.9053L116.775 22.5029C116.725 22.3617 116.671 22.1156 116.611 21.7646H116.577C116.527 22.0837 116.47 22.3298 116.406 22.5029L114.82 26.9053H118.375ZM128.998 31H127.651V29.8105H127.624C127.118 30.722 126.341 31.1777 125.293 31.1777C123.502 31.1777 122.606 30.1068 122.606 27.9648V23.4395H123.933V27.7666C123.933 29.3024 124.521 30.0703 125.696 30.0703C126.28 30.0703 126.751 29.8561 127.111 29.4277C127.471 28.9948 127.651 28.4502 127.651 27.7939V23.4395H128.998V31ZM137.946 31H136.606V29.7422H136.579C136.028 30.6992 135.171 31.1777 134.009 31.1777C133.052 31.1777 132.291 30.8382 131.726 30.1592C131.16 29.4756 130.878 28.555 130.878 27.3975C130.878 26.1488 131.197 25.1484 131.835 24.3965C132.473 23.64 133.307 23.2617 134.337 23.2617C135.367 23.2617 136.114 23.6628 136.579 24.4648H136.606V19.8096H137.946V31ZM136.613 26.502C136.613 25.8958 136.413 25.39 136.012 24.9844C135.615 24.5742 135.125 24.3691 134.542 24.3691C133.831 24.3691 133.271 24.6357 132.86 25.1689C132.45 25.6976 132.245 26.4199 132.245 27.3359C132.245 28.179 132.441 28.8467 132.833 29.3389C133.229 29.8265 133.756 30.0703 134.412 30.0703C135.059 30.0703 135.588 29.8311 135.998 29.3525C136.408 28.8695 136.613 28.2702 136.613 27.5547V26.502ZM140.175 20.7734C140.175 20.5365 140.255 20.3382 140.414 20.1787C140.578 20.0146 140.779 19.9326 141.016 19.9326C141.257 19.9326 141.46 20.0124 141.624 20.1719C141.793 20.3314 141.877 20.5319 141.877 20.7734C141.877 21.0104 141.793 21.2087 141.624 21.3682C141.46 21.5231 141.257 21.6006 141.016 21.6006C140.774 21.6006 140.574 21.5231 140.414 21.3682C140.255 21.2087 140.175 21.0104 140.175 20.7734ZM140.332 31V23.4395H141.672V31H140.332ZM147.701 30.9248C147.41 31.0843 147.015 31.1641 146.519 31.1641C145.165 31.1641 144.488 30.4144 144.488 28.915V24.5469H143.189V23.4395H144.488V21.6211L145.821 21.1973V23.4395H147.701V24.5469H145.821V28.6758C145.821 29.1725 145.906 29.528 146.074 29.7422C146.243 29.9564 146.523 30.0635 146.915 30.0635C147.216 30.0635 147.478 29.9792 147.701 29.8105V30.9248ZM149.13 20.7734C149.13 20.5365 149.21 20.3382 149.369 20.1787C149.533 20.0146 149.734 19.9326 149.971 19.9326C150.212 19.9326 150.415 20.0124 150.579 20.1719C150.748 20.3314 150.832 20.5319 150.832 20.7734C150.832 21.0104 150.748 21.2087 150.579 21.3682C150.415 21.5231 150.212 21.6006 149.971 21.6006C149.729 21.6006 149.529 21.5231 149.369 21.3682C149.21 21.2087 149.13 21.0104 149.13 20.7734ZM149.287 31V23.4395H150.627V31H149.287ZM159.418 31H158.085V26.7002C158.085 25.1462 157.518 24.3691 156.383 24.3691C155.795 24.3691 155.312 24.5879 154.934 25.0254C154.555 25.4629 154.366 26.0166 154.366 26.6865V31H153.026V23.4395H154.366V24.6904H154.394C154.963 23.738 155.79 23.2617 156.875 23.2617C157.704 23.2617 158.336 23.5283 158.769 24.0615C159.201 24.5902 159.418 25.3626 159.418 26.3789V31ZM168.216 30.3643C168.216 33.1624 166.858 34.5615 164.142 34.5615C163.203 34.5615 162.387 34.3861 161.694 34.0352V32.7432C162.537 33.2126 163.346 33.4473 164.121 33.4473C165.958 33.4473 166.876 32.4811 166.876 30.5488V29.749H166.849C166.274 30.7015 165.418 31.1777 164.278 31.1777C163.33 31.1777 162.572 30.8382 162.002 30.1592C161.432 29.4801 161.147 28.5801 161.147 27.459C161.147 26.1693 161.462 25.1484 162.091 24.3965C162.72 23.64 163.558 23.2617 164.606 23.2617C165.614 23.2617 166.361 23.6628 166.849 24.4648H166.876V23.4395H168.216V30.3643ZM166.876 26.502C166.881 25.9186 166.685 25.4173 166.288 24.998C165.892 24.5788 165.404 24.3691 164.825 24.3691C164.096 24.3691 163.529 24.638 163.123 25.1758C162.717 25.709 162.515 26.4427 162.515 27.377C162.515 28.179 162.711 28.8285 163.103 29.3252C163.494 29.8219 164.014 30.0703 164.661 30.0703C165.313 30.0703 165.846 29.8333 166.261 29.3594C166.675 28.8854 166.881 28.2839 166.876 27.5547V26.502ZM176.289 27.042V31H174.922V20.4111H177.93C179.074 20.4111 179.96 20.6868 180.589 21.2383C181.222 21.7897 181.539 22.5781 181.539 23.6035C181.539 24.6426 181.17 25.4857 180.432 26.1328C179.693 26.7754 178.771 27.0785 177.663 27.042H176.289ZM176.289 21.6143V25.8389H177.554C178.388 25.8389 179.021 25.652 179.454 25.2783C179.887 24.9001 180.104 24.36 180.104 23.6582C180.104 22.2956 179.297 21.6143 177.684 21.6143H176.289ZM189.708 31H188.375V26.6523C188.375 25.1302 187.81 24.3691 186.68 24.3691C186.101 24.3691 185.62 24.5924 185.237 25.0391C184.854 25.4811 184.663 26.0394 184.663 26.7139V31H183.323V19.8096H184.663V24.6836H184.69C185.269 23.7357 186.092 23.2617 187.158 23.2617C188.858 23.2617 189.708 24.2894 189.708 26.3447V31ZM192.128 23.9658C192.88 23.4964 193.748 23.2617 194.732 23.2617C196.555 23.2617 197.467 24.2188 197.467 26.1328V31H196.141V29.8311H196.106C195.582 30.7288 194.81 31.1777 193.789 31.1777C193.055 31.1777 192.472 30.9795 192.039 30.583C191.606 30.1865 191.39 29.651 191.39 28.9766C191.39 27.5638 192.226 26.7412 193.898 26.5088L196.141 26.1943C196.141 24.9593 195.63 24.3418 194.609 24.3418C193.702 24.3418 192.875 24.6471 192.128 25.2578V23.9658ZM194.37 27.4453C193.75 27.5273 193.322 27.6823 193.085 27.9102C192.853 28.138 192.736 28.457 192.736 28.8672C192.736 29.2272 192.864 29.5212 193.119 29.749C193.374 29.9769 193.712 30.0908 194.131 30.0908C194.714 30.0908 195.195 29.8857 195.573 29.4756C195.951 29.0654 196.141 28.5505 196.141 27.9307V27.2061L194.37 27.4453ZM199.265 29.3662C199.939 29.8538 200.666 30.0977 201.445 30.0977C202.489 30.0977 203.011 29.7559 203.011 29.0723C203.011 28.7806 202.897 28.5413 202.669 28.3545C202.441 28.1631 201.979 27.9375 201.281 27.6777C200.443 27.3405 199.898 27.0078 199.647 26.6797C199.397 26.347 199.271 25.946 199.271 25.4766C199.271 24.8066 199.554 24.2712 200.119 23.8701C200.689 23.4645 201.388 23.2617 202.218 23.2617C202.86 23.2617 203.457 23.3734 204.009 23.5967V24.8887C203.444 24.5241 202.803 24.3418 202.088 24.3418C201.66 24.3418 201.311 24.4352 201.042 24.6221C200.773 24.8089 200.639 25.055 200.639 25.3604C200.639 25.6611 200.734 25.8958 200.926 26.0645C201.122 26.2331 201.552 26.4495 202.218 26.7139C203.061 27.0283 203.631 27.3542 203.927 27.6914C204.223 28.0286 204.371 28.4456 204.371 28.9424C204.371 29.6351 204.086 30.182 203.517 30.583C202.951 30.9795 202.218 31.1777 201.315 31.1777C200.532 31.1777 199.848 31.0296 199.265 30.7334V29.3662ZM212.328 27.5615H207.037C207.06 28.3682 207.281 28.9925 207.7 29.4346C208.119 29.8721 208.705 30.0908 209.457 30.0908C210.305 30.0908 211.082 29.8197 211.788 29.2773V30.4736C211.123 30.943 210.241 31.1777 209.143 31.1777C208.049 31.1777 207.194 30.8314 206.579 30.1387C205.968 29.446 205.663 28.4844 205.663 27.2539C205.663 26.0964 205.998 25.1416 206.668 24.3896C207.342 23.6377 208.179 23.2617 209.177 23.2617C210.166 23.2617 210.938 23.5807 211.494 24.2188C212.05 24.8522 212.328 25.7409 212.328 26.8848V27.5615ZM210.988 26.4883C210.984 25.8047 210.822 25.276 210.503 24.9023C210.184 24.5286 209.735 24.3418 209.156 24.3418C208.623 24.3418 208.16 24.54 207.769 24.9365C207.381 25.333 207.137 25.8503 207.037 26.4883H210.988ZM216.266 33.4062C214.73 31.6562 213.962 29.5075 213.962 26.96C213.962 24.4124 214.73 22.2295 216.266 20.4111H217.448C215.908 22.3024 215.138 24.4808 215.138 26.9463C215.138 29.4072 215.903 31.5605 217.435 33.4062H216.266ZM224.797 27.7324C224.797 28.7669 224.453 29.6009 223.765 30.2344C223.081 30.8678 222.16 31.1846 221.003 31.1846C220.009 31.1846 219.269 31.0365 218.781 30.7402V29.373C219.497 29.8379 220.226 30.0703 220.969 30.0703C221.707 30.0703 222.302 29.8675 222.753 29.4619C223.209 29.0518 223.437 28.5094 223.437 27.835C223.437 27.1605 223.2 26.6364 222.726 26.2627C222.256 25.8844 221.591 25.6953 220.729 25.6953C220.064 25.6953 219.465 25.7249 218.932 25.7842L219.321 20.4111H224.271V21.5869H220.449L220.23 24.5879L221.194 24.5469C222.315 24.5469 223.195 24.8271 223.833 25.3877C224.476 25.9437 224.797 26.7253 224.797 27.7324ZM227.176 31V20.4111H230.197C231.801 20.4111 233.134 20.8783 234.196 21.8125C235.263 22.7467 235.796 24 235.796 25.5723C235.796 27.2129 235.263 28.5277 234.196 29.5166C233.134 30.5055 231.765 31 230.088 31H227.176ZM228.543 21.6279V29.79H230.081C231.425 29.79 232.474 29.4232 233.226 28.6895C233.982 27.9557 234.36 26.9281 234.36 25.6064C234.36 24.2848 233.973 23.2913 233.198 22.626C232.424 21.9606 231.405 21.6279 230.143 21.6279H228.543ZM237.847 23.9658C238.599 23.4964 239.467 23.2617 240.451 23.2617C242.274 23.2617 243.186 24.2188 243.186 26.1328V31H241.859V29.8311H241.825C241.301 30.7288 240.529 31.1777 239.508 31.1777C238.774 31.1777 238.191 30.9795 237.758 30.583C237.325 30.1865 237.108 29.651 237.108 28.9766C237.108 27.5638 237.945 26.7412 239.617 26.5088L241.859 26.1943C241.859 24.9593 241.349 24.3418 240.328 24.3418C239.421 24.3418 238.594 24.6471 237.847 25.2578V23.9658ZM240.089 27.4453C239.469 27.5273 239.041 27.6823 238.804 27.9102C238.571 28.138 238.455 28.457 238.455 28.8672C238.455 29.2272 238.583 29.5212 238.838 29.749C239.093 29.9769 239.43 30.0908 239.85 30.0908C240.433 30.0908 240.914 29.8857 241.292 29.4756C241.67 29.0654 241.859 28.5505 241.859 27.9307V27.2061L240.089 27.4453ZM251.56 23.4395L248.128 32.1416C247.49 33.7549 246.59 34.5615 245.428 34.5615C245.095 34.5615 244.81 34.5251 244.573 34.4521V33.2764C244.833 33.3766 245.084 33.4268 245.325 33.4268C245.931 33.4268 246.385 33.0713 246.686 32.3604L247.267 30.9863L244.3 23.4395H245.783L247.759 29.1201L247.923 29.7422H247.957C247.984 29.6009 248.039 29.3981 248.121 29.1338L250.186 23.4395H251.56ZM251.792 33.4062C253.328 31.5651 254.096 29.4118 254.096 26.9463C254.096 24.4762 253.323 22.2979 251.778 20.4111H252.968C254.508 22.2158 255.278 24.3988 255.278 26.96C255.278 29.5212 254.508 31.6699 252.968 33.4062H251.792Z" fill="white"/>
<path d="M445.808 21.6279H441.72V25.1689H445.507V26.3721H441.72V31H440.353V20.4111H445.808V21.6279ZM453.86 31H452.514V29.8105H452.486C451.98 30.722 451.203 31.1777 450.155 31.1777C448.364 31.1777 447.469 30.1068 447.469 27.9648V23.4395H448.795V27.7666C448.795 29.3024 449.383 30.0703 450.559 30.0703C451.142 30.0703 451.614 29.8561 451.974 29.4277C452.334 28.9948 452.514 28.4502 452.514 27.7939V23.4395H453.86V31ZM462.638 31H461.305V26.7002C461.305 25.1462 460.737 24.3691 459.603 24.3691C459.015 24.3691 458.532 24.5879 458.153 25.0254C457.775 25.4629 457.586 26.0166 457.586 26.6865V31H456.246V23.4395H457.586V24.6904H457.613C458.183 23.738 459.01 23.2617 460.095 23.2617C460.924 23.2617 461.555 23.5283 461.988 24.0615C462.421 24.5902 462.638 25.3626 462.638 26.3789V31ZM471.436 31H470.096V29.7422H470.068C469.517 30.6992 468.66 31.1777 467.498 31.1777C466.541 31.1777 465.78 30.8382 465.215 30.1592C464.65 29.4756 464.367 28.555 464.367 27.3975C464.367 26.1488 464.686 25.1484 465.324 24.3965C465.962 23.64 466.796 23.2617 467.826 23.2617C468.856 23.2617 469.604 23.6628 470.068 24.4648H470.096V19.8096H471.436V31ZM470.103 26.502C470.103 25.8958 469.902 25.39 469.501 24.9844C469.104 24.5742 468.615 24.3691 468.031 24.3691C467.32 24.3691 466.76 24.6357 466.35 25.1689C465.939 25.6976 465.734 26.4199 465.734 27.3359C465.734 28.179 465.93 28.8467 466.322 29.3389C466.719 29.8265 467.245 30.0703 467.901 30.0703C468.549 30.0703 469.077 29.8311 469.487 29.3525C469.897 28.8695 470.103 28.2702 470.103 27.5547V26.502ZM477.882 24.7656C477.659 24.6061 477.351 24.5264 476.959 24.5264C476.439 24.5264 476.011 24.7702 475.674 25.2578C475.337 25.7409 475.168 26.3789 475.168 27.1719V31H473.828V23.4395H475.168V24.9775H475.195C475.578 23.8656 476.239 23.3096 477.178 23.3096C477.483 23.3096 477.718 23.3438 477.882 23.4121V24.7656ZM479.352 23.9658C480.104 23.4964 480.972 23.2617 481.956 23.2617C483.779 23.2617 484.69 24.2188 484.69 26.1328V31H483.364V29.8311H483.33C482.806 30.7288 482.034 31.1777 481.013 31.1777C480.279 31.1777 479.696 30.9795 479.263 30.583C478.83 30.1865 478.613 29.651 478.613 28.9766C478.613 27.5638 479.45 26.7412 481.122 26.5088L483.364 26.1943C483.364 24.9593 482.854 24.3418 481.833 24.3418C480.926 24.3418 480.099 24.6471 479.352 25.2578V23.9658ZM481.594 27.4453C480.974 27.5273 480.546 27.6823 480.309 27.9102C480.076 28.138 479.96 28.457 479.96 28.8672C479.96 29.2272 480.088 29.5212 480.343 29.749C480.598 29.9769 480.935 30.0908 481.354 30.0908C481.938 30.0908 482.419 29.8857 482.797 29.4756C483.175 29.0654 483.364 28.5505 483.364 27.9307V27.2061L481.594 27.4453ZM486.488 29.3662C487.163 29.8538 487.89 30.0977 488.669 30.0977C489.713 30.0977 490.234 29.7559 490.234 29.0723C490.234 28.7806 490.12 28.5413 489.893 28.3545C489.665 28.1631 489.202 27.9375 488.505 27.6777C487.666 27.3405 487.122 27.0078 486.871 26.6797C486.62 26.347 486.495 25.946 486.495 25.4766C486.495 24.8066 486.778 24.2712 487.343 23.8701C487.912 23.4645 488.612 23.2617 489.441 23.2617C490.084 23.2617 490.681 23.3734 491.232 23.5967V24.8887C490.667 24.5241 490.027 24.3418 489.312 24.3418C488.883 24.3418 488.535 24.4352 488.266 24.6221C487.997 24.8089 487.862 25.055 487.862 25.3604C487.862 25.6611 487.958 25.8958 488.149 26.0645C488.345 26.2331 488.776 26.4495 489.441 26.7139C490.285 27.0283 490.854 27.3542 491.15 27.6914C491.447 28.0286 491.595 28.4456 491.595 28.9424C491.595 29.6351 491.31 30.182 490.74 30.583C490.175 30.9795 489.441 31.1777 488.539 31.1777C487.755 31.1777 487.072 31.0296 486.488 30.7334V29.3662ZM493.229 20.7734C493.229 20.5365 493.308 20.3382 493.468 20.1787C493.632 20.0146 493.832 19.9326 494.069 19.9326C494.311 19.9326 494.514 20.0124 494.678 20.1719C494.846 20.3314 494.931 20.5319 494.931 20.7734C494.931 21.0104 494.846 21.2087 494.678 21.3682C494.514 21.5231 494.311 21.6006 494.069 21.6006C493.828 21.6006 493.627 21.5231 493.468 21.3682C493.308 21.2087 493.229 21.0104 493.229 20.7734ZM493.386 31V23.4395H494.726V31H493.386ZM503.517 31H502.184V26.7002C502.184 25.1462 501.616 24.3691 500.481 24.3691C499.894 24.3691 499.41 24.5879 499.032 25.0254C498.654 25.4629 498.465 26.0166 498.465 26.6865V31H497.125V23.4395H498.465V24.6904H498.492C499.062 23.738 499.889 23.2617 500.974 23.2617C501.803 23.2617 502.434 23.5283 502.867 24.0615C503.3 24.5902 503.517 25.3626 503.517 26.3789V31ZM512.314 30.3643C512.314 33.1624 510.956 34.5615 508.24 34.5615C507.301 34.5615 506.486 34.3861 505.793 34.0352V32.7432C506.636 33.2126 507.445 33.4473 508.22 33.4473C510.056 33.4473 510.975 32.4811 510.975 30.5488V29.749H510.947C510.373 30.7015 509.516 31.1777 508.377 31.1777C507.429 31.1777 506.67 30.8382 506.101 30.1592C505.531 29.4801 505.246 28.5801 505.246 27.459C505.246 26.1693 505.561 25.1484 506.189 24.3965C506.818 23.64 507.657 23.2617 508.705 23.2617C509.712 23.2617 510.46 23.6628 510.947 24.4648H510.975V23.4395H512.314V30.3643ZM510.975 26.502C510.979 25.9186 510.783 25.4173 510.387 24.998C509.99 24.5788 509.503 24.3691 508.924 24.3691C508.195 24.3691 507.627 24.638 507.222 25.1758C506.816 25.709 506.613 26.4427 506.613 27.377C506.613 28.179 506.809 28.8285 507.201 29.3252C507.593 29.8219 508.113 30.0703 508.76 30.0703C509.411 30.0703 509.945 29.8333 510.359 29.3594C510.774 28.8854 510.979 28.2839 510.975 27.5547V26.502ZM520.388 27.042V31H519.021V20.4111H522.028C523.172 20.4111 524.059 20.6868 524.688 21.2383C525.321 21.7897 525.638 22.5781 525.638 23.6035C525.638 24.6426 525.269 25.4857 524.53 26.1328C523.792 26.7754 522.869 27.0785 521.762 27.042H520.388ZM520.388 21.6143V25.8389H521.652C522.486 25.8389 523.12 25.652 523.553 25.2783C523.986 24.9001 524.202 24.36 524.202 23.6582C524.202 22.2956 523.396 21.6143 521.782 21.6143H520.388ZM533.807 31H532.474V26.6523C532.474 25.1302 531.909 24.3691 530.778 24.3691C530.2 24.3691 529.719 24.5924 529.336 25.0391C528.953 25.4811 528.762 26.0394 528.762 26.7139V31H527.422V19.8096H528.762V24.6836H528.789C529.368 23.7357 530.19 23.2617 531.257 23.2617C532.957 23.2617 533.807 24.2894 533.807 26.3447V31ZM536.227 23.9658C536.979 23.4964 537.847 23.2617 538.831 23.2617C540.654 23.2617 541.565 24.2188 541.565 26.1328V31H540.239V29.8311H540.205C539.681 30.7288 538.909 31.1777 537.888 31.1777C537.154 31.1777 536.571 30.9795 536.138 30.583C535.705 30.1865 535.488 29.651 535.488 28.9766C535.488 27.5638 536.325 26.7412 537.997 26.5088L540.239 26.1943C540.239 24.9593 539.729 24.3418 538.708 24.3418C537.801 24.3418 536.974 24.6471 536.227 25.2578V23.9658ZM538.469 27.4453C537.849 27.5273 537.421 27.6823 537.184 27.9102C536.951 28.138 536.835 28.457 536.835 28.8672C536.835 29.2272 536.963 29.5212 537.218 29.749C537.473 29.9769 537.81 30.0908 538.229 30.0908C538.813 30.0908 539.294 29.8857 539.672 29.4756C540.05 29.0654 540.239 28.5505 540.239 27.9307V27.2061L538.469 27.4453ZM543.363 29.3662C544.038 29.8538 544.765 30.0977 545.544 30.0977C546.588 30.0977 547.109 29.7559 547.109 29.0723C547.109 28.7806 546.995 28.5413 546.768 28.3545C546.54 28.1631 546.077 27.9375 545.38 27.6777C544.541 27.3405 543.997 27.0078 543.746 26.6797C543.495 26.347 543.37 25.946 543.37 25.4766C543.37 24.8066 543.653 24.2712 544.218 23.8701C544.787 23.4645 545.487 23.2617 546.316 23.2617C546.959 23.2617 547.556 23.3734 548.107 23.5967V24.8887C547.542 24.5241 546.902 24.3418 546.187 24.3418C545.758 24.3418 545.41 24.4352 545.141 24.6221C544.872 24.8089 544.737 25.055 544.737 25.3604C544.737 25.6611 544.833 25.8958 545.024 26.0645C545.22 26.2331 545.651 26.4495 546.316 26.7139C547.16 27.0283 547.729 27.3542 548.025 27.6914C548.322 28.0286 548.47 28.4456 548.47 28.9424C548.47 29.6351 548.185 30.182 547.615 30.583C547.05 30.9795 546.316 31.1777 545.414 31.1777C544.63 31.1777 543.947 31.0296 543.363 30.7334V29.3662ZM556.427 27.5615H551.136C551.159 28.3682 551.38 28.9925 551.799 29.4346C552.218 29.8721 552.804 30.0908 553.556 30.0908C554.403 30.0908 555.18 29.8197 555.887 29.2773V30.4736C555.221 30.943 554.34 31.1777 553.241 31.1777C552.147 31.1777 551.293 30.8314 550.678 30.1387C550.067 29.446 549.762 28.4844 549.762 27.2539C549.762 26.0964 550.097 25.1416 550.767 24.3896C551.441 23.6377 552.277 23.2617 553.275 23.2617C554.264 23.2617 555.037 23.5807 555.593 24.2188C556.149 24.8522 556.427 25.7409 556.427 26.8848V27.5615ZM555.087 26.4883C555.082 25.8047 554.921 25.276 554.602 24.9023C554.283 24.5286 553.834 24.3418 553.255 24.3418C552.722 24.3418 552.259 24.54 551.867 24.9365C551.48 25.333 551.236 25.8503 551.136 26.4883H555.087Z" fill="white"/>
<path d="M854.942 30.2754C853.885 30.877 852.691 31.1777 851.36 31.1777C849.829 31.1777 848.594 30.6947 847.655 29.7285C846.721 28.7578 846.254 27.4635 846.254 25.8457C846.254 24.2096 846.771 22.8652 847.806 21.8125C848.84 20.7598 850.166 20.2334 851.784 20.2334C852.928 20.2334 853.896 20.4157 854.689 20.7803V22.2568C853.842 21.7236 852.832 21.457 851.661 21.457C850.508 21.457 849.558 21.8512 848.811 22.6396C848.063 23.4281 847.689 24.4671 847.689 25.7568C847.689 27.083 848.034 28.1152 848.722 28.8535C849.41 29.5918 850.34 29.9609 851.511 29.9609C852.317 29.9609 853.003 29.806 853.568 29.4961V26.6318H851.271V25.4219H854.942V30.2754ZM856.679 27.3018C856.679 26.0531 857.027 25.0687 857.725 24.3486C858.422 23.624 859.368 23.2617 860.562 23.2617C861.696 23.2617 862.585 23.6104 863.228 24.3076C863.875 25.0003 864.198 25.9596 864.198 27.1855C864.198 28.3796 863.854 29.3434 863.166 30.0771C862.478 30.8109 861.555 31.1777 860.397 31.1777C859.267 31.1777 858.365 30.8223 857.69 30.1113C857.016 29.4004 856.679 28.4639 856.679 27.3018ZM858.046 27.2607C858.046 28.1312 858.265 28.8171 858.702 29.3184C859.144 29.8197 859.737 30.0703 860.479 30.0703C861.245 30.0703 861.828 29.8265 862.229 29.3389C862.631 28.8467 862.831 28.1426 862.831 27.2266C862.831 26.306 862.631 25.5996 862.229 25.1074C861.828 24.6152 861.245 24.3691 860.479 24.3691C859.728 24.3691 859.133 24.6266 858.695 25.1416C858.262 25.6566 858.046 26.363 858.046 27.2607ZM872.176 23.4395L869.182 31H867.828L864.984 23.4395H866.447L868.293 28.8398C868.443 29.2728 868.532 29.6351 868.56 29.9268H868.594C868.639 29.5439 868.719 29.1908 868.833 28.8672L870.768 23.4395H872.176ZM879.6 27.5615H874.309C874.331 28.3682 874.552 28.9925 874.972 29.4346C875.391 29.8721 875.977 30.0908 876.729 30.0908C877.576 30.0908 878.353 29.8197 879.06 29.2773V30.4736C878.394 30.943 877.512 31.1777 876.414 31.1777C875.32 31.1777 874.466 30.8314 873.851 30.1387C873.24 29.446 872.935 28.4844 872.935 27.2539C872.935 26.0964 873.27 25.1416 873.939 24.3896C874.614 23.6377 875.45 23.2617 876.448 23.2617C877.437 23.2617 878.21 23.5807 878.766 24.2188C879.322 24.8522 879.6 25.7409 879.6 26.8848V27.5615ZM878.26 26.4883C878.255 25.8047 878.093 25.276 877.774 24.9023C877.455 24.5286 877.007 24.3418 876.428 24.3418C875.895 24.3418 875.432 24.54 875.04 24.9365C874.653 25.333 874.409 25.8503 874.309 26.4883H878.26ZM885.438 24.7656C885.214 24.6061 884.907 24.5264 884.515 24.5264C883.995 24.5264 883.567 24.7702 883.229 25.2578C882.892 25.7409 882.724 26.3789 882.724 27.1719V31H881.384V23.4395H882.724V24.9775H882.751C883.134 23.8656 883.795 23.3096 884.733 23.3096C885.039 23.3096 885.273 23.3438 885.438 23.4121V24.7656ZM893.121 31H891.788V26.7002C891.788 25.1462 891.221 24.3691 890.086 24.3691C889.498 24.3691 889.015 24.5879 888.637 25.0254C888.258 25.4629 888.069 26.0166 888.069 26.6865V31H886.729V23.4395H888.069V24.6904H888.097C888.666 23.738 889.493 23.2617 890.578 23.2617C891.408 23.2617 892.039 23.5283 892.472 24.0615C892.905 24.5902 893.121 25.3626 893.121 26.3789V31ZM895.534 23.9658C896.286 23.4964 897.154 23.2617 898.139 23.2617C899.962 23.2617 900.873 24.2188 900.873 26.1328V31H899.547V29.8311H899.513C898.989 30.7288 898.216 31.1777 897.195 31.1777C896.462 31.1777 895.878 30.9795 895.445 30.583C895.012 30.1865 894.796 29.651 894.796 28.9766C894.796 27.5638 895.632 26.7412 897.305 26.5088L899.547 26.1943C899.547 24.9593 899.036 24.3418 898.016 24.3418C897.109 24.3418 896.282 24.6471 895.534 25.2578V23.9658ZM897.776 27.4453C897.157 27.5273 896.728 27.6823 896.491 27.9102C896.259 28.138 896.143 28.457 896.143 28.8672C896.143 29.2272 896.27 29.5212 896.525 29.749C896.781 29.9769 897.118 30.0908 897.537 30.0908C898.12 30.0908 898.601 29.8857 898.979 29.4756C899.358 29.0654 899.547 28.5505 899.547 27.9307V27.2061L897.776 27.4453ZM909.486 31H908.153V26.7002C908.153 25.1462 907.586 24.3691 906.451 24.3691C905.863 24.3691 905.38 24.5879 905.002 25.0254C904.624 25.4629 904.435 26.0166 904.435 26.6865V31H903.095V23.4395H904.435V24.6904H904.462C905.032 23.738 905.859 23.2617 906.943 23.2617C907.773 23.2617 908.404 23.5283 908.837 24.0615C909.27 24.5902 909.486 25.3626 909.486 26.3789V31ZM916.944 30.6582C916.366 31.0046 915.668 31.1777 914.853 31.1777C913.759 31.1777 912.879 30.8268 912.214 30.125C911.549 29.4232 911.216 28.514 911.216 27.3975C911.216 26.1579 911.574 25.1598 912.289 24.4033C913.009 23.6423 913.971 23.2617 915.174 23.2617C915.867 23.2617 916.459 23.3848 916.951 23.6309V24.957C916.418 24.5651 915.826 24.3691 915.174 24.3691C914.408 24.3691 913.784 24.6357 913.301 25.1689C912.822 25.6976 912.583 26.404 912.583 27.2881C912.583 28.1585 912.809 28.8398 913.26 29.332C913.715 29.8242 914.328 30.0703 915.099 30.0703C915.75 30.0703 916.366 29.8561 916.944 29.4277V30.6582ZM924.908 27.5615H919.617C919.64 28.3682 919.861 28.9925 920.28 29.4346C920.7 29.8721 921.285 30.0908 922.037 30.0908C922.885 30.0908 923.662 29.8197 924.368 29.2773V30.4736C923.703 30.943 922.821 31.1777 921.723 31.1777C920.629 31.1777 919.774 30.8314 919.159 30.1387C918.549 29.446 918.243 28.4844 918.243 27.2539C918.243 26.0964 918.578 25.1416 919.248 24.3896C919.923 23.6377 920.759 23.2617 921.757 23.2617C922.746 23.2617 923.518 23.5807 924.074 24.2188C924.63 24.8522 924.908 25.7409 924.908 26.8848V27.5615ZM923.568 26.4883C923.564 25.8047 923.402 25.276 923.083 24.9023C922.764 24.5286 922.315 24.3418 921.736 24.3418C921.203 24.3418 920.741 24.54 920.349 24.9365C919.961 25.333 919.717 25.8503 919.617 26.4883H923.568ZM932.373 27.042V31H931.006V20.4111H934.014C935.158 20.4111 936.044 20.6868 936.673 21.2383C937.306 21.7897 937.623 22.5781 937.623 23.6035C937.623 24.6426 937.254 25.4857 936.516 26.1328C935.777 26.7754 934.854 27.0785 933.747 27.042H932.373ZM932.373 21.6143V25.8389H933.638C934.472 25.8389 935.105 25.652 935.538 25.2783C935.971 24.9001 936.188 24.36 936.188 23.6582C936.188 22.2956 935.381 21.6143 933.768 21.6143H932.373ZM945.792 31H944.459V26.6523C944.459 25.1302 943.894 24.3691 942.764 24.3691C942.185 24.3691 941.704 24.5924 941.321 25.0391C940.938 25.4811 940.747 26.0394 940.747 26.7139V31H939.407V19.8096H940.747V24.6836H940.774C941.353 23.7357 942.176 23.2617 943.242 23.2617C944.942 23.2617 945.792 24.2894 945.792 26.3447V31ZM948.212 23.9658C948.964 23.4964 949.832 23.2617 950.816 23.2617C952.639 23.2617 953.551 24.2188 953.551 26.1328V31H952.225V29.8311H952.19C951.666 30.7288 950.894 31.1777 949.873 31.1777C949.139 31.1777 948.556 30.9795 948.123 30.583C947.69 30.1865 947.474 29.651 947.474 28.9766C947.474 27.5638 948.31 26.7412 949.982 26.5088L952.225 26.1943C952.225 24.9593 951.714 24.3418 950.693 24.3418C949.786 24.3418 948.959 24.6471 948.212 25.2578V23.9658ZM950.454 27.4453C949.834 27.5273 949.406 27.6823 949.169 27.9102C948.937 28.138 948.82 28.457 948.82 28.8672C948.82 29.2272 948.948 29.5212 949.203 29.749C949.458 29.9769 949.796 30.0908 950.215 30.0908C950.798 30.0908 951.279 29.8857 951.657 29.4756C952.035 29.0654 952.225 28.5505 952.225 27.9307V27.2061L950.454 27.4453ZM955.349 29.3662C956.023 29.8538 956.75 30.0977 957.529 30.0977C958.573 30.0977 959.095 29.7559 959.095 29.0723C959.095 28.7806 958.981 28.5413 958.753 28.3545C958.525 28.1631 958.062 27.9375 957.365 27.6777C956.527 27.3405 955.982 27.0078 955.731 26.6797C955.481 26.347 955.355 25.946 955.355 25.4766C955.355 24.8066 955.638 24.2712 956.203 23.8701C956.773 23.4645 957.472 23.2617 958.302 23.2617C958.944 23.2617 959.541 23.3734 960.093 23.5967V24.8887C959.528 24.5241 958.887 24.3418 958.172 24.3418C957.743 24.3418 957.395 24.4352 957.126 24.6221C956.857 24.8089 956.723 25.055 956.723 25.3604C956.723 25.6611 956.818 25.8958 957.01 26.0645C957.206 26.2331 957.636 26.4495 958.302 26.7139C959.145 27.0283 959.715 27.3542 960.011 27.6914C960.307 28.0286 960.455 28.4456 960.455 28.9424C960.455 29.6351 960.17 30.182 959.601 30.583C959.035 30.9795 958.302 31.1777 957.399 31.1777C956.616 31.1777 955.932 31.0296 955.349 30.7334V29.3662ZM968.412 27.5615H963.121C963.144 28.3682 963.365 28.9925 963.784 29.4346C964.203 29.8721 964.789 30.0908 965.541 30.0908C966.389 30.0908 967.166 29.8197 967.872 29.2773V30.4736C967.207 30.943 966.325 31.1777 965.227 31.1777C964.133 31.1777 963.278 30.8314 962.663 30.1387C962.052 29.446 961.747 28.4844 961.747 27.2539C961.747 26.0964 962.082 25.1416 962.752 24.3896C963.426 23.6377 964.263 23.2617 965.261 23.2617C966.25 23.2617 967.022 23.5807 967.578 24.2188C968.134 24.8522 968.412 25.7409 968.412 26.8848V27.5615ZM967.072 26.4883C967.068 25.8047 966.906 25.276 966.587 24.9023C966.268 24.5286 965.819 24.3418 965.24 24.3418C964.707 24.3418 964.244 24.54 963.853 24.9365C963.465 25.333 963.221 25.8503 963.121 26.4883H967.072Z" fill="white"/>
<path d="M662.432 33.4062C660.805 31.6289 659.991 29.4779 659.991 26.9531C659.991 24.3965 660.805 22.2181 662.432 20.418H663.607C661.99 22.2637 661.181 24.4375 661.181 26.9395C661.181 29.4049 661.985 31.5605 663.594 33.4062H662.432ZM667.6 27.042V31H666.232V20.4111H669.24C670.384 20.4111 671.271 20.6868 671.899 21.2383C672.533 21.7897 672.85 22.5781 672.85 23.6035C672.85 24.6426 672.48 25.4857 671.742 26.1328C671.004 26.7754 670.081 27.0785 668.974 27.042H667.6ZM667.6 21.6143V25.8389H668.864C669.698 25.8389 670.332 25.652 670.765 25.2783C671.198 24.9001 671.414 24.36 671.414 23.6582C671.414 22.2956 670.607 21.6143 668.994 21.6143H667.6ZM674.812 23.9658C675.563 23.4964 676.432 23.2617 677.416 23.2617C679.239 23.2617 680.15 24.2188 680.15 26.1328V31H678.824V29.8311H678.79C678.266 30.7288 677.493 31.1777 676.473 31.1777C675.739 31.1777 675.156 30.9795 674.723 30.583C674.29 30.1865 674.073 29.651 674.073 28.9766C674.073 27.5638 674.91 26.7412 676.582 26.5088L678.824 26.1943C678.824 24.9593 678.314 24.3418 677.293 24.3418C676.386 24.3418 675.559 24.6471 674.812 25.2578V23.9658ZM677.054 27.4453C676.434 27.5273 676.006 27.6823 675.769 27.9102C675.536 28.138 675.42 28.457 675.42 28.8672C675.42 29.2272 675.548 29.5212 675.803 29.749C676.058 29.9769 676.395 30.0908 676.814 30.0908C677.398 30.0908 677.879 29.8857 678.257 29.4756C678.635 29.0654 678.824 28.5505 678.824 27.9307V27.2061L677.054 27.4453ZM688.524 23.4395L685.093 32.1416C684.455 33.7549 683.555 34.5615 682.393 34.5615C682.06 34.5615 681.775 34.5251 681.538 34.4521V33.2764C681.798 33.3766 682.049 33.4268 682.29 33.4268C682.896 33.4268 683.35 33.0713 683.65 32.3604L684.231 30.9863L681.265 23.4395H682.748L684.724 29.1201L684.888 29.7422H684.922C684.949 29.6009 685.004 29.3981 685.086 29.1338L687.15 23.4395H688.524ZM700.487 31H699.147V29.7422H699.12C698.569 30.6992 697.712 31.1777 696.55 31.1777C695.593 31.1777 694.832 30.8382 694.267 30.1592C693.701 29.4756 693.419 28.555 693.419 27.3975C693.419 26.1488 693.738 25.1484 694.376 24.3965C695.014 23.64 695.848 23.2617 696.878 23.2617C697.908 23.2617 698.655 23.6628 699.12 24.4648H699.147V19.8096H700.487V31ZM699.154 26.502C699.154 25.8958 698.954 25.39 698.553 24.9844C698.156 24.5742 697.666 24.3691 697.083 24.3691C696.372 24.3691 695.812 24.6357 695.401 25.1689C694.991 25.6976 694.786 26.4199 694.786 27.3359C694.786 28.179 694.982 28.8467 695.374 29.3389C695.771 29.8265 696.297 30.0703 696.953 30.0703C697.6 30.0703 698.129 29.8311 698.539 29.3525C698.949 28.8695 699.154 28.2702 699.154 27.5547V26.502ZM709.039 27.5615H703.748C703.771 28.3682 703.992 28.9925 704.411 29.4346C704.83 29.8721 705.416 30.0908 706.168 30.0908C707.016 30.0908 707.793 29.8197 708.499 29.2773V30.4736C707.834 30.943 706.952 31.1777 705.854 31.1777C704.76 31.1777 703.905 30.8314 703.29 30.1387C702.679 29.446 702.374 28.4844 702.374 27.2539C702.374 26.0964 702.709 25.1416 703.379 24.3896C704.053 23.6377 704.89 23.2617 705.888 23.2617C706.877 23.2617 707.649 23.5807 708.205 24.2188C708.761 24.8522 709.039 25.7409 709.039 26.8848V27.5615ZM707.699 26.4883C707.695 25.8047 707.533 25.276 707.214 24.9023C706.895 24.5286 706.446 24.3418 705.867 24.3418C705.334 24.3418 704.871 24.54 704.479 24.9365C704.092 25.333 703.848 25.8503 703.748 26.4883H707.699ZM712.163 29.9336V34.4795H710.823V23.4395H712.163V24.7451H712.19C712.783 23.7562 713.649 23.2617 714.788 23.2617C715.754 23.2617 716.511 23.6012 717.058 24.2803C717.609 24.9548 717.885 25.8617 717.885 27.001C717.885 28.2588 717.573 29.2705 716.948 30.0361C716.328 30.7972 715.492 31.1777 714.439 31.1777C713.469 31.1777 712.719 30.763 712.19 29.9336H712.163ZM712.156 27.8828C712.156 28.498 712.354 29.0176 712.751 29.4414C713.147 29.8607 713.644 30.0703 714.241 30.0703C714.952 30.0703 715.508 29.7969 715.909 29.25C716.31 28.7031 716.511 27.9466 716.511 26.9805C716.511 26.1647 716.324 25.5267 715.95 25.0664C715.576 24.6016 715.066 24.3691 714.419 24.3691C713.758 24.3691 713.216 24.6038 712.792 25.0732C712.368 25.5426 712.156 26.1442 712.156 26.8779V27.8828ZM719.259 27.3018C719.259 26.0531 719.607 25.0687 720.305 24.3486C721.002 23.624 721.948 23.2617 723.142 23.2617C724.276 23.2617 725.165 23.6104 725.808 24.3076C726.455 25.0003 726.778 25.9596 726.778 27.1855C726.778 28.3796 726.434 29.3434 725.746 30.0771C725.058 30.8109 724.135 31.1777 722.978 31.1777C721.847 31.1777 720.945 30.8223 720.271 30.1113C719.596 29.4004 719.259 28.4639 719.259 27.3018ZM720.626 27.2607C720.626 28.1312 720.845 28.8171 721.282 29.3184C721.724 29.8197 722.317 30.0703 723.06 30.0703C723.825 30.0703 724.409 29.8265 724.81 29.3389C725.211 28.8467 725.411 28.1426 725.411 27.2266C725.411 26.306 725.211 25.5996 724.81 25.1074C724.409 24.6152 723.825 24.3691 723.06 24.3691C722.308 24.3691 721.713 24.6266 721.275 25.1416C720.842 25.6566 720.626 26.363 720.626 27.2607ZM728.241 29.3662C728.916 29.8538 729.643 30.0977 730.422 30.0977C731.465 30.0977 731.987 29.7559 731.987 29.0723C731.987 28.7806 731.873 28.5413 731.646 28.3545C731.418 28.1631 730.955 27.9375 730.258 27.6777C729.419 27.3405 728.875 27.0078 728.624 26.6797C728.373 26.347 728.248 25.946 728.248 25.4766C728.248 24.8066 728.531 24.2712 729.096 23.8701C729.665 23.4645 730.365 23.2617 731.194 23.2617C731.837 23.2617 732.434 23.3734 732.985 23.5967V24.8887C732.42 24.5241 731.78 24.3418 731.064 24.3418C730.636 24.3418 730.287 24.4352 730.019 24.6221C729.75 24.8089 729.615 25.055 729.615 25.3604C729.615 25.6611 729.711 25.8958 729.902 26.0645C730.098 26.2331 730.529 26.4495 731.194 26.7139C732.037 27.0283 732.607 27.3542 732.903 27.6914C733.2 28.0286 733.348 28.4456 733.348 28.9424C733.348 29.6351 733.063 30.182 732.493 30.583C731.928 30.9795 731.194 31.1777 730.292 31.1777C729.508 31.1777 728.825 31.0296 728.241 30.7334V29.3662ZM734.981 20.7734C734.981 20.5365 735.061 20.3382 735.221 20.1787C735.385 20.0146 735.585 19.9326 735.822 19.9326C736.064 19.9326 736.267 20.0124 736.431 20.1719C736.599 20.3314 736.684 20.5319 736.684 20.7734C736.684 21.0104 736.599 21.2087 736.431 21.3682C736.267 21.5231 736.064 21.6006 735.822 21.6006C735.581 21.6006 735.38 21.5231 735.221 21.3682C735.061 21.2087 734.981 21.0104 734.981 20.7734ZM735.139 31V23.4395H736.479V31H735.139ZM742.508 30.9248C742.216 31.0843 741.822 31.1641 741.325 31.1641C739.972 31.1641 739.295 30.4144 739.295 28.915V24.5469H737.996V23.4395H739.295V21.6211L740.628 21.1973V23.4395H742.508V24.5469H740.628V28.6758C740.628 29.1725 740.712 29.528 740.881 29.7422C741.049 29.9564 741.33 30.0635 741.722 30.0635C742.022 30.0635 742.285 29.9792 742.508 29.8105V30.9248ZM757.93 23.4395L755.674 31H754.279L752.775 25.6953C752.712 25.4674 752.671 25.2259 752.652 24.9707H752.625C752.611 25.1621 752.559 25.3991 752.468 25.6816L750.841 31H749.487L747.218 23.4395H748.612L750.123 29.0449C750.169 29.2135 750.203 29.4437 750.226 29.7354H750.28C750.299 29.4847 750.342 29.2477 750.41 29.0244L752.037 23.4395H753.274L754.86 29.0518C754.906 29.2158 754.942 29.4482 754.97 29.749H755.031C755.04 29.5485 755.081 29.3161 755.154 29.0518L756.631 23.4395H757.93ZM759.14 20.7734C759.14 20.5365 759.219 20.3382 759.379 20.1787C759.543 20.0146 759.743 19.9326 759.98 19.9326C760.222 19.9326 760.425 20.0124 760.589 20.1719C760.757 20.3314 760.842 20.5319 760.842 20.7734C760.842 21.0104 760.757 21.2087 760.589 21.3682C760.425 21.5231 760.222 21.6006 759.98 21.6006C759.739 21.6006 759.538 21.5231 759.379 21.3682C759.219 21.2087 759.14 21.0104 759.14 20.7734ZM759.297 31V23.4395H760.637V31H759.297ZM766.666 30.9248C766.374 31.0843 765.98 31.1641 765.483 31.1641C764.13 31.1641 763.453 30.4144 763.453 28.915V24.5469H762.154V23.4395H763.453V21.6211L764.786 21.1973V23.4395H766.666V24.5469H764.786V28.6758C764.786 29.1725 764.87 29.528 765.039 29.7422C765.208 29.9564 765.488 30.0635 765.88 30.0635C766.181 30.0635 766.443 29.9792 766.666 29.8105V30.9248ZM774.644 31H773.311V26.6523C773.311 25.1302 772.745 24.3691 771.615 24.3691C771.036 24.3691 770.556 24.5924 770.173 25.0391C769.79 25.4811 769.599 26.0394 769.599 26.7139V31H768.259V19.8096H769.599V24.6836H769.626C770.205 23.7357 771.027 23.2617 772.094 23.2617C773.794 23.2617 774.644 24.2894 774.644 26.3447V31ZM776.722 20.7734C776.722 20.5365 776.801 20.3382 776.961 20.1787C777.125 20.0146 777.326 19.9326 777.562 19.9326C777.804 19.9326 778.007 20.0124 778.171 20.1719C778.34 20.3314 778.424 20.5319 778.424 20.7734C778.424 21.0104 778.34 21.2087 778.171 21.3682C778.007 21.5231 777.804 21.6006 777.562 21.6006C777.321 21.6006 777.12 21.5231 776.961 21.3682C776.801 21.2087 776.722 21.0104 776.722 20.7734ZM776.879 31V23.4395H778.219V31H776.879ZM787.01 31H785.677V26.7002C785.677 25.1462 785.109 24.3691 783.975 24.3691C783.387 24.3691 782.904 24.5879 782.525 25.0254C782.147 25.4629 781.958 26.0166 781.958 26.6865V31H780.618V23.4395H781.958V24.6904H781.985C782.555 23.738 783.382 23.2617 784.467 23.2617C785.296 23.2617 785.927 23.5283 786.36 24.0615C786.793 24.5902 787.01 25.3626 787.01 26.3789V31ZM793.169 29.2295C793.894 29.79 794.712 30.0703 795.623 30.0703C796.352 30.0703 796.929 29.8926 797.353 29.5371C797.781 29.1771 797.995 28.6963 797.995 28.0947C797.995 26.7549 797.036 26.085 795.117 26.085H794.235V24.9775H795.076C796.776 24.9775 797.626 24.3486 797.626 23.0908C797.626 21.9287 796.977 21.3477 795.678 21.3477C794.935 21.3477 794.235 21.5983 793.579 22.0996V20.835C794.272 20.4339 795.081 20.2334 796.006 20.2334C796.908 20.2334 797.633 20.4704 798.18 20.9443C798.727 21.4137 799 22.0244 799 22.7764C799 24.1618 798.294 25.0527 796.881 25.4492V25.4766C797.646 25.5586 798.25 25.8298 798.692 26.29C799.139 26.7458 799.362 27.3154 799.362 27.999C799.362 28.9515 799.018 29.7194 798.33 30.3027C797.646 30.8861 796.735 31.1777 795.596 31.1777C794.593 31.1777 793.784 30.9909 793.169 30.6172V29.2295ZM812.31 31H810.97V29.7422H810.942C810.391 30.6992 809.534 31.1777 808.372 31.1777C807.415 31.1777 806.654 30.8382 806.089 30.1592C805.524 29.4756 805.241 28.555 805.241 27.3975C805.241 26.1488 805.56 25.1484 806.198 24.3965C806.836 23.64 807.67 23.2617 808.7 23.2617C809.73 23.2617 810.478 23.6628 810.942 24.4648H810.97V19.8096H812.31V31ZM810.977 26.502C810.977 25.8958 810.776 25.39 810.375 24.9844C809.979 24.5742 809.489 24.3691 808.905 24.3691C808.194 24.3691 807.634 24.6357 807.224 25.1689C806.813 25.6976 806.608 26.4199 806.608 27.3359C806.608 28.179 806.804 28.8467 807.196 29.3389C807.593 29.8265 808.119 30.0703 808.775 30.0703C809.423 30.0703 809.951 29.8311 810.361 29.3525C810.771 28.8695 810.977 28.2702 810.977 27.5547V26.502ZM814.88 23.9658C815.632 23.4964 816.5 23.2617 817.484 23.2617C819.307 23.2617 820.219 24.2188 820.219 26.1328V31H818.893V29.8311H818.858C818.334 30.7288 817.562 31.1777 816.541 31.1777C815.807 31.1777 815.224 30.9795 814.791 30.583C814.358 30.1865 814.142 29.651 814.142 28.9766C814.142 27.5638 814.978 26.7412 816.65 26.5088L818.893 26.1943C818.893 24.9593 818.382 24.3418 817.361 24.3418C816.454 24.3418 815.627 24.6471 814.88 25.2578V23.9658ZM817.122 27.4453C816.502 27.5273 816.074 27.6823 815.837 27.9102C815.604 28.138 815.488 28.457 815.488 28.8672C815.488 29.2272 815.616 29.5212 815.871 29.749C816.126 29.9769 816.464 30.0908 816.883 30.0908C817.466 30.0908 817.947 29.8857 818.325 29.4756C818.703 29.0654 818.893 28.5505 818.893 27.9307V27.2061L817.122 27.4453ZM828.593 23.4395L825.161 32.1416C824.523 33.7549 823.623 34.5615 822.461 34.5615C822.128 34.5615 821.843 34.5251 821.606 34.4521V33.2764C821.866 33.3766 822.117 33.4268 822.358 33.4268C822.965 33.4268 823.418 33.0713 823.719 32.3604L824.3 30.9863L821.333 23.4395H822.816L824.792 29.1201L824.956 29.7422H824.99C825.018 29.6009 825.072 29.3981 825.154 29.1338L827.219 23.4395H828.593ZM829.427 29.3662C830.101 29.8538 830.828 30.0977 831.607 30.0977C832.651 30.0977 833.173 29.7559 833.173 29.0723C833.173 28.7806 833.059 28.5413 832.831 28.3545C832.603 28.1631 832.141 27.9375 831.443 27.6777C830.605 27.3405 830.06 27.0078 829.81 26.6797C829.559 26.347 829.434 25.946 829.434 25.4766C829.434 24.8066 829.716 24.2712 830.281 23.8701C830.851 23.4645 831.55 23.2617 832.38 23.2617C833.022 23.2617 833.619 23.3734 834.171 23.5967V24.8887C833.606 24.5241 832.965 24.3418 832.25 24.3418C831.822 24.3418 831.473 24.4352 831.204 24.6221C830.935 24.8089 830.801 25.055 830.801 25.3604C830.801 25.6611 830.896 25.8958 831.088 26.0645C831.284 26.2331 831.715 26.4495 832.38 26.7139C833.223 27.0283 833.793 27.3542 834.089 27.6914C834.385 28.0286 834.533 28.4456 834.533 28.9424C834.533 29.6351 834.248 30.182 833.679 30.583C833.114 30.9795 832.38 31.1777 831.478 31.1777C830.694 31.1777 830.01 31.0296 829.427 30.7334V29.3662ZM837.568 33.4062H836.393C838.01 31.5651 838.819 29.3867 838.819 26.8711C838.819 24.401 838.015 22.25 836.406 20.418H837.568C839.186 22.1816 839.995 24.3327 839.995 26.8711C839.995 29.4368 839.186 31.6152 837.568 33.4062Z" fill="white"/>
<path d="M8.61328 86.5625C7.83398 86.9727 6.85645 87.1777 5.68066 87.1777C4.16309 87.1777 2.95085 86.6969 2.04395 85.7354C1.13704 84.7692 0.683594 83.4932 0.683594 81.9072C0.683594 80.2028 1.19401 78.8311 2.21484 77.792C3.23568 76.7529 4.53223 76.2334 6.10449 76.2334C7.11621 76.2334 7.95247 76.377 8.61328 76.6641V78.0928C7.85677 77.6735 7.02507 77.4639 6.11816 77.4639C4.93783 77.4639 3.97624 77.8581 3.2334 78.6465C2.49056 79.4303 2.11914 80.4899 2.11914 81.8252C2.11914 83.0921 2.46549 84.0993 3.1582 84.8467C3.85091 85.5895 4.75781 85.9609 5.87891 85.9609C6.92708 85.9609 7.83854 85.724 8.61328 85.25V86.5625ZM14.6152 80.7656C14.3919 80.6061 14.0843 80.5264 13.6924 80.5264C13.1729 80.5264 12.7445 80.7702 12.4072 81.2578C12.07 81.7409 11.9014 82.3789 11.9014 83.1719V87H10.5615V79.4395H11.9014V80.9775H11.9287C12.3115 79.8656 12.9723 79.3096 13.9111 79.3096C14.2165 79.3096 14.4512 79.3438 14.6152 79.4121V80.7656ZM22.0664 83.5615H16.7754C16.7982 84.3682 17.0192 84.9925 17.4385 85.4346C17.8577 85.8721 18.4434 86.0908 19.1953 86.0908C20.043 86.0908 20.82 85.8197 21.5264 85.2773V86.4736C20.861 86.943 19.9792 87.1777 18.8809 87.1777C17.7871 87.1777 16.9326 86.8314 16.3174 86.1387C15.7067 85.446 15.4014 84.4844 15.4014 83.2539C15.4014 82.0964 15.7363 81.1416 16.4062 80.3896C17.0807 79.6377 17.917 79.2617 18.915 79.2617C19.904 79.2617 20.6764 79.5807 21.2324 80.2188C21.7884 80.8522 22.0664 81.7409 22.0664 82.8848V83.5615ZM20.7266 82.4883C20.722 81.8047 20.5602 81.276 20.2412 80.9023C19.9222 80.5286 19.4733 80.3418 18.8945 80.3418C18.3613 80.3418 17.8988 80.54 17.5068 80.9365C17.1195 81.333 16.8757 81.8503 16.7754 82.4883H20.7266ZM24.0283 79.9658C24.7803 79.4964 25.6484 79.2617 26.6328 79.2617C28.4557 79.2617 29.3672 80.2188 29.3672 82.1328V87H28.041V85.8311H28.0068C27.4827 86.7288 26.7103 87.1777 25.6895 87.1777C24.9557 87.1777 24.3724 86.9795 23.9395 86.583C23.5065 86.1865 23.29 85.651 23.29 84.9766C23.29 83.5638 24.1263 82.7412 25.7988 82.5088L28.041 82.1943C28.041 80.9593 27.5306 80.3418 26.5098 80.3418C25.6029 80.3418 24.7757 80.6471 24.0283 81.2578V79.9658ZM26.2705 83.4453C25.6507 83.5273 25.2223 83.6823 24.9854 83.9102C24.7529 84.138 24.6367 84.457 24.6367 84.8672C24.6367 85.2272 24.7643 85.5212 25.0195 85.749C25.2747 85.9769 25.612 86.0908 26.0312 86.0908C26.6146 86.0908 27.0954 85.8857 27.4736 85.4756C27.8519 85.0654 28.041 84.5505 28.041 83.9307V83.2061L26.2705 83.4453ZM35.2188 86.9248C34.9271 87.0843 34.5329 87.1641 34.0361 87.1641C32.6826 87.1641 32.0059 86.4144 32.0059 84.915V80.5469H30.707V79.4395H32.0059V77.6211L33.3389 77.1973V79.4395H35.2188V80.5469H33.3389V84.6758C33.3389 85.1725 33.4232 85.528 33.5918 85.7422C33.7604 85.9564 34.0407 86.0635 34.4326 86.0635C34.7334 86.0635 34.9954 85.9792 35.2188 85.8105V86.9248ZM42.9707 83.5615H37.6797C37.7025 84.3682 37.9235 84.9925 38.3428 85.4346C38.762 85.8721 39.3477 86.0908 40.0996 86.0908C40.9473 86.0908 41.7243 85.8197 42.4307 85.2773V86.4736C41.7653 86.943 40.8835 87.1777 39.7852 87.1777C38.6914 87.1777 37.8369 86.8314 37.2217 86.1387C36.611 85.446 36.3057 84.4844 36.3057 83.2539C36.3057 82.0964 36.6406 81.1416 37.3105 80.3896C37.985 79.6377 38.8213 79.2617 39.8193 79.2617C40.8083 79.2617 41.5807 79.5807 42.1367 80.2188C42.6927 80.8522 42.9707 81.7409 42.9707 82.8848V83.5615ZM41.6309 82.4883C41.6263 81.8047 41.4645 81.276 41.1455 80.9023C40.8265 80.5286 40.3776 80.3418 39.7988 80.3418C39.2656 80.3418 38.8031 80.54 38.4111 80.9365C38.0238 81.333 37.7799 81.8503 37.6797 82.4883H41.6309ZM52.5273 86.9248C52.2357 87.0843 51.8415 87.1641 51.3447 87.1641C49.9912 87.1641 49.3145 86.4144 49.3145 84.915V80.5469H48.0156V79.4395H49.3145V77.6211L50.6475 77.1973V79.4395H52.5273V80.5469H50.6475V84.6758C50.6475 85.1725 50.7318 85.528 50.9004 85.7422C51.069 85.9564 51.3493 86.0635 51.7412 86.0635C52.042 86.0635 52.304 85.9792 52.5273 85.8105V86.9248ZM53.9561 76.7734C53.9561 76.5365 54.0358 76.3382 54.1953 76.1787C54.3594 76.0146 54.5599 75.9326 54.7969 75.9326C55.0384 75.9326 55.2412 76.0124 55.4053 76.1719C55.5739 76.3314 55.6582 76.5319 55.6582 76.7734C55.6582 77.0104 55.5739 77.2087 55.4053 77.3682C55.2412 77.5231 55.0384 77.6006 54.7969 77.6006C54.5553 77.6006 54.3548 77.5231 54.1953 77.3682C54.0358 77.2087 53.9561 77.0104 53.9561 76.7734ZM54.1133 87V79.4395H55.4531V87H54.1133ZM68.7354 87H67.3955V82.6592C67.3955 81.8389 67.2679 81.2533 67.0127 80.9023C66.7575 80.5469 66.3382 80.3691 65.7549 80.3691C65.2627 80.3691 64.8411 80.5993 64.4902 81.0596C64.1393 81.5199 63.9639 82.0645 63.9639 82.6934V87H62.624V82.5225C62.624 81.0869 62.0703 80.3691 60.9629 80.3691C60.4525 80.3691 60.0286 80.5879 59.6914 81.0254C59.3587 81.4629 59.1924 82.0212 59.1924 82.7002V87H57.8525V79.4395H59.1924V80.6357H59.2197C59.7575 79.7197 60.5436 79.2617 61.5781 79.2617C62.084 79.2617 62.5306 79.4007 62.918 79.6787C63.3053 79.9567 63.5742 80.3327 63.7246 80.8066C64.2852 79.7767 65.1237 79.2617 66.2402 79.2617C67.9036 79.2617 68.7354 80.2871 68.7354 82.3379V87ZM77.1367 83.5615H71.8457C71.8685 84.3682 72.0895 84.9925 72.5088 85.4346C72.9281 85.8721 73.5137 86.0908 74.2656 86.0908C75.1133 86.0908 75.8903 85.8197 76.5967 85.2773V86.4736C75.9313 86.943 75.0495 87.1777 73.9512 87.1777C72.8574 87.1777 72.0029 86.8314 71.3877 86.1387C70.777 85.446 70.4717 84.4844 70.4717 83.2539C70.4717 82.0964 70.8066 81.1416 71.4766 80.3896C72.151 79.6377 72.9873 79.2617 73.9854 79.2617C74.9743 79.2617 75.7467 79.5807 76.3027 80.2188C76.8587 80.8522 77.1367 81.7409 77.1367 82.8848V83.5615ZM75.7969 82.4883C75.7923 81.8047 75.6305 81.276 75.3115 80.9023C74.9925 80.5286 74.5436 80.3418 73.9648 80.3418C73.4316 80.3418 72.9691 80.54 72.5771 80.9365C72.1898 81.333 71.946 81.8503 71.8457 82.4883H75.7969Z" fill="#15163D"/>
<path d="M305.099 87H303.485L301.729 84.0605C301.378 83.4727 301.056 83.0739 300.765 82.8643C300.473 82.6501 300.124 82.543 299.719 82.543H298.734V87H297.367V76.4111H300.594C301.624 76.4111 302.43 76.6595 303.014 77.1562C303.597 77.653 303.889 78.348 303.889 79.2412C303.889 80.7087 303.105 81.6611 301.537 82.0986V82.1328C301.829 82.2559 302.079 82.4313 302.289 82.6592C302.503 82.887 302.779 83.2767 303.116 83.8281L305.099 87ZM298.734 77.6074V81.3467H300.348C300.972 81.3467 301.478 81.1644 301.865 80.7998C302.257 80.4352 302.453 79.9567 302.453 79.3643C302.453 78.8128 302.275 78.3822 301.92 78.0723C301.564 77.7624 301.047 77.6074 300.368 77.6074H298.734ZM306.521 79.9658C307.272 79.4964 308.141 79.2617 309.125 79.2617C310.948 79.2617 311.859 80.2188 311.859 82.1328V87H310.533V85.8311H310.499C309.975 86.7288 309.202 87.1777 308.182 87.1777C307.448 87.1777 306.865 86.9795 306.432 86.583C305.999 86.1865 305.782 85.651 305.782 84.9766C305.782 83.5638 306.618 82.7412 308.291 82.5088L310.533 82.1943C310.533 80.9593 310.023 80.3418 309.002 80.3418C308.095 80.3418 307.268 80.6471 306.521 81.2578V79.9658ZM308.763 83.4453C308.143 83.5273 307.715 83.6823 307.478 83.9102C307.245 84.138 307.129 84.457 307.129 84.8672C307.129 85.2272 307.257 85.5212 307.512 85.749C307.767 85.9769 308.104 86.0908 308.523 86.0908C309.107 86.0908 309.588 85.8857 309.966 85.4756C310.344 85.0654 310.533 84.5505 310.533 83.9307V83.2061L308.763 83.4453ZM313.657 85.3662C314.332 85.8538 315.059 86.0977 315.838 86.0977C316.882 86.0977 317.403 85.7559 317.403 85.0723C317.403 84.7806 317.289 84.5413 317.062 84.3545C316.834 84.1631 316.371 83.9375 315.674 83.6777C314.835 83.3405 314.291 83.0078 314.04 82.6797C313.789 82.347 313.664 81.946 313.664 81.4766C313.664 80.8066 313.947 80.2712 314.512 79.8701C315.081 79.4645 315.781 79.2617 316.61 79.2617C317.253 79.2617 317.85 79.3734 318.401 79.5967V80.8887C317.836 80.5241 317.196 80.3418 316.48 80.3418C316.052 80.3418 315.703 80.4352 315.435 80.6221C315.166 80.8089 315.031 81.055 315.031 81.3604C315.031 81.6611 315.127 81.8958 315.318 82.0645C315.514 82.2331 315.945 82.4495 316.61 82.7139C317.453 83.0283 318.023 83.3542 318.319 83.6914C318.616 84.0286 318.764 84.4456 318.764 84.9424C318.764 85.6351 318.479 86.182 317.909 86.583C317.344 86.9795 316.61 87.1777 315.708 87.1777C314.924 87.1777 314.241 87.0296 313.657 86.7334V85.3662ZM320.397 76.7734C320.397 76.5365 320.477 76.3382 320.637 76.1787C320.801 76.0146 321.001 75.9326 321.238 75.9326C321.48 75.9326 321.683 76.0124 321.847 76.1719C322.015 76.3314 322.1 76.5319 322.1 76.7734C322.1 77.0104 322.015 77.2087 321.847 77.3682C321.683 77.5231 321.48 77.6006 321.238 77.6006C320.997 77.6006 320.796 77.5231 320.637 77.3682C320.477 77.2087 320.397 77.0104 320.397 76.7734ZM320.555 87V79.4395H321.895V87H320.555ZM330.686 87H329.353V82.7002C329.353 81.1462 328.785 80.3691 327.65 80.3691C327.062 80.3691 326.579 80.5879 326.201 81.0254C325.823 81.4629 325.634 82.0166 325.634 82.6865V87H324.294V79.4395H325.634V80.6904H325.661C326.231 79.738 327.058 79.2617 328.143 79.2617C328.972 79.2617 329.603 79.5283 330.036 80.0615C330.469 80.5902 330.686 81.3626 330.686 82.3789V87ZM339.483 86.3643C339.483 89.1624 338.125 90.5615 335.409 90.5615C334.47 90.5615 333.655 90.3861 332.962 90.0352V88.7432C333.805 89.2126 334.614 89.4473 335.389 89.4473C337.225 89.4473 338.144 88.4811 338.144 86.5488V85.749H338.116C337.542 86.7015 336.685 87.1777 335.546 87.1777C334.598 87.1777 333.839 86.8382 333.27 86.1592C332.7 85.4801 332.415 84.5801 332.415 83.459C332.415 82.1693 332.729 81.1484 333.358 80.3965C333.987 79.64 334.826 79.2617 335.874 79.2617C336.881 79.2617 337.629 79.6628 338.116 80.4648H338.144V79.4395H339.483V86.3643ZM338.144 82.502C338.148 81.9186 337.952 81.4173 337.556 80.998C337.159 80.5788 336.672 80.3691 336.093 80.3691C335.364 80.3691 334.796 80.638 334.391 81.1758C333.985 81.709 333.782 82.4427 333.782 83.377C333.782 84.179 333.978 84.8285 334.37 85.3252C334.762 85.8219 335.282 86.0703 335.929 86.0703C336.58 86.0703 337.114 85.8333 337.528 85.3594C337.943 84.8854 338.148 84.2839 338.144 83.5547V82.502ZM345.595 85.3662C346.269 85.8538 346.996 86.0977 347.775 86.0977C348.819 86.0977 349.341 85.7559 349.341 85.0723C349.341 84.7806 349.227 84.5413 348.999 84.3545C348.771 84.1631 348.309 83.9375 347.611 83.6777C346.773 83.3405 346.228 83.0078 345.978 82.6797C345.727 82.347 345.602 81.946 345.602 81.4766C345.602 80.8066 345.884 80.2712 346.449 79.8701C347.019 79.4645 347.718 79.2617 348.548 79.2617C349.19 79.2617 349.787 79.3734 350.339 79.5967V80.8887C349.774 80.5241 349.133 80.3418 348.418 80.3418C347.99 80.3418 347.641 80.4352 347.372 80.6221C347.103 80.8089 346.969 81.055 346.969 81.3604C346.969 81.6611 347.064 81.8958 347.256 82.0645C347.452 82.2331 347.882 82.4495 348.548 82.7139C349.391 83.0283 349.961 83.3542 350.257 83.6914C350.553 84.0286 350.701 84.4456 350.701 84.9424C350.701 85.6351 350.416 86.182 349.847 86.583C349.282 86.9795 348.548 87.1777 347.646 87.1777C346.862 87.1777 346.178 87.0296 345.595 86.7334V85.3662ZM356.129 86.9248C355.837 87.0843 355.443 87.1641 354.946 87.1641C353.593 87.1641 352.916 86.4144 352.916 84.915V80.5469H351.617V79.4395H352.916V77.6211L354.249 77.1973V79.4395H356.129V80.5469H354.249V84.6758C354.249 85.1725 354.333 85.528 354.502 85.7422C354.671 85.9564 354.951 86.0635 355.343 86.0635C355.644 86.0635 355.906 85.9792 356.129 85.8105V86.9248ZM357.899 79.9658C358.651 79.4964 359.52 79.2617 360.504 79.2617C362.327 79.2617 363.238 80.2188 363.238 82.1328V87H361.912V85.8311H361.878C361.354 86.7288 360.581 87.1777 359.561 87.1777C358.827 87.1777 358.243 86.9795 357.811 86.583C357.378 86.1865 357.161 85.651 357.161 84.9766C357.161 83.5638 357.997 82.7412 359.67 82.5088L361.912 82.1943C361.912 80.9593 361.402 80.3418 360.381 80.3418C359.474 80.3418 358.647 80.6471 357.899 81.2578V79.9658ZM360.142 83.4453C359.522 83.5273 359.093 83.6823 358.856 83.9102C358.624 84.138 358.508 84.457 358.508 84.8672C358.508 85.2272 358.635 85.5212 358.891 85.749C359.146 85.9769 359.483 86.0908 359.902 86.0908C360.486 86.0908 360.966 85.8857 361.345 85.4756C361.723 85.0654 361.912 84.5505 361.912 83.9307V83.2061L360.142 83.4453ZM369.514 80.7656C369.29 80.6061 368.983 80.5264 368.591 80.5264C368.071 80.5264 367.643 80.7702 367.306 81.2578C366.968 81.7409 366.8 82.3789 366.8 83.1719V87H365.46V79.4395H366.8V80.9775H366.827C367.21 79.8656 367.871 79.3096 368.81 79.3096C369.115 79.3096 369.35 79.3438 369.514 79.4121V80.7656ZM374.436 86.9248C374.144 87.0843 373.75 87.1641 373.253 87.1641C371.899 87.1641 371.223 86.4144 371.223 84.915V80.5469H369.924V79.4395H371.223V77.6211L372.556 77.1973V79.4395H374.436V80.5469H372.556V84.6758C372.556 85.1725 372.64 85.528 372.809 85.7422C372.977 85.9564 373.257 86.0635 373.649 86.0635C373.95 86.0635 374.212 85.9792 374.436 85.8105V86.9248ZM383.801 86.9248C383.509 87.0843 383.115 87.1641 382.618 87.1641C381.265 87.1641 380.588 86.4144 380.588 84.915V80.5469H379.289V79.4395H380.588V77.6211L381.921 77.1973V79.4395H383.801V80.5469H381.921V84.6758C381.921 85.1725 382.005 85.528 382.174 85.7422C382.342 85.9564 382.623 86.0635 383.015 86.0635C383.315 86.0635 383.577 85.9792 383.801 85.8105V86.9248ZM385.229 76.7734C385.229 76.5365 385.309 76.3382 385.469 76.1787C385.633 76.0146 385.833 75.9326 386.07 75.9326C386.312 75.9326 386.515 76.0124 386.679 76.1719C386.847 76.3314 386.932 76.5319 386.932 76.7734C386.932 77.0104 386.847 77.2087 386.679 77.3682C386.515 77.5231 386.312 77.6006 386.07 77.6006C385.829 77.6006 385.628 77.5231 385.469 77.3682C385.309 77.2087 385.229 77.0104 385.229 76.7734ZM385.387 87V79.4395H386.727V87H385.387ZM400.009 87H398.669V82.6592C398.669 81.8389 398.541 81.2533 398.286 80.9023C398.031 80.5469 397.612 80.3691 397.028 80.3691C396.536 80.3691 396.115 80.5993 395.764 81.0596C395.413 81.5199 395.237 82.0645 395.237 82.6934V87H393.897V82.5225C393.897 81.0869 393.344 80.3691 392.236 80.3691C391.726 80.3691 391.302 80.5879 390.965 81.0254C390.632 81.4629 390.466 82.0212 390.466 82.7002V87H389.126V79.4395H390.466V80.6357H390.493C391.031 79.7197 391.817 79.2617 392.852 79.2617C393.357 79.2617 393.804 79.4007 394.191 79.6787C394.579 79.9567 394.848 80.3327 394.998 80.8066C395.559 79.7767 396.397 79.2617 397.514 79.2617C399.177 79.2617 400.009 80.2871 400.009 82.3379V87ZM408.41 83.5615H403.119C403.142 84.3682 403.363 84.9925 403.782 85.4346C404.201 85.8721 404.787 86.0908 405.539 86.0908C406.387 86.0908 407.164 85.8197 407.87 85.2773V86.4736C407.205 86.943 406.323 87.1777 405.225 87.1777C404.131 87.1777 403.276 86.8314 402.661 86.1387C402.05 85.446 401.745 84.4844 401.745 83.2539C401.745 82.0964 402.08 81.1416 402.75 80.3896C403.424 79.6377 404.261 79.2617 405.259 79.2617C406.248 79.2617 407.02 79.5807 407.576 80.2188C408.132 80.8522 408.41 81.7409 408.41 82.8848V83.5615ZM407.07 82.4883C407.066 81.8047 406.904 81.276 406.585 80.9023C406.266 80.5286 405.817 80.3418 405.238 80.3418C404.705 80.3418 404.243 80.54 403.851 80.9365C403.463 81.333 403.219 81.8503 403.119 82.4883H407.07Z" fill="#15163D"/>
<path d="M603.099 87H601.485L599.729 84.0605C599.378 83.4727 599.056 83.0739 598.765 82.8643C598.473 82.6501 598.124 82.543 597.719 82.543H596.734V87H595.367V76.4111H598.594C599.624 76.4111 600.43 76.6595 601.014 77.1562C601.597 77.653 601.889 78.348 601.889 79.2412C601.889 80.7087 601.105 81.6611 599.537 82.0986V82.1328C599.829 82.2559 600.079 82.4313 600.289 82.6592C600.503 82.887 600.779 83.2767 601.116 83.8281L603.099 87ZM596.734 77.6074V81.3467H598.348C598.972 81.3467 599.478 81.1644 599.865 80.7998C600.257 80.4352 600.453 79.9567 600.453 79.3643C600.453 78.8128 600.275 78.3822 599.92 78.0723C599.564 77.7624 599.047 77.6074 598.368 77.6074H596.734ZM604.521 79.9658C605.272 79.4964 606.141 79.2617 607.125 79.2617C608.948 79.2617 609.859 80.2188 609.859 82.1328V87H608.533V85.8311H608.499C607.975 86.7288 607.202 87.1777 606.182 87.1777C605.448 87.1777 604.865 86.9795 604.432 86.583C603.999 86.1865 603.782 85.651 603.782 84.9766C603.782 83.5638 604.618 82.7412 606.291 82.5088L608.533 82.1943C608.533 80.9593 608.023 80.3418 607.002 80.3418C606.095 80.3418 605.268 80.6471 604.521 81.2578V79.9658ZM606.763 83.4453C606.143 83.5273 605.715 83.6823 605.478 83.9102C605.245 84.138 605.129 84.457 605.129 84.8672C605.129 85.2272 605.257 85.5212 605.512 85.749C605.767 85.9769 606.104 86.0908 606.523 86.0908C607.107 86.0908 607.588 85.8857 607.966 85.4756C608.344 85.0654 608.533 84.5505 608.533 83.9307V83.2061L606.763 83.4453ZM611.657 85.3662C612.332 85.8538 613.059 86.0977 613.838 86.0977C614.882 86.0977 615.403 85.7559 615.403 85.0723C615.403 84.7806 615.289 84.5413 615.062 84.3545C614.834 84.1631 614.371 83.9375 613.674 83.6777C612.835 83.3405 612.291 83.0078 612.04 82.6797C611.789 82.347 611.664 81.946 611.664 81.4766C611.664 80.8066 611.947 80.2712 612.512 79.8701C613.081 79.4645 613.781 79.2617 614.61 79.2617C615.253 79.2617 615.85 79.3734 616.401 79.5967V80.8887C615.836 80.5241 615.196 80.3418 614.48 80.3418C614.052 80.3418 613.703 80.4352 613.435 80.6221C613.166 80.8089 613.031 81.055 613.031 81.3604C613.031 81.6611 613.127 81.8958 613.318 82.0645C613.514 82.2331 613.945 82.4495 614.61 82.7139C615.453 83.0283 616.023 83.3542 616.319 83.6914C616.616 84.0286 616.764 84.4456 616.764 84.9424C616.764 85.6351 616.479 86.182 615.909 86.583C615.344 86.9795 614.61 87.1777 613.708 87.1777C612.924 87.1777 612.241 87.0296 611.657 86.7334V85.3662ZM618.397 76.7734C618.397 76.5365 618.477 76.3382 618.637 76.1787C618.801 76.0146 619.001 75.9326 619.238 75.9326C619.48 75.9326 619.683 76.0124 619.847 76.1719C620.015 76.3314 620.1 76.5319 620.1 76.7734C620.1 77.0104 620.015 77.2087 619.847 77.3682C619.683 77.5231 619.48 77.6006 619.238 77.6006C618.997 77.6006 618.796 77.5231 618.637 77.3682C618.477 77.2087 618.397 77.0104 618.397 76.7734ZM618.555 87V79.4395H619.895V87H618.555ZM628.686 87H627.353V82.7002C627.353 81.1462 626.785 80.3691 625.65 80.3691C625.062 80.3691 624.579 80.5879 624.201 81.0254C623.823 81.4629 623.634 82.0166 623.634 82.6865V87H622.294V79.4395H623.634V80.6904H623.661C624.231 79.738 625.058 79.2617 626.143 79.2617C626.972 79.2617 627.603 79.5283 628.036 80.0615C628.469 80.5902 628.686 81.3626 628.686 82.3789V87ZM637.483 86.3643C637.483 89.1624 636.125 90.5615 633.409 90.5615C632.47 90.5615 631.655 90.3861 630.962 90.0352V88.7432C631.805 89.2126 632.614 89.4473 633.389 89.4473C635.225 89.4473 636.144 88.4811 636.144 86.5488V85.749H636.116C635.542 86.7015 634.685 87.1777 633.546 87.1777C632.598 87.1777 631.839 86.8382 631.27 86.1592C630.7 85.4801 630.415 84.5801 630.415 83.459C630.415 82.1693 630.729 81.1484 631.358 80.3965C631.987 79.64 632.826 79.2617 633.874 79.2617C634.881 79.2617 635.629 79.6628 636.116 80.4648H636.144V79.4395H637.483V86.3643ZM636.144 82.502C636.148 81.9186 635.952 81.4173 635.556 80.998C635.159 80.5788 634.672 80.3691 634.093 80.3691C633.364 80.3691 632.796 80.638 632.391 81.1758C631.985 81.709 631.782 82.4427 631.782 83.377C631.782 84.179 631.978 84.8285 632.37 85.3252C632.762 85.8219 633.282 86.0703 633.929 86.0703C634.58 86.0703 635.114 85.8333 635.528 85.3594C635.943 84.8854 636.148 84.2839 636.144 83.5547V82.502ZM650.178 83.5615H644.887C644.91 84.3682 645.131 84.9925 645.55 85.4346C645.969 85.8721 646.555 86.0908 647.307 86.0908C648.154 86.0908 648.931 85.8197 649.638 85.2773V86.4736C648.972 86.943 648.09 87.1777 646.992 87.1777C645.898 87.1777 645.044 86.8314 644.429 86.1387C643.818 85.446 643.513 84.4844 643.513 83.2539C643.513 82.0964 643.848 81.1416 644.518 80.3896C645.192 79.6377 646.028 79.2617 647.026 79.2617C648.015 79.2617 648.788 79.5807 649.344 80.2188C649.9 80.8522 650.178 81.7409 650.178 82.8848V83.5615ZM648.838 82.4883C648.833 81.8047 648.672 81.276 648.353 80.9023C648.034 80.5286 647.585 80.3418 647.006 80.3418C646.473 80.3418 646.01 80.54 645.618 80.9365C645.231 81.333 644.987 81.8503 644.887 82.4883H648.838ZM658.354 87H657.021V82.7002C657.021 81.1462 656.453 80.3691 655.318 80.3691C654.73 80.3691 654.247 80.5879 653.869 81.0254C653.491 81.4629 653.302 82.0166 653.302 82.6865V87H651.962V79.4395H653.302V80.6904H653.329C653.899 79.738 654.726 79.2617 655.811 79.2617C656.64 79.2617 657.271 79.5283 657.704 80.0615C658.137 80.5902 658.354 81.3626 658.354 82.3789V87ZM667.151 87H665.812V85.7422H665.784C665.233 86.6992 664.376 87.1777 663.214 87.1777C662.257 87.1777 661.496 86.8382 660.931 86.1592C660.366 85.4756 660.083 84.555 660.083 83.3975C660.083 82.1488 660.402 81.1484 661.04 80.3965C661.678 79.64 662.512 79.2617 663.542 79.2617C664.572 79.2617 665.319 79.6628 665.784 80.4648H665.812V75.8096H667.151V87ZM665.818 82.502C665.818 81.8958 665.618 81.39 665.217 80.9844C664.82 80.5742 664.33 80.3691 663.747 80.3691C663.036 80.3691 662.476 80.6357 662.065 81.1689C661.655 81.6976 661.45 82.4199 661.45 83.3359C661.45 84.179 661.646 84.8467 662.038 85.3389C662.435 85.8265 662.961 86.0703 663.617 86.0703C664.264 86.0703 664.793 85.8311 665.203 85.3525C665.613 84.8695 665.818 84.2702 665.818 83.5547V82.502ZM677.316 86.9248C677.025 87.0843 676.631 87.1641 676.134 87.1641C674.78 87.1641 674.104 86.4144 674.104 84.915V80.5469H672.805V79.4395H674.104V77.6211L675.437 77.1973V79.4395H677.316V80.5469H675.437V84.6758C675.437 85.1725 675.521 85.528 675.689 85.7422C675.858 85.9564 676.138 86.0635 676.53 86.0635C676.831 86.0635 677.093 85.9792 677.316 85.8105V86.9248ZM678.745 76.7734C678.745 76.5365 678.825 76.3382 678.984 76.1787C679.148 76.0146 679.349 75.9326 679.586 75.9326C679.827 75.9326 680.03 76.0124 680.194 76.1719C680.363 76.3314 680.447 76.5319 680.447 76.7734C680.447 77.0104 680.363 77.2087 680.194 77.3682C680.03 77.5231 679.827 77.6006 679.586 77.6006C679.344 77.6006 679.144 77.5231 678.984 77.3682C678.825 77.2087 678.745 77.0104 678.745 76.7734ZM678.902 87V79.4395H680.242V87H678.902ZM693.524 87H692.185V82.6592C692.185 81.8389 692.057 81.2533 691.802 80.9023C691.547 80.5469 691.127 80.3691 690.544 80.3691C690.052 80.3691 689.63 80.5993 689.279 81.0596C688.928 81.5199 688.753 82.0645 688.753 82.6934V87H687.413V82.5225C687.413 81.0869 686.859 80.3691 685.752 80.3691C685.242 80.3691 684.818 80.5879 684.48 81.0254C684.148 81.4629 683.981 82.0212 683.981 82.7002V87H682.642V79.4395H683.981V80.6357H684.009C684.547 79.7197 685.333 79.2617 686.367 79.2617C686.873 79.2617 687.32 79.4007 687.707 79.6787C688.094 79.9567 688.363 80.3327 688.514 80.8066C689.074 79.7767 689.913 79.2617 691.029 79.2617C692.693 79.2617 693.524 80.2871 693.524 82.3379V87ZM701.926 83.5615H696.635C696.658 84.3682 696.879 84.9925 697.298 85.4346C697.717 85.8721 698.303 86.0908 699.055 86.0908C699.902 86.0908 700.679 85.8197 701.386 85.2773V86.4736C700.72 86.943 699.839 87.1777 698.74 87.1777C697.646 87.1777 696.792 86.8314 696.177 86.1387C695.566 85.446 695.261 84.4844 695.261 83.2539C695.261 82.0964 695.596 81.1416 696.266 80.3896C696.94 79.6377 697.776 79.2617 698.774 79.2617C699.763 79.2617 700.536 79.5807 701.092 80.2188C701.648 80.8522 701.926 81.7409 701.926 82.8848V83.5615ZM700.586 82.4883C700.581 81.8047 700.42 81.276 700.101 80.9023C699.782 80.5286 699.333 80.3418 698.754 80.3418C698.221 80.3418 697.758 80.54 697.366 80.9365C696.979 81.333 696.735 81.8503 696.635 82.4883H700.586Z" fill="#15163D"/>
<path d="M781.215 82.6865C781.215 85.6807 779.857 87.1777 777.141 87.1777C774.538 87.1777 773.237 85.7331 773.237 82.8438V76.4111H774.604V82.7822C774.604 84.9014 775.493 85.9609 777.271 85.9609C778.989 85.9609 779.848 84.9355 779.848 82.8848V76.4111H781.215V82.6865ZM790.047 87H788.714V82.7002C788.714 81.1462 788.146 80.3691 787.012 80.3691C786.424 80.3691 785.941 80.5879 785.562 81.0254C785.184 81.4629 784.995 82.0166 784.995 82.6865V87H783.655V79.4395H784.995V80.6904H785.022C785.592 79.738 786.419 79.2617 787.504 79.2617C788.333 79.2617 788.965 79.5283 789.397 80.0615C789.83 80.5902 790.047 81.3626 790.047 82.3789V87ZM792.275 87V75.8096H793.615V87H792.275ZM795.509 83.3018C795.509 82.0531 795.857 81.0687 796.555 80.3486C797.252 79.624 798.198 79.2617 799.392 79.2617C800.526 79.2617 801.415 79.6104 802.058 80.3076C802.705 81.0003 803.028 81.9596 803.028 83.1855C803.028 84.3796 802.684 85.3434 801.996 86.0771C801.308 86.8109 800.385 87.1777 799.228 87.1777C798.097 87.1777 797.195 86.8223 796.521 86.1113C795.846 85.4004 795.509 84.4639 795.509 83.3018ZM796.876 83.2607C796.876 84.1312 797.095 84.8171 797.532 85.3184C797.974 85.8197 798.567 86.0703 799.31 86.0703C800.075 86.0703 800.659 85.8265 801.06 85.3389C801.461 84.8467 801.661 84.1426 801.661 83.2266C801.661 82.306 801.461 81.5996 801.06 81.1074C800.659 80.6152 800.075 80.3691 799.31 80.3691C798.558 80.3691 797.963 80.6266 797.525 81.1416C797.092 81.6566 796.876 82.363 796.876 83.2607ZM810.138 86.6582C809.559 87.0046 808.862 87.1777 808.046 87.1777C806.952 87.1777 806.073 86.8268 805.407 86.125C804.742 85.4232 804.409 84.514 804.409 83.3975C804.409 82.1579 804.767 81.1598 805.482 80.4033C806.202 79.6423 807.164 79.2617 808.367 79.2617C809.06 79.2617 809.652 79.3848 810.145 79.6309V80.957C809.611 80.5651 809.019 80.3691 808.367 80.3691C807.602 80.3691 806.977 80.6357 806.494 81.1689C806.016 81.6976 805.776 82.404 805.776 83.2881C805.776 84.1585 806.002 84.8398 806.453 85.332C806.909 85.8242 807.522 86.0703 808.292 86.0703C808.944 86.0703 809.559 85.8561 810.138 85.4277V86.6582ZM818.368 87H816.543L813.31 83.3564H813.282V87H811.942V75.8096H813.282V82.9053H813.31L816.379 79.4395H818.102L814.684 83.0762L818.368 87ZM827.344 86.9248C827.052 87.0843 826.658 87.1641 826.161 87.1641C824.808 87.1641 824.131 86.4144 824.131 84.915V80.5469H822.832V79.4395H824.131V77.6211L825.464 77.1973V79.4395H827.344V80.5469H825.464V84.6758C825.464 85.1725 825.548 85.528 825.717 85.7422C825.885 85.9564 826.166 86.0635 826.558 86.0635C826.858 86.0635 827.12 85.9792 827.344 85.8105V86.9248ZM828.772 76.7734C828.772 76.5365 828.852 76.3382 829.012 76.1787C829.176 76.0146 829.376 75.9326 829.613 75.9326C829.855 75.9326 830.058 76.0124 830.222 76.1719C830.39 76.3314 830.475 76.5319 830.475 76.7734C830.475 77.0104 830.39 77.2087 830.222 77.3682C830.058 77.5231 829.855 77.6006 829.613 77.6006C829.372 77.6006 829.171 77.5231 829.012 77.3682C828.852 77.2087 828.772 77.0104 828.772 76.7734ZM828.93 87V79.4395H830.27V87H828.93ZM843.552 87H842.212V82.6592C842.212 81.8389 842.084 81.2533 841.829 80.9023C841.574 80.5469 841.155 80.3691 840.571 80.3691C840.079 80.3691 839.658 80.5993 839.307 81.0596C838.956 81.5199 838.78 82.0645 838.78 82.6934V87H837.44V82.5225C837.44 81.0869 836.887 80.3691 835.779 80.3691C835.269 80.3691 834.845 80.5879 834.508 81.0254C834.175 81.4629 834.009 82.0212 834.009 82.7002V87H832.669V79.4395H834.009V80.6357H834.036C834.574 79.7197 835.36 79.2617 836.395 79.2617C836.9 79.2617 837.347 79.4007 837.734 79.6787C838.122 79.9567 838.391 80.3327 838.541 80.8066C839.102 79.7767 839.94 79.2617 841.057 79.2617C842.72 79.2617 843.552 80.2871 843.552 82.3379V87ZM851.953 83.5615H846.662C846.685 84.3682 846.906 84.9925 847.325 85.4346C847.744 85.8721 848.33 86.0908 849.082 86.0908C849.93 86.0908 850.707 85.8197 851.413 85.2773V86.4736C850.748 86.943 849.866 87.1777 848.768 87.1777C847.674 87.1777 846.819 86.8314 846.204 86.1387C845.593 85.446 845.288 84.4844 845.288 83.2539C845.288 82.0964 845.623 81.1416 846.293 80.3896C846.967 79.6377 847.804 79.2617 848.802 79.2617C849.791 79.2617 850.563 79.5807 851.119 80.2188C851.675 80.8522 851.953 81.7409 851.953 82.8848V83.5615ZM850.613 82.4883C850.609 81.8047 850.447 81.276 850.128 80.9023C849.809 80.5286 849.36 80.3418 848.781 80.3418C848.248 80.3418 847.785 80.54 847.394 80.9365C847.006 81.333 846.762 81.8503 846.662 82.4883H850.613Z" fill="#15163D"/>
<path d="M925.099 87H923.485L921.729 84.0605C921.378 83.4727 921.056 83.0739 920.765 82.8643C920.473 82.6501 920.124 82.543 919.719 82.543H918.734V87H917.367V76.4111H920.594C921.624 76.4111 922.43 76.6595 923.014 77.1562C923.597 77.653 923.889 78.348 923.889 79.2412C923.889 80.7087 923.105 81.6611 921.537 82.0986V82.1328C921.829 82.2559 922.079 82.4313 922.289 82.6592C922.503 82.887 922.779 83.2767 923.116 83.8281L925.099 87ZM918.734 77.6074V81.3467H920.348C920.972 81.3467 921.478 81.1644 921.865 80.7998C922.257 80.4352 922.453 79.9567 922.453 79.3643C922.453 78.8128 922.275 78.3822 921.92 78.0723C921.564 77.7624 921.047 77.6074 920.368 77.6074H918.734ZM932.502 83.5615H927.211C927.234 84.3682 927.455 84.9925 927.874 85.4346C928.293 85.8721 928.879 86.0908 929.631 86.0908C930.479 86.0908 931.256 85.8197 931.962 85.2773V86.4736C931.297 86.943 930.415 87.1777 929.316 87.1777C928.223 87.1777 927.368 86.8314 926.753 86.1387C926.142 85.446 925.837 84.4844 925.837 83.2539C925.837 82.0964 926.172 81.1416 926.842 80.3896C927.516 79.6377 928.353 79.2617 929.351 79.2617C930.34 79.2617 931.112 79.5807 931.668 80.2188C932.224 80.8522 932.502 81.7409 932.502 82.8848V83.5615ZM931.162 82.4883C931.158 81.8047 930.996 81.276 930.677 80.9023C930.358 80.5286 929.909 80.3418 929.33 80.3418C928.797 80.3418 928.334 80.54 927.942 80.9365C927.555 81.333 927.311 81.8503 927.211 82.4883H931.162ZM940.849 87H939.509V85.7422H939.481C938.93 86.6992 938.073 87.1777 936.911 87.1777C935.954 87.1777 935.193 86.8382 934.628 86.1592C934.063 85.4756 933.78 84.555 933.78 83.3975C933.78 82.1488 934.099 81.1484 934.737 80.3965C935.375 79.64 936.209 79.2617 937.239 79.2617C938.269 79.2617 939.017 79.6628 939.481 80.4648H939.509V75.8096H940.849V87ZM939.516 82.502C939.516 81.8958 939.315 81.39 938.914 80.9844C938.518 80.5742 938.028 80.3691 937.444 80.3691C936.733 80.3691 936.173 80.6357 935.763 81.1689C935.353 81.6976 935.147 82.4199 935.147 83.3359C935.147 84.179 935.343 84.8467 935.735 85.3389C936.132 85.8265 936.658 86.0703 937.314 86.0703C937.962 86.0703 938.49 85.8311 938.9 85.3525C939.311 84.8695 939.516 84.2702 939.516 83.5547V82.502ZM949.4 83.5615H944.109C944.132 84.3682 944.353 84.9925 944.772 85.4346C945.192 85.8721 945.777 86.0908 946.529 86.0908C947.377 86.0908 948.154 85.8197 948.86 85.2773V86.4736C948.195 86.943 947.313 87.1777 946.215 87.1777C945.121 87.1777 944.267 86.8314 943.651 86.1387C943.041 85.446 942.735 84.4844 942.735 83.2539C942.735 82.0964 943.07 81.1416 943.74 80.3896C944.415 79.6377 945.251 79.2617 946.249 79.2617C947.238 79.2617 948.01 79.5807 948.566 80.2188C949.122 80.8522 949.4 81.7409 949.4 82.8848V83.5615ZM948.061 82.4883C948.056 81.8047 947.894 81.276 947.575 80.9023C947.256 80.5286 946.807 80.3418 946.229 80.3418C945.695 80.3418 945.233 80.54 944.841 80.9365C944.453 81.333 944.21 81.8503 944.109 82.4883H948.061ZM962.067 87H960.728V82.6592C960.728 81.8389 960.6 81.2533 960.345 80.9023C960.09 80.5469 959.67 80.3691 959.087 80.3691C958.595 80.3691 958.173 80.5993 957.822 81.0596C957.471 81.5199 957.296 82.0645 957.296 82.6934V87H955.956V82.5225C955.956 81.0869 955.402 80.3691 954.295 80.3691C953.785 80.3691 953.361 80.5879 953.023 81.0254C952.691 81.4629 952.524 82.0212 952.524 82.7002V87H951.185V79.4395H952.524V80.6357H952.552C953.09 79.7197 953.876 79.2617 954.91 79.2617C955.416 79.2617 955.863 79.4007 956.25 79.6787C956.637 79.9567 956.906 80.3327 957.057 80.8066C957.617 79.7767 958.456 79.2617 959.572 79.2617C961.236 79.2617 962.067 80.2871 962.067 82.3379V87ZM965.649 85.9336V90.4795H964.31V79.4395H965.649V80.7451H965.677C966.269 79.7562 967.135 79.2617 968.274 79.2617C969.241 79.2617 969.997 79.6012 970.544 80.2803C971.095 80.9548 971.371 81.8617 971.371 83.001C971.371 84.2588 971.059 85.2705 970.435 86.0361C969.815 86.7972 968.979 87.1777 967.926 87.1777C966.955 87.1777 966.205 86.763 965.677 85.9336H965.649ZM965.643 83.8828C965.643 84.498 965.841 85.0176 966.237 85.4414C966.634 85.8607 967.131 86.0703 967.728 86.0703C968.438 86.0703 968.994 85.7969 969.396 85.25C969.797 84.7031 969.997 83.9466 969.997 82.9805C969.997 82.1647 969.81 81.5267 969.437 81.0664C969.063 80.6016 968.552 80.3691 967.905 80.3691C967.244 80.3691 966.702 80.6038 966.278 81.0732C965.854 81.5426 965.643 82.1442 965.643 82.8779V83.8828ZM976.881 86.9248C976.589 87.0843 976.195 87.1641 975.698 87.1641C974.345 87.1641 973.668 86.4144 973.668 84.915V80.5469H972.369V79.4395H973.668V77.6211L975.001 77.1973V79.4395H976.881V80.5469H975.001V84.6758C975.001 85.1725 975.085 85.528 975.254 85.7422C975.423 85.9564 975.703 86.0635 976.095 86.0635C976.396 86.0635 976.658 85.9792 976.881 85.8105V86.9248ZM978.31 76.7734C978.31 76.5365 978.389 76.3382 978.549 76.1787C978.713 76.0146 978.913 75.9326 979.15 75.9326C979.392 75.9326 979.595 76.0124 979.759 76.1719C979.927 76.3314 980.012 76.5319 980.012 76.7734C980.012 77.0104 979.927 77.2087 979.759 77.3682C979.595 77.5231 979.392 77.6006 979.15 77.6006C978.909 77.6006 978.708 77.5231 978.549 77.3682C978.389 77.2087 978.31 77.0104 978.31 76.7734ZM978.467 87V79.4395H979.807V87H978.467ZM981.7 83.3018C981.7 82.0531 982.049 81.0687 982.746 80.3486C983.443 79.624 984.389 79.2617 985.583 79.2617C986.718 79.2617 987.606 79.6104 988.249 80.3076C988.896 81.0003 989.22 81.9596 989.22 83.1855C989.22 84.3796 988.876 85.3434 988.188 86.0771C987.499 86.8109 986.576 87.1777 985.419 87.1777C984.289 87.1777 983.386 86.8223 982.712 86.1113C982.037 85.4004 981.7 84.4639 981.7 83.3018ZM983.067 83.2607C983.067 84.1312 983.286 84.8171 983.724 85.3184C984.166 85.8197 984.758 86.0703 985.501 86.0703C986.267 86.0703 986.85 85.8265 987.251 85.3389C987.652 84.8467 987.853 84.1426 987.853 83.2266C987.853 82.306 987.652 81.5996 987.251 81.1074C986.85 80.6152 986.267 80.3691 985.501 80.3691C984.749 80.3691 984.154 80.6266 983.717 81.1416C983.284 81.6566 983.067 82.363 983.067 83.2607ZM997.498 87H996.165V82.7002C996.165 81.1462 995.598 80.3691 994.463 80.3691C993.875 80.3691 993.392 80.5879 993.014 81.0254C992.635 81.4629 992.446 82.0166 992.446 82.6865V87H991.106V79.4395H992.446V80.6904H992.474C993.043 79.738 993.87 79.2617 994.955 79.2617C995.785 79.2617 996.416 79.5283 996.849 80.0615C997.282 80.5902 997.498 81.3626 997.498 82.3789V87ZM1007.51 86.9248C1007.21 87.0843 1006.82 87.1641 1006.32 87.1641C1004.97 87.1641 1004.29 86.4144 1004.29 84.915V80.5469H1002.99V79.4395H1004.29V77.6211L1005.63 77.1973V79.4395H1007.51V80.5469H1005.63V84.6758C1005.63 85.1725 1005.71 85.528 1005.88 85.7422C1006.05 85.9564 1006.33 86.0635 1006.72 86.0635C1007.02 86.0635 1007.28 85.9792 1007.51 85.8105V86.9248ZM1008.93 76.7734C1008.93 76.5365 1009.01 76.3382 1009.17 76.1787C1009.34 76.0146 1009.54 75.9326 1009.78 75.9326C1010.02 75.9326 1010.22 76.0124 1010.38 76.1719C1010.55 76.3314 1010.64 76.5319 1010.64 76.7734C1010.64 77.0104 1010.55 77.2087 1010.38 77.3682C1010.22 77.5231 1010.02 77.6006 1009.78 77.6006C1009.53 77.6006 1009.33 77.5231 1009.17 77.3682C1009.01 77.2087 1008.93 77.0104 1008.93 76.7734ZM1009.09 87V79.4395H1010.43V87H1009.09ZM1023.71 87H1022.37V82.6592C1022.37 81.8389 1022.25 81.2533 1021.99 80.9023C1021.74 80.5469 1021.32 80.3691 1020.73 80.3691C1020.24 80.3691 1019.82 80.5993 1019.47 81.0596C1019.12 81.5199 1018.94 82.0645 1018.94 82.6934V87H1017.6V82.5225C1017.6 81.0869 1017.05 80.3691 1015.94 80.3691C1015.43 80.3691 1015.01 80.5879 1014.67 81.0254C1014.34 81.4629 1014.17 82.0212 1014.17 82.7002V87H1012.83V79.4395H1014.17V80.6357H1014.2C1014.74 79.7197 1015.52 79.2617 1016.56 79.2617C1017.06 79.2617 1017.51 79.4007 1017.9 79.6787C1018.28 79.9567 1018.55 80.3327 1018.7 80.8066C1019.26 79.7767 1020.1 79.2617 1021.22 79.2617C1022.88 79.2617 1023.71 80.2871 1023.71 82.3379V87ZM1032.12 83.5615H1026.82C1026.85 84.3682 1027.07 84.9925 1027.49 85.4346C1027.91 85.8721 1028.49 86.0908 1029.24 86.0908C1030.09 86.0908 1030.87 85.8197 1031.58 85.2773V86.4736C1030.91 86.943 1030.03 87.1777 1028.93 87.1777C1027.84 87.1777 1026.98 86.8314 1026.37 86.1387C1025.76 85.446 1025.45 84.4844 1025.45 83.2539C1025.45 82.0964 1025.79 81.1416 1026.46 80.3896C1027.13 79.6377 1027.97 79.2617 1028.96 79.2617C1029.95 79.2617 1030.73 79.5807 1031.28 80.2188C1031.84 80.8522 1032.12 81.7409 1032.12 82.8848V83.5615ZM1030.78 82.4883C1030.77 81.8047 1030.61 81.276 1030.29 80.9023C1029.97 80.5286 1029.52 80.3418 1028.94 80.3418C1028.41 80.3418 1027.95 80.54 1027.56 80.9365C1027.17 81.333 1026.92 81.8503 1026.82 82.4883H1030.78Z" fill="#15163D"/>
<path d="M27 55L32.1962 64H21.8038L27 55Z" fill="#15163D"/>
<path d="M341 55L346.196 64H335.804L341 55Z" fill="#15163D"/>
<path d="M655 55L660.196 64H649.804L655 55Z" fill="#15163D"/>
<path d="M969 55L974.196 64H963.804L969 55Z" fill="#15163D"/>
<path d="M812 55L817.196 64H806.804L812 55Z" fill="#15163D"/>
</svg>
