<svg width="996" height="90" viewBox="0 0 996 90" fill="none" xmlns="http://www.w3.org/2000/svg">
<rect x="27" width="314" height="49" fill="#839CDC"/>
<rect x="341" width="314" height="49" fill="#FF0000" fill-opacity="0.47"/>
<rect x="655" width="314" height="49" fill="#48CCCC" fill-opacity="0.8"/>
<path d="M142.185 23.7881H146.683V22.3115H147.749V23.7881H152.261V30.4873H151.249V29.8447H147.749V32.8252H146.683V29.8447H143.196V30.4873H142.185V23.7881ZM140.968 20.9307H146.942C146.71 20.5524 146.446 20.1559 146.149 19.7412L147.093 19.1807C147.466 19.6546 147.795 20.1058 148.077 20.5342L147.435 20.9307H153.478V23.4873H152.411V21.915H142.034V23.4873H140.968V20.9307ZM147.749 28.8877H151.249V27.2744H147.749V28.8877ZM143.196 28.8877H146.683V27.2744H143.196V28.8877ZM151.249 24.7451H147.749V26.3447H151.249V24.7451ZM143.196 26.3447H146.683V24.7451H143.196V26.3447ZM158.728 29.3389C160.541 28.4001 162.063 27.2881 163.294 26.0029C162.401 26.0941 161.571 26.1807 160.806 26.2627C160.468 26.2992 160.154 26.363 159.862 26.4541L159.356 25.4561C159.73 25.2555 160.022 25.0186 160.231 24.7451C160.806 24.0433 161.366 23.2412 161.913 22.3389H159.315V21.3545H163.513C163.139 20.7985 162.793 20.3018 162.474 19.8643L163.362 19.3037C163.709 19.7321 164.11 20.2562 164.565 20.876L163.841 21.3545H168.024V22.3389H163.185C162.519 23.3506 161.831 24.3031 161.12 25.1963C162.123 25.1416 163.139 25.0824 164.169 25.0186C164.688 24.3714 165.144 23.6833 165.536 22.9541L166.534 23.4873C164.976 26.2217 162.633 28.4502 159.507 30.1729C159.252 29.8903 158.992 29.6123 158.728 29.3389ZM154.407 28.04C155.382 26.4906 156.066 24.8408 156.458 23.0908H154.503V22.1338H156.472V19.4131H157.497V22.1338H159.056V23.0908H157.497V25.4971L157.921 25.0459C158.504 25.5381 159.047 26.0303 159.548 26.5225L158.851 27.2197C158.404 26.7367 157.953 26.2855 157.497 25.8662V32.8936H156.472V25.6475C156.007 27.1423 155.465 28.3408 154.845 29.2432C154.726 28.8512 154.58 28.4502 154.407 28.04ZM159.138 32.0322C162.255 30.7197 164.821 28.5778 166.835 25.6064L167.765 26.2354C166.981 27.3656 166.124 28.3818 165.194 29.2842C166.243 30.141 167.227 30.9795 168.147 31.7998L167.313 32.6885C166.457 31.8408 165.5 30.9385 164.442 29.9814C163.066 31.1937 161.539 32.1781 159.862 32.9346C159.689 32.6885 159.448 32.3877 159.138 32.0322ZM173.056 27.0283C173.311 28.7783 172.896 29.749 171.812 29.9404C171.465 30.0042 171.019 30.0088 170.472 29.9541C170.399 29.5804 170.312 29.2067 170.212 28.833C170.64 28.9424 171.05 28.9788 171.442 28.9424C172.053 28.8695 172.249 28.2451 172.03 27.0693C171.921 26.4495 171.515 25.6794 170.813 24.7588C171.151 23.6468 171.515 22.389 171.907 20.9854H170.103V32.8662H169.091V20.0283H173.015V20.9854C172.595 22.307 172.208 23.5055 171.853 24.5811C172.554 25.529 172.955 26.3447 173.056 27.0283ZM175.804 24.7998V26.9736C175.804 29.5439 175.061 31.54 173.575 32.9619C173.311 32.7249 173.006 32.488 172.659 32.251C174.063 30.984 174.765 29.2113 174.765 26.9326V24.7998H175.804ZM178.729 24.7998H179.769V32.7979H178.729V24.7998ZM178.005 19.4541L177.813 19.8916C178.953 21.9697 180.375 23.387 182.079 24.1436C181.842 24.417 181.591 24.736 181.327 25.1006C179.668 24.098 178.319 22.6852 177.28 20.8623C176.332 22.5576 175.029 24.0342 173.37 25.292C173.151 24.973 172.914 24.6859 172.659 24.4307C174.427 23.2549 175.849 21.596 176.925 19.4541H178.005ZM188.437 26.6729V25.7021H194.821V26.7275C194.288 28.0173 193.536 29.1383 192.565 30.0908C193.509 30.7881 194.68 31.2848 196.079 31.5811C195.797 31.9456 195.564 32.2965 195.382 32.6338C193.942 32.21 192.732 31.6016 191.752 30.8086C190.699 31.6471 189.439 32.333 187.972 32.8662C187.707 32.4378 187.489 32.1234 187.315 31.9229C188.746 31.417 189.961 30.7972 190.959 30.0635C190.089 29.1292 189.462 27.999 189.079 26.6729H188.437ZM182.407 29.4209C182.754 29.389 183.104 29.3548 183.46 29.3184V20.2881C185.447 20.1787 187.015 20.0192 188.163 19.8096L188.532 20.8213C187.493 20.958 186.14 21.0811 184.472 21.1904V23.0908H187.931V23.9932H184.472V26.0576H187.89V26.96H184.472V29.209C185.725 29.0677 187.042 28.9059 188.423 28.7236C188.414 28.9059 188.409 29.234 188.409 29.708C187.042 29.863 185.729 30.027 184.472 30.2002V32.7842H183.46V30.3369C183.187 30.3779 182.918 30.4189 182.653 30.46L182.407 29.4209ZM194.767 23.9795C195.122 23.9795 195.537 23.9658 196.011 23.9385L195.819 24.9639C195.364 24.9821 194.931 24.9912 194.521 24.9912C193.591 24.9912 193.126 24.4717 193.126 23.4326V21.04H190.597V21.7783C190.597 23.4736 189.945 24.7087 188.642 25.4834C188.414 25.21 188.168 24.9274 187.903 24.6357C189.015 24.1071 189.571 23.1364 189.571 21.7236V20.0693H194.151V23.3506C194.151 23.7699 194.356 23.9795 194.767 23.9795ZM193.714 26.6729H190.118C190.483 27.7484 191.03 28.6576 191.759 29.4004C192.625 28.6074 193.276 27.6982 193.714 26.6729ZM199.565 33.4062C198.03 31.6562 197.262 29.5075 197.262 26.96C197.262 24.4124 198.03 22.2295 199.565 20.4111H200.748C199.208 22.3024 198.438 24.4808 198.438 26.9463C198.438 29.4072 199.203 31.5605 200.734 33.4062H199.565ZM208.097 27.7324C208.097 28.7669 207.753 29.6009 207.064 30.2344C206.381 30.8678 205.46 31.1846 204.303 31.1846C203.309 31.1846 202.569 31.0365 202.081 30.7402V29.373C202.797 29.8379 203.526 30.0703 204.269 30.0703C205.007 30.0703 205.602 29.8675 206.053 29.4619C206.508 29.0518 206.736 28.5094 206.736 27.835C206.736 27.1605 206.499 26.6364 206.025 26.2627C205.556 25.8844 204.891 25.6953 204.029 25.6953C203.364 25.6953 202.765 25.7249 202.231 25.7842L202.621 20.4111H207.57V21.5869H203.749L203.53 24.5879L204.494 24.5469C205.615 24.5469 206.495 24.8271 207.133 25.3877C207.775 25.9437 208.097 26.7253 208.097 27.7324ZM209.3 31.7725C212.713 30.3187 214.7 28.2952 215.261 25.7021H209.478V24.6631H215.404C215.445 24.016 215.466 22.8994 215.466 21.3135H210.229V20.2744H222.042V21.3135H216.669C216.66 22.266 216.642 23.3825 216.614 24.6631H222.739V25.7021H216.799C217.669 28.5915 219.713 30.5238 222.931 31.499C222.557 31.9456 222.243 32.3239 221.987 32.6338C219.016 31.4352 217.061 29.4551 216.122 26.6934C215.402 29.2637 213.41 31.3031 210.147 32.8115C209.956 32.5654 209.674 32.2191 209.3 31.7725ZM223.279 33.4062C224.815 31.5651 225.583 29.4118 225.583 26.9463C225.583 24.4762 224.811 22.2979 223.266 20.4111H224.455C225.995 22.2158 226.766 24.3988 226.766 26.96C226.766 29.5212 225.995 31.6699 224.455 33.4062H223.279Z" fill="white"/>
<path d="M480.145 27.8896H481.211V28.751H483.699V29.5713H481.211V31.2119C481.211 32.1781 480.628 32.6611 479.461 32.6611C478.786 32.6611 478.076 32.652 477.328 32.6338C477.283 32.2783 477.223 31.932 477.15 31.5947C477.916 31.6494 478.645 31.6768 479.338 31.6768C479.876 31.6768 480.145 31.458 480.145 31.0205V29.5713H473.787C472.985 30.3916 472.033 31.1755 470.93 31.9229C470.729 31.6221 470.488 31.3441 470.205 31.0889C471.891 30.0863 473.213 28.9333 474.17 27.6299H470.396V26.8096H474.703C474.895 26.4997 475.063 26.1807 475.209 25.8525H471.668V25.0596H475.51C475.61 24.7679 475.697 24.4671 475.77 24.1572H470.793V23.3369H475.934C475.988 22.9997 476.025 22.6533 476.043 22.2979H477.096C477.059 22.6533 477.009 22.9997 476.945 23.3369H483.316V24.1572H476.795C476.731 24.4671 476.654 24.7679 476.562 25.0596H482.482V25.8525H476.289C476.161 26.1715 476.016 26.4906 475.852 26.8096H483.658V27.6299H475.359C475.113 28.0127 474.835 28.3864 474.525 28.751H480.145V27.8896ZM474.361 23.1592C474.024 22.7126 473.646 22.2477 473.227 21.7646L473.801 21.3545H472.762C472.215 22.0654 471.595 22.6943 470.902 23.2412C470.72 23.0225 470.492 22.7673 470.219 22.4756C471.312 21.637 472.183 20.5934 472.83 19.3447H474.006C473.805 19.7549 473.587 20.1423 473.35 20.5068H477.287V21.3545H474.033C474.425 21.7464 474.803 22.1429 475.168 22.5439L474.361 23.1592ZM480.773 23.1455C480.391 22.6533 480.003 22.1885 479.611 21.751L480.172 21.3545H478.982C478.663 21.874 478.317 22.3662 477.943 22.8311C477.743 22.6305 477.465 22.4072 477.109 22.1611C477.82 21.359 478.404 20.4202 478.859 19.3447H480.035C479.862 19.7458 479.675 20.1331 479.475 20.5068H483.795V21.3545H480.432C480.814 21.7191 481.197 22.111 481.58 22.5303L480.773 23.1455ZM474.402 30.4736L474.949 29.7354C475.797 30.0908 476.59 30.4645 477.328 30.8564L476.713 31.6494C476.011 31.2484 475.241 30.8564 474.402 30.4736ZM493.379 23.0771H494.391C494.382 23.7699 494.37 24.401 494.356 24.9707C494.794 28.252 495.949 30.5739 497.822 31.9365C497.476 32.2373 497.193 32.5153 496.975 32.7705C495.548 31.654 494.555 29.9085 493.994 27.5342C493.534 29.6123 492.44 31.3896 490.713 32.8662C490.512 32.6292 490.248 32.3786 489.92 32.1143C491.898 30.5283 493.01 28.5687 493.256 26.2354C493.347 25.3786 493.388 24.3258 493.379 23.0771ZM484.738 22.9404H487.295V21.5869H484.273V20.7119H487.295V19.3311H488.307V20.7119H491.314V21.5869H488.307V22.9404H490.631V23.8154H484.738V22.9404ZM490.699 24.6084C491.447 22.9495 491.962 21.1859 492.244 19.3174L493.256 19.4951C493.128 20.1833 492.985 20.8486 492.825 21.4912H497.412V22.4346C497.166 23.2184 496.874 24.0706 496.537 24.9912C496.282 24.8363 495.963 24.7041 495.58 24.5947C495.881 23.8747 496.141 23.1592 496.359 22.4482H492.565C492.292 23.3734 491.98 24.2484 491.629 25.0732C491.301 24.891 490.991 24.736 490.699 24.6084ZM484.314 27.0557H491.26V27.9307H488.334V30.9385C488.334 31.9775 487.819 32.4971 486.789 32.4971C486.306 32.4971 485.887 32.4925 485.531 32.4834C485.477 32.1188 485.408 31.7679 485.326 31.4307C485.7 31.4854 486.096 31.5127 486.516 31.5127C487.053 31.5127 487.322 31.2347 487.322 30.6787V27.9307H484.314V27.0557ZM485.012 24.9912H490.508V25.8662H485.012V24.9912ZM484.178 30.9111C484.67 30.2093 485.148 29.3617 485.613 28.3682L486.488 28.8057C485.978 29.7536 485.463 30.6149 484.943 31.3896C484.734 31.2256 484.479 31.0661 484.178 30.9111ZM488.949 28.833L489.742 28.4092C490.18 29.029 490.572 29.667 490.918 30.3232L490.057 30.8018C489.701 30.0726 489.332 29.4163 488.949 28.833ZM502.84 27.0283C503.095 28.7783 502.68 29.749 501.596 29.9404C501.249 30.0042 500.803 30.0088 500.256 29.9541C500.183 29.5804 500.096 29.2067 499.996 28.833C500.424 28.9424 500.835 28.9788 501.227 28.9424C501.837 28.8695 502.033 28.2451 501.814 27.0693C501.705 26.4495 501.299 25.6794 500.598 24.7588C500.935 23.6468 501.299 22.389 501.691 20.9854H499.887V32.8662H498.875V20.0283H502.799V20.9854C502.38 22.307 501.992 23.5055 501.637 24.5811C502.339 25.529 502.74 26.3447 502.84 27.0283ZM505.588 24.7998V26.9736C505.588 29.5439 504.845 31.54 503.359 32.9619C503.095 32.7249 502.79 32.488 502.443 32.251C503.847 30.984 504.549 29.2113 504.549 26.9326V24.7998H505.588ZM508.514 24.7998H509.553V32.7979H508.514V24.7998ZM507.789 19.4541L507.598 19.8916C508.737 21.9697 510.159 23.387 511.863 24.1436C511.626 24.417 511.376 24.736 511.111 25.1006C509.452 24.098 508.104 22.6852 507.064 20.8623C506.117 22.5576 504.813 24.0342 503.154 25.292C502.936 24.973 502.699 24.6859 502.443 24.4307C504.212 23.2549 505.633 21.596 506.709 19.4541H507.789ZM518.221 26.6729V25.7021H524.605V26.7275C524.072 28.0173 523.32 29.1383 522.35 30.0908C523.293 30.7881 524.464 31.2848 525.863 31.5811C525.581 31.9456 525.348 32.2965 525.166 32.6338C523.726 32.21 522.516 31.6016 521.536 30.8086C520.483 31.6471 519.223 32.333 517.756 32.8662C517.492 32.4378 517.273 32.1234 517.1 31.9229C518.531 31.417 519.745 30.7972 520.743 30.0635C519.873 29.1292 519.246 27.999 518.863 26.6729H518.221ZM512.191 29.4209C512.538 29.389 512.889 29.3548 513.244 29.3184V20.2881C515.231 20.1787 516.799 20.0192 517.947 19.8096L518.316 20.8213C517.277 20.958 515.924 21.0811 514.256 21.1904V23.0908H517.715V23.9932H514.256V26.0576H517.674V26.96H514.256V29.209C515.509 29.0677 516.826 28.9059 518.207 28.7236C518.198 28.9059 518.193 29.234 518.193 29.708C516.826 29.863 515.514 30.027 514.256 30.2002V32.7842H513.244V30.3369C512.971 30.3779 512.702 30.4189 512.438 30.46L512.191 29.4209ZM524.551 23.9795C524.906 23.9795 525.321 23.9658 525.795 23.9385L525.604 24.9639C525.148 24.9821 524.715 24.9912 524.305 24.9912C523.375 24.9912 522.91 24.4717 522.91 23.4326V21.04H520.381V21.7783C520.381 23.4736 519.729 24.7087 518.426 25.4834C518.198 25.21 517.952 24.9274 517.688 24.6357C518.799 24.1071 519.355 23.1364 519.355 21.7236V20.0693H523.936V23.3506C523.936 23.7699 524.141 23.9795 524.551 23.9795ZM523.498 26.6729H519.902C520.267 27.7484 520.814 28.6576 521.543 29.4004C522.409 28.6074 523.061 27.6982 523.498 26.6729Z" fill="white"/>
<path d="M788.881 26.7686H796.51V32.7979H795.471V31.8818H789.92V32.7979H788.881V26.7686ZM794.979 21.1904C796.018 22.5941 796.97 24.016 797.836 25.4561L796.852 26.0576C796.605 25.6292 796.359 25.2077 796.113 24.793C793.424 24.9069 791.278 25.0322 789.674 25.1689C789.309 25.2054 788.936 25.2783 788.553 25.3877L788.006 24.3213C788.38 24.1846 788.712 23.9521 789.004 23.624C789.943 22.5029 790.84 21.0719 791.697 19.3311L792.791 19.7822C791.87 21.3408 790.918 22.7809 789.934 24.1025C791.597 24.0479 793.47 23.9704 795.553 23.8701C795.079 23.1182 794.6 22.3981 794.117 21.71L794.979 21.1904ZM795.471 27.7256H789.92V30.9248H795.471V27.7256ZM786.215 26.8369C786.579 27.0101 786.953 27.1696 787.336 27.3154C786.671 29.3662 786.115 31.1527 785.668 32.6748L784.506 32.2373C785.126 30.6696 785.695 28.8695 786.215 26.8369ZM785.449 19.6045C786.434 20.279 787.277 20.8988 787.979 21.4639C787.687 21.8011 787.432 22.0973 787.213 22.3525C786.52 21.7327 785.709 21.0765 784.779 20.3838L785.449 19.6045ZM784.889 23.0225C785.727 23.5785 786.543 24.1618 787.336 24.7725C787.199 24.9092 786.953 25.21 786.598 25.6748C785.686 24.9183 784.893 24.2939 784.219 23.8018L784.889 23.0225ZM802.443 31.3623H806.723V29.3936H803.236V28.4365H806.723V26.6318H804.535V27.1377H803.523V20.083H810.934V27.1377H809.922V26.6318H807.734V28.4365H811.221V29.3936H807.734V31.3623H811.822V32.3193H802.443V31.3623ZM798.096 30.5557C798.798 30.387 799.477 30.2184 800.133 30.0498V25.9072H798.424V24.9502H800.133V21.5322H798.287V20.5752H802.99V21.5322H801.145V24.9502H802.881V25.9072H801.145V29.7764C801.746 29.6077 802.329 29.4391 802.895 29.2705C802.94 29.6807 802.99 30.0361 803.045 30.3369C801.486 30.7562 799.96 31.1982 798.465 31.6631L798.096 30.5557ZM807.734 25.7021H809.922V23.8018H807.734V25.7021ZM804.535 25.7021H806.723V23.8018H804.535V25.7021ZM809.922 21.0127H807.734V22.8994H809.922V21.0127ZM804.535 22.8994H806.723V21.0127H804.535V22.8994ZM816.84 27.0283C817.095 28.7783 816.68 29.749 815.596 29.9404C815.249 30.0042 814.803 30.0088 814.256 29.9541C814.183 29.5804 814.096 29.2067 813.996 28.833C814.424 28.9424 814.835 28.9788 815.227 28.9424C815.837 28.8695 816.033 28.2451 815.814 27.0693C815.705 26.4495 815.299 25.6794 814.598 24.7588C814.935 23.6468 815.299 22.389 815.691 20.9854H813.887V32.8662H812.875V20.0283H816.799V20.9854C816.38 22.307 815.992 23.5055 815.637 24.5811C816.339 25.529 816.74 26.3447 816.84 27.0283ZM819.588 24.7998V26.9736C819.588 29.5439 818.845 31.54 817.359 32.9619C817.095 32.7249 816.79 32.488 816.443 32.251C817.847 30.984 818.549 29.2113 818.549 26.9326V24.7998H819.588ZM822.514 24.7998H823.553V32.7979H822.514V24.7998ZM821.789 19.4541L821.598 19.8916C822.737 21.9697 824.159 23.387 825.863 24.1436C825.626 24.417 825.376 24.736 825.111 25.1006C823.452 24.098 822.104 22.6852 821.064 20.8623C820.117 22.5576 818.813 24.0342 817.154 25.292C816.936 24.973 816.699 24.6859 816.443 24.4307C818.212 23.2549 819.633 21.596 820.709 19.4541H821.789ZM832.221 26.6729V25.7021H838.605V26.7275C838.072 28.0173 837.32 29.1383 836.35 30.0908C837.293 30.7881 838.464 31.2848 839.863 31.5811C839.581 31.9456 839.348 32.2965 839.166 32.6338C837.726 32.21 836.516 31.6016 835.536 30.8086C834.483 31.6471 833.223 32.333 831.756 32.8662C831.492 32.4378 831.273 32.1234 831.1 31.9229C832.531 31.417 833.745 30.7972 834.743 30.0635C833.873 29.1292 833.246 27.999 832.863 26.6729H832.221ZM826.191 29.4209C826.538 29.389 826.889 29.3548 827.244 29.3184V20.2881C829.231 20.1787 830.799 20.0192 831.947 19.8096L832.316 20.8213C831.277 20.958 829.924 21.0811 828.256 21.1904V23.0908H831.715V23.9932H828.256V26.0576H831.674V26.96H828.256V29.209C829.509 29.0677 830.826 28.9059 832.207 28.7236C832.198 28.9059 832.193 29.234 832.193 29.708C830.826 29.863 829.514 30.027 828.256 30.2002V32.7842H827.244V30.3369C826.971 30.3779 826.702 30.4189 826.438 30.46L826.191 29.4209ZM838.551 23.9795C838.906 23.9795 839.321 23.9658 839.795 23.9385L839.604 24.9639C839.148 24.9821 838.715 24.9912 838.305 24.9912C837.375 24.9912 836.91 24.4717 836.91 23.4326V21.04H834.381V21.7783C834.381 23.4736 833.729 24.7087 832.426 25.4834C832.198 25.21 831.952 24.9274 831.688 24.6357C832.799 24.1071 833.355 23.1364 833.355 21.7236V20.0693H837.936V23.3506C837.936 23.7699 838.141 23.9795 838.551 23.9795ZM837.498 26.6729H833.902C834.267 27.7484 834.814 28.6576 835.543 29.4004C836.409 28.6074 837.061 27.6982 837.498 26.6729Z" fill="white"/>
<path d="M659.958 33.4062C658.331 31.6289 657.518 29.4779 657.518 26.9531C657.518 24.3965 658.331 22.2181 659.958 20.418H661.134C659.516 22.2637 658.707 24.4375 658.707 26.9395C658.707 29.4049 659.511 31.5605 661.12 33.4062H659.958ZM663.369 29.2295C664.094 29.79 664.912 30.0703 665.823 30.0703C666.552 30.0703 667.129 29.8926 667.553 29.5371C667.981 29.1771 668.195 28.6963 668.195 28.0947C668.195 26.7549 667.236 26.085 665.317 26.085H664.436V24.9775H665.276C666.976 24.9775 667.826 24.3486 667.826 23.0908C667.826 21.9287 667.177 21.3477 665.878 21.3477C665.135 21.3477 664.436 21.5983 663.779 22.0996V20.835C664.472 20.4339 665.281 20.2334 666.206 20.2334C667.108 20.2334 667.833 20.4704 668.38 20.9443C668.927 21.4137 669.2 22.0244 669.2 22.7764C669.2 24.1618 668.494 25.0527 667.081 25.4492V25.4766C667.847 25.5586 668.451 25.8298 668.893 26.29C669.339 26.7458 669.562 27.3154 669.562 27.999C669.562 28.9515 669.218 29.7194 668.53 30.3027C667.847 30.8861 666.935 31.1777 665.796 31.1777C664.793 31.1777 663.984 30.9909 663.369 30.6172V29.2295ZM670.8 31.7725C674.213 30.3187 676.2 28.2952 676.761 25.7021H670.978V24.6631H676.904C676.945 24.016 676.966 22.8994 676.966 21.3135H671.729V20.2744H683.542V21.3135H678.169C678.16 22.266 678.142 23.3825 678.114 24.6631H684.239V25.7021H678.299C679.169 28.5915 681.213 30.5238 684.431 31.499C684.057 31.9456 683.743 32.3239 683.487 32.6338C680.516 31.4352 678.561 29.4551 677.622 26.6934C676.902 29.2637 674.91 31.3031 671.647 32.8115C671.456 32.5654 671.174 32.2191 670.8 31.7725ZM686.003 21.8467H691.048V19.4951H692.169V21.8467H697.187V30.8701C697.187 32.0277 696.617 32.6019 695.478 32.5928C694.876 32.5928 694.138 32.5837 693.263 32.5654C693.235 32.2555 693.167 31.859 693.058 31.376C693.924 31.4489 694.644 31.4899 695.218 31.499C695.792 31.5173 696.079 31.2301 696.079 30.6377V22.8857H692.142C692.105 23.7152 692.005 24.4535 691.841 25.1006C693.454 26.3949 694.757 27.5342 695.751 28.5186L694.917 29.4072C693.942 28.3408 692.807 27.2334 691.513 26.085C690.893 27.4248 689.713 28.5915 687.972 29.585C687.589 29.0563 687.334 28.7282 687.206 28.6006C688.692 27.8167 689.708 26.9463 690.255 25.9893C690.692 25.2874 690.948 24.2529 691.021 22.8857H687.11V32.7158H686.003V21.8467ZM698.964 21.2998H705.171V19.3311H706.292V21.2998H712.212V22.2979H706.292V24.3213H710.147V25.2646C709.327 27.0785 708.165 28.5938 706.661 29.8105C708.151 30.6172 710.065 31.1891 712.403 31.5264C712.075 31.9821 711.815 32.3786 711.624 32.7158C709.022 32.2008 707.023 31.474 705.629 30.5352C704.139 31.4557 702.104 32.251 699.524 32.9209C699.342 32.5016 699.142 32.1416 698.923 31.8408C701.407 31.2848 703.341 30.6172 704.727 29.8379C703.405 28.7031 702.382 27.1969 701.657 25.3193H700.304V24.3213H705.171V22.2979H698.964V21.2998ZM708.821 25.3193H702.812C703.478 26.9645 704.439 28.2588 705.697 29.2021C707.11 28.1312 708.151 26.8369 708.821 25.3193ZM716.792 22.4756H723.054V19.4814H724.161V22.4756H726.144V23.5146H724.161V30.4326C724.161 31.8545 723.519 32.5745 722.233 32.5928C721.805 32.6019 721.121 32.5973 720.183 32.5791C720.137 32.2236 720.064 31.8135 719.964 31.3486C720.839 31.4215 721.513 31.458 721.987 31.458C722.407 31.4671 722.689 31.376 722.835 31.1846C722.981 31.0114 723.054 30.6514 723.054 30.1045V23.5146H716.792V22.4756ZM712.813 25.8799C714.08 24.1117 715.119 21.9378 715.931 19.3584L717.052 19.7822C716.674 20.7985 716.286 21.7441 715.89 22.6191V32.7842H714.796V24.793C714.29 25.6908 713.771 26.486 713.237 27.1787C713.073 26.568 712.932 26.1351 712.813 25.8799ZM717.681 25.6748L718.597 25.1006C719.153 25.9027 719.804 26.9554 720.552 28.2588L719.567 28.874C718.929 27.6253 718.3 26.5589 717.681 25.6748ZM731.94 20.3701H739.692V29.3389H738.64V28.5186H736.343V32.9072H735.29V28.5186H732.993V29.3389H731.94V20.3701ZM726.8 26.7549C727.447 26.6182 728.094 26.4723 728.741 26.3174V23.0771H726.978V22.0928H728.741V19.4678H729.794V22.0928H731.312V23.0771H729.794V26.0576C730.313 25.93 730.838 25.7933 731.366 25.6475C731.348 26.1032 731.334 26.4678 731.325 26.7412C730.824 26.8688 730.313 26.9964 729.794 27.124V31.1709C729.794 32.1462 729.338 32.652 728.427 32.6885C728.099 32.7067 727.675 32.7113 727.155 32.7021C727.119 32.3193 727.06 31.9456 726.978 31.5811C727.442 31.6175 727.812 31.6357 728.085 31.6357C728.522 31.6357 728.741 31.4307 728.741 31.0205V27.3975C728.131 27.5524 727.506 27.7165 726.868 27.8896L726.8 26.7549ZM738.64 21.3545H736.343V23.9521H738.64V21.3545ZM732.993 23.9521H735.29V21.3545H732.993V23.9521ZM732.993 27.5342H735.29V24.9365H732.993V27.5342ZM736.343 27.5342H738.64V24.9365H736.343V27.5342ZM741.265 31.3076H747.062V27.9717H742.167V26.9736H747.062V25.0596H743.507V24.1025C742.86 24.5127 742.158 24.9229 741.401 25.333C741.21 24.9867 740.982 24.6449 740.718 24.3076C743.753 22.8857 745.899 21.2542 747.157 19.4131H748.647L748.333 19.7959C749.782 21.6462 751.833 23.0863 754.485 24.1162C754.239 24.4626 753.998 24.8271 753.761 25.21C753.05 24.9092 752.362 24.5492 751.696 24.1299V25.0596H748.155V26.9736H753.022V27.9717H748.155V31.3076H753.979V32.3193H741.265V31.3076ZM747.622 20.5752C746.683 21.7601 745.33 22.9222 743.562 24.0615H751.587C750.165 23.1592 748.843 21.9971 747.622 20.5752ZM749.563 30.3779C750.302 29.6123 750.926 28.8649 751.437 28.1357L752.394 28.751C751.756 29.5439 751.086 30.305 750.384 31.0342L749.563 30.3779ZM742.796 28.8057L743.603 28.1631C744.268 28.8376 744.92 29.5394 745.558 30.2686L744.628 31.0068C744.081 30.2868 743.47 29.5531 742.796 28.8057ZM757.042 33.4062H755.866C757.484 31.5651 758.293 29.3867 758.293 26.8711C758.293 24.401 757.489 22.25 755.88 20.418H757.042C758.66 22.1816 759.469 24.3327 759.469 26.8711C759.469 29.4368 758.66 31.6152 757.042 33.4062Z" fill="white"/>
<path d="M5.30469 75.5225L5.12695 75.8096C6.28451 76.876 7.39648 77.9561 8.46289 79.0498L7.71094 79.8975C6.73568 78.8128 5.69661 77.7419 4.59375 76.6846C3.70052 78.0973 2.77995 79.2777 1.83203 80.2256H7.45117C7.39648 81.4925 7.35091 82.3812 7.31445 82.8916C7.26888 84.2497 6.64909 84.9287 5.45508 84.9287C4.97201 84.9287 4.37956 84.915 3.67773 84.8877C3.62305 84.4867 3.55924 84.1221 3.48633 83.7939C4.09701 83.8942 4.68034 83.9489 5.23633 83.958C5.89258 83.9671 6.24349 83.5524 6.28906 82.7139C6.31641 82.2764 6.34375 81.766 6.37109 81.1826H2.74805V86.665C2.74805 87.1755 3.02148 87.4307 3.56836 87.4307H5.81055C6.5306 87.4307 6.9362 87.1937 7.02734 86.7197C7.13672 86.2822 7.21875 85.7354 7.27344 85.0791C7.62891 85.2249 7.98893 85.3571 8.35352 85.4756C8.26237 86.0771 8.14844 86.6331 8.01172 87.1436C7.78385 87.9912 7.14128 88.415 6.08398 88.415H3.36328C2.24219 88.415 1.68164 87.859 1.68164 86.7471V80.3896C1.38997 80.6631 1.10286 80.9137 0.820312 81.1416C0.546875 80.695 0.33724 80.3669 0.191406 80.1572C1.6862 79.0179 2.97135 77.473 4.04688 75.5225H5.30469ZM11.8535 75.6182H12.9473V86.9795C12.9473 88.0915 12.3958 88.652 11.293 88.6611C10.9102 88.6611 10.1947 88.6566 9.14648 88.6475C9.10091 88.2282 9.02799 87.8135 8.92773 87.4033C9.89388 87.4854 10.5729 87.5264 10.9648 87.5264C11.5573 87.5264 11.8535 87.2347 11.8535 86.6514V75.6182ZM10.0488 85.2568H8.99609V76.835H10.0488V85.2568ZM18.5391 84.792H22.0391V83.6025H19.0039V82.7822H22.0391V81.5928H19.1953V80.7725H22.0391V79.583H18.4844V78.7354H22.0391V77.5459H19.1953V76.7256H22.0391V75.3857H23.0508V76.7256H26.2227V78.7354H27.6582V79.583H26.2227V81.9619H25.2383V81.5928H23.0508V82.7822H26.4961V83.6025H23.0508V84.792H27.125V85.6123H23.0508V87.0205H22.0391V85.6123H18.5391V84.792ZM15.3125 82.4814C15.5859 83.5934 15.9688 84.5072 16.4609 85.2227C16.9486 84.2201 17.2539 83.0648 17.377 81.7568H14.6426V80.7588L17.1582 77.6553H14.3691V76.7256H18.416V77.6553L15.8457 80.8271H18.4023V81.6338C18.2337 83.3245 17.8213 84.7897 17.165 86.0293C18.1585 86.8906 19.7012 87.3258 21.793 87.335C23.5247 87.3714 25.5345 87.3486 27.8223 87.2666C27.6673 87.6403 27.5169 88.0003 27.3711 88.3467C25.2839 88.3376 23.265 88.3285 21.3145 88.3193C19.2819 88.3193 17.7233 87.8454 16.6387 86.8975C16.1237 87.6449 15.4993 88.2965 14.7656 88.8525C14.6198 88.5882 14.4329 88.292 14.2051 87.9639C14.8887 87.4443 15.4629 86.8382 15.9277 86.1455C15.3171 85.3708 14.8112 84.2633 14.4102 82.8232L15.3125 82.4814ZM23.0508 80.7725H25.2383V79.583H23.0508V80.7725ZM25.2383 77.5459H23.0508V78.7354H25.2383V77.5459ZM30.1328 76.2607H39.8809V88.6748H38.7188V87.7041H31.2949V88.6748H30.1328V76.2607ZM31.2949 82.3994V86.7061H38.7188V82.3994H31.2949ZM31.2949 77.2861V81.374H38.7188V77.2861H31.2949ZM50.2441 75.9189H55.084V87.0068C55.084 88.0824 54.5736 88.6201 53.5527 88.6201C53.0423 88.6201 52.541 88.6064 52.0488 88.5791C52.0124 88.2783 51.9577 87.9274 51.8848 87.5264C52.5501 87.5902 53.0286 87.6221 53.3203 87.6221C53.8216 87.6221 54.0723 87.3714 54.0723 86.8701V83.999H51.1465C51.0462 85.9951 50.4401 87.654 49.3281 88.9756C49.082 88.7204 48.8086 88.4652 48.5078 88.21C49.2461 87.3623 49.7155 86.4827 49.916 85.5713C50.1348 84.6963 50.2441 83.1742 50.2441 81.0049V75.9189ZM42.2734 84.5049H43.5586V78.1885H42.4375V77.2588H43.5586V75.5908H44.5703V77.2588H47.4141V75.5361H48.4258V77.2588H49.5332V78.1885H48.4258V84.5049H49.5195V85.4346H42.2734V84.5049ZM51.208 83.0967H54.0723V80.417H51.2559C51.265 81.5928 51.249 82.486 51.208 83.0967ZM54.0723 76.8486H51.2559V79.5146H54.0723V76.8486ZM44.5703 84.5049H47.4141V82.9736H44.5703V84.5049ZM44.5703 82.0986H47.4141V80.5811H44.5703V82.0986ZM44.5703 79.7061H47.4141V78.1885H44.5703V79.7061ZM44.5703 85.6943L45.4043 86.3506C44.4837 87.3441 43.6452 88.1781 42.8887 88.8525C42.6973 88.6338 42.4557 88.3923 42.1641 88.1279C43.0299 87.3896 43.832 86.5785 44.5703 85.6943ZM46.3613 86.3369L47.0176 85.667C47.6556 86.141 48.2572 86.6195 48.8223 87.1025L48.0977 87.8818C47.5872 87.3714 47.0085 86.8564 46.3613 86.3369Z" fill="#15163D"/>
<path d="M306.145 83.8896H307.211V84.751H309.699V85.5713H307.211V87.2119C307.211 88.1781 306.628 88.6611 305.461 88.6611C304.786 88.6611 304.076 88.652 303.328 88.6338C303.283 88.2783 303.223 87.932 303.15 87.5947C303.916 87.6494 304.645 87.6768 305.338 87.6768C305.876 87.6768 306.145 87.458 306.145 87.0205V85.5713H299.787C298.985 86.3916 298.033 87.1755 296.93 87.9229C296.729 87.6221 296.488 87.3441 296.205 87.0889C297.891 86.0863 299.213 84.9333 300.17 83.6299H296.396V82.8096H300.703C300.895 82.4997 301.063 82.1807 301.209 81.8525H297.668V81.0596H301.51C301.61 80.7679 301.697 80.4671 301.77 80.1572H296.793V79.3369H301.934C301.988 78.9997 302.025 78.6533 302.043 78.2979H303.096C303.059 78.6533 303.009 78.9997 302.945 79.3369H309.316V80.1572H302.795C302.731 80.4671 302.654 80.7679 302.562 81.0596H308.482V81.8525H302.289C302.161 82.1715 302.016 82.4906 301.852 82.8096H309.658V83.6299H301.359C301.113 84.0127 300.835 84.3864 300.525 84.751H306.145V83.8896ZM300.361 79.1592C300.024 78.7126 299.646 78.2477 299.227 77.7646L299.801 77.3545H298.762C298.215 78.0654 297.595 78.6943 296.902 79.2412C296.72 79.0225 296.492 78.7673 296.219 78.4756C297.312 77.637 298.183 76.5934 298.83 75.3447H300.006C299.805 75.7549 299.587 76.1423 299.35 76.5068H303.287V77.3545H300.033C300.425 77.7464 300.803 78.1429 301.168 78.5439L300.361 79.1592ZM306.773 79.1455C306.391 78.6533 306.003 78.1885 305.611 77.751L306.172 77.3545H304.982C304.663 77.874 304.317 78.3662 303.943 78.8311C303.743 78.6305 303.465 78.4072 303.109 78.1611C303.82 77.359 304.404 76.4202 304.859 75.3447H306.035C305.862 75.7458 305.675 76.1331 305.475 76.5068H309.795V77.3545H306.432C306.814 77.7191 307.197 78.111 307.58 78.5303L306.773 79.1455ZM300.402 86.4736L300.949 85.7354C301.797 86.0908 302.59 86.4645 303.328 86.8564L302.713 87.6494C302.011 87.2484 301.241 86.8564 300.402 86.4736ZM319.379 79.0771H320.391C320.382 79.7699 320.37 80.401 320.356 80.9707C320.794 84.252 321.949 86.5739 323.822 87.9365C323.476 88.2373 323.193 88.5153 322.975 88.7705C321.548 87.654 320.555 85.9085 319.994 83.5342C319.534 85.6123 318.44 87.3896 316.713 88.8662C316.512 88.6292 316.248 88.3786 315.92 88.1143C317.898 86.5283 319.01 84.5687 319.256 82.2354C319.347 81.3786 319.388 80.3258 319.379 79.0771ZM310.738 78.9404H313.295V77.5869H310.273V76.7119H313.295V75.3311H314.307V76.7119H317.314V77.5869H314.307V78.9404H316.631V79.8154H310.738V78.9404ZM316.699 80.6084C317.447 78.9495 317.962 77.1859 318.244 75.3174L319.256 75.4951C319.128 76.1833 318.985 76.8486 318.825 77.4912H323.412V78.4346C323.166 79.2184 322.874 80.0706 322.537 80.9912C322.282 80.8363 321.963 80.7041 321.58 80.5947C321.881 79.8747 322.141 79.1592 322.359 78.4482H318.565C318.292 79.3734 317.98 80.2484 317.629 81.0732C317.301 80.891 316.991 80.736 316.699 80.6084ZM310.314 83.0557H317.26V83.9307H314.334V86.9385C314.334 87.9775 313.819 88.4971 312.789 88.4971C312.306 88.4971 311.887 88.4925 311.531 88.4834C311.477 88.1188 311.408 87.7679 311.326 87.4307C311.7 87.4854 312.096 87.5127 312.516 87.5127C313.053 87.5127 313.322 87.2347 313.322 86.6787V83.9307H310.314V83.0557ZM311.012 80.9912H316.508V81.8662H311.012V80.9912ZM310.178 86.9111C310.67 86.2093 311.148 85.3617 311.613 84.3682L312.488 84.8057C311.978 85.7536 311.463 86.6149 310.943 87.3896C310.734 87.2256 310.479 87.0661 310.178 86.9111ZM314.949 84.833L315.742 84.4092C316.18 85.029 316.572 85.667 316.918 86.3232L316.057 86.8018C315.701 86.0726 315.332 85.4163 314.949 84.833ZM324.273 81.415H327.842V77.4365H324.875V76.3564H337.139V77.4365H334.35V81.415H337.727V82.4951H334.35V88.7295H333.229V82.4951H328.956C328.924 84.1631 328.685 85.4027 328.238 86.2139C327.792 87.1071 326.766 88.0049 325.162 88.9072C324.925 88.5791 324.665 88.2601 324.383 87.9502C325.777 87.2393 326.707 86.4964 327.172 85.7217C327.587 85.0973 327.808 84.0218 327.835 82.4951H324.273V81.415ZM328.963 81.415H333.229V77.4365H328.963V81.415ZM344.207 82.6592H350.797V88.8115H349.758V87.8545H345.246V88.8252H344.207V82.6592ZM343.77 86.5146L342.963 87.417C342.466 86.9111 341.969 86.4189 341.473 85.9404C340.798 86.9157 339.919 87.8363 338.834 88.7021C338.643 88.4196 338.433 88.1234 338.205 87.8135C339.249 87.0433 340.087 86.182 340.721 85.2295C340.069 84.6188 339.417 84.0309 338.766 83.4658C339.089 82.2399 339.383 80.8682 339.647 79.3506H338.246V78.3252H339.825C339.971 77.4046 340.11 76.4339 340.242 75.4131L341.35 75.5771C341.199 76.5661 341.049 77.4821 340.898 78.3252H343.441V79.3369C343.227 81.7796 342.771 83.6549 342.074 84.9629C342.694 85.5052 343.259 86.0225 343.77 86.5146ZM349.43 77.1904C350.359 78.6579 351.161 80.0889 351.836 81.4834L350.756 81.9893C350.564 81.5518 350.366 81.1188 350.161 80.6904C348.721 80.777 347.001 80.9137 345 81.1006C344.745 81.1279 344.421 81.2054 344.029 81.333L343.523 80.3486C343.842 80.1572 344.116 79.902 344.344 79.583C345.082 78.4801 345.829 77.0628 346.586 75.3311L347.734 75.7002C346.905 77.2861 346.08 78.7262 345.26 80.0205C347.083 79.9066 348.564 79.8223 349.703 79.7676C349.334 79.043 348.947 78.3298 348.541 77.6279L349.43 77.1904ZM349.758 83.6162H345.246V86.9248H349.758V83.6162ZM342.389 79.3506H340.714C340.427 80.859 340.142 82.1123 339.859 83.1104C340.356 83.5114 340.828 83.8988 341.274 84.2725C341.894 83.001 342.266 81.3604 342.389 79.3506ZM354.133 76.2607H363.881V88.6748H362.719V87.7041H355.295V88.6748H354.133V76.2607ZM355.295 82.3994V86.7061H362.719V82.3994H355.295ZM355.295 77.2861V81.374H362.719V77.2861H355.295ZM374.244 75.9189H379.084V87.0068C379.084 88.0824 378.574 88.6201 377.553 88.6201C377.042 88.6201 376.541 88.6064 376.049 88.5791C376.012 88.2783 375.958 87.9274 375.885 87.5264C376.55 87.5902 377.029 87.6221 377.32 87.6221C377.822 87.6221 378.072 87.3714 378.072 86.8701V83.999H375.146C375.046 85.9951 374.44 87.654 373.328 88.9756C373.082 88.7204 372.809 88.4652 372.508 88.21C373.246 87.3623 373.715 86.4827 373.916 85.5713C374.135 84.6963 374.244 83.1742 374.244 81.0049V75.9189ZM366.273 84.5049H367.559V78.1885H366.438V77.2588H367.559V75.5908H368.57V77.2588H371.414V75.5361H372.426V77.2588H373.533V78.1885H372.426V84.5049H373.52V85.4346H366.273V84.5049ZM375.208 83.0967H378.072V80.417H375.256C375.265 81.5928 375.249 82.486 375.208 83.0967ZM378.072 76.8486H375.256V79.5146H378.072V76.8486ZM368.57 84.5049H371.414V82.9736H368.57V84.5049ZM368.57 82.0986H371.414V80.5811H368.57V82.0986ZM368.57 79.7061H371.414V78.1885H368.57V79.7061ZM368.57 85.6943L369.404 86.3506C368.484 87.3441 367.645 88.1781 366.889 88.8525C366.697 88.6338 366.456 88.3923 366.164 88.1279C367.03 87.3896 367.832 86.5785 368.57 85.6943ZM370.361 86.3369L371.018 85.667C371.656 86.141 372.257 86.6195 372.822 87.1025L372.098 87.8818C371.587 87.3714 371.008 86.8564 370.361 86.3369Z" fill="#15163D"/>
<path d="M623.145 83.8896H624.211V84.751H626.699V85.5713H624.211V87.2119C624.211 88.1781 623.628 88.6611 622.461 88.6611C621.786 88.6611 621.076 88.652 620.328 88.6338C620.283 88.2783 620.223 87.932 620.15 87.5947C620.916 87.6494 621.645 87.6768 622.338 87.6768C622.876 87.6768 623.145 87.458 623.145 87.0205V85.5713H616.787C615.985 86.3916 615.033 87.1755 613.93 87.9229C613.729 87.6221 613.488 87.3441 613.205 87.0889C614.891 86.0863 616.213 84.9333 617.17 83.6299H613.396V82.8096H617.703C617.895 82.4997 618.063 82.1807 618.209 81.8525H614.668V81.0596H618.51C618.61 80.7679 618.697 80.4671 618.77 80.1572H613.793V79.3369H618.934C618.988 78.9997 619.025 78.6533 619.043 78.2979H620.096C620.059 78.6533 620.009 78.9997 619.945 79.3369H626.316V80.1572H619.795C619.731 80.4671 619.654 80.7679 619.562 81.0596H625.482V81.8525H619.289C619.161 82.1715 619.016 82.4906 618.852 82.8096H626.658V83.6299H618.359C618.113 84.0127 617.835 84.3864 617.525 84.751H623.145V83.8896ZM617.361 79.1592C617.024 78.7126 616.646 78.2477 616.227 77.7646L616.801 77.3545H615.762C615.215 78.0654 614.595 78.6943 613.902 79.2412C613.72 79.0225 613.492 78.7673 613.219 78.4756C614.312 77.637 615.183 76.5934 615.83 75.3447H617.006C616.805 75.7549 616.587 76.1423 616.35 76.5068H620.287V77.3545H617.033C617.425 77.7464 617.803 78.1429 618.168 78.5439L617.361 79.1592ZM623.773 79.1455C623.391 78.6533 623.003 78.1885 622.611 77.751L623.172 77.3545H621.982C621.663 77.874 621.317 78.3662 620.943 78.8311C620.743 78.6305 620.465 78.4072 620.109 78.1611C620.82 77.359 621.404 76.4202 621.859 75.3447H623.035C622.862 75.7458 622.675 76.1331 622.475 76.5068H626.795V77.3545H623.432C623.814 77.7191 624.197 78.111 624.58 78.5303L623.773 79.1455ZM617.402 86.4736L617.949 85.7354C618.797 86.0908 619.59 86.4645 620.328 86.8564L619.713 87.6494C619.011 87.2484 618.241 86.8564 617.402 86.4736ZM636.379 79.0771H637.391C637.382 79.7699 637.37 80.401 637.356 80.9707C637.794 84.252 638.949 86.5739 640.822 87.9365C640.476 88.2373 640.193 88.5153 639.975 88.7705C638.548 87.654 637.555 85.9085 636.994 83.5342C636.534 85.6123 635.44 87.3896 633.713 88.8662C633.512 88.6292 633.248 88.3786 632.92 88.1143C634.898 86.5283 636.01 84.5687 636.256 82.2354C636.347 81.3786 636.388 80.3258 636.379 79.0771ZM627.738 78.9404H630.295V77.5869H627.273V76.7119H630.295V75.3311H631.307V76.7119H634.314V77.5869H631.307V78.9404H633.631V79.8154H627.738V78.9404ZM633.699 80.6084C634.447 78.9495 634.962 77.1859 635.244 75.3174L636.256 75.4951C636.128 76.1833 635.985 76.8486 635.825 77.4912H640.412V78.4346C640.166 79.2184 639.874 80.0706 639.537 80.9912C639.282 80.8363 638.963 80.7041 638.58 80.5947C638.881 79.8747 639.141 79.1592 639.359 78.4482H635.565C635.292 79.3734 634.98 80.2484 634.629 81.0732C634.301 80.891 633.991 80.736 633.699 80.6084ZM627.314 83.0557H634.26V83.9307H631.334V86.9385C631.334 87.9775 630.819 88.4971 629.789 88.4971C629.306 88.4971 628.887 88.4925 628.531 88.4834C628.477 88.1188 628.408 87.7679 628.326 87.4307C628.7 87.4854 629.096 87.5127 629.516 87.5127C630.053 87.5127 630.322 87.2347 630.322 86.6787V83.9307H627.314V83.0557ZM628.012 80.9912H633.508V81.8662H628.012V80.9912ZM627.178 86.9111C627.67 86.2093 628.148 85.3617 628.613 84.3682L629.488 84.8057C628.978 85.7536 628.463 86.6149 627.943 87.3896C627.734 87.2256 627.479 87.0661 627.178 86.9111ZM631.949 84.833L632.742 84.4092C633.18 85.029 633.572 85.667 633.918 86.3232L633.057 86.8018C632.701 86.0726 632.332 85.4163 631.949 84.833ZM646.742 83.2607H653.961V88.8115H652.895V87.9639H647.809V88.8115H646.742V83.2607ZM646.469 80.6631H649.805V78.5303H646.018V77.5459H649.805V75.3584H650.898V77.5459H654.727V78.5303H650.898V80.6631H654.248V81.6475H646.469V80.6631ZM642.955 83.5752C644.167 83.402 645.17 83.2471 645.963 83.1104C645.908 83.4658 645.867 83.8122 645.84 84.1494C644.828 84.2952 643.447 84.5094 641.697 84.792L641.479 83.7803C642.062 83.1742 642.757 82.2126 643.563 80.8955C642.798 80.9456 642.103 80.9958 641.479 81.0459L641.219 80.1162C642.057 78.9951 642.928 77.3773 643.83 75.2627L644.869 75.6729C643.885 77.6051 643.078 79.0589 642.449 80.0342C642.978 80.0205 643.529 80.0046 644.104 79.9863C644.413 79.4577 644.737 78.8812 645.074 78.2568L646.086 78.7627C645.047 80.4945 644.003 82.0986 642.955 83.5752ZM652.895 84.2178H647.809V87.0068H652.895V84.2178ZM641.164 86.8018C642.85 86.4736 644.495 86.1136 646.1 85.7217C646.072 86.0863 646.059 86.4326 646.059 86.7607C644.582 87.0706 643.051 87.4352 641.465 87.8545L641.164 86.8018ZM668.795 87.2529C668.485 87.6266 668.239 87.9548 668.057 88.2373C665.842 87.2256 664.001 85.8675 662.533 84.1631V88.8389H661.494V84.1357C660.022 85.749 658.158 87.1572 655.902 88.3604C655.72 88.1051 655.483 87.8044 655.191 87.458C657.42 86.4281 659.382 85.0837 661.077 83.4248H657.762V83.9033H656.723V79.2686H661.494V77.751H655.355V76.7939H661.494V75.3174H662.533V76.7939H668.604V77.751H662.533V79.2686H667.318V83.9033H666.279V83.4248H662.923C664.532 85.1292 666.489 86.4053 668.795 87.2529ZM666.279 80.1982H662.533V82.4951H666.279V80.1982ZM657.762 80.1982V82.4951H661.494V80.1982H657.762ZM671.133 76.2607H680.881V88.6748H679.719V87.7041H672.295V88.6748H671.133V76.2607ZM672.295 82.3994V86.7061H679.719V82.3994H672.295ZM672.295 77.2861V81.374H679.719V77.2861H672.295ZM691.244 75.9189H696.084V87.0068C696.084 88.0824 695.574 88.6201 694.553 88.6201C694.042 88.6201 693.541 88.6064 693.049 88.5791C693.012 88.2783 692.958 87.9274 692.885 87.5264C693.55 87.5902 694.029 87.6221 694.32 87.6221C694.822 87.6221 695.072 87.3714 695.072 86.8701V83.999H692.146C692.046 85.9951 691.44 87.654 690.328 88.9756C690.082 88.7204 689.809 88.4652 689.508 88.21C690.246 87.3623 690.715 86.4827 690.916 85.5713C691.135 84.6963 691.244 83.1742 691.244 81.0049V75.9189ZM683.273 84.5049H684.559V78.1885H683.438V77.2588H684.559V75.5908H685.57V77.2588H688.414V75.5361H689.426V77.2588H690.533V78.1885H689.426V84.5049H690.52V85.4346H683.273V84.5049ZM692.208 83.0967H695.072V80.417H692.256C692.265 81.5928 692.249 82.486 692.208 83.0967ZM695.072 76.8486H692.256V79.5146H695.072V76.8486ZM685.57 84.5049H688.414V82.9736H685.57V84.5049ZM685.57 82.0986H688.414V80.5811H685.57V82.0986ZM685.57 79.7061H688.414V78.1885H685.57V79.7061ZM685.57 85.6943L686.404 86.3506C685.484 87.3441 684.645 88.1781 683.889 88.8525C683.697 88.6338 683.456 88.3923 683.164 88.1279C684.03 87.3896 684.832 86.5785 685.57 85.6943ZM687.361 86.3369L688.018 85.667C688.656 86.141 689.257 86.6195 689.822 87.1025L689.098 87.8818C688.587 87.3714 688.008 86.8564 687.361 86.3369Z" fill="#15163D"/>
<path d="M768.359 82.6318V81.6748H775.387V82.6182C774.767 84.0628 773.894 85.2773 772.769 86.2617C773.858 86.9453 775.227 87.4215 776.877 87.6904C776.622 88.0277 776.394 88.374 776.193 88.7295C774.489 88.3558 773.067 87.752 771.928 86.918C770.697 87.7793 769.221 88.4196 767.498 88.8389C767.298 88.4652 767.097 88.1462 766.896 87.8818C768.551 87.5355 769.959 86.9863 771.121 86.2344C770.118 85.2728 769.403 84.0719 768.975 82.6318H768.359ZM763.205 82.7002C763.843 82.527 764.508 82.3333 765.201 82.1191V79.1045H763.383V78.1475H765.201V75.4951H766.227V78.1475H767.881V79.1045H766.227V81.7979C766.696 81.6475 767.179 81.488 767.676 81.3193C767.667 81.611 767.676 81.9665 767.703 82.3857C767.206 82.5407 766.714 82.6979 766.227 82.8574V87.1572C766.227 88.1507 765.785 88.6475 764.9 88.6475H763.574C763.538 88.3285 763.479 87.9411 763.396 87.4854C763.907 87.54 764.322 87.5674 764.641 87.5674C765.014 87.5674 765.201 87.3486 765.201 86.9111V83.1924C764.577 83.402 763.957 83.6162 763.342 83.835L763.205 82.7002ZM775.291 79.6377H776.822C776.731 79.9658 776.654 80.2985 776.59 80.6357H775.141C774.092 80.6357 773.568 80.1344 773.568 79.1318V76.9854H770.533V77.4912C770.542 79.2503 769.845 80.5628 768.441 81.4287C768.214 81.1279 767.967 80.8499 767.703 80.5947C768.906 79.9385 769.508 78.904 769.508 77.4912V76.0283H774.594V78.9814C774.594 79.4189 774.826 79.6377 775.291 79.6377ZM774.252 82.6318H769.966C770.349 83.8441 771.005 84.849 771.935 85.6465C772.933 84.8307 773.705 83.8258 774.252 82.6318ZM778.381 78.1064H781.799V76.835H777.656V75.9873H790.398V76.835H786.229V78.1064H789.66V81.9072H788.703V81.4697H779.338V81.9072H778.381V78.1064ZM777.41 84.3682H790.672V85.2158H784.684V87.0205C784.684 88.096 784.15 88.6383 783.084 88.6475C782.601 88.6475 782.004 88.6429 781.293 88.6338C781.257 88.333 781.197 87.973 781.115 87.5537C781.808 87.6175 782.364 87.6494 782.783 87.6494C783.357 87.6494 783.645 87.3669 783.645 86.8018V85.2158H777.41V84.3682ZM778.395 82.4951H789.688V83.3428H778.395V82.4951ZM785.969 86.4326L786.543 85.585C787.828 86.2048 789.177 86.8838 790.59 87.6221L789.947 88.6338C788.516 87.7952 787.19 87.0615 785.969 86.4326ZM781.02 85.5166L781.771 86.3506C780.45 87.1618 779.119 87.9274 777.779 88.6475C777.624 88.374 777.428 88.055 777.191 87.6904C778.659 87.0068 779.935 86.2822 781.02 85.5166ZM788.703 78.9268H786.229V80.6494H788.703V78.9268ZM782.783 80.6494H785.244V78.9268H782.783V80.6494ZM779.338 80.6494H781.799V78.9268H779.338V80.6494ZM782.783 78.1064H785.244V76.835H782.783V78.1064ZM794.979 83.9443C794.514 85.5303 793.534 87.1253 792.039 88.7295C791.82 88.4378 791.547 88.1188 791.219 87.7725C792.586 86.3415 793.479 84.9014 793.898 83.4521C794.309 82.208 794.55 80.1709 794.623 77.3408H791.848V76.3154H801.896V77.3545L800.57 80.0205H803.1V80.9912C802.38 82.8096 801.416 84.3363 800.208 85.5713C801.562 86.5374 803.09 87.1846 804.795 87.5127C804.476 87.9593 804.239 88.3512 804.084 88.6885C802.102 88.0596 800.522 87.2826 799.347 86.3574C798.112 87.3646 796.583 88.21 794.76 88.8936C794.614 88.6292 794.386 88.2965 794.076 87.8955C795.844 87.3076 797.319 86.5397 798.499 85.5918C797.255 84.334 796.275 82.7731 795.56 80.9092C795.423 82.1214 795.229 83.1331 794.979 83.9443ZM799.244 80.1572L800.652 77.3408H795.771C795.762 77.8467 795.746 78.332 795.724 78.7969C796.631 81.4128 797.834 83.4316 799.333 84.8535C800.472 83.7461 801.313 82.4769 801.855 81.0459H799.244V80.1572ZM811.139 77.0264V76.0967H818.002V76.999C817.464 78.0837 816.676 79.0225 815.637 79.8154C816.53 80.2529 817.592 80.5446 818.822 80.6904C818.713 80.9001 818.54 81.2601 818.303 81.7705C816.899 81.4697 815.705 81.0231 814.721 80.4307C813.718 81.0413 812.538 81.5426 811.18 81.9346C811.098 81.734 810.929 81.4059 810.674 80.9502C811.877 80.6403 812.925 80.262 813.818 79.8154C812.889 79.0589 812.21 78.1292 811.781 77.0264H811.139ZM805.191 85.8311C806.148 84.5641 806.896 83.1514 807.434 81.5928H805.314V80.7041H807.652V77.1221C806.932 77.1768 806.226 77.2269 805.533 77.2725C805.488 76.9626 805.424 76.6481 805.342 76.3291C807.32 76.2197 808.979 76.0693 810.318 75.8779L810.715 76.8623C810.004 76.9261 809.307 76.9854 808.623 77.04V80.7041H810.564V81.5928H808.623V82.7959L809.211 82.3721C809.885 83.0374 810.405 83.5843 810.77 84.0127L810.004 84.6963C809.658 84.2406 809.197 83.6982 808.623 83.0693V88.8115H807.652V83.165C807.105 84.5687 806.426 85.8219 805.615 86.9248C805.497 86.5511 805.355 86.1865 805.191 85.8311ZM810.592 85.4756H814.188V83.8623H811.221V82.9053H814.188V81.3193H815.213V82.9053H818.234V83.8623H815.213V85.4756H818.822V86.4326H815.213V88.7705H814.188V86.4326H810.592V85.4756ZM816.922 77.0264H812.766C813.221 77.9561 813.873 78.7126 814.721 79.2959C815.705 78.6488 816.439 77.8923 816.922 77.0264ZM808.938 80.0068C809.393 79.1865 809.753 78.4346 810.018 77.751L810.906 78.1201C810.542 78.9313 810.145 79.6924 809.717 80.4033L808.938 80.0068ZM805.41 78.0928L806.203 77.7373C806.677 78.6488 807.014 79.3688 807.215 79.8975L806.312 80.335C806.012 79.4782 805.711 78.7308 805.41 78.0928ZM827.654 75.2764L828.748 75.4678C828.552 76.3291 828.297 77.1631 827.982 77.9697H832.74V78.9814H831.599C831.421 81.6794 830.783 83.8236 829.685 85.4141C830.505 86.4349 831.564 87.221 832.863 87.7725C832.562 88.1735 832.312 88.5335 832.111 88.8525C830.885 88.1917 829.84 87.3395 828.974 86.2959C828.08 87.2848 827.012 88.1781 825.768 88.9756C825.558 88.7113 825.298 88.4242 824.988 88.1143C826.346 87.2894 827.456 86.3848 828.317 85.4004C827.52 84.097 827.012 82.4518 826.793 80.4648C826.524 80.9297 826.232 81.3831 825.918 81.8252C825.727 81.5518 825.499 81.2601 825.234 80.9502C826.419 79.3187 827.226 77.4274 827.654 75.2764ZM819.342 77.8467H825.932V78.8584H822.062C822.053 79.6696 822.037 80.4124 822.015 81.0869H825.152C825.061 83.3291 824.975 85.1247 824.893 86.4736C824.811 87.6768 824.291 88.3011 823.334 88.3467C822.778 88.3558 822.254 88.3512 821.762 88.333C821.707 87.9958 821.63 87.613 821.529 87.1846C822.131 87.2484 822.596 87.2803 822.924 87.2803C823.48 87.2803 823.781 86.9339 823.826 86.2412C823.917 85.1748 823.99 83.7939 824.045 82.0986H821.974C821.942 85.0518 821.219 87.3076 819.807 88.8662C819.597 88.5563 819.355 88.2373 819.082 87.9092C819.939 86.943 820.458 85.9085 820.641 84.8057C820.873 83.7712 820.987 81.7887 820.982 78.8584H819.342V77.8467ZM830.512 78.9814H827.606C827.752 81.2145 828.226 83.0374 829.028 84.4502C829.908 83.042 830.402 81.2191 830.512 78.9814ZM821.639 75.7549L822.568 75.2627C822.96 75.846 823.334 76.4749 823.689 77.1494L822.732 77.6553C822.368 76.9535 822.003 76.32 821.639 75.7549ZM835.133 76.2607H844.881V88.6748H843.719V87.7041H836.295V88.6748H835.133V76.2607ZM836.295 82.3994V86.7061H843.719V82.3994H836.295ZM836.295 77.2861V81.374H843.719V77.2861H836.295ZM855.244 75.9189H860.084V87.0068C860.084 88.0824 859.574 88.6201 858.553 88.6201C858.042 88.6201 857.541 88.6064 857.049 88.5791C857.012 88.2783 856.958 87.9274 856.885 87.5264C857.55 87.5902 858.029 87.6221 858.32 87.6221C858.822 87.6221 859.072 87.3714 859.072 86.8701V83.999H856.146C856.046 85.9951 855.44 87.654 854.328 88.9756C854.082 88.7204 853.809 88.4652 853.508 88.21C854.246 87.3623 854.715 86.4827 854.916 85.5713C855.135 84.6963 855.244 83.1742 855.244 81.0049V75.9189ZM847.273 84.5049H848.559V78.1885H847.438V77.2588H848.559V75.5908H849.57V77.2588H852.414V75.5361H853.426V77.2588H854.533V78.1885H853.426V84.5049H854.52V85.4346H847.273V84.5049ZM856.208 83.0967H859.072V80.417H856.256C856.265 81.5928 856.249 82.486 856.208 83.0967ZM859.072 76.8486H856.256V79.5146H859.072V76.8486ZM849.57 84.5049H852.414V82.9736H849.57V84.5049ZM849.57 82.0986H852.414V80.5811H849.57V82.0986ZM849.57 79.7061H852.414V78.1885H849.57V79.7061ZM849.57 85.6943L850.404 86.3506C849.484 87.3441 848.645 88.1781 847.889 88.8525C847.697 88.6338 847.456 88.3923 847.164 88.1279C848.03 87.3896 848.832 86.5785 849.57 85.6943ZM851.361 86.3369L852.018 85.667C852.656 86.141 853.257 86.6195 853.822 87.1025L853.098 87.8818C852.587 87.3714 852.008 86.8564 851.361 86.3369Z" fill="#15163D"/>
<path d="M945.688 79.2959H949.16V77.9014H946.07V76.9717H949.16V75.3857H950.131V76.9717H953.289V77.9014H950.131V79.2959H953.549V80.2256L953.344 81.9756C953.007 81.9391 952.688 81.9163 952.387 81.9072L952.592 80.2256H945.688V79.2959ZM940.766 76.3291H945.127V85.1201H944.225V77.3271H941.668V85.2021H940.766V76.3291ZM945.537 84.1631H949.926C949.98 83.6891 950.008 83.0921 950.008 82.3721V80.6084H950.979V82.3037C950.979 83.0967 950.951 83.7165 950.896 84.1631H953.754V85.0928H950.773C950.701 85.3571 950.605 85.5986 950.486 85.8174C951.58 86.4736 952.692 87.18 953.822 87.9365L953.18 88.8662C952.214 88.137 951.129 87.376 949.926 86.583C949.033 87.5218 947.615 88.3011 945.674 88.9209C945.482 88.6019 945.268 88.2738 945.031 87.9365C947.693 87.1709 949.26 86.223 949.734 85.0928H945.537V84.1631ZM942.502 78.4209H943.404V82.1807C943.404 83.2744 943.281 84.2861 943.035 85.2158L943.486 84.7646C944.215 85.512 944.885 86.2093 945.496 86.8564L944.73 87.54C944.193 86.8929 943.6 86.2139 942.953 85.5029C942.525 86.8428 941.837 87.932 940.889 88.7705C940.679 88.4697 940.451 88.1917 940.205 87.9365C941.736 86.7881 942.502 84.8649 942.502 82.167V78.4209ZM945.797 82.5088L946.262 81.7705C947.046 82.1807 947.82 82.6227 948.586 83.0967L948.094 83.917C947.365 83.4248 946.599 82.9554 945.797 82.5088ZM946.836 81.1143L947.301 80.3623C948.139 80.7907 948.91 81.2191 949.611 81.6475L949.105 82.4814C948.422 82.0166 947.665 81.5609 946.836 81.1143ZM955.039 76.1787H966.988V88.7021H965.84V87.8271H956.188V88.7021H955.039V76.1787ZM965.84 77.1904H956.188V86.8428H965.84V77.1904ZM958.102 79.2822H963.912V85.2568H962.846V84.4912H959.168V85.2568H958.102V79.2822ZM962.846 80.2393H959.168V83.5342H962.846V80.2393ZM970.133 76.2607H979.881V88.6748H978.719V87.7041H971.295V88.6748H970.133V76.2607ZM971.295 82.3994V86.7061H978.719V82.3994H971.295ZM971.295 77.2861V81.374H978.719V77.2861H971.295ZM990.244 75.9189H995.084V87.0068C995.084 88.0824 994.574 88.6201 993.553 88.6201C993.042 88.6201 992.541 88.6064 992.049 88.5791C992.012 88.2783 991.958 87.9274 991.885 87.5264C992.55 87.5902 993.029 87.6221 993.32 87.6221C993.822 87.6221 994.072 87.3714 994.072 86.8701V83.999H991.146C991.046 85.9951 990.44 87.654 989.328 88.9756C989.082 88.7204 988.809 88.4652 988.508 88.21C989.246 87.3623 989.715 86.4827 989.916 85.5713C990.135 84.6963 990.244 83.1742 990.244 81.0049V75.9189ZM982.273 84.5049H983.559V78.1885H982.438V77.2588H983.559V75.5908H984.57V77.2588H987.414V75.5361H988.426V77.2588H989.533V78.1885H988.426V84.5049H989.52V85.4346H982.273V84.5049ZM991.208 83.0967H994.072V80.417H991.256C991.265 81.5928 991.249 82.486 991.208 83.0967ZM994.072 76.8486H991.256V79.5146H994.072V76.8486ZM984.57 84.5049H987.414V82.9736H984.57V84.5049ZM984.57 82.0986H987.414V80.5811H984.57V82.0986ZM984.57 79.7061H987.414V78.1885H984.57V79.7061ZM984.57 85.6943L985.404 86.3506C984.484 87.3441 983.645 88.1781 982.889 88.8525C982.697 88.6338 982.456 88.3923 982.164 88.1279C983.03 87.3896 983.832 86.5785 984.57 85.6943ZM986.361 86.3369L987.018 85.667C987.656 86.141 988.257 86.6195 988.822 87.1025L988.098 87.8818C987.587 87.3714 987.008 86.8564 986.361 86.3369Z" fill="#15163D"/>
<path d="M27 55L32.1962 64H21.8038L27 55Z" fill="#15163D"/>
<path d="M341 55L346.196 64H335.804L341 55Z" fill="#15163D"/>
<path d="M655 55L660.196 64H649.804L655 55Z" fill="#15163D"/>
<path d="M969 55L974.196 64H963.804L969 55Z" fill="#15163D"/>
<path d="M812 55L817.196 64H806.804L812 55Z" fill="#15163D"/>
</svg>
