<?xml version="1.0" encoding="UTF-8"?>
<svg width="477px" height="273px" viewBox="0 0 477 273" version="1.1" xmlns="http://www.w3.org/2000/svg" xmlns:xlink="http://www.w3.org/1999/xlink">
    <!-- Generator: Sketch 56.2 (81672) - https://sketch.com -->
    <title>切片</title>
    <desc>Created with Sketch.</desc>
    <defs>
        <linearGradient x1="2.59191919%" y1="-3.28661616%" x2="107.64798%" y2="112.388889%" id="linearGradient-1">
            <stop stop-color="#48CCCC" offset="0%"></stop>
            <stop stop-color="#FDE6E7" offset="100%"></stop>
        </linearGradient>
        <linearGradient x1="-0.294117647%" y1="-7.54176471%" x2="100.294118%" y2="110.397059%" id="linearGradient-2">
            <stop stop-color="#48CCCC" offset="0%"></stop>
            <stop stop-color="#FDE6E7" offset="100%"></stop>
        </linearGradient>
        <linearGradient x1="50%" y1="-17.8423077%" x2="2.73466973%" y2="96.8934066%" id="linearGradient-3">
            <stop stop-color="#839CDC" stop-opacity="0.32" offset="0%"></stop>
            <stop stop-color="#48CCCC" offset="100%"></stop>
        </linearGradient>
        <linearGradient x1="0.114940227%" y1="25.3703896%" x2="43.1874887%" y2="45.9190273%" id="linearGradient-4">
            <stop stop-color="#48CCCC" offset="0%"></stop>
            <stop stop-color="#48CCCC" stop-opacity="0" offset="100%"></stop>
        </linearGradient>
        <linearGradient x1="4.52027655%" y1="26.6324755%" x2="39.3627984%" y2="44.8602531%" id="linearGradient-5">
            <stop stop-color="#FFEC76" offset="0%"></stop>
            <stop stop-color="#FFEC76" stop-opacity="0" offset="100%"></stop>
        </linearGradient>
        <linearGradient x1="0.114940227%" y1="25.3708666%" x2="35.1576924%" y2="42.3362756%" id="linearGradient-6">
            <stop stop-color="#00FF47" offset="0%"></stop>
            <stop stop-color="#00FF47" stop-opacity="0" offset="100%"></stop>
        </linearGradient>
        <linearGradient x1="0.11471799%" y1="25.3707674%" x2="35.1575528%" y2="42.3363095%" id="linearGradient-7">
            <stop stop-color="#00FF47" offset="0%"></stop>
            <stop stop-color="#00FF47" stop-opacity="0" offset="100%"></stop>
        </linearGradient>
        <linearGradient x1="0.11469998%" y1="25.3707625%" x2="35.1576664%" y2="42.3364202%" id="linearGradient-8">
            <stop stop-color="#FFFFFF" offset="0%"></stop>
            <stop stop-color="#FFFFFF" stop-opacity="0" offset="100%"></stop>
        </linearGradient>
        <linearGradient x1="0.114940227%" y1="25.3707738%" x2="35.1576924%" y2="42.3364292%" id="linearGradient-9">
            <stop stop-color="#FFFFFF" offset="0%"></stop>
            <stop stop-color="#FFFFFF" stop-opacity="0" offset="100%"></stop>
        </linearGradient>
        <linearGradient x1="0.214176707%" y1="25.2711567%" x2="17.6972646%" y2="33.8486158%" id="linearGradient-10">
            <stop stop-color="#FFA800" offset="0%"></stop>
            <stop stop-color="#FFA800" stop-opacity="0" offset="100%"></stop>
        </linearGradient>
    </defs>
    <g id="页面-1" stroke="none" stroke-width="1" fill="none" fill-rule="evenodd">
        <g id="homepage-banner" transform="translate(0.000000, -2.000000)">
            <circle id="椭圆形" stroke="url(#linearGradient-1)" cx="246.5" cy="124.5" r="99"></circle>
            <circle id="椭圆形" stroke="url(#linearGradient-2)" cx="246.5" cy="124.5" r="85"></circle>
            <path d="M246.5,172 L291,172 L291,126.5 L246.5,172 Z M246.5,172 L202,172 L202,126.311 L246.5,172 Z M246.5,172 L291,126.5 L246.5,172 Z M291,126.5 L291,81 L246.5,81 L291,126.5 Z" id="形状" stroke="url(#linearGradient-3)"></path>
            <path d="M595.408,224.248 L345.713,49.4096" id="路径" stroke="url(#linearGradient-4)"></path>
            <path d="M328.408,175.248 L78.7131,0.409568" id="路径" stroke="url(#linearGradient-5)"></path>
            <path d="M630.408,377.248 L380.713,202.41" id="路径" stroke="url(#linearGradient-6)"></path>
            <path d="M250.408,260.248 L0.713075,85.4096" id="路径" stroke="url(#linearGradient-7)"></path>
            <path d="M331.408,214.248 L81.7131,39.4096" id="路径" stroke="url(#linearGradient-8)"></path>
            <path d="M561.408,183.248 L311.713,8.40957" id="路径" stroke="url(#linearGradient-9)"></path>
            <path d="M203.814,230.499 L69.8125,136.67" id="路径" stroke="url(#linearGradient-10)"></path>
            <path d="M101.258,265 L101.258,255.047 L104.04,255.047 C104.856,255.047 105.587,255.234 106.234,255.607 C106.882,255.977 107.385,256.507 107.745,257.2 C108.11,257.893 108.292,258.681 108.292,259.565 L108.292,260.481 C108.292,261.37 108.112,262.159 107.752,262.847 C107.392,263.535 106.884,264.066 106.228,264.439 C105.576,264.813 104.826,265 103.979,265 L101.258,265 Z M102.099,255.765 L102.099,264.289 L103.985,264.289 C105.034,264.289 105.874,263.943 106.508,263.25 C107.141,262.553 107.458,261.612 107.458,260.427 L107.458,259.552 C107.458,258.408 107.146,257.492 106.521,256.804 C105.897,256.116 105.075,255.769 104.054,255.765 L102.099,255.765 Z M113.104,265.137 C112.476,265.137 111.906,264.982 111.396,264.672 C110.89,264.362 110.495,263.931 110.213,263.38 C109.93,262.824 109.789,262.202 109.789,261.514 L109.789,261.22 C109.789,260.509 109.926,259.868 110.199,259.299 C110.477,258.729 110.862,258.283 111.354,257.959 C111.847,257.631 112.38,257.467 112.954,257.467 C113.852,257.467 114.563,257.774 115.087,258.39 C115.616,259 115.88,259.837 115.88,260.898 L115.88,261.356 L110.603,261.356 L110.603,261.514 C110.603,262.352 110.842,263.052 111.32,263.612 C111.803,264.168 112.41,264.446 113.139,264.446 C113.576,264.446 113.961,264.367 114.294,264.207 C114.631,264.048 114.937,263.792 115.21,263.441 L115.723,263.831 C115.121,264.701 114.248,265.137 113.104,265.137 Z M112.954,258.164 C112.339,258.164 111.819,258.39 111.396,258.841 C110.976,259.292 110.721,259.898 110.63,260.659 L115.066,260.659 L115.066,260.57 C115.044,259.859 114.841,259.281 114.458,258.834 C114.075,258.387 113.574,258.164 112.954,258.164 Z M120.207,264.446 C120.777,264.446 121.253,264.287 121.636,263.968 C122.023,263.644 122.233,263.227 122.265,262.717 L123.051,262.717 C123.028,263.168 122.887,263.58 122.627,263.954 C122.367,264.323 122.021,264.613 121.588,264.822 C121.16,265.032 120.699,265.137 120.207,265.137 C119.236,265.137 118.466,264.799 117.896,264.125 C117.331,263.451 117.049,262.544 117.049,261.404 L117.049,261.158 C117.049,260.429 117.176,259.784 117.432,259.224 C117.687,258.663 118.051,258.23 118.525,257.925 C119.004,257.619 119.562,257.467 120.2,257.467 C121.011,257.467 121.679,257.708 122.203,258.191 C122.732,258.674 123.014,259.31 123.051,260.099 L122.265,260.099 C122.228,259.52 122.019,259.053 121.636,258.697 C121.257,258.342 120.779,258.164 120.2,258.164 C119.462,258.164 118.888,258.431 118.478,258.964 C118.072,259.497 117.869,260.244 117.869,261.206 L117.869,261.445 C117.869,262.389 118.072,263.125 118.478,263.653 C118.888,264.182 119.464,264.446 120.207,264.446 Z M127.556,265.137 C126.927,265.137 126.357,264.982 125.847,264.672 C125.341,264.362 124.947,263.931 124.664,263.38 C124.382,262.824 124.24,262.202 124.24,261.514 L124.24,261.22 C124.24,260.509 124.377,259.868 124.65,259.299 C124.928,258.729 125.313,258.283 125.806,257.959 C126.298,257.631 126.831,257.467 127.405,257.467 C128.303,257.467 129.014,257.774 129.538,258.39 C130.067,259 130.331,259.837 130.331,260.898 L130.331,261.356 L125.054,261.356 L125.054,261.514 C125.054,262.352 125.293,263.052 125.771,263.612 C126.255,264.168 126.861,264.446 127.59,264.446 C128.027,264.446 128.412,264.367 128.745,264.207 C129.082,264.048 129.388,263.792 129.661,263.441 L130.174,263.831 C129.572,264.701 128.7,265.137 127.556,265.137 Z M127.405,258.164 C126.79,258.164 126.271,258.39 125.847,258.841 C125.427,259.292 125.172,259.898 125.081,260.659 L129.518,260.659 L129.518,260.57 C129.495,259.859 129.292,259.281 128.909,258.834 C128.526,258.387 128.025,258.164 127.405,258.164 Z M132.703,257.604 L132.73,258.868 C133.008,258.412 133.355,258.066 133.77,257.829 C134.184,257.588 134.642,257.467 135.144,257.467 C135.937,257.467 136.527,257.69 136.914,258.137 C137.301,258.583 137.497,259.253 137.502,260.146 L137.502,265 L136.688,265 L136.688,260.14 C136.684,259.479 136.543,258.987 136.265,258.663 C135.991,258.34 135.551,258.178 134.945,258.178 C134.439,258.178 133.991,258.337 133.599,258.656 C133.211,258.971 132.924,259.397 132.737,259.935 L132.737,265 L131.924,265 L131.924,257.604 L132.703,257.604 Z M140.893,255.71 L140.893,257.604 L142.424,257.604 L142.424,258.273 L140.893,258.273 L140.893,263.202 C140.893,263.612 140.965,263.918 141.111,264.118 C141.262,264.319 141.51,264.419 141.856,264.419 C141.993,264.419 142.214,264.396 142.52,264.351 L142.554,265.021 C142.34,265.098 142.048,265.137 141.679,265.137 C141.118,265.137 140.71,264.975 140.455,264.651 C140.2,264.323 140.072,263.842 140.072,263.209 L140.072,258.273 L138.712,258.273 L138.712,257.604 L140.072,257.604 L140.072,255.71 L140.893,255.71 Z M147.537,258.301 C147.364,258.269 147.179,258.253 146.983,258.253 C146.473,258.253 146.04,258.396 145.685,258.684 C145.334,258.966 145.083,259.379 144.933,259.921 L144.933,265 L144.119,265 L144.119,257.604 L144.919,257.604 L144.933,258.779 C145.366,257.904 146.061,257.467 147.018,257.467 C147.245,257.467 147.425,257.496 147.558,257.556 L147.537,258.301 Z M153.231,265 C153.149,264.768 153.097,264.424 153.074,263.968 C152.787,264.341 152.42,264.631 151.974,264.836 C151.532,265.036 151.062,265.137 150.565,265.137 C149.854,265.137 149.278,264.938 148.836,264.542 C148.398,264.146 148.18,263.644 148.18,263.038 C148.18,262.318 148.478,261.748 149.075,261.329 C149.677,260.91 150.513,260.7 151.584,260.7 L153.067,260.7 L153.067,259.859 C153.067,259.331 152.903,258.916 152.575,258.615 C152.252,258.31 151.778,258.157 151.153,258.157 C150.584,258.157 150.112,258.303 149.738,258.595 C149.365,258.886 149.178,259.237 149.178,259.647 L148.357,259.641 C148.357,259.053 148.631,258.545 149.178,258.116 C149.725,257.683 150.397,257.467 151.194,257.467 C152.019,257.467 152.669,257.674 153.143,258.089 C153.621,258.499 153.867,259.073 153.881,259.812 L153.881,263.312 C153.881,264.027 153.956,264.562 154.106,264.918 L154.106,265 L153.231,265 Z M150.661,264.412 C151.208,264.412 151.696,264.28 152.124,264.016 C152.557,263.751 152.871,263.398 153.067,262.956 L153.067,261.329 L151.604,261.329 C150.789,261.338 150.151,261.489 149.69,261.78 C149.23,262.067 149,262.464 149,262.97 C149,263.384 149.153,263.729 149.458,264.002 C149.768,264.275 150.169,264.412 150.661,264.412 Z M156.984,265 L156.164,265 L156.164,254.5 L156.984,254.5 L156.984,265 Z M160.129,265 L159.309,265 L159.309,257.604 L160.129,257.604 L160.129,265 Z M159.165,255.464 C159.165,255.309 159.215,255.179 159.315,255.074 C159.416,254.965 159.552,254.91 159.726,254.91 C159.899,254.91 160.035,254.965 160.136,255.074 C160.241,255.179 160.293,255.309 160.293,255.464 C160.293,255.619 160.241,255.749 160.136,255.854 C160.035,255.958 159.899,256.011 159.726,256.011 C159.552,256.011 159.416,255.958 159.315,255.854 C159.215,255.749 159.165,255.619 159.165,255.464 Z M162.897,264.31 L167.703,264.31 L167.703,265 L161.886,265 L161.886,264.398 L166.37,258.308 L162.022,258.308 L162.022,257.604 L167.402,257.604 L167.402,258.212 L162.897,264.31 Z M171.921,265.137 C171.292,265.137 170.722,264.982 170.212,264.672 C169.706,264.362 169.312,263.931 169.029,263.38 C168.747,262.824 168.605,262.202 168.605,261.514 L168.605,261.22 C168.605,260.509 168.742,259.868 169.016,259.299 C169.294,258.729 169.679,258.283 170.171,257.959 C170.663,257.631 171.196,257.467 171.771,257.467 C172.668,257.467 173.379,257.774 173.903,258.39 C174.432,259 174.696,259.837 174.696,260.898 L174.696,261.356 L169.419,261.356 L169.419,261.514 C169.419,262.352 169.658,263.052 170.137,263.612 C170.62,264.168 171.226,264.446 171.955,264.446 C172.393,264.446 172.778,264.367 173.11,264.207 C173.448,264.048 173.753,263.792 174.026,263.441 L174.539,263.831 C173.938,264.701 173.065,265.137 171.921,265.137 Z M171.771,258.164 C171.155,258.164 170.636,258.39 170.212,258.841 C169.793,259.292 169.537,259.898 169.446,260.659 L173.883,260.659 L173.883,260.57 C173.86,259.859 173.657,259.281 173.274,258.834 C172.892,258.387 172.39,258.164 171.771,258.164 Z M175.961,261.233 C175.961,260.085 176.216,259.171 176.727,258.492 C177.242,257.809 177.939,257.467 178.818,257.467 C179.816,257.467 180.577,257.861 181.102,258.649 L181.102,254.5 L181.915,254.5 L181.915,265 L181.149,265 L181.115,264.016 C180.591,264.763 179.821,265.137 178.805,265.137 C177.952,265.137 177.264,264.795 176.74,264.111 C176.221,263.423 175.961,262.496 175.961,261.329 L175.961,261.233 Z M176.788,261.377 C176.788,262.32 176.977,263.065 177.355,263.612 C177.734,264.155 178.267,264.426 178.955,264.426 C179.962,264.426 180.678,263.981 181.102,263.093 L181.102,259.62 C180.678,258.659 179.967,258.178 178.969,258.178 C178.281,258.178 177.745,258.449 177.362,258.991 C176.979,259.529 176.788,260.324 176.788,261.377 Z M188.505,260.946 L188.505,265 L187.664,265 L187.664,255.047 L191.055,255.047 C192.089,255.047 192.905,255.311 193.502,255.84 C194.104,256.368 194.404,257.095 194.404,258.021 C194.404,258.955 194.115,259.677 193.536,260.188 C192.962,260.693 192.128,260.946 191.034,260.946 L188.505,260.946 Z M188.505,260.235 L191.055,260.235 C191.87,260.235 192.493,260.042 192.921,259.654 C193.349,259.267 193.563,258.727 193.563,258.034 C193.563,257.346 193.349,256.799 192.921,256.394 C192.497,255.983 191.893,255.774 191.109,255.765 L188.505,255.765 L188.505,260.235 Z M197.016,265 L196.195,265 L196.195,254.5 L197.016,254.5 L197.016,265 Z M203.913,265 C203.831,264.768 203.779,264.424 203.756,263.968 C203.469,264.341 203.102,264.631 202.655,264.836 C202.213,265.036 201.744,265.137 201.247,265.137 C200.536,265.137 199.96,264.938 199.518,264.542 C199.08,264.146 198.861,263.644 198.861,263.038 C198.861,262.318 199.16,261.748 199.757,261.329 C200.358,260.91 201.195,260.7 202.266,260.7 L203.749,260.7 L203.749,259.859 C203.749,259.331 203.585,258.916 203.257,258.615 C202.933,258.31 202.459,258.157 201.835,258.157 C201.265,258.157 200.794,258.303 200.42,258.595 C200.046,258.886 199.859,259.237 199.859,259.647 L199.039,259.641 C199.039,259.053 199.312,258.545 199.859,258.116 C200.406,257.683 201.078,257.467 201.876,257.467 C202.701,257.467 203.35,257.674 203.824,258.089 C204.303,258.499 204.549,259.073 204.562,259.812 L204.562,263.312 C204.562,264.027 204.638,264.562 204.788,264.918 L204.788,265 L203.913,265 Z M201.343,264.412 C201.89,264.412 202.377,264.28 202.806,264.016 C203.239,263.751 203.553,263.398 203.749,262.956 L203.749,261.329 L202.286,261.329 C201.47,261.338 200.832,261.489 200.372,261.78 C199.912,262.067 199.682,262.464 199.682,262.97 C199.682,263.384 199.834,263.729 200.14,264.002 C200.45,264.275 200.851,264.412 201.343,264.412 Z M208.021,255.71 L208.021,257.604 L209.553,257.604 L209.553,258.273 L208.021,258.273 L208.021,263.202 C208.021,263.612 208.094,263.918 208.24,264.118 C208.391,264.319 208.639,264.419 208.985,264.419 C209.122,264.419 209.343,264.396 209.648,264.351 L209.683,265.021 C209.468,265.098 209.177,265.137 208.808,265.137 C208.247,265.137 207.839,264.975 207.584,264.651 C207.329,264.323 207.201,263.842 207.201,263.209 L207.201,258.273 L205.841,258.273 L205.841,257.604 L207.201,257.604 L207.201,255.71 L208.021,255.71 Z M211.836,265 L211.836,258.273 L210.612,258.273 L210.612,257.604 L211.836,257.604 L211.836,256.708 C211.836,255.951 212.027,255.37 212.41,254.965 C212.798,254.559 213.335,254.356 214.023,254.356 C214.333,254.356 214.623,254.395 214.892,254.473 L214.83,255.156 C214.602,255.102 214.354,255.074 214.085,255.074 C213.634,255.074 213.283,255.215 213.032,255.498 C212.782,255.776 212.656,256.173 212.656,256.688 L212.656,257.604 L214.42,257.604 L214.42,258.273 L212.656,258.273 L212.656,265 L211.836,265 Z M215.432,261.192 C215.432,260.481 215.568,259.841 215.842,259.271 C216.12,258.702 216.509,258.26 217.011,257.945 C217.517,257.626 218.089,257.467 218.727,257.467 C219.711,257.467 220.508,257.813 221.119,258.506 C221.73,259.194 222.035,260.108 222.035,261.247 L222.035,261.418 C222.035,262.133 221.896,262.778 221.618,263.353 C221.345,263.922 220.957,264.362 220.456,264.672 C219.955,264.982 219.383,265.137 218.74,265.137 C217.76,265.137 216.963,264.793 216.348,264.104 C215.737,263.412 215.432,262.496 215.432,261.356 L215.432,261.192 Z M216.252,261.418 C216.252,262.302 216.48,263.029 216.936,263.599 C217.396,264.164 217.997,264.446 218.74,264.446 C219.479,264.446 220.076,264.164 220.531,263.599 C220.992,263.029 221.222,262.279 221.222,261.35 L221.222,261.192 C221.222,260.627 221.117,260.11 220.907,259.641 C220.698,259.171 220.404,258.809 220.025,258.554 C219.647,258.294 219.214,258.164 218.727,258.164 C217.997,258.164 217.403,258.451 216.942,259.025 C216.482,259.595 216.252,260.342 216.252,261.268 L216.252,261.418 Z M227.148,258.301 C226.975,258.269 226.791,258.253 226.595,258.253 C226.084,258.253 225.651,258.396 225.296,258.684 C224.945,258.966 224.694,259.379 224.544,259.921 L224.544,265 L223.73,265 L223.73,257.604 L224.53,257.604 L224.544,258.779 C224.977,257.904 225.672,257.467 226.629,257.467 C226.857,257.467 227.037,257.496 227.169,257.556 L227.148,258.301 Z M229.192,257.604 L229.22,258.807 C229.493,258.36 229.835,258.025 230.245,257.802 C230.655,257.578 231.111,257.467 231.612,257.467 C232.779,257.467 233.52,257.945 233.834,258.902 C234.098,258.442 234.451,258.089 234.894,257.843 C235.336,257.592 235.823,257.467 236.356,257.467 C237.942,257.467 238.751,258.333 238.783,260.064 L238.783,265 L237.963,265 L237.963,260.126 C237.958,259.465 237.815,258.975 237.532,258.656 C237.254,258.337 236.799,258.178 236.165,258.178 C235.577,258.187 235.08,258.378 234.675,258.752 C234.269,259.121 234.044,259.572 233.998,260.105 L233.998,265 L233.178,265 L233.178,260.064 C233.173,259.431 233.023,258.959 232.727,258.649 C232.435,258.335 231.984,258.178 231.373,258.178 C230.858,258.178 230.416,258.326 230.047,258.622 C229.678,258.914 229.404,259.349 229.227,259.928 L229.227,265 L228.406,265 L228.406,257.604 L229.192,257.604 Z M244.854,265 L244.854,258.273 L243.63,258.273 L243.63,257.604 L244.854,257.604 L244.854,256.708 C244.854,255.951 245.045,255.37 245.428,254.965 C245.815,254.559 246.353,254.356 247.041,254.356 C247.351,254.356 247.64,254.395 247.909,254.473 L247.848,255.156 C247.62,255.102 247.371,255.074 247.103,255.074 C246.651,255.074 246.3,255.215 246.05,255.498 C245.799,255.776 245.674,256.173 245.674,256.688 L245.674,257.604 L247.438,257.604 L247.438,258.273 L245.674,258.273 L245.674,265 L244.854,265 Z M248.449,261.192 C248.449,260.481 248.586,259.841 248.859,259.271 C249.137,258.702 249.527,258.26 250.028,257.945 C250.534,257.626 251.106,257.467 251.744,257.467 C252.729,257.467 253.526,257.813 254.137,258.506 C254.747,259.194 255.053,260.108 255.053,261.247 L255.053,261.418 C255.053,262.133 254.914,262.778 254.636,263.353 C254.362,263.922 253.975,264.362 253.474,264.672 C252.972,264.982 252.4,265.137 251.758,265.137 C250.778,265.137 249.98,264.793 249.365,264.104 C248.755,263.412 248.449,262.496 248.449,261.356 L248.449,261.192 Z M249.27,261.418 C249.27,262.302 249.497,263.029 249.953,263.599 C250.413,264.164 251.015,264.446 251.758,264.446 C252.496,264.446 253.093,264.164 253.549,263.599 C254.009,263.029 254.239,262.279 254.239,261.35 L254.239,261.192 C254.239,260.627 254.134,260.11 253.925,259.641 C253.715,259.171 253.421,258.809 253.043,258.554 C252.665,258.294 252.232,258.164 251.744,258.164 C251.015,258.164 250.42,258.451 249.96,259.025 C249.5,259.595 249.27,260.342 249.27,261.268 L249.27,261.418 Z M260.166,258.301 C259.993,258.269 259.808,258.253 259.612,258.253 C259.102,258.253 258.669,258.396 258.313,258.684 C257.963,258.966 257.712,259.379 257.562,259.921 L257.562,265 L256.748,265 L256.748,257.604 L257.548,257.604 L257.562,258.779 C257.994,257.904 258.689,257.467 259.646,257.467 C259.874,257.467 260.054,257.496 260.187,257.556 L260.166,258.301 Z M267.371,255.047 L269.928,262.266 L272.471,255.047 L275.164,255.047 L275.164,265 L273.106,265 L273.106,262.279 L273.312,257.583 L270.625,265 L269.217,265 L266.537,257.59 L266.742,262.279 L266.742,265 L264.691,265 L264.691,255.047 L267.371,255.047 Z M278.91,265 L276.928,265 L276.928,257.604 L278.91,257.604 L278.91,265 Z M276.812,255.689 C276.812,255.393 276.91,255.149 277.105,254.958 C277.306,254.767 277.577,254.671 277.919,254.671 C278.256,254.671 278.525,254.767 278.726,254.958 C278.926,255.149 279.026,255.393 279.026,255.689 C279.026,255.99 278.924,256.236 278.719,256.428 C278.518,256.619 278.252,256.715 277.919,256.715 C277.586,256.715 277.317,256.619 277.112,256.428 C276.912,256.236 276.812,255.99 276.812,255.689 Z M282.362,257.604 L282.424,258.458 C282.952,257.797 283.661,257.467 284.55,257.467 C285.334,257.467 285.917,257.697 286.3,258.157 C286.683,258.618 286.879,259.306 286.888,260.222 L286.888,265 L284.912,265 L284.912,260.27 C284.912,259.85 284.821,259.547 284.639,259.36 C284.456,259.169 284.153,259.073 283.729,259.073 C283.174,259.073 282.757,259.31 282.479,259.784 L282.479,265 L280.503,265 L280.503,257.604 L282.362,257.604 Z M290.477,265 L288.494,265 L288.494,257.604 L290.477,257.604 L290.477,265 Z M288.378,255.689 C288.378,255.393 288.476,255.149 288.672,254.958 C288.872,254.767 289.144,254.671 289.485,254.671 C289.823,254.671 290.091,254.767 290.292,254.958 C290.493,255.149 290.593,255.393 290.593,255.689 C290.593,255.99 290.49,256.236 290.285,256.428 C290.085,256.619 289.818,256.715 289.485,256.715 C289.153,256.715 288.884,256.619 288.679,256.428 C288.478,256.236 288.378,255.99 288.378,255.689 Z M293.929,257.604 L293.99,258.458 C294.519,257.797 295.228,257.467 296.116,257.467 C296.9,257.467 297.483,257.697 297.866,258.157 C298.249,258.618 298.445,259.306 298.454,260.222 L298.454,265 L296.479,265 L296.479,260.27 C296.479,259.85 296.387,259.547 296.205,259.36 C296.023,259.169 295.72,259.073 295.296,259.073 C294.74,259.073 294.323,259.31 294.045,259.784 L294.045,265 L292.069,265 L292.069,257.604 L293.929,257.604 Z M299.671,261.247 C299.671,260.112 299.94,259.199 300.478,258.506 C301.02,257.813 301.749,257.467 302.665,257.467 C303.476,257.467 304.107,257.745 304.559,258.301 L304.641,257.604 L306.432,257.604 L306.432,264.754 C306.432,265.401 306.284,265.964 305.987,266.442 C305.696,266.921 305.283,267.285 304.75,267.536 C304.217,267.787 303.592,267.912 302.877,267.912 C302.335,267.912 301.806,267.803 301.291,267.584 C300.776,267.37 300.386,267.092 300.122,266.75 L300.997,265.547 C301.489,266.098 302.086,266.374 302.788,266.374 C303.312,266.374 303.72,266.233 304.012,265.95 C304.303,265.672 304.449,265.276 304.449,264.761 L304.449,264.364 C303.993,264.879 303.394,265.137 302.651,265.137 C301.763,265.137 301.043,264.79 300.491,264.098 C299.944,263.4 299.671,262.478 299.671,261.329 L299.671,261.247 Z M301.646,261.391 C301.646,262.061 301.781,262.587 302.05,262.97 C302.319,263.348 302.688,263.537 303.157,263.537 C303.759,263.537 304.189,263.312 304.449,262.86 L304.449,259.75 C304.185,259.299 303.759,259.073 303.171,259.073 C302.697,259.073 302.323,259.267 302.05,259.654 C301.781,260.042 301.646,260.62 301.646,261.391 Z M317.438,260.229 L312.782,260.229 L312.782,264.289 L318.135,264.289 L318.135,265 L311.941,265 L311.941,255.047 L318.101,255.047 L318.101,255.765 L312.782,255.765 L312.782,259.518 L317.438,259.518 L317.438,260.229 Z M322.318,264.446 C322.888,264.446 323.364,264.287 323.747,263.968 C324.134,263.644 324.344,263.227 324.376,262.717 L325.162,262.717 C325.139,263.168 324.998,263.58 324.738,263.954 C324.479,264.323 324.132,264.613 323.699,264.822 C323.271,265.032 322.811,265.137 322.318,265.137 C321.348,265.137 320.577,264.799 320.008,264.125 C319.443,263.451 319.16,262.544 319.16,261.404 L319.16,261.158 C319.16,260.429 319.288,259.784 319.543,259.224 C319.798,258.663 320.163,258.23 320.637,257.925 C321.115,257.619 321.674,257.467 322.312,257.467 C323.123,257.467 323.79,257.708 324.314,258.191 C324.843,258.674 325.126,259.31 325.162,260.099 L324.376,260.099 C324.34,259.52 324.13,259.053 323.747,258.697 C323.369,258.342 322.89,258.164 322.312,258.164 C321.573,258.164 320.999,258.431 320.589,258.964 C320.183,259.497 319.98,260.244 319.98,261.206 L319.98,261.445 C319.98,262.389 320.183,263.125 320.589,263.653 C320.999,264.182 321.576,264.446 322.318,264.446 Z M326.352,261.192 C326.352,260.481 326.488,259.841 326.762,259.271 C327.04,258.702 327.429,258.26 327.931,257.945 C328.437,257.626 329.008,257.467 329.646,257.467 C330.631,257.467 331.428,257.813 332.039,258.506 C332.65,259.194 332.955,260.108 332.955,261.247 L332.955,261.418 C332.955,262.133 332.816,262.778 332.538,263.353 C332.265,263.922 331.877,264.362 331.376,264.672 C330.875,264.982 330.303,265.137 329.66,265.137 C328.68,265.137 327.883,264.793 327.268,264.104 C326.657,263.412 326.352,262.496 326.352,261.356 L326.352,261.192 Z M327.172,261.418 C327.172,262.302 327.4,263.029 327.855,263.599 C328.316,264.164 328.917,264.446 329.66,264.446 C330.398,264.446 330.995,264.164 331.451,263.599 C331.911,263.029 332.142,262.279 332.142,261.35 L332.142,261.192 C332.142,260.627 332.037,260.11 331.827,259.641 C331.618,259.171 331.324,258.809 330.945,258.554 C330.567,258.294 330.134,258.164 329.646,258.164 C328.917,258.164 328.323,258.451 327.862,259.025 C327.402,259.595 327.172,260.342 327.172,261.268 L327.172,261.418 Z M339.08,263.12 C339.08,262.715 338.916,262.389 338.588,262.143 C338.264,261.896 337.774,261.705 337.118,261.568 C336.462,261.427 335.951,261.268 335.587,261.09 C335.227,260.908 334.958,260.687 334.78,260.427 C334.607,260.167 334.521,259.853 334.521,259.483 C334.521,258.9 334.764,258.419 335.252,258.041 C335.74,257.658 336.364,257.467 337.125,257.467 C337.95,257.467 338.611,257.672 339.107,258.082 C339.609,258.488 339.859,259.019 339.859,259.675 L339.039,259.675 C339.039,259.242 338.857,258.882 338.492,258.595 C338.132,258.308 337.676,258.164 337.125,258.164 C336.587,258.164 336.154,258.285 335.826,258.526 C335.503,258.763 335.341,259.073 335.341,259.456 C335.341,259.825 335.475,260.112 335.744,260.317 C336.018,260.518 336.512,260.702 337.228,260.871 C337.948,261.04 338.485,261.22 338.841,261.411 C339.201,261.603 339.467,261.833 339.641,262.102 C339.814,262.37 339.9,262.696 339.9,263.079 C339.9,263.703 339.647,264.202 339.142,264.576 C338.64,264.95 337.984,265.137 337.173,265.137 C336.312,265.137 335.612,264.929 335.074,264.515 C334.541,264.095 334.274,263.567 334.274,262.929 L335.095,262.929 C335.127,263.407 335.327,263.781 335.696,264.05 C336.07,264.314 336.562,264.446 337.173,264.446 C337.743,264.446 338.203,264.321 338.554,264.07 C338.905,263.82 339.08,263.503 339.08,263.12 Z M344.091,263.824 L346.251,257.604 L347.133,257.604 L343.975,266.258 L343.811,266.641 C343.405,267.538 342.778,267.987 341.931,267.987 C341.735,267.987 341.525,267.955 341.302,267.892 L341.295,267.215 L341.719,267.256 C342.12,267.256 342.443,267.156 342.689,266.955 C342.94,266.759 343.152,266.42 343.325,265.937 L343.688,264.938 L340.898,257.604 L341.794,257.604 L344.091,263.824 Z M352.834,263.12 C352.834,262.715 352.67,262.389 352.342,262.143 C352.018,261.896 351.528,261.705 350.872,261.568 C350.216,261.427 349.705,261.268 349.341,261.09 C348.981,260.908 348.712,260.687 348.534,260.427 C348.361,260.167 348.274,259.853 348.274,259.483 C348.274,258.9 348.518,258.419 349.006,258.041 C349.493,257.658 350.118,257.467 350.879,257.467 C351.704,257.467 352.365,257.672 352.861,258.082 C353.363,258.488 353.613,259.019 353.613,259.675 L352.793,259.675 C352.793,259.242 352.611,258.882 352.246,258.595 C351.886,258.308 351.43,258.164 350.879,258.164 C350.341,258.164 349.908,258.285 349.58,258.526 C349.257,258.763 349.095,259.073 349.095,259.456 C349.095,259.825 349.229,260.112 349.498,260.317 C349.771,260.518 350.266,260.702 350.981,260.871 C351.701,261.04 352.239,261.22 352.595,261.411 C352.955,261.603 353.221,261.833 353.395,262.102 C353.568,262.37 353.654,262.696 353.654,263.079 C353.654,263.703 353.401,264.202 352.896,264.576 C352.394,264.95 351.738,265.137 350.927,265.137 C350.065,265.137 349.366,264.929 348.828,264.515 C348.295,264.095 348.028,263.567 348.028,262.929 L348.849,262.929 C348.881,263.407 349.081,263.781 349.45,264.05 C349.824,264.314 350.316,264.446 350.927,264.446 C351.496,264.446 351.957,264.321 352.308,264.07 C352.659,263.82 352.834,263.503 352.834,263.12 Z M356.771,255.71 L356.771,257.604 L358.303,257.604 L358.303,258.273 L356.771,258.273 L356.771,263.202 C356.771,263.612 356.844,263.918 356.99,264.118 C357.141,264.319 357.389,264.419 357.735,264.419 C357.872,264.419 358.093,264.396 358.398,264.351 L358.433,265.021 C358.218,265.098 357.927,265.137 357.558,265.137 C356.997,265.137 356.589,264.975 356.334,264.651 C356.079,264.323 355.951,263.842 355.951,263.209 L355.951,258.273 L354.591,258.273 L354.591,257.604 L355.951,257.604 L355.951,255.71 L356.771,255.71 Z M362.862,265.137 C362.233,265.137 361.664,264.982 361.153,264.672 C360.647,264.362 360.253,263.931 359.971,263.38 C359.688,262.824 359.547,262.202 359.547,261.514 L359.547,261.22 C359.547,260.509 359.684,259.868 359.957,259.299 C360.235,258.729 360.62,258.283 361.112,257.959 C361.604,257.631 362.138,257.467 362.712,257.467 C363.61,257.467 364.321,257.774 364.845,258.39 C365.373,259 365.638,259.837 365.638,260.898 L365.638,261.356 L360.36,261.356 L360.36,261.514 C360.36,262.352 360.6,263.052 361.078,263.612 C361.561,264.168 362.167,264.446 362.896,264.446 C363.334,264.446 363.719,264.367 364.052,264.207 C364.389,264.048 364.694,263.792 364.968,263.441 L365.48,263.831 C364.879,264.701 364.006,265.137 362.862,265.137 Z M362.712,258.164 C362.097,258.164 361.577,258.39 361.153,258.841 C360.734,259.292 360.479,259.898 360.388,260.659 L364.824,260.659 L364.824,260.57 C364.801,259.859 364.599,259.281 364.216,258.834 C363.833,258.387 363.332,258.164 362.712,258.164 Z M367.976,257.604 L368.003,258.807 C368.276,258.36 368.618,258.025 369.028,257.802 C369.438,257.578 369.894,257.467 370.396,257.467 C371.562,257.467 372.303,257.945 372.617,258.902 C372.882,258.442 373.235,258.089 373.677,257.843 C374.119,257.592 374.606,257.467 375.14,257.467 C376.726,257.467 377.535,258.333 377.566,260.064 L377.566,265 L376.746,265 L376.746,260.126 C376.742,259.465 376.598,258.975 376.315,258.656 C376.037,258.337 375.582,258.178 374.948,258.178 C374.36,258.187 373.864,258.378 373.458,258.752 C373.052,259.121 372.827,259.572 372.781,260.105 L372.781,265 L371.961,265 L371.961,260.064 C371.956,259.431 371.806,258.959 371.51,258.649 C371.218,258.335 370.767,258.178 370.156,258.178 C369.641,258.178 369.199,258.326 368.83,258.622 C368.461,258.914 368.188,259.349 368.01,259.928 L368.01,265 L367.189,265 L367.189,257.604 L367.976,257.604 Z" id="形状" fill="#9088A1" fill-rule="nonzero"></path>
        </g>
    </g>
</svg>