<svg width="18" height="27" viewBox="0 0 18 27" fill="none" xmlns="http://www.w3.org/2000/svg">
<path d="M11.2502 8.3098C11.2502 4.43306 9.4128 1.09918 8.01515 0.0136718C8.00945 0.0101182 7.90817 -0.0482022 7.91672 0.106692C7.91692 0.108782 7.91509 0.109409 7.91509 0.11129C7.79875 7.59657 4.07826 9.62525 2.03284 12.3582C-2.68749 18.6647 1.70254 25.5792 6.17271 26.857C8.67411 27.572 5.59509 25.5917 5.1985 21.4091C4.71912 16.3536 11.2502 12.4949 11.2502 8.3098Z" fill="#151516"/>
<path d="M14.1796 11.2819C14.0904 12.2004 13.0057 14.1646 11.6305 15.9683C6.96701 22.0869 9.62464 25.0359 11.1191 26.6201C11.9867 27.5397 11.1191 26.6201 13.2878 25.6803C13.458 25.6067 17.5196 23.6369 17.9595 19.1491C18.3854 14.8035 15.3668 12.0642 14.2924 11.2682C14.2593 11.2487 14.2122 11.2353 14.1796 11.2819Z" fill="#3F7FFF"/>
</svg>
