<svg width="26" height="30" viewBox="0 0 26 30" fill="none" xmlns="http://www.w3.org/2000/svg">
<path fill-rule="evenodd" clip-rule="evenodd" d="M13.0001 0L5.01809 4.59513L7.95263 6.2927L13.0001 3.39513L18.0474 6.2927L20.982 4.59513L13.0001 0ZM18.0474 8.6927L20.982 10.3903V13.7854L15.9345 16.683V22.4781L13.0001 24.1757L10.0655 22.4781V16.683L5.01809 13.7854V10.3903L7.95263 8.6927L13.0001 11.5902L18.0474 8.6927ZM20.982 16.1854V19.5805L18.0474 21.2781V17.8829L20.982 16.1854ZM18.0181 23.678L23.0655 20.7805V14.9853L26 13.2878V22.4781L18.0181 27.0732V23.678ZM23.0655 9.19026L20.131 7.4927L23.0655 5.79513L26 7.4927V10.8878L23.0655 12.5854V9.19026ZM10.0655 28.3025V24.9074L13.0001 26.6049L15.9345 24.9074V28.3025L13.0001 30L10.0655 28.3025ZM7.95263 21.2781L5.01809 19.5805V16.1854L7.95263 17.8829V21.2781ZM13.0001 9.19026L10.0655 7.4927L13.0001 5.79513L15.9345 7.4927L13.0001 9.19026ZM5.86908 7.4927L2.93453 9.19026V12.5854L0 10.8878V7.4927L2.93453 5.79513L5.86908 7.4927ZM0 13.2878L2.93453 14.9853V20.7805L7.98194 23.678V27.0732L0 22.4781V13.2878Z" fill="#F0B90B"/>
</svg>
