<svg xmlns="http://www.w3.org/2000/svg" width="996.369" height="680.467" viewBox="0 0 996.369 680.467">
  <g id="组_89" data-name="组 89" transform="translate(-704.631 -2204)">
    <g id="组_77" data-name="组 77" transform="translate(1633.519 2240.011)">
      <g id="椭圆_31" data-name="椭圆 31" transform="translate(5.481 -0.011)" fill="none" stroke="#28bc81" stroke-width="5">
        <circle cx="14.5" cy="14.5" r="14.5" stroke="none"/>
        <circle cx="14.5" cy="14.5" r="12" fill="none"/>
      </g>
      <path id="路径_146" data-name="路径 146" d="M7499.3,17140.682s5.933-24.109,20.477-24.109,18.943,24.109,18.943,24.109" transform="translate(-7499.299 -17088.426)" fill="none" stroke="#28bc81" stroke-linecap="round" stroke-linejoin="round" stroke-width="4"/>
    </g>
    <text id="经理人" transform="translate(1632 2224)" fill="#273460" font-size="12" font-family="PingFangSC-Semibold, PingFang SC" font-weight="600"><tspan x="0" y="0">经理人</tspan></text>
    <g id="矩形_221" data-name="矩形 221" transform="translate(1604 2204)" fill="none" stroke="#c5c5c5" stroke-width="3">
      <rect width="97" height="100" rx="17" stroke="none"/>
      <rect x="1.5" y="1.5" width="94" height="97" rx="15.5" fill="none"/>
    </g>
    <path id="路径_225" data-name="路径 225" d="M0,18.85,16.192,0,31.943,18.85" transform="translate(730.009 2427.065)" fill="none" stroke="#d8b21a" stroke-linecap="round" stroke-linejoin="round" stroke-width="3"/>
    <g id="组_78" data-name="组 78" transform="translate(1212.518 2233.086)">
      <g id="矩形_206" data-name="矩形 206" transform="translate(0.482 -0.086)" fill="#fff" stroke="#707070" stroke-width="1" opacity="0.57">
        <rect width="112" height="128" rx="5" stroke="none"/>
        <rect x="0.5" y="0.5" width="111" height="127" rx="4.5" fill="none"/>
      </g>
      <g id="矩形_210" data-name="矩形 210" transform="translate(62.482 64.914)" fill="#fff" stroke="#707070" stroke-width="1">
        <rect width="32" height="35" stroke="none"/>
        <rect x="0.5" y="0.5" width="31" height="34" fill="none"/>
      </g>
      <g id="路径_142" data-name="路径 142" transform="translate(21.79 110.057)" fill="#7ebc8f" stroke-dasharray="1">
        <path d="M0,0H71.954V10.188H0Z" stroke="none"/>
        <path d="M -7.62939453125e-06 -0.9999980926513672 L 0.9999923706054688 -0.9999980926513672 L 0.9999923706054688 1.9073486328125e-06 C 0.9999923706054688 1.9073486328125e-06 -7.62939453125e-06 1.9073486328125e-06 -7.62939453125e-06 1.9073486328125e-06 L -7.62939453125e-06 -0.9999980926513672 Z M 1.999992370605469 -0.9999980926513672 L 2.999992370605469 -0.9999980926513672 L 2.999992370605469 1.9073486328125e-06 C 2.999992370605469 1.9073486328125e-06 1.999992370605469 1.9073486328125e-06 1.999992370605469 1.9073486328125e-06 L 1.999992370605469 -0.9999980926513672 Z M 3.999992370605469 -0.9999980926513672 L 4.999992370605469 -0.9999980926513672 L 4.999992370605469 1.9073486328125e-06 C 4.999992370605469 1.9073486328125e-06 3.999992370605469 1.9073486328125e-06 3.999992370605469 1.9073486328125e-06 L 3.999992370605469 -0.9999980926513672 Z M 5.999992370605469 -0.9999980926513672 L 6.999992370605469 -0.9999980926513672 L 6.999992370605469 1.9073486328125e-06 C 6.999992370605469 1.9073486328125e-06 5.999992370605469 1.9073486328125e-06 5.999992370605469 1.9073486328125e-06 L 5.999992370605469 -0.9999980926513672 Z M 7.999996185302734 -0.9999980926513672 L 8.999996185302734 -0.9999980926513672 L 8.999996185302734 1.9073486328125e-06 C 8.999996185302734 1.9073486328125e-06 7.999996185302734 1.9073486328125e-06 7.999996185302734 1.9073486328125e-06 L 7.999996185302734 -0.9999980926513672 Z M 9.999996185302734 -0.9999980926513672 L 10.99999618530273 -0.9999980926513672 L 10.99999618530273 1.9073486328125e-06 C 10.99999618530273 1.9073486328125e-06 9.999996185302734 1.9073486328125e-06 9.999996185302734 1.9073486328125e-06 L 9.999996185302734 -0.9999980926513672 Z M 11.99999618530273 -0.9999980926513672 L 12.99999618530273 -0.9999980926513672 L 12.99999618530273 1.9073486328125e-06 C 12.99999618530273 1.9073486328125e-06 11.99999618530273 1.9073486328125e-06 11.99999618530273 1.9073486328125e-06 L 11.99999618530273 -0.9999980926513672 Z M 13.99999618530273 -0.9999980926513672 L 14.99999618530273 -0.9999980926513672 L 14.99999618530273 1.9073486328125e-06 C 14.99999618530273 1.9073486328125e-06 13.99999618530273 1.9073486328125e-06 13.99999618530273 1.9073486328125e-06 L 13.99999618530273 -0.9999980926513672 Z M 15.99999618530273 -0.9999980926513672 L 16.99999618530273 -0.9999980926513672 L 16.99999618530273 1.9073486328125e-06 C 16.99999618530273 1.9073486328125e-06 15.99999618530273 1.9073486328125e-06 15.99999618530273 1.9073486328125e-06 L 15.99999618530273 -0.9999980926513672 Z M 17.99999618530273 -0.9999980926513672 L 18.99999618530273 -0.9999980926513672 L 18.99999618530273 1.9073486328125e-06 C 18.99999618530273 1.9073486328125e-06 17.99999618530273 1.9073486328125e-06 17.99999618530273 1.9073486328125e-06 L 17.99999618530273 -0.9999980926513672 Z M 19.99999618530273 -0.9999980926513672 L 20.99999618530273 -0.9999980926513672 L 20.99999618530273 1.9073486328125e-06 C 20.99999618530273 1.9073486328125e-06 19.99999618530273 1.9073486328125e-06 19.99999618530273 1.9073486328125e-06 L 19.99999618530273 -0.9999980926513672 Z M 21.99999618530273 -0.9999980926513672 L 22.99999618530273 -0.9999980926513672 L 22.99999618530273 1.9073486328125e-06 C 22.99999618530273 1.9073486328125e-06 21.99999618530273 1.9073486328125e-06 21.99999618530273 1.9073486328125e-06 L 21.99999618530273 -0.9999980926513672 Z M 23.99999618530273 -0.9999980926513672 L 24.99999618530273 -0.9999980926513672 L 24.99999618530273 1.9073486328125e-06 C 24.99999618530273 1.9073486328125e-06 23.99999618530273 1.9073486328125e-06 23.99999618530273 1.9073486328125e-06 L 23.99999618530273 -0.9999980926513672 Z M 25.99999618530273 -0.9999980926513672 L 26.99999618530273 -0.9999980926513672 L 26.99999618530273 1.9073486328125e-06 C 26.99999618530273 1.9073486328125e-06 25.99999618530273 1.9073486328125e-06 25.99999618530273 1.9073486328125e-06 L 25.99999618530273 -0.9999980926513672 Z M 27.99999618530273 -0.9999980926513672 L 28.99999618530273 -0.9999980926513672 L 28.99999618530273 1.9073486328125e-06 C 28.99999618530273 1.9073486328125e-06 27.99999618530273 1.9073486328125e-06 27.99999618530273 1.9073486328125e-06 L 27.99999618530273 -0.9999980926513672 Z M 29.99999618530273 -0.9999980926513672 L 30.99999618530273 -0.9999980926513672 L 30.99999618530273 1.9073486328125e-06 C 30.99999618530273 1.9073486328125e-06 29.99999618530273 1.9073486328125e-06 29.99999618530273 1.9073486328125e-06 L 29.99999618530273 -0.9999980926513672 Z M 31.99999618530273 -0.9999980926513672 L 32.99999618530273 -0.9999980926513672 L 32.99999618530273 1.9073486328125e-06 C 32.99999618530273 1.9073486328125e-06 31.99999618530273 1.9073486328125e-06 31.99999618530273 1.9073486328125e-06 L 31.99999618530273 -0.9999980926513672 Z M 33.99999618530273 -0.9999980926513672 L 34.99999618530273 -0.9999980926513672 L 34.99999618530273 1.9073486328125e-06 C 34.99999618530273 1.9073486328125e-06 33.99999618530273 1.9073486328125e-06 33.99999618530273 1.9073486328125e-06 L 33.99999618530273 -0.9999980926513672 Z M 35.99999618530273 -0.9999980926513672 L 36.99999618530273 -0.9999980926513672 L 36.99999618530273 1.9073486328125e-06 C 36.99999618530273 1.9073486328125e-06 35.99999618530273 1.9073486328125e-06 35.99999618530273 1.9073486328125e-06 L 35.99999618530273 -0.9999980926513672 Z M 37.99999618530273 -0.9999980926513672 L 38.99999618530273 -0.9999980926513672 L 38.99999618530273 1.9073486328125e-06 C 38.99999618530273 1.9073486328125e-06 37.99999618530273 1.9073486328125e-06 37.99999618530273 1.9073486328125e-06 L 37.99999618530273 -0.9999980926513672 Z M 39.99999237060547 -0.9999980926513672 L 40.99999237060547 -0.9999980926513672 L 40.99999237060547 1.9073486328125e-06 C 40.99999237060547 1.9073486328125e-06 39.99999237060547 1.9073486328125e-06 39.99999237060547 1.9073486328125e-06 L 39.99999237060547 -0.9999980926513672 Z M 41.99999237060547 -0.9999980926513672 L 42.99999237060547 -0.9999980926513672 L 42.99999237060547 1.9073486328125e-06 C 42.99999237060547 1.9073486328125e-06 41.99999237060547 1.9073486328125e-06 41.99999237060547 1.9073486328125e-06 L 41.99999237060547 -0.9999980926513672 Z M 43.99999237060547 -0.9999980926513672 L 44.99999237060547 -0.9999980926513672 L 44.99999237060547 1.9073486328125e-06 C 44.99999237060547 1.9073486328125e-06 43.99999237060547 1.9073486328125e-06 43.99999237060547 1.9073486328125e-06 L 43.99999237060547 -0.9999980926513672 Z M 45.99999237060547 -0.9999980926513672 L 46.99999237060547 -0.9999980926513672 L 46.99999237060547 1.9073486328125e-06 C 46.99999237060547 1.9073486328125e-06 45.99999237060547 1.9073486328125e-06 45.99999237060547 1.9073486328125e-06 L 45.99999237060547 -0.9999980926513672 Z M 47.99999237060547 -0.9999980926513672 L 48.99999237060547 -0.9999980926513672 L 48.99999237060547 1.9073486328125e-06 C 48.99999237060547 1.9073486328125e-06 47.99999237060547 1.9073486328125e-06 47.99999237060547 1.9073486328125e-06 L 47.99999237060547 -0.9999980926513672 Z M 49.99999237060547 -0.9999980926513672 L 50.99999237060547 -0.9999980926513672 L 50.99999237060547 1.9073486328125e-06 C 50.99999237060547 1.9073486328125e-06 49.99999237060547 1.9073486328125e-06 49.99999237060547 1.9073486328125e-06 L 49.99999237060547 -0.9999980926513672 Z M 51.99999237060547 -0.9999980926513672 L 52.99999237060547 -0.9999980926513672 L 52.99999237060547 1.9073486328125e-06 C 52.99999237060547 1.9073486328125e-06 51.99999237060547 1.9073486328125e-06 51.99999237060547 1.9073486328125e-06 L 51.99999237060547 -0.9999980926513672 Z M 53.99999237060547 -0.9999980926513672 L 54.99999237060547 -0.9999980926513672 L 54.99999237060547 1.9073486328125e-06 C 54.99999237060547 1.9073486328125e-06 53.99999237060547 1.9073486328125e-06 53.99999237060547 1.9073486328125e-06 L 53.99999237060547 -0.9999980926513672 Z M 55.99999618530273 -0.9999980926513672 L 56.99999618530273 -0.9999980926513672 L 56.99999618530273 1.9073486328125e-06 C 56.99999618530273 1.9073486328125e-06 55.99999618530273 1.9073486328125e-06 55.99999618530273 1.9073486328125e-06 L 55.99999618530273 -0.9999980926513672 Z M 57.99999618530273 -0.9999980926513672 L 58.99999618530273 -0.9999980926513672 L 58.99999618530273 1.9073486328125e-06 C 58.99999618530273 1.9073486328125e-06 57.99999618530273 1.9073486328125e-06 57.99999618530273 1.9073486328125e-06 L 57.99999618530273 -0.9999980926513672 Z M 59.99999618530273 -0.9999980926513672 L 60.99999618530273 -0.9999980926513672 L 60.99999618530273 1.9073486328125e-06 C 60.99999618530273 1.9073486328125e-06 59.99999618530273 1.9073486328125e-06 59.99999618530273 1.9073486328125e-06 L 59.99999618530273 -0.9999980926513672 Z M 61.99999618530273 -0.9999980926513672 L 62.99999618530273 -0.9999980926513672 L 62.99999618530273 1.9073486328125e-06 C 62.99999618530273 1.9073486328125e-06 61.99999618530273 1.9073486328125e-06 61.99999618530273 1.9073486328125e-06 L 61.99999618530273 -0.9999980926513672 Z M 63.99999618530273 -0.9999980926513672 L 64.99999237060547 -0.9999980926513672 L 64.99999237060547 1.9073486328125e-06 C 64.99999237060547 1.9073486328125e-06 63.99999618530273 1.9073486328125e-06 63.99999618530273 1.9073486328125e-06 L 63.99999618530273 -0.9999980926513672 Z M 65.99999237060547 -0.9999980926513672 L 66.99999237060547 -0.9999980926513672 L 66.99999237060547 1.9073486328125e-06 C 66.99999237060547 1.9073486328125e-06 65.99999237060547 1.9073486328125e-06 65.99999237060547 1.9073486328125e-06 L 65.99999237060547 -0.9999980926513672 Z M 67.99999237060547 -0.9999980926513672 L 68.99999237060547 -0.9999980926513672 L 68.99999237060547 1.9073486328125e-06 C 68.99999237060547 1.9073486328125e-06 67.99999237060547 1.9073486328125e-06 67.99999237060547 1.9073486328125e-06 L 67.99999237060547 -0.9999980926513672 Z M 69.99999237060547 -0.9999980926513672 L 70.99999237060547 -0.9999980926513672 L 70.99999237060547 1.9073486328125e-06 C 70.99999237060547 1.9073486328125e-06 69.99999237060547 1.9073486328125e-06 69.99999237060547 1.9073486328125e-06 L 69.99999237060547 -0.9999980926513672 Z M 71.95432281494141 0.04567146301269531 L 72.95432281494141 0.04567146301269531 L 72.95432281494141 1.045671463012695 L 71.95432281494141 1.045671463012695 L 71.95432281494141 0.04567146301269531 Z M 71.95432281494141 2.045671463012695 L 72.95432281494141 2.045671463012695 L 72.95432281494141 3.045671463012695 L 71.95432281494141 3.045671463012695 L 71.95432281494141 2.045671463012695 Z M 71.95432281494141 4.045671463012695 L 72.95432281494141 4.045671463012695 L 72.95432281494141 5.045671463012695 L 71.95432281494141 5.045671463012695 L 71.95432281494141 4.045671463012695 Z M 71.95432281494141 6.045671463012695 L 72.95432281494141 6.045671463012695 L 72.95432281494141 7.045671463012695 L 71.95432281494141 7.045671463012695 L 71.95432281494141 6.045671463012695 Z M 71.95432281494141 8.045671463012695 L 72.95432281494141 8.045671463012695 L 72.95432281494141 9.045671463012695 L 71.95432281494141 9.045671463012695 L 71.95432281494141 8.045671463012695 Z M 71.95432281494141 10.0456714630127 L 72.95432281494141 10.0456714630127 L 72.95432281494141 10.1882209777832 L 72.95432281494141 11.1882209777832 L 71.95432281494141 11.1882209777832 L 71.09687805175781 11.1882209777832 L 71.09687805175781 10.1882209777832 L 71.95432281494141 10.1882209777832 L 71.95432281494141 10.0456714630127 Z M 69.09687805175781 10.1882209777832 L 70.09687805175781 10.1882209777832 L 70.09687805175781 11.1882209777832 L 69.09687805175781 11.1882209777832 L 69.09687805175781 10.1882209777832 Z M 67.09687805175781 10.1882209777832 L 68.09687805175781 10.1882209777832 L 68.09687805175781 11.1882209777832 L 67.09687805175781 11.1882209777832 L 67.09687805175781 10.1882209777832 Z M 65.09687805175781 10.1882209777832 L 66.09687805175781 10.1882209777832 L 66.09687805175781 11.1882209777832 L 65.09687805175781 11.1882209777832 L 65.09687805175781 10.1882209777832 Z M 63.09687423706055 10.1882209777832 L 64.09687805175781 10.1882209777832 L 64.09687805175781 11.1882209777832 L 63.09687423706055 11.1882209777832 L 63.09687423706055 10.1882209777832 Z M 61.09687423706055 10.1882209777832 L 62.09687423706055 10.1882209777832 L 62.09687423706055 11.1882209777832 L 61.09687423706055 11.1882209777832 L 61.09687423706055 10.1882209777832 Z M 59.09687423706055 10.1882209777832 L 60.09687423706055 10.1882209777832 L 60.09687423706055 11.1882209777832 L 59.09687423706055 11.1882209777832 L 59.09687423706055 10.1882209777832 Z M 57.09687423706055 10.1882209777832 L 58.09687423706055 10.1882209777832 L 58.09687423706055 11.1882209777832 L 57.09687423706055 11.1882209777832 L 57.09687423706055 10.1882209777832 Z M 55.09687805175781 10.1882209777832 L 56.09687423706055 10.1882209777832 L 56.09687423706055 11.1882209777832 L 55.09687805175781 11.1882209777832 L 55.09687805175781 10.1882209777832 Z M 53.09687805175781 10.1882209777832 L 54.09687805175781 10.1882209777832 L 54.09687805175781 11.1882209777832 L 53.09687805175781 11.1882209777832 L 53.09687805175781 10.1882209777832 Z M 51.09687805175781 10.1882209777832 L 52.09687805175781 10.1882209777832 L 52.09687805175781 11.1882209777832 L 51.09687805175781 11.1882209777832 L 51.09687805175781 10.1882209777832 Z M 49.09687805175781 10.1882209777832 L 50.09687805175781 10.1882209777832 L 50.09687805175781 11.1882209777832 L 49.09687805175781 11.1882209777832 L 49.09687805175781 10.1882209777832 Z M 47.09687805175781 10.1882209777832 L 48.09687805175781 10.1882209777832 L 48.09687805175781 11.1882209777832 L 47.09687805175781 11.1882209777832 L 47.09687805175781 10.1882209777832 Z M 45.09687805175781 10.1882209777832 L 46.09687805175781 10.1882209777832 L 46.09687805175781 11.1882209777832 L 45.09687805175781 11.1882209777832 L 45.09687805175781 10.1882209777832 Z M 43.09687805175781 10.1882209777832 L 44.09687805175781 10.1882209777832 L 44.09687805175781 11.1882209777832 L 43.09687805175781 11.1882209777832 L 43.09687805175781 10.1882209777832 Z M 41.09687805175781 10.1882209777832 L 42.09687805175781 10.1882209777832 L 42.09687805175781 11.1882209777832 L 41.09687805175781 11.1882209777832 L 41.09687805175781 10.1882209777832 Z M 39.09687423706055 10.1882209777832 L 40.09687805175781 10.1882209777832 L 40.09687805175781 11.1882209777832 L 39.09687423706055 11.1882209777832 L 39.09687423706055 10.1882209777832 Z M 37.09687423706055 10.1882209777832 L 38.09687423706055 10.1882209777832 L 38.09687423706055 11.1882209777832 L 37.09687423706055 11.1882209777832 L 37.09687423706055 10.1882209777832 Z M 35.09687423706055 10.1882209777832 L 36.09687423706055 10.1882209777832 L 36.09687423706055 11.1882209777832 L 35.09687423706055 11.1882209777832 L 35.09687423706055 10.1882209777832 Z M 33.09687423706055 10.1882209777832 L 34.09687423706055 10.1882209777832 L 34.09687423706055 11.1882209777832 L 33.09687423706055 11.1882209777832 L 33.09687423706055 10.1882209777832 Z M 31.09687423706055 10.1882209777832 L 32.09687423706055 10.1882209777832 L 32.09687423706055 11.1882209777832 L 31.09687423706055 11.1882209777832 L 31.09687423706055 10.1882209777832 Z M 29.09687423706055 10.1882209777832 L 30.09687423706055 10.1882209777832 L 30.09687423706055 11.1882209777832 L 29.09687423706055 11.1882209777832 L 29.09687423706055 10.1882209777832 Z M 27.09687423706055 10.1882209777832 L 28.09687423706055 10.1882209777832 L 28.09687423706055 11.1882209777832 L 27.09687423706055 11.1882209777832 L 27.09687423706055 10.1882209777832 Z M 25.09687423706055 10.1882209777832 L 26.09687423706055 10.1882209777832 L 26.09687423706055 11.1882209777832 L 25.09687423706055 11.1882209777832 L 25.09687423706055 10.1882209777832 Z M 23.09687423706055 10.1882209777832 L 24.09687423706055 10.1882209777832 L 24.09687423706055 11.1882209777832 L 23.09687423706055 11.1882209777832 L 23.09687423706055 10.1882209777832 Z M 21.09687423706055 10.1882209777832 L 22.09687423706055 10.1882209777832 L 22.09687423706055 11.1882209777832 L 21.09687423706055 11.1882209777832 L 21.09687423706055 10.1882209777832 Z M 19.09687423706055 10.1882209777832 L 20.09687423706055 10.1882209777832 L 20.09687423706055 11.1882209777832 L 19.09687423706055 11.1882209777832 L 19.09687423706055 10.1882209777832 Z M 17.09687423706055 10.1882209777832 L 18.09687423706055 10.1882209777832 L 18.09687423706055 11.1882209777832 L 17.09687423706055 11.1882209777832 L 17.09687423706055 10.1882209777832 Z M 15.09687423706055 10.1882209777832 L 16.09687423706055 10.1882209777832 L 16.09687423706055 11.1882209777832 L 15.09687423706055 11.1882209777832 L 15.09687423706055 10.1882209777832 Z M 13.09687423706055 10.1882209777832 L 14.09687423706055 10.1882209777832 L 14.09687423706055 11.1882209777832 L 13.09687423706055 11.1882209777832 L 13.09687423706055 10.1882209777832 Z M 11.09687423706055 10.1882209777832 L 12.09687423706055 10.1882209777832 L 12.09687423706055 11.1882209777832 L 11.09687423706055 11.1882209777832 L 11.09687423706055 10.1882209777832 Z M 9.096874237060547 10.1882209777832 L 10.09687423706055 10.1882209777832 L 10.09687423706055 11.1882209777832 L 9.096874237060547 11.1882209777832 L 9.096874237060547 10.1882209777832 Z M 7.096878051757812 10.1882209777832 L 8.096874237060547 10.1882209777832 L 8.096874237060547 11.1882209777832 L 7.096878051757812 11.1882209777832 L 7.096878051757812 10.1882209777832 Z M 5.096878051757812 10.1882209777832 L 6.096878051757812 10.1882209777832 L 6.096878051757812 11.1882209777832 L 5.096878051757812 11.1882209777832 L 5.096878051757812 10.1882209777832 Z M 3.096878051757812 10.1882209777832 L 4.096878051757812 10.1882209777832 L 4.096878051757812 11.1882209777832 L 3.096878051757812 11.1882209777832 L 3.096878051757812 10.1882209777832 Z M 1.096878051757812 10.1882209777832 L 2.096878051757812 10.1882209777832 L 2.096878051757812 11.1882209777832 L 1.096878051757812 11.1882209777832 L 1.096878051757812 10.1882209777832 Z M -1.000007629394531 9.285100936889648 L -7.62939453125e-06 9.285100936889648 C -7.62939453125e-06 9.285100936889648 -7.62939453125e-06 10.1882209777832 -7.62939453125e-06 10.1882209777832 C -7.62939453125e-06 10.1882209777832 -7.62939453125e-06 10.1882209777832 -7.62939453125e-06 10.1882209777832 L -7.62939453125e-06 10.1882209777832 L 0.0968780517578125 10.1882209777832 L 0.0968780517578125 11.1882209777832 L -7.62939453125e-06 11.1882209777832 L -1.000007629394531 11.1882209777832 L -1.000007629394531 10.1882209777832 L -1.000007629394531 9.285100936889648 Z M -1.000007629394531 7.285101413726807 L -7.62939453125e-06 7.285101413726807 C -7.62939453125e-06 7.285101413726807 -7.62939453125e-06 8.285100936889648 -7.62939453125e-06 8.285100936889648 L -1.000007629394531 8.285100936889648 L -1.000007629394531 7.285101413726807 Z M -1.000007629394531 5.285101413726807 L -7.62939453125e-06 5.285101413726807 C -7.62939453125e-06 5.285101413726807 -7.62939453125e-06 6.285101413726807 -7.62939453125e-06 6.285101413726807 L -1.000007629394531 6.285101413726807 L -1.000007629394531 5.285101413726807 Z M -1.000007629394531 3.285101413726807 L -7.62939453125e-06 3.285101413726807 C -7.62939453125e-06 3.285101413726807 -7.62939453125e-06 4.285101413726807 -7.62939453125e-06 4.285101413726807 L -1.000007629394531 4.285101413726807 L -1.000007629394531 3.285101413726807 Z M -1.000007629394531 1.285101890563965 L -7.62939453125e-06 1.285101890563965 C -7.62939453125e-06 1.285101890563965 -7.62939453125e-06 2.285101413726807 -7.62939453125e-06 2.285101413726807 L -1.000007629394531 2.285101413726807 L -1.000007629394531 1.285101890563965 Z M -1.000007629394531 1.9073486328125e-06 L -7.62939453125e-06 1.9073486328125e-06 C -7.62939453125e-06 1.9073486328125e-06 -7.62939453125e-06 0.2851018905639648 -7.62939453125e-06 0.2851018905639648 L -1.000007629394531 0.2851018905639648 L -1.000007629394531 1.9073486328125e-06 Z" stroke="none" fill="#28bc81"/>
      </g>
      <g id="路径_141" data-name="路径 141" transform="translate(-1267.656 -17087.926)" fill="#fff" stroke-linejoin="round">
        <path d="M 1349.272583007812 17230.080078125 L 1347.384643554688 17229.62109375 L 1347.384643554688 17203.00390625 L 1347.384643554688 17200.83203125 L 1349.034912109375 17202.244140625 L 1368.0302734375 17218.501953125 L 1370.587036132812 17220.689453125 L 1367.250122070312 17220.25390625 L 1355.180786132812 17218.671875 L 1349.272583007812 17230.080078125 Z" stroke="none"/>
        <path d="M 1348.384643554688 17229.62109375 L 1354.615356445312 17217.58984375 L 1367.380004882812 17219.26171875 L 1348.384643554688 17203.00390625 L 1348.384643554688 17229.62109375 M 1348.385009765625 17231.62109375 C 1348.22802734375 17231.62109375 1348.069213867188 17231.603515625 1347.911376953125 17231.564453125 C 1347.015258789062 17231.345703125 1346.384643554688 17230.54296875 1346.384643554688 17229.62109375 L 1346.384643554688 17203.00390625 C 1346.384643554688 17202.22265625 1346.838989257812 17201.513671875 1347.548217773438 17201.1875 C 1347.815673828125 17201.064453125 1348.100952148438 17201.00390625 1348.38427734375 17201.00390625 C 1348.8525390625 17201.00390625 1349.315551757812 17201.16796875 1349.685180664062 17201.484375 L 1368.680541992188 17217.7421875 C 1369.352905273438 17218.318359375 1369.567138671875 17219.267578125 1369.206909179688 17220.076171875 C 1368.882568359375 17220.802734375 1368.161987304688 17221.26171875 1367.380859375 17221.26171875 C 1367.294555664062 17221.26171875 1367.207641601562 17221.255859375 1367.120239257812 17221.244140625 L 1355.746337890625 17219.755859375 L 1350.16064453125 17230.541015625 C 1349.811279296875 17231.21484375 1349.119018554688 17231.62109375 1348.385009765625 17231.62109375 Z" stroke="none" fill="#48cccc"/>
      </g>
      <line id="直线_24" data-name="直线 24" x2="68.771" transform="translate(21.79 34.283)" fill="none" stroke="#707070" stroke-width="1"/>
      <line id="直线_25" data-name="直线 25" x2="68.771" transform="translate(21.79 41.923)" fill="none" stroke="#707070" stroke-width="1"/>
      <line id="直线_26" data-name="直线 26" x2="68.771" transform="translate(21.79 49.565)" fill="none" stroke="#707070" stroke-width="1"/>
      <line id="直线_27" data-name="直线 27" x2="68.771" transform="translate(21.79 57.206)" fill="none" stroke="#707070" stroke-width="1"/>
      <line id="直线_28" data-name="直线 28" x2="34.385" transform="translate(21.79 64.847)" fill="none" stroke="#707070" stroke-width="1"/>
      <line id="直线_29" data-name="直线 29" x2="34.385" transform="translate(21.79 72.488)" fill="none" stroke="#707070" stroke-width="1"/>
      <line id="直线_30" data-name="直线 30" x2="34.385" transform="translate(21.79 80.13)" fill="none" stroke="#707070" stroke-width="1"/>
      <line id="直线_31" data-name="直线 31" x2="34.385" transform="translate(21.79 87.77)" fill="none" stroke="#707070" stroke-width="1"/>
      <line id="直线_32" data-name="直线 32" x2="34.385" transform="translate(21.79 95.412)" fill="none" stroke="#707070" stroke-width="1"/>
    </g>
    <text id="项目1" transform="translate(1226 2253)" fill="#273460" font-size="12" font-family="PingFangSC-Semibold, PingFang SC" font-weight="600"><tspan x="0" y="0">项目</tspan><tspan y="0" font-family="Nunito-Bold, Nunito" font-weight="700">1</tspan></text>
    <g id="组_79" data-name="组 79" transform="translate(1204.208 2400.675)">
      <g id="矩形_206-2" data-name="矩形 206" transform="translate(-0.208 0.325)" fill="#fff" stroke="#707070" stroke-width="1" opacity="0.57">
        <rect width="130" height="52" rx="5" stroke="none"/>
        <rect x="0.5" y="0.5" width="129" height="51" rx="4.5" fill="none"/>
      </g>
      <line id="直线_24-2" data-name="直线 24" x2="87.006" transform="translate(21.008 34.894)" fill="none" stroke="#707070" stroke-width="1"/>
      <line id="直线_25-2" data-name="直线 25" x2="87.006" transform="translate(21.008 42.534)" fill="none" stroke="#707070" stroke-width="1"/>
    </g>
    <g id="组_80" data-name="组 80" transform="translate(1204.208 2508.708)">
      <g id="矩形_206-3" data-name="矩形 206" transform="translate(-0.208 0.292)" fill="#fff" stroke="#707070" stroke-width="1" opacity="0.57">
        <rect width="130" height="51" rx="5" stroke="none"/>
        <rect x="0.5" y="0.5" width="129" height="50" rx="4.5" fill="none"/>
      </g>
      <line id="直线_24-3" data-name="直线 24" x2="87.006" transform="translate(21.008 34.146)" fill="none" stroke="#707070" stroke-width="1"/>
      <line id="直线_25-3" data-name="直线 25" x2="87.006" transform="translate(21.008 41.786)" fill="none" stroke="#707070" stroke-width="1"/>
    </g>
    <g id="组_81" data-name="组 81" transform="translate(1204.208 2618.126)">
      <g id="矩形_206-4" data-name="矩形 206" transform="translate(-0.208 -0.126)" fill="#fff" stroke="#707070" stroke-width="1" opacity="0.57">
        <rect width="130" height="53" rx="5" stroke="none"/>
        <rect x="0.5" y="0.5" width="129" height="52" rx="4.5" fill="none"/>
      </g>
      <line id="直线_24-4" data-name="直线 24" x2="87.006" transform="translate(21.008 34.74)" fill="none" stroke="#707070" stroke-width="1"/>
      <line id="直线_25-4" data-name="直线 25" x2="87.006" transform="translate(21.008 42.38)" fill="none" stroke="#707070" stroke-width="1"/>
    </g>
    <text id="进程1" transform="translate(1215 2419)" fill="#273460" font-size="12" font-family="PingFangSC-Semibold, PingFang SC" font-weight="600"><tspan x="0" y="0">进程</tspan><tspan y="0" font-family="Nunito-Bold, Nunito" font-weight="700">1</tspan></text>
    <text id="进程2" transform="translate(1215 2526)" fill="#273460" font-size="12" font-family="PingFangSC-Semibold, PingFang SC" font-weight="600"><tspan x="0" y="0">进程</tspan><tspan y="0" font-family="Nunito-Bold, Nunito" font-weight="700">2</tspan></text>
    <text id="进程3" transform="translate(1215 2637)" fill="#273460" font-size="12" font-family="PingFangSC-Semibold, PingFang SC" font-weight="600"><tspan x="0" y="0">进程</tspan><tspan y="0" font-family="Nunito-Bold, Nunito" font-weight="700">3</tspan></text>
    <g id="组_83" data-name="组 83" transform="translate(707.051 2289.873)">
      <g id="组_67" data-name="组 67" transform="translate(33.64 13.85)">
        <g id="椭圆_32" data-name="椭圆 32" transform="translate(6.309 0.277)" fill="none" stroke="#656565" stroke-width="5">
          <circle cx="14.5" cy="14.5" r="14.5" stroke="none"/>
          <circle cx="14.5" cy="14.5" r="12" fill="none"/>
        </g>
        <path id="路径_147" data-name="路径 147" d="M7499.3,17140.682s5.933-24.109,20.477-24.109,18.943,24.109,18.943,24.109" transform="translate(-7499.299 -17088.494)" fill="none" stroke="#656565" stroke-linecap="round" stroke-linejoin="round" stroke-width="4"/>
      </g>
      <g id="组_68" data-name="组 68" transform="translate(0 0)">
        <g id="椭圆_32-2" data-name="椭圆 32" transform="translate(5.949 0.127)" fill="none" stroke="#656565" stroke-width="5">
          <circle cx="14.5" cy="14.5" r="14.5" stroke="none"/>
          <circle cx="14.5" cy="14.5" r="12" fill="none"/>
        </g>
        <path id="路径_147-2" data-name="路径 147" d="M7499.3,17140.682s5.933-24.109,20.477-24.109,18.943,24.109,18.943,24.109" transform="translate(-7499.299 -17088.281)" fill="none" stroke="#656565" stroke-linecap="round" stroke-linejoin="round" stroke-width="4"/>
      </g>
      <g id="组_69" data-name="组 69" transform="translate(70.008 2.77)">
        <g id="椭圆_32-3" data-name="椭圆 32" transform="translate(5.942 0.357)" fill="none" stroke="#656565" stroke-width="5">
          <circle cx="14.5" cy="14.5" r="14.5" stroke="none"/>
          <circle cx="14.5" cy="14.5" r="12" fill="none"/>
        </g>
        <path id="路径_147-3" data-name="路径 147" d="M7499.3,17140.682s5.933-24.109,20.477-24.109,18.943,24.109,18.943,24.109" transform="translate(-7499.299 -17088.324)" fill="none" stroke="#656565" stroke-linecap="round" stroke-linejoin="round" stroke-width="4"/>
      </g>
    </g>
    <text id="投资人" transform="translate(731 2385)" fill="#273460" font-size="18" font-family="PingFangSC-Semibold, PingFang SC" font-weight="600"><tspan x="0" y="0">投资人</tspan></text>
    <g id="路径_203" data-name="路径 203" transform="translate(-8682.777 -15201.83)" fill="none" stroke-linejoin="round">
      <path d="M10095.983,17604.785l29.078-10.469,65.137,29.078-34.6,18.033Z" stroke="none"/>
      <path d="M 10125.0615234375 17594.31640625 L 10095.9833984375 17604.78515625 L 10155.59375 17641.427734375 L 10190.1982421875 17623.39453125 L 10125.0615234375 17594.31640625 M 10125.0615234375 17591.31640625 C 10125.4794921875 17591.31640625 10125.896484375 17591.404296875 10126.2841796875 17591.576171875 L 10191.4208984375 17620.654296875 C 10192.4716796875 17621.125 10193.162109375 17622.154296875 10193.197265625 17623.3046875 C 10193.2314453125 17624.455078125 10192.60546875 17625.5234375 10191.5849609375 17626.0546875 L 10156.98046875 17644.087890625 C 10156.544921875 17644.314453125 10156.0693359375 17644.427734375 10155.59375 17644.427734375 C 10155.0478515625 17644.427734375 10154.5029296875 17644.279296875 10154.0224609375 17643.984375 L 10094.412109375 17607.341796875 C 10093.4306640625 17606.736328125 10092.880859375 17605.625 10092.9990234375 17604.4765625 C 10093.1171875 17603.330078125 10093.8828125 17602.353515625 10094.966796875 17601.962890625 L 10124.044921875 17591.494140625 C 10124.3740234375 17591.375 10124.7177734375 17591.31640625 10125.0615234375 17591.31640625 Z" stroke="none" fill="#707070"/>
    </g>
    <g id="路径_204" data-name="路径 204" transform="translate(-8675.503 -15079.996)" fill="none" stroke-linejoin="round">
      <path d="M10095.983,17604.785l29.078-10.469,65.137,29.078-34.6,18.033Z" stroke="none"/>
      <path d="M 10125.0615234375 17594.31640625 L 10095.9833984375 17604.78515625 L 10155.59375 17641.427734375 L 10190.1982421875 17623.39453125 L 10125.0615234375 17594.31640625 M 10125.0615234375 17591.31640625 C 10125.4794921875 17591.31640625 10125.896484375 17591.404296875 10126.2841796875 17591.576171875 L 10191.4208984375 17620.654296875 C 10192.4716796875 17621.125 10193.162109375 17622.154296875 10193.197265625 17623.3046875 C 10193.2314453125 17624.455078125 10192.60546875 17625.5234375 10191.5849609375 17626.0546875 L 10156.98046875 17644.087890625 C 10156.544921875 17644.314453125 10156.0693359375 17644.427734375 10155.59375 17644.427734375 C 10155.0478515625 17644.427734375 10154.5029296875 17644.279296875 10154.0224609375 17643.984375 L 10094.412109375 17607.341796875 C 10093.4306640625 17606.736328125 10092.880859375 17605.625 10092.9990234375 17604.4765625 C 10093.1171875 17603.330078125 10093.8828125 17602.353515625 10094.966796875 17601.962890625 L 10124.044921875 17591.494140625 C 10124.3740234375 17591.375 10124.7177734375 17591.31640625 10125.0615234375 17591.31640625 Z" stroke="none" fill="#707070"/>
    </g>
    <g id="路径_205" data-name="路径 205" transform="translate(-8675.503 -14960.894)" fill="none" stroke-linejoin="round">
      <path d="M10095.983,17604.785l29.078-10.469,65.137,29.078-34.6,18.033Z" stroke="none"/>
      <path d="M 10125.0615234375 17594.31640625 L 10095.9833984375 17604.78515625 L 10155.59375 17641.427734375 L 10190.1982421875 17623.39453125 L 10125.0615234375 17594.31640625 M 10125.0615234375 17591.31640625 C 10125.4794921875 17591.31640625 10125.896484375 17591.404296875 10126.2841796875 17591.576171875 L 10191.4208984375 17620.654296875 C 10192.4716796875 17621.125 10193.162109375 17622.154296875 10193.197265625 17623.3046875 C 10193.2314453125 17624.455078125 10192.60546875 17625.5234375 10191.5849609375 17626.0546875 L 10156.98046875 17644.087890625 C 10156.544921875 17644.314453125 10156.0693359375 17644.427734375 10155.59375 17644.427734375 C 10155.0478515625 17644.427734375 10154.5029296875 17644.279296875 10154.0224609375 17643.984375 L 10094.412109375 17607.341796875 C 10093.4306640625 17606.736328125 10092.880859375 17605.625 10092.9990234375 17604.4765625 C 10093.1171875 17603.330078125 10093.8828125 17602.353515625 10094.966796875 17601.962890625 L 10124.044921875 17591.494140625 C 10124.3740234375 17591.375 10124.7177734375 17591.31640625 10125.0615234375 17591.31640625 Z" stroke="none" fill="#707070"/>
    </g>
    <g id="路径_206" data-name="路径 206" transform="translate(-8682.777 -15210.922)" fill="#fff" stroke-linejoin="round">
      <path d="M 10155.533203125 17643.150390625 L 10154.80859375 17642.705078125 L 10095.1982421875 17606.0625 L 10092.541015625 17604.4296875 L 10095.4755859375 17603.373046875 L 10124.5537109375 17592.904296875 L 10125.12109375 17592.701171875 L 10125.6728515625 17592.947265625 L 10190.8095703125 17622.025390625 L 10193.64453125 17623.291015625 L 10190.8916015625 17624.724609375 L 10156.287109375 17642.7578125 L 10155.533203125 17643.150390625 Z" stroke="none"/>
      <path d="M 10125.0615234375 17594.31640625 L 10095.9833984375 17604.78515625 L 10155.59375 17641.427734375 L 10190.1982421875 17623.39453125 L 10125.0615234375 17594.31640625 M 10125.0615234375 17591.31640625 C 10125.4794921875 17591.31640625 10125.896484375 17591.404296875 10126.2841796875 17591.576171875 L 10191.4208984375 17620.654296875 C 10192.4716796875 17621.125 10193.162109375 17622.154296875 10193.197265625 17623.3046875 C 10193.2314453125 17624.455078125 10192.60546875 17625.5234375 10191.5849609375 17626.0546875 L 10156.98046875 17644.087890625 C 10156.544921875 17644.314453125 10156.0693359375 17644.427734375 10155.59375 17644.427734375 C 10155.0478515625 17644.427734375 10154.5029296875 17644.279296875 10154.0224609375 17643.984375 L 10094.412109375 17607.341796875 C 10093.4306640625 17606.736328125 10092.880859375 17605.625 10092.9990234375 17604.4765625 C 10093.1171875 17603.330078125 10093.8828125 17602.353515625 10094.966796875 17601.962890625 L 10124.044921875 17591.494140625 C 10124.3740234375 17591.375 10124.7177734375 17591.31640625 10125.0615234375 17591.31640625 Z" stroke="none" fill="#707070"/>
    </g>
    <g id="路径_207" data-name="路径 207" transform="translate(-8675.503 -15089.999)" fill="#fff" stroke-linejoin="round">
      <path d="M 10155.533203125 17643.150390625 L 10154.80859375 17642.705078125 L 10095.1982421875 17606.0625 L 10092.541015625 17604.4296875 L 10095.4755859375 17603.373046875 L 10124.5537109375 17592.904296875 L 10125.12109375 17592.701171875 L 10125.6728515625 17592.947265625 L 10190.8095703125 17622.025390625 L 10193.64453125 17623.291015625 L 10190.8916015625 17624.724609375 L 10156.287109375 17642.7578125 L 10155.533203125 17643.150390625 Z" stroke="none"/>
      <path d="M 10125.0615234375 17594.31640625 L 10095.9833984375 17604.78515625 L 10155.59375 17641.427734375 L 10190.1982421875 17623.39453125 L 10125.0615234375 17594.31640625 M 10125.0615234375 17591.31640625 C 10125.4794921875 17591.31640625 10125.896484375 17591.404296875 10126.2841796875 17591.576171875 L 10191.4208984375 17620.654296875 C 10192.4716796875 17621.125 10193.162109375 17622.154296875 10193.197265625 17623.3046875 C 10193.2314453125 17624.455078125 10192.60546875 17625.5234375 10191.5849609375 17626.0546875 L 10156.98046875 17644.087890625 C 10156.544921875 17644.314453125 10156.0693359375 17644.427734375 10155.59375 17644.427734375 C 10155.0478515625 17644.427734375 10154.5029296875 17644.279296875 10154.0224609375 17643.984375 L 10094.412109375 17607.341796875 C 10093.4306640625 17606.736328125 10092.880859375 17605.625 10092.9990234375 17604.4765625 C 10093.1171875 17603.330078125 10093.8828125 17602.353515625 10094.966796875 17601.962890625 L 10124.044921875 17591.494140625 C 10124.3740234375 17591.375 10124.7177734375 17591.31640625 10125.0615234375 17591.31640625 Z" stroke="none" fill="#707070"/>
    </g>
    <line id="直线_39" data-name="直线 39" y2="56.37" transform="translate(1348.034 2424.698) rotate(-90)" fill="none" stroke="#d8b21a" stroke-linecap="round" stroke-width="3"/>
    <line id="直线_50" data-name="直线 50" x2="258.211" y2="0.224" transform="translate(945.441 2293.551)" fill="none" stroke="#d8b21a" stroke-linecap="round" stroke-width="3"/>
    <line id="直线_47" data-name="直线 47" y2="268.942" transform="translate(898.163 2424.698) rotate(-90)" fill="none" stroke="#5e5e5e" stroke-linecap="round" stroke-width="3" stroke-dasharray="10"/>
    <line id="直线_44" data-name="直线 44" y2="115.056" transform="translate(1537.558 2424.698) rotate(-90)" fill="none" stroke="#d8b21a" stroke-linecap="round" stroke-width="3"/>
    <line id="直线_40" data-name="直线 40" y2="56.37" transform="translate(1348.034 2539.257) rotate(-90)" fill="none" stroke="#d8b21a" stroke-linecap="round" stroke-width="3"/>
    <line id="直线_46" data-name="直线 46" y2="268.942" transform="translate(898.163 2539.257) rotate(-90)" fill="none" stroke="#5e5e5e" stroke-linecap="round" stroke-width="3" stroke-dasharray="10"/>
    <line id="直线_43" data-name="直线 43" y2="115.056" transform="translate(1537.558 2539.257) rotate(-90)" fill="none" stroke="#d8b21a" stroke-linecap="round" stroke-width="3"/>
    <line id="直线_41" data-name="直线 41" y2="56.37" transform="translate(1348.034 2656.542) rotate(-90)" fill="none" stroke="#d8b21a" stroke-linecap="round" stroke-width="3"/>
    <line id="直线_45" data-name="直线 45" y2="268.942" transform="translate(898.163 2656.542) rotate(-90)" fill="none" stroke="#5e5e5e" stroke-linecap="round" stroke-width="3" stroke-dasharray="10"/>
    <line id="直线_42" data-name="直线 42" y2="115.056" transform="translate(1537.558 2656.542) rotate(-90)" fill="none" stroke="#d8b21a" stroke-linecap="round" stroke-width="3"/>
    <path id="路径_208" data-name="路径 208" d="M0,0,16.192,16.779,31.942,0" transform="translate(1388.028 2440.647) rotate(-90)" fill="none" stroke="#d8b21a" stroke-linecap="round" stroke-linejoin="round" stroke-width="3"/>
    <path id="路径_226" data-name="路径 226" d="M0,0,16.192,16.779,31.942,0" transform="translate(1187.096 2309.723) rotate(-90)" fill="none" stroke="#d8b21a" stroke-linecap="round" stroke-linejoin="round" stroke-width="3"/>
    <path id="路径_216" data-name="路径 216" d="M0,0,16.192,16.779,31.942,0" transform="translate(1150.729 2440.647) rotate(-90)" fill="none" stroke="#5e5e5e" stroke-linecap="round" stroke-linejoin="round" stroke-width="3"/>
    <path id="路径_213" data-name="路径 213" d="M0,0,16.192,16.779,31.942,0" transform="translate(1636.238 2440.647) rotate(-90)" fill="none" stroke="#d8b21a" stroke-linecap="round" stroke-linejoin="round" stroke-width="3"/>
    <path id="路径_209" data-name="路径 209" d="M0,0,16.192,16.779,31.942,0" transform="translate(1388.028 2555.205) rotate(-90)" fill="none" stroke="#d8b21a" stroke-linecap="round" stroke-linejoin="round" stroke-width="3"/>
    <path id="路径_215" data-name="路径 215" d="M0,0,16.192,16.779,31.942,0" transform="translate(1150.729 2555.205) rotate(-90)" fill="none" stroke="#5e5e5e" stroke-linecap="round" stroke-linejoin="round" stroke-width="3"/>
    <path id="路径_212" data-name="路径 212" d="M0,0,16.192,16.779,31.942,0" transform="translate(1636.238 2555.205) rotate(-90)" fill="none" stroke="#d8b21a" stroke-linecap="round" stroke-linejoin="round" stroke-width="3"/>
    <path id="路径_210" data-name="路径 210" d="M0,0,16.192,16.779,31.942,0" transform="translate(1388.028 2672.491) rotate(-90)" fill="none" stroke="#d8b21a" stroke-linecap="round" stroke-linejoin="round" stroke-width="3"/>
    <path id="路径_214" data-name="路径 214" d="M0,0,16.192,16.779,31.942,0" transform="translate(1150.729 2672.491) rotate(-90)" fill="none" stroke="#5e5e5e" stroke-linecap="round" stroke-linejoin="round" stroke-width="3"/>
    <path id="路径_211" data-name="路径 211" d="M0,0,16.192,16.779,31.942,0" transform="translate(1636.238 2672.491) rotate(-90)" fill="none" stroke="#d8b21a" stroke-linecap="round" stroke-linejoin="round" stroke-width="3"/>
    <g id="路径_218" data-name="路径 218" transform="translate(-9257.387 -15189.1)" fill="none" stroke-linejoin="round">
      <path d="M10095.983,17604.785l29.078-10.469,65.137,29.078-34.6,18.033Z" stroke="none"/>
      <path d="M 10125.0615234375 17594.31640625 L 10095.9833984375 17604.78515625 L 10155.59375 17641.427734375 L 10190.1982421875 17623.39453125 L 10125.0615234375 17594.31640625 M 10125.0615234375 17591.31640625 C 10125.4794921875 17591.31640625 10125.896484375 17591.404296875 10126.2841796875 17591.576171875 L 10191.4208984375 17620.654296875 C 10192.4716796875 17621.125 10193.162109375 17622.154296875 10193.197265625 17623.3046875 C 10193.2314453125 17624.455078125 10192.60546875 17625.5234375 10191.5849609375 17626.0546875 L 10156.98046875 17644.087890625 C 10156.544921875 17644.314453125 10156.0693359375 17644.427734375 10155.59375 17644.427734375 C 10155.0478515625 17644.427734375 10154.5029296875 17644.279296875 10154.0224609375 17643.984375 L 10094.412109375 17607.341796875 C 10093.4306640625 17606.736328125 10092.880859375 17605.625 10092.9990234375 17604.4765625 C 10093.1171875 17603.330078125 10093.8828125 17602.353515625 10094.966796875 17601.962890625 L 10124.044921875 17591.494140625 C 10124.3740234375 17591.375 10124.7177734375 17591.31640625 10125.0615234375 17591.31640625 Z" stroke="none" fill="#7ebc8f"/>
    </g>
    <g id="路径_219" data-name="路径 219" transform="translate(-9257.387 -15197.282)" fill="#fff" stroke-linejoin="round">
      <path d="M 10155.533203125 17643.150390625 L 10154.80859375 17642.705078125 L 10095.1982421875 17606.0625 L 10092.541015625 17604.4296875 L 10095.4755859375 17603.373046875 L 10124.5537109375 17592.904296875 L 10125.12109375 17592.701171875 L 10125.6728515625 17592.947265625 L 10190.8095703125 17622.025390625 L 10193.64453125 17623.291015625 L 10190.8916015625 17624.724609375 L 10156.287109375 17642.7578125 L 10155.533203125 17643.150390625 Z" stroke="none"/>
      <path d="M 10125.0615234375 17594.31640625 L 10095.9833984375 17604.78515625 L 10155.59375 17641.427734375 L 10190.1982421875 17623.39453125 L 10125.0615234375 17594.31640625 M 10125.0615234375 17591.31640625 C 10125.4794921875 17591.31640625 10125.896484375 17591.404296875 10126.2841796875 17591.576171875 L 10191.4208984375 17620.654296875 C 10192.4716796875 17621.125 10193.162109375 17622.154296875 10193.197265625 17623.3046875 C 10193.2314453125 17624.455078125 10192.60546875 17625.5234375 10191.5849609375 17626.0546875 L 10156.98046875 17644.087890625 C 10156.544921875 17644.314453125 10156.0693359375 17644.427734375 10155.59375 17644.427734375 C 10155.0478515625 17644.427734375 10154.5029296875 17644.279296875 10154.0224609375 17643.984375 L 10094.412109375 17607.341796875 C 10093.4306640625 17606.736328125 10092.880859375 17605.625 10092.9990234375 17604.4765625 C 10093.1171875 17603.330078125 10093.8828125 17602.353515625 10094.966796875 17601.962890625 L 10124.044921875 17591.494140625 C 10124.3740234375 17591.375 10124.7177734375 17591.31640625 10125.0615234375 17591.31640625 Z" stroke="none" fill="#7ebc8f"/>
    </g>
    <g id="路径_220" data-name="路径 220" transform="translate(-9257.387 -15206.375)" fill="#fff" stroke-linejoin="round">
      <path d="M 10155.533203125 17643.150390625 L 10154.80859375 17642.705078125 L 10095.1982421875 17606.0625 L 10092.541015625 17604.4296875 L 10095.4755859375 17603.373046875 L 10124.5537109375 17592.904296875 L 10125.12109375 17592.701171875 L 10125.6728515625 17592.947265625 L 10190.8095703125 17622.025390625 L 10193.64453125 17623.291015625 L 10190.8916015625 17624.724609375 L 10156.287109375 17642.7578125 L 10155.533203125 17643.150390625 Z" stroke="none"/>
      <path d="M 10125.0615234375 17594.31640625 L 10095.9833984375 17604.78515625 L 10155.59375 17641.427734375 L 10190.1982421875 17623.39453125 L 10125.0615234375 17594.31640625 M 10125.0615234375 17591.31640625 C 10125.4794921875 17591.31640625 10125.896484375 17591.404296875 10126.2841796875 17591.576171875 L 10191.4208984375 17620.654296875 C 10192.4716796875 17621.125 10193.162109375 17622.154296875 10193.197265625 17623.3046875 C 10193.2314453125 17624.455078125 10192.60546875 17625.5234375 10191.5849609375 17626.0546875 L 10156.98046875 17644.087890625 C 10156.544921875 17644.314453125 10156.0693359375 17644.427734375 10155.59375 17644.427734375 C 10155.0478515625 17644.427734375 10154.5029296875 17644.279296875 10154.0224609375 17643.984375 L 10094.412109375 17607.341796875 C 10093.4306640625 17606.736328125 10092.880859375 17605.625 10092.9990234375 17604.4765625 C 10093.1171875 17603.330078125 10093.8828125 17602.353515625 10094.966796875 17601.962890625 L 10124.044921875 17591.494140625 C 10124.3740234375 17591.375 10124.7177734375 17591.31640625 10125.0615234375 17591.31640625 Z" stroke="none" fill="#7ebc8f"/>
    </g>
    <g id="路径_221" data-name="路径 221" transform="translate(-9257.387 -15215.467)" fill="#fff" stroke-linejoin="round">
      <path d="M 10155.533203125 17643.150390625 L 10154.80859375 17642.705078125 L 10095.1982421875 17606.0625 L 10092.541015625 17604.4296875 L 10095.4755859375 17603.373046875 L 10124.5537109375 17592.904296875 L 10125.12109375 17592.701171875 L 10125.6728515625 17592.947265625 L 10190.8095703125 17622.025390625 L 10193.64453125 17623.291015625 L 10190.8916015625 17624.724609375 L 10156.287109375 17642.7578125 L 10155.533203125 17643.150390625 Z" stroke="none"/>
      <path d="M 10125.0615234375 17594.31640625 L 10095.9833984375 17604.78515625 L 10155.59375 17641.427734375 L 10190.1982421875 17623.39453125 L 10125.0615234375 17594.31640625 M 10125.0615234375 17591.31640625 C 10125.4794921875 17591.31640625 10125.896484375 17591.404296875 10126.2841796875 17591.576171875 L 10191.4208984375 17620.654296875 C 10192.4716796875 17621.125 10193.162109375 17622.154296875 10193.197265625 17623.3046875 C 10193.2314453125 17624.455078125 10192.60546875 17625.5234375 10191.5849609375 17626.0546875 L 10156.98046875 17644.087890625 C 10156.544921875 17644.314453125 10156.0693359375 17644.427734375 10155.59375 17644.427734375 C 10155.0478515625 17644.427734375 10154.5029296875 17644.279296875 10154.0224609375 17643.984375 L 10094.412109375 17607.341796875 C 10093.4306640625 17606.736328125 10092.880859375 17605.625 10092.9990234375 17604.4765625 C 10093.1171875 17603.330078125 10093.8828125 17602.353515625 10094.966796875 17601.962890625 L 10124.044921875 17591.494140625 C 10124.3740234375 17591.375 10124.7177734375 17591.31640625 10125.0615234375 17591.31640625 Z" stroke="none" fill="#7ebc8f"/>
    </g>
    <text id="票权" transform="matrix(0.875, 0.485, -0.485, 0.875, 864.044, 2392.657)" fill="#273460" font-size="16" font-family="PingFangSC-Semibold, PingFang SC" font-weight="600"><tspan x="0" y="0">票权</tspan></text>
    <line id="直线_48" data-name="直线 48" y2="468.234" transform="translate(1652.793 2303.552)" fill="none" stroke="#d8b21a" stroke-linecap="round" stroke-width="3"/>
    <line id="直线_49" data-name="直线 49" y2="200.023" transform="translate(898.163 2457.206)" fill="none" stroke="#5e5e5e" stroke-linecap="round" stroke-width="3" stroke-dasharray="10"/>
    <path id="路径_217" data-name="路径 217" d="M10032.957,17340.488l16.193,16.777,15.749-16.777" transform="translate(-8396.112 -14584.168)" fill="none" stroke="#d8b21a" stroke-linecap="round" stroke-linejoin="round" stroke-width="3"/>
    <text id="_1轮投票" data-name="1轮投票" transform="translate(1021 2411)" fill="#273460" font-size="16" font-family="Nunito-Bold, Nunito" font-weight="700"><tspan x="0" y="0">1</tspan><tspan y="0" font-family="PingFangSC-Semibold, PingFang SC" font-weight="600">轮投票</tspan></text>
    <text id="释放1轮资金" transform="translate(1538 2410)" fill="#273460" font-size="15" font-family="PingFangSC-Semibold, PingFang SC" font-weight="600"><tspan x="0" y="0">释放</tspan><tspan y="0" font-family="Nunito-Bold, Nunito" font-weight="700">1</tspan><tspan y="0">轮资金</tspan></text>
    <text id="释放2轮资金" transform="translate(1538 2527)" fill="#273460" font-size="15" font-family="PingFangSC-Semibold, PingFang SC" font-weight="600"><tspan x="0" y="0">释放</tspan><tspan y="0" font-family="Nunito-Bold, Nunito" font-weight="700">2</tspan><tspan y="0">轮资金</tspan></text>
    <text id="释放3轮资金" transform="translate(1538 2647)" fill="#273460" font-size="15" font-family="PingFangSC-Semibold, PingFang SC" font-weight="600"><tspan x="0" y="0">释放</tspan><tspan y="0" font-family="Nunito-Bold, Nunito" font-weight="700">3</tspan><tspan y="0">轮资金</tspan></text>
    <text id="_2轮投票" data-name="2轮投票" transform="translate(1021 2524)" fill="#273460" font-size="16" font-family="Nunito-Bold, Nunito" font-weight="700"><tspan x="0" y="0">2</tspan><tspan y="0" font-family="PingFangSC-Semibold, PingFang SC" font-weight="600">轮投票</tspan></text>
    <text id="_3轮投票" data-name="3轮投票" transform="translate(1021 2646)" fill="#273460" font-size="16" font-family="Nunito-Bold, Nunito" font-weight="700"><tspan x="0" y="0">3</tspan><tspan y="0" font-family="PingFangSC-Semibold, PingFang SC" font-weight="600">轮投票</tspan></text>
    <g id="路径_177" data-name="路径 177" transform="translate(-8536.396 -14759.961)" fill="none" stroke-linejoin="round">
      <path d="M10095.983,17604.785l29.078-10.469,65.137,29.078-34.6,18.033Z" stroke="none"/>
      <path d="M 10125.0615234375 17594.31640625 L 10095.9833984375 17604.78515625 L 10155.59375 17641.427734375 L 10190.1982421875 17623.39453125 L 10125.0615234375 17594.31640625 M 10125.0615234375 17591.31640625 C 10125.4794921875 17591.31640625 10125.896484375 17591.404296875 10126.2841796875 17591.576171875 L 10191.4208984375 17620.654296875 C 10192.4716796875 17621.125 10193.162109375 17622.154296875 10193.197265625 17623.3046875 C 10193.2314453125 17624.455078125 10192.60546875 17625.5234375 10191.5849609375 17626.0546875 L 10156.98046875 17644.087890625 C 10156.544921875 17644.314453125 10156.0693359375 17644.427734375 10155.59375 17644.427734375 C 10155.0478515625 17644.427734375 10154.5029296875 17644.279296875 10154.0224609375 17643.984375 L 10094.412109375 17607.341796875 C 10093.4306640625 17606.736328125 10092.880859375 17605.625 10092.9990234375 17604.4765625 C 10093.1171875 17603.330078125 10093.8828125 17602.353515625 10094.966796875 17601.962890625 L 10124.044921875 17591.494140625 C 10124.3740234375 17591.375 10124.7177734375 17591.31640625 10125.0615234375 17591.31640625 Z" stroke="none" fill="#707070"/>
    </g>
    <g id="路径_227" data-name="路径 227" transform="translate(-9257.387 -15310.022)" fill="none" stroke-linejoin="round">
      <path d="M10095.983,17604.785l29.078-10.469,65.137,29.078-34.6,18.033Z" stroke="none"/>
      <path d="M 10125.0615234375 17594.31640625 L 10095.9833984375 17604.78515625 L 10155.59375 17641.427734375 L 10190.1982421875 17623.39453125 L 10125.0615234375 17594.31640625 M 10125.0615234375 17591.31640625 C 10125.4794921875 17591.31640625 10125.896484375 17591.404296875 10126.2841796875 17591.576171875 L 10191.4208984375 17620.654296875 C 10192.4716796875 17621.125 10193.162109375 17622.154296875 10193.197265625 17623.3046875 C 10193.2314453125 17624.455078125 10192.60546875 17625.5234375 10191.5849609375 17626.0546875 L 10156.98046875 17644.087890625 C 10156.544921875 17644.314453125 10156.0693359375 17644.427734375 10155.59375 17644.427734375 C 10155.0478515625 17644.427734375 10154.5029296875 17644.279296875 10154.0224609375 17643.984375 L 10094.412109375 17607.341796875 C 10093.4306640625 17606.736328125 10092.880859375 17605.625 10092.9990234375 17604.4765625 C 10093.1171875 17603.330078125 10093.8828125 17602.353515625 10094.966796875 17601.962890625 L 10124.044921875 17591.494140625 C 10124.3740234375 17591.375 10124.7177734375 17591.31640625 10125.0615234375 17591.31640625 Z" stroke="none" fill="#707070"/>
    </g>
    <g id="路径_178" data-name="路径 178" transform="translate(-8536.396 -14769.053)" fill="#fff" stroke-linejoin="round">
      <path d="M 10155.533203125 17643.150390625 L 10154.80859375 17642.705078125 L 10095.1982421875 17606.0625 L 10092.541015625 17604.4296875 L 10095.4755859375 17603.373046875 L 10124.5537109375 17592.904296875 L 10125.12109375 17592.701171875 L 10125.6728515625 17592.947265625 L 10190.8095703125 17622.025390625 L 10193.64453125 17623.291015625 L 10190.8916015625 17624.724609375 L 10156.287109375 17642.7578125 L 10155.533203125 17643.150390625 Z" stroke="none"/>
      <path d="M 10125.0615234375 17594.31640625 L 10095.9833984375 17604.78515625 L 10155.59375 17641.427734375 L 10190.1982421875 17623.39453125 L 10125.0615234375 17594.31640625 M 10125.0615234375 17591.31640625 C 10125.4794921875 17591.31640625 10125.896484375 17591.404296875 10126.2841796875 17591.576171875 L 10191.4208984375 17620.654296875 C 10192.4716796875 17621.125 10193.162109375 17622.154296875 10193.197265625 17623.3046875 C 10193.2314453125 17624.455078125 10192.60546875 17625.5234375 10191.5849609375 17626.0546875 L 10156.98046875 17644.087890625 C 10156.544921875 17644.314453125 10156.0693359375 17644.427734375 10155.59375 17644.427734375 C 10155.0478515625 17644.427734375 10154.5029296875 17644.279296875 10154.0224609375 17643.984375 L 10094.412109375 17607.341796875 C 10093.4306640625 17606.736328125 10092.880859375 17605.625 10092.9990234375 17604.4765625 C 10093.1171875 17603.330078125 10093.8828125 17602.353515625 10094.966796875 17601.962890625 L 10124.044921875 17591.494140625 C 10124.3740234375 17591.375 10124.7177734375 17591.31640625 10125.0615234375 17591.31640625 Z" stroke="none" fill="#707070"/>
    </g>
    <g id="路径_228" data-name="路径 228" transform="translate(-9257.387 -15319.114)" fill="#fff" stroke-linejoin="round">
      <path d="M 10155.533203125 17643.150390625 L 10154.80859375 17642.705078125 L 10095.1982421875 17606.0625 L 10092.541015625 17604.4296875 L 10095.4755859375 17603.373046875 L 10124.5537109375 17592.904296875 L 10125.12109375 17592.701171875 L 10125.6728515625 17592.947265625 L 10190.8095703125 17622.025390625 L 10193.64453125 17623.291015625 L 10190.8916015625 17624.724609375 L 10156.287109375 17642.7578125 L 10155.533203125 17643.150390625 Z" stroke="none"/>
      <path d="M 10125.0615234375 17594.31640625 L 10095.9833984375 17604.78515625 L 10155.59375 17641.427734375 L 10190.1982421875 17623.39453125 L 10125.0615234375 17594.31640625 M 10125.0615234375 17591.31640625 C 10125.4794921875 17591.31640625 10125.896484375 17591.404296875 10126.2841796875 17591.576171875 L 10191.4208984375 17620.654296875 C 10192.4716796875 17621.125 10193.162109375 17622.154296875 10193.197265625 17623.3046875 C 10193.2314453125 17624.455078125 10192.60546875 17625.5234375 10191.5849609375 17626.0546875 L 10156.98046875 17644.087890625 C 10156.544921875 17644.314453125 10156.0693359375 17644.427734375 10155.59375 17644.427734375 C 10155.0478515625 17644.427734375 10154.5029296875 17644.279296875 10154.0224609375 17643.984375 L 10094.412109375 17607.341796875 C 10093.4306640625 17606.736328125 10092.880859375 17605.625 10092.9990234375 17604.4765625 C 10093.1171875 17603.330078125 10093.8828125 17602.353515625 10094.966796875 17601.962890625 L 10124.044921875 17591.494140625 C 10124.3740234375 17591.375 10124.7177734375 17591.31640625 10125.0615234375 17591.31640625 Z" stroke="none" fill="#707070"/>
    </g>
    <g id="路径_179" data-name="路径 179" transform="translate(-8536.396 -14778.145)" fill="#fff" stroke-linejoin="round">
      <path d="M 10155.533203125 17643.150390625 L 10154.80859375 17642.705078125 L 10095.1982421875 17606.0625 L 10092.541015625 17604.4296875 L 10095.4755859375 17603.373046875 L 10124.5537109375 17592.904296875 L 10125.12109375 17592.701171875 L 10125.6728515625 17592.947265625 L 10190.8095703125 17622.025390625 L 10193.64453125 17623.291015625 L 10190.8916015625 17624.724609375 L 10156.287109375 17642.7578125 L 10155.533203125 17643.150390625 Z" stroke="none"/>
      <path d="M 10125.0615234375 17594.31640625 L 10095.9833984375 17604.78515625 L 10155.59375 17641.427734375 L 10190.1982421875 17623.39453125 L 10125.0615234375 17594.31640625 M 10125.0615234375 17591.31640625 C 10125.4794921875 17591.31640625 10125.896484375 17591.404296875 10126.2841796875 17591.576171875 L 10191.4208984375 17620.654296875 C 10192.4716796875 17621.125 10193.162109375 17622.154296875 10193.197265625 17623.3046875 C 10193.2314453125 17624.455078125 10192.60546875 17625.5234375 10191.5849609375 17626.0546875 L 10156.98046875 17644.087890625 C 10156.544921875 17644.314453125 10156.0693359375 17644.427734375 10155.59375 17644.427734375 C 10155.0478515625 17644.427734375 10154.5029296875 17644.279296875 10154.0224609375 17643.984375 L 10094.412109375 17607.341796875 C 10093.4306640625 17606.736328125 10092.880859375 17605.625 10092.9990234375 17604.4765625 C 10093.1171875 17603.330078125 10093.8828125 17602.353515625 10094.966796875 17601.962890625 L 10124.044921875 17591.494140625 C 10124.3740234375 17591.375 10124.7177734375 17591.31640625 10125.0615234375 17591.31640625 Z" stroke="none" fill="#707070"/>
    </g>
    <g id="路径_229" data-name="路径 229" transform="translate(-9257.387 -15328.206)" fill="#fff" stroke-linejoin="round">
      <path d="M 10155.533203125 17643.150390625 L 10154.80859375 17642.705078125 L 10095.1982421875 17606.0625 L 10092.541015625 17604.4296875 L 10095.4755859375 17603.373046875 L 10124.5537109375 17592.904296875 L 10125.12109375 17592.701171875 L 10125.6728515625 17592.947265625 L 10190.8095703125 17622.025390625 L 10193.64453125 17623.291015625 L 10190.8916015625 17624.724609375 L 10156.287109375 17642.7578125 L 10155.533203125 17643.150390625 Z" stroke="none"/>
      <path d="M 10125.0615234375 17594.31640625 L 10095.9833984375 17604.78515625 L 10155.59375 17641.427734375 L 10190.1982421875 17623.39453125 L 10125.0615234375 17594.31640625 M 10125.0615234375 17591.31640625 C 10125.4794921875 17591.31640625 10125.896484375 17591.404296875 10126.2841796875 17591.576171875 L 10191.4208984375 17620.654296875 C 10192.4716796875 17621.125 10193.162109375 17622.154296875 10193.197265625 17623.3046875 C 10193.2314453125 17624.455078125 10192.60546875 17625.5234375 10191.5849609375 17626.0546875 L 10156.98046875 17644.087890625 C 10156.544921875 17644.314453125 10156.0693359375 17644.427734375 10155.59375 17644.427734375 C 10155.0478515625 17644.427734375 10154.5029296875 17644.279296875 10154.0224609375 17643.984375 L 10094.412109375 17607.341796875 C 10093.4306640625 17606.736328125 10092.880859375 17605.625 10092.9990234375 17604.4765625 C 10093.1171875 17603.330078125 10093.8828125 17602.353515625 10094.966796875 17601.962890625 L 10124.044921875 17591.494140625 C 10124.3740234375 17591.375 10124.7177734375 17591.31640625 10125.0615234375 17591.31640625 Z" stroke="none" fill="#707070"/>
    </g>
    <g id="路径_180" data-name="路径 180" transform="translate(-8536.396 -14788.146)" fill="#fff" stroke-linejoin="round">
      <path d="M 10155.533203125 17643.150390625 L 10154.80859375 17642.705078125 L 10095.1982421875 17606.0625 L 10092.541015625 17604.4296875 L 10095.4755859375 17603.373046875 L 10124.5537109375 17592.904296875 L 10125.12109375 17592.701171875 L 10125.6728515625 17592.947265625 L 10190.8095703125 17622.025390625 L 10193.64453125 17623.291015625 L 10190.8916015625 17624.724609375 L 10156.287109375 17642.7578125 L 10155.533203125 17643.150390625 Z" stroke="none"/>
      <path d="M 10125.0615234375 17594.31640625 L 10095.9833984375 17604.78515625 L 10155.59375 17641.427734375 L 10190.1982421875 17623.39453125 L 10125.0615234375 17594.31640625 M 10125.0615234375 17591.31640625 C 10125.4794921875 17591.31640625 10125.896484375 17591.404296875 10126.2841796875 17591.576171875 L 10191.4208984375 17620.654296875 C 10192.4716796875 17621.125 10193.162109375 17622.154296875 10193.197265625 17623.3046875 C 10193.2314453125 17624.455078125 10192.60546875 17625.5234375 10191.5849609375 17626.0546875 L 10156.98046875 17644.087890625 C 10156.544921875 17644.314453125 10156.0693359375 17644.427734375 10155.59375 17644.427734375 C 10155.0478515625 17644.427734375 10154.5029296875 17644.279296875 10154.0224609375 17643.984375 L 10094.412109375 17607.341796875 C 10093.4306640625 17606.736328125 10092.880859375 17605.625 10092.9990234375 17604.4765625 C 10093.1171875 17603.330078125 10093.8828125 17602.353515625 10094.966796875 17601.962890625 L 10124.044921875 17591.494140625 C 10124.3740234375 17591.375 10124.7177734375 17591.31640625 10125.0615234375 17591.31640625 Z" stroke="none" fill="#707070"/>
    </g>
    <g id="路径_230" data-name="路径 230" transform="translate(-9257.387 -15338.207)" fill="#fff" stroke-linejoin="round">
      <path d="M 10155.533203125 17643.150390625 L 10154.80859375 17642.705078125 L 10095.1982421875 17606.0625 L 10092.541015625 17604.4296875 L 10095.4755859375 17603.373046875 L 10124.5537109375 17592.904296875 L 10125.12109375 17592.701171875 L 10125.6728515625 17592.947265625 L 10190.8095703125 17622.025390625 L 10193.64453125 17623.291015625 L 10190.8916015625 17624.724609375 L 10156.287109375 17642.7578125 L 10155.533203125 17643.150390625 Z" stroke="none"/>
      <path d="M 10125.0615234375 17594.31640625 L 10095.9833984375 17604.78515625 L 10155.59375 17641.427734375 L 10190.1982421875 17623.39453125 L 10125.0615234375 17594.31640625 M 10125.0615234375 17591.31640625 C 10125.4794921875 17591.31640625 10125.896484375 17591.404296875 10126.2841796875 17591.576171875 L 10191.4208984375 17620.654296875 C 10192.4716796875 17621.125 10193.162109375 17622.154296875 10193.197265625 17623.3046875 C 10193.2314453125 17624.455078125 10192.60546875 17625.5234375 10191.5849609375 17626.0546875 L 10156.98046875 17644.087890625 C 10156.544921875 17644.314453125 10156.0693359375 17644.427734375 10155.59375 17644.427734375 C 10155.0478515625 17644.427734375 10154.5029296875 17644.279296875 10154.0224609375 17643.984375 L 10094.412109375 17607.341796875 C 10093.4306640625 17606.736328125 10092.880859375 17605.625 10092.9990234375 17604.4765625 C 10093.1171875 17603.330078125 10093.8828125 17602.353515625 10094.966796875 17601.962890625 L 10124.044921875 17591.494140625 C 10124.3740234375 17591.375 10124.7177734375 17591.31640625 10125.0615234375 17591.31640625 Z" stroke="none" fill="#707070"/>
    </g>
    <g id="路径_181" data-name="路径 181" transform="translate(-8536.396 -14798.146)" fill="#fff" stroke-linejoin="round">
      <path d="M 10155.533203125 17643.150390625 L 10154.80859375 17642.705078125 L 10095.1982421875 17606.0625 L 10092.541015625 17604.4296875 L 10095.4755859375 17603.373046875 L 10124.5537109375 17592.904296875 L 10125.12109375 17592.701171875 L 10125.6728515625 17592.947265625 L 10190.8095703125 17622.025390625 L 10193.64453125 17623.291015625 L 10190.8916015625 17624.724609375 L 10156.287109375 17642.7578125 L 10155.533203125 17643.150390625 Z" stroke="none"/>
      <path d="M 10125.0615234375 17594.31640625 L 10095.9833984375 17604.78515625 L 10155.59375 17641.427734375 L 10190.1982421875 17623.39453125 L 10125.0615234375 17594.31640625 M 10125.0615234375 17591.31640625 C 10125.4794921875 17591.31640625 10125.896484375 17591.404296875 10126.2841796875 17591.576171875 L 10191.4208984375 17620.654296875 C 10192.4716796875 17621.125 10193.162109375 17622.154296875 10193.197265625 17623.3046875 C 10193.2314453125 17624.455078125 10192.60546875 17625.5234375 10191.5849609375 17626.0546875 L 10156.98046875 17644.087890625 C 10156.544921875 17644.314453125 10156.0693359375 17644.427734375 10155.59375 17644.427734375 C 10155.0478515625 17644.427734375 10154.5029296875 17644.279296875 10154.0224609375 17643.984375 L 10094.412109375 17607.341796875 C 10093.4306640625 17606.736328125 10092.880859375 17605.625 10092.9990234375 17604.4765625 C 10093.1171875 17603.330078125 10093.8828125 17602.353515625 10094.966796875 17601.962890625 L 10124.044921875 17591.494140625 C 10124.3740234375 17591.375 10124.7177734375 17591.31640625 10125.0615234375 17591.31640625 Z" stroke="none" fill="#707070"/>
    </g>
    <text id="收益" transform="matrix(0.875, 0.485, -0.485, 0.875, 1584.037, 2813.772)" fill="#273460" font-size="17" font-family="PingFangSC-Semibold, PingFang SC" font-weight="600"><tspan x="0" y="0">收益</tspan></text>
    <path id="路径_224" data-name="路径 224" d="M9804.865,19253.324H9013.6V18843.8" transform="translate(-8267.18 -16413.596)" fill="none" stroke="#d8b21a" stroke-linecap="round" stroke-width="3"/>
    <text id="项目达成赎回收益" transform="translate(1028 2821)" fill="#273460" font-size="18" font-family="PingFangSC-Semibold, PingFang SC" font-weight="600"><tspan x="0" y="0">项目达成赎回收益</tspan></text>
  </g>
</svg>
