<svg xmlns="http://www.w3.org/2000/svg" width="221" height="139" viewBox="0 0 221 139">
  <g id="组_43" data-name="组 43" transform="translate(-473.604 -210.207)">
    <g id="矩形_197" data-name="矩形 197" transform="translate(473.604 210.207)" fill="none" stroke="#c7c7c7" stroke-width="2">
      <rect width="221" height="139" rx="32" stroke="none"/>
      <rect x="1" y="1" width="219" height="137" rx="31" fill="none"/>
    </g>
    <g id="矩形_198" data-name="矩形 198" transform="translate(495.604 222.207)" fill="#fff" stroke="#707070" stroke-width="1" opacity="0.57">
      <rect width="94" height="115" rx="5" stroke="none"/>
      <rect x="0.5" y="0.5" width="93" height="114" rx="4.5" fill="none"/>
    </g>
    <line id="直线_23" data-name="直线 23" x2="74.092" transform="translate(504.403 251.302)" fill="none" stroke="#707070" stroke-width="1"/>
    <g id="矩形_199" data-name="矩形 199" transform="translate(508.604 258.207)" fill="#fff" stroke="#707070" stroke-width="1">
      <rect width="25" height="28" stroke="none"/>
      <rect x="0.5" y="0.5" width="24" height="27" fill="none"/>
    </g>
    <g id="矩形_203" data-name="矩形 203" transform="translate(508.604 298.207)" fill="#fff" stroke="#707070" stroke-width="1">
      <rect width="25" height="28" stroke="none"/>
      <rect x="0.5" y="0.5" width="24" height="27" fill="none"/>
    </g>
    <g id="矩形_200" data-name="矩形 200" transform="translate(553.604 258.207)" fill="#fff" stroke="#707070" stroke-width="1">
      <rect width="24" height="28" stroke="none"/>
      <rect x="0.5" y="0.5" width="23" height="27" fill="none"/>
    </g>
    <g id="矩形_202" data-name="矩形 202" transform="translate(553.604 298.207)" fill="#fff" stroke="#707070" stroke-width="1">
      <rect width="24" height="28" stroke="none"/>
      <rect x="0.5" y="0.5" width="23" height="27" fill="none"/>
    </g>
    <g id="矩形_201" data-name="矩形 201" transform="translate(554.604 239.207)" fill="#fff" stroke="#48cccc" stroke-width="1" stroke-dasharray="1">
      <rect width="23" height="8" stroke="none"/>
      <rect x="0.5" y="0.5" width="22" height="7" fill="none"/>
    </g>
    <g id="路径_136" data-name="路径 136" transform="translate(-776.001 -16959.855)" fill="#fff" stroke-linejoin="round">
      <path d="M 1349.272705078125 17224.36328125 L 1347.384765625 17223.904296875 L 1347.384765625 17203.00390625 L 1347.384765625 17200.83203125 L 1349.035034179688 17202.244140625 L 1363.950561523438 17215.009765625 L 1366.507202148438 17217.197265625 L 1363.17041015625 17216.76171875 L 1353.842651367188 17215.5390625 L 1349.272705078125 17224.36328125 Z" stroke="none"/>
      <path d="M 1348.384765625 17223.904296875 L 1353.277099609375 17214.45703125 L 1363.30029296875 17215.76953125 L 1348.384765625 17203.00390625 L 1348.384765625 17223.904296875 M 1348.385131835938 17225.904296875 C 1348.228149414062 17225.904296875 1348.0693359375 17225.88671875 1347.911499023438 17225.84765625 C 1347.015380859375 17225.62890625 1346.384765625 17224.826171875 1346.384765625 17223.904296875 L 1346.384765625 17203.00390625 C 1346.384765625 17202.22265625 1346.839111328125 17201.513671875 1347.54833984375 17201.1875 C 1347.815795898438 17201.064453125 1348.10107421875 17201.00390625 1348.384399414062 17201.00390625 C 1348.852661132812 17201.00390625 1349.315673828125 17201.16796875 1349.685180664062 17201.484375 L 1364.600708007812 17214.25 C 1365.273193359375 17214.826171875 1365.487426757812 17215.775390625 1365.127197265625 17216.583984375 C 1364.802978515625 17217.310546875 1364.082275390625 17217.76953125 1363.301147460938 17217.76953125 C 1363.21484375 17217.76953125 1363.1279296875 17217.763671875 1363.040649414062 17217.751953125 L 1354.408081054688 17216.623046875 L 1350.160766601562 17224.82421875 C 1349.811401367188 17225.498046875 1349.119140625 17225.904296875 1348.385131835938 17225.904296875 Z" stroke="none" fill="#48cccc"/>
    </g>
    <g id="路径_137" data-name="路径 137" transform="translate(568.3 -17145.154)" fill="#fff" stroke-linejoin="round">
      <path d="M 62.05385208129883 17485.82421875 L 61.61301803588867 17485.53515625 L 29.45170783996582 17464.44921875 L 27.7298641204834 17463.3203125 L 29.68168640136719 17462.666015625 L 75.44731903076172 17447.298828125 L 75.86967468261719 17447.15625 L 76.25757598876953 17447.375 L 107.8784637451172 17465.2421875 L 109.6710739135742 17466.255859375 L 107.7666320800781 17467.0390625 L 62.54141998291016 17485.625 L 62.05385208129883 17485.82421875 Z" stroke="none"/>
      <path d="M 75.765625 17448.24609375 L 29.99999237060547 17463.61328125 L 62.16130828857422 17484.69921875 L 107.3865127563477 17466.11328125 L 75.765625 17448.24609375 M 75.76556396484375 17446.24609375 C 76.10684204101562 17446.24609375 76.44612884521484 17446.333984375 76.74951171875 17446.50390625 L 108.3703918457031 17464.37109375 C 109.0371704101562 17464.748046875 109.4302520751953 17465.47265625 109.3826446533203 17466.23828125 C 109.3350372314453 17467.001953125 108.855110168457 17467.671875 108.1467437744141 17467.962890625 L 62.92154693603516 17486.548828125 C 62.67689514160156 17486.650390625 62.41859436035156 17486.69921875 62.16145324707031 17486.69921875 C 61.77714538574219 17486.69921875 61.39531707763672 17486.587890625 61.06472015380859 17486.37109375 L 28.90340423583984 17465.28515625 C 28.26294708251953 17464.865234375 27.91850280761719 17464.1171875 28.01640319824219 17463.357421875 C 28.11429595947266 17462.59765625 28.63735961914062 17461.9609375 29.36337280273438 17461.716796875 L 75.12900543212891 17446.349609375 C 75.33634185791016 17446.28125 75.55136108398438 17446.24609375 75.76556396484375 17446.24609375 Z" stroke="none" fill="#cbcbcb"/>
    </g>
    <g id="路径_138" data-name="路径 138" transform="translate(568.3 -17154.473)" fill="#fff" stroke-linejoin="round">
      <path d="M 62.05385208129883 17485.82421875 L 61.61301803588867 17485.53515625 L 29.45170783996582 17464.44921875 L 27.7298641204834 17463.3203125 L 29.68168640136719 17462.666015625 L 75.44731903076172 17447.298828125 L 75.86967468261719 17447.15625 L 76.25757598876953 17447.375 L 107.8784637451172 17465.2421875 L 109.6710739135742 17466.255859375 L 107.7666320800781 17467.0390625 L 62.54141998291016 17485.625 L 62.05385208129883 17485.82421875 Z" stroke="none"/>
      <path d="M 75.765625 17448.24609375 L 29.99999237060547 17463.61328125 L 62.16130828857422 17484.69921875 L 107.3865127563477 17466.11328125 L 75.765625 17448.24609375 M 75.76556396484375 17446.24609375 C 76.10684204101562 17446.24609375 76.44612884521484 17446.333984375 76.74951171875 17446.50390625 L 108.3703918457031 17464.37109375 C 109.0371704101562 17464.748046875 109.4302520751953 17465.47265625 109.3826446533203 17466.23828125 C 109.3350372314453 17467.001953125 108.855110168457 17467.671875 108.1467437744141 17467.962890625 L 62.92154693603516 17486.548828125 C 62.67689514160156 17486.650390625 62.41859436035156 17486.69921875 62.16145324707031 17486.69921875 C 61.77714538574219 17486.69921875 61.39531707763672 17486.587890625 61.06472015380859 17486.37109375 L 28.90340423583984 17465.28515625 C 28.26294708251953 17464.865234375 27.91850280761719 17464.1171875 28.01640319824219 17463.357421875 C 28.11429595947266 17462.59765625 28.63735961914062 17461.9609375 29.36337280273438 17461.716796875 L 75.12900543212891 17446.349609375 C 75.33634185791016 17446.28125 75.55136108398438 17446.24609375 75.76556396484375 17446.24609375 Z" stroke="none" fill="#cbcbcb"/>
    </g>
    <g id="路径_139" data-name="路径 139" transform="translate(568.3 -17166.588)" fill="#fff" stroke-linejoin="round">
      <path d="M 62.05385208129883 17485.82421875 L 61.61301803588867 17485.53515625 L 29.45170783996582 17464.44921875 L 27.7298641204834 17463.3203125 L 29.68168640136719 17462.666015625 L 75.44731903076172 17447.298828125 L 75.86967468261719 17447.15625 L 76.25757598876953 17447.375 L 107.8784637451172 17465.2421875 L 109.6710739135742 17466.255859375 L 107.7666320800781 17467.0390625 L 62.54141998291016 17485.625 L 62.05385208129883 17485.82421875 Z" stroke="none"/>
      <path d="M 75.765625 17448.24609375 L 29.99999237060547 17463.61328125 L 62.16130828857422 17484.69921875 L 107.3865127563477 17466.11328125 L 75.765625 17448.24609375 M 75.76556396484375 17446.24609375 C 76.10684204101562 17446.24609375 76.44612884521484 17446.333984375 76.74951171875 17446.50390625 L 108.3703918457031 17464.37109375 C 109.0371704101562 17464.748046875 109.4302520751953 17465.47265625 109.3826446533203 17466.23828125 C 109.3350372314453 17467.001953125 108.855110168457 17467.671875 108.1467437744141 17467.962890625 L 62.92154693603516 17486.548828125 C 62.67689514160156 17486.650390625 62.41859436035156 17486.69921875 62.16145324707031 17486.69921875 C 61.77714538574219 17486.69921875 61.39531707763672 17486.587890625 61.06472015380859 17486.37109375 L 28.90340423583984 17465.28515625 C 28.26294708251953 17464.865234375 27.91850280761719 17464.1171875 28.01640319824219 17463.357421875 C 28.11429595947266 17462.59765625 28.63735961914062 17461.9609375 29.36337280273438 17461.716796875 L 75.12900543212891 17446.349609375 C 75.33634185791016 17446.28125 75.55136108398438 17446.24609375 75.76556396484375 17446.24609375 Z" stroke="none" fill="#cbcbcb"/>
    </g>
    <g id="路径_140" data-name="路径 140" transform="translate(568.3 -17177.771)" fill="#fff" stroke-linejoin="round">
      <path d="M 62.05385208129883 17485.82421875 L 61.61301803588867 17485.53515625 L 29.45170783996582 17464.44921875 L 27.7298641204834 17463.3203125 L 29.68168640136719 17462.666015625 L 75.44731903076172 17447.298828125 L 75.86967468261719 17447.15625 L 76.25757598876953 17447.375 L 107.8784637451172 17465.2421875 L 109.6710739135742 17466.255859375 L 107.7666320800781 17467.0390625 L 62.54141998291016 17485.625 L 62.05385208129883 17485.82421875 Z" stroke="none"/>
      <path d="M 75.765625 17448.24609375 L 29.99999237060547 17463.61328125 L 62.16130828857422 17484.69921875 L 107.3865127563477 17466.11328125 L 75.765625 17448.24609375 M 75.76556396484375 17446.24609375 C 76.10684204101562 17446.24609375 76.44612884521484 17446.333984375 76.74951171875 17446.50390625 L 108.3703918457031 17464.37109375 C 109.0371704101562 17464.748046875 109.4302520751953 17465.47265625 109.3826446533203 17466.23828125 C 109.3350372314453 17467.001953125 108.855110168457 17467.671875 108.1467437744141 17467.962890625 L 62.92154693603516 17486.548828125 C 62.67689514160156 17486.650390625 62.41859436035156 17486.69921875 62.16145324707031 17486.69921875 C 61.77714538574219 17486.69921875 61.39531707763672 17486.587890625 61.06472015380859 17486.37109375 L 28.90340423583984 17465.28515625 C 28.26294708251953 17464.865234375 27.91850280761719 17464.1171875 28.01640319824219 17463.357421875 C 28.11429595947266 17462.59765625 28.63735961914062 17461.9609375 29.36337280273438 17461.716796875 L 75.12900543212891 17446.349609375 C 75.33634185791016 17446.28125 75.55136108398438 17446.24609375 75.76556396484375 17446.24609375 Z" stroke="none" fill="#cbcbcb"/>
    </g>
  </g>
</svg>
