<svg width="154" height="53" viewBox="0 0 154 53" fill="none" xmlns="http://www.w3.org/2000/svg">
<g filter="url(#filter0_d)">
<rect x="2" y="2" width="146" height="45" rx="10" fill="white"/>
</g>
<path d="M27.8901 24.2366H26.8884C26.3872 24.2366 25.872 24.3197 25.7434 24.4583C25.6577 24.1532 25.4142 23.4327 25.2423 23.0309C25.4999 22.9616 25.6859 22.615 25.9007 22.1302C25.9864 21.9364 26.1442 21.5064 26.3157 20.966H25.1707V19.5245H26.6877C26.8022 19.0256 26.9025 18.5126 26.9741 18L28.663 18.291C28.5627 18.7068 28.4628 19.1086 28.3338 19.5245H31.2967V20.966H27.8473C27.5896 21.645 27.3033 22.3104 27.0457 22.8923H27.8901V21.4371H29.4788V22.8923H31.0533V24.2366H29.4788V25.5395H31.4399V26.981H29.4788V28.838H27.8901V26.981H25.2423V25.5395H27.8901V24.2366ZM24.8269 21.1461L23.3527 21.6035C23.2096 20.8411 22.8516 19.6631 22.5224 18.7903L23.925 18.3885C24.2684 19.2618 24.655 20.3841 24.8269 21.1465V21.1461ZM21.1627 28.1448L22.2078 27.3965C22.3081 27.7983 22.5228 28.3806 22.6943 28.6578C20.4327 30.2795 20.0319 30.626 19.803 30.917L19.7888 30.834C19.7747 30.8618 19.7747 30.8896 19.7747 30.917C19.6315 30.626 19.2165 30.0715 18.9589 29.8636C19.3979 29.507 19.6748 28.9758 19.6748 28.3818C19.6748 28.3814 19.6748 28.381 19.6748 28.3806V26.2048H18.4008V24.8049H19.6748V23.3634H19.0164V22.4208C18.9448 22.5457 18.8445 22.6565 18.7587 22.7395C18.6443 22.4071 18.2435 21.6031 18 21.2565C18.6584 20.4667 19.1595 19.2883 19.4742 18.0967L20.8768 18.4848C20.7602 18.8982 20.6573 19.2074 20.5441 19.5121L20.5763 19.4133H22.4658V20.827H20.004C19.7892 21.2428 19.5745 21.6168 19.3314 21.9771H22.1225V23.363H21.1635V24.8044H22.5233V26.2044H21.1635L21.1627 28.1448ZM24.8411 22.5457V28.2004C25.0845 28.3254 25.3422 28.5192 25.6855 28.713C26.4014 29.1289 27.2887 29.2534 28.3908 29.2534C29.2494 29.2534 30.7095 29.1704 31.6401 29.0455C31.4969 29.4751 31.2822 30.279 31.268 30.6949C30.5521 30.7506 29.264 30.7921 28.3767 30.7921C27.1455 30.7921 26.2869 30.5841 25.5141 30.1267C25.0129 29.8358 24.5839 29.4892 24.3116 29.4892C23.9683 29.4892 23.4097 30.3069 22.9948 31L21.9497 29.4618C22.3792 29.0181 22.8516 28.6304 23.3094 28.3806V24.0287H22.4791V22.5457H24.8411ZM32.9857 30.9859V21.3815H34.7175V30.9859H32.9857ZM33.2433 18.9422L34.4744 18.1245C35.147 18.6927 35.9486 19.4967 36.3207 20.0786L34.9897 20.9934C34.6605 20.4252 33.8876 19.5382 33.2433 18.9422ZM37.7378 26.2879V27.2163C38.5823 27.1607 39.4984 27.1055 40.429 27.0362V26.2879H37.7378ZM40.429 22.4627H37.7378V23.1973H40.429V22.4627ZM37.7378 24.3475V25.1373H40.429V24.3475H37.7378ZM43.0481 28.117L41.946 28.2141V29.7801H40.429V28.325C38.5253 28.4773 36.7073 28.6022 35.2906 28.713L35.1474 27.3687C35.4766 27.355 35.8346 27.3272 36.2208 27.313V22.4623H35.4479V21.2009H42.7481V22.4623H41.9465V26.925L43.0344 26.8557L43.0481 28.117ZM45.3526 18.5682V29.226C45.3526 30.0159 45.2095 30.404 44.7229 30.6675C44.2505 30.917 43.5492 30.9585 42.5757 30.9585C42.5183 30.5426 42.304 29.8636 42.1034 29.4618C42.6328 29.4896 43.22 29.4896 43.4061 29.4896C43.6062 29.4759 43.6637 29.4203 43.6637 29.2265V20.0379H36.9075V18.569L45.3526 18.5682ZM56.5485 27.1815C56.6059 27.1815 56.6629 27.1919 56.7204 27.2126C56.7778 27.2334 56.8327 27.2691 56.885 27.3201L57.8439 28.2971C57.4242 28.8284 56.8978 29.2294 56.266 29.4996C55.6341 29.7698 54.8861 29.9051 54.0224 29.9051C53.2302 29.9051 52.5207 29.7748 51.8932 29.5137C51.2656 29.2526 50.7336 28.8923 50.2973 28.4325C49.8609 27.9726 49.5257 27.4276 49.2916 26.7971C49.0576 26.1667 48.941 25.4818 48.941 24.7426C48.941 23.9897 49.0747 23.2978 49.3418 22.6673C49.6088 22.0368 49.9822 21.4927 50.4619 21.0353C50.9416 20.5779 51.5151 20.2222 52.183 19.9682C52.8508 19.7142 53.5881 19.5872 54.3944 19.5872C54.7858 19.5872 55.1545 19.6208 55.5 19.6876C55.8455 19.7544 56.1691 19.847 56.4696 19.9649C56.7701 20.0828 57.047 20.2235 57.2999 20.3874C57.5528 20.5514 57.777 20.7327 57.9725 20.9315L57.1567 21.9916C57.1045 22.0564 57.0423 22.1153 56.9707 22.1684C56.8991 22.2215 56.7988 22.2481 56.6702 22.2481C56.5845 22.2481 56.503 22.2294 56.4267 22.1925C56.3504 22.1556 56.2694 22.1103 56.1833 22.0572C56.0971 22.0041 56.0032 21.9464 55.9008 21.8841C55.7983 21.8218 55.6766 21.7642 55.536 21.711C55.3954 21.6579 55.2308 21.6127 55.0422 21.5757C54.8535 21.5388 54.6332 21.5201 54.3803 21.5201C53.9413 21.5201 53.5405 21.5952 53.1779 21.7455C52.8152 21.8957 52.504 22.1103 52.2438 22.3901C51.9836 22.6698 51.7809 23.0081 51.6356 23.4053C51.4902 23.8025 51.4174 24.2483 51.4174 24.7426C51.4174 25.2602 51.4902 25.7196 51.6356 26.1214C51.7809 26.5232 51.9789 26.8619 52.2297 27.1366C52.4805 27.4114 52.7724 27.6206 53.1063 27.7638C53.4402 27.907 53.7982 27.9788 54.1797 27.9788C54.3992 27.9788 54.5993 27.9684 54.7807 27.9477C54.962 27.9269 55.13 27.8912 55.2852 27.8402C55.4404 27.7891 55.5883 27.7235 55.7289 27.6426C55.8695 27.5617 56.0114 27.4612 56.1545 27.3413C56.212 27.2952 56.2737 27.257 56.3406 27.2271C56.4074 27.1972 56.4765 27.1819 56.548 27.1819L56.5485 27.1815ZM68.0495 29.7943H65.616V25.5254H61.3791V29.7943H58.9456V19.6976H61.3791V23.9179H65.616V19.6976H68.0495V29.7943ZM79.4717 29.7943H77.5967C77.3867 29.7943 77.2139 29.7469 77.0781 29.6523C76.9422 29.5577 76.8479 29.4365 76.7956 29.2883L76.18 27.528H72.2153L71.5997 29.2883C71.5521 29.4178 71.4591 29.5344 71.3207 29.6382C71.1822 29.742 71.0129 29.7943 70.8127 29.7943H68.9232L72.9594 19.6976H75.4358L79.4717 29.7943ZM72.773 25.9342H75.6215L74.6625 23.1691L74.4443 22.549C74.3878 22.4054 74.3033 22.1481 74.2257 21.8878L74.1974 21.7766C74.1211 22.0584 74.0423 22.3195 73.9612 22.5598C73.8802 22.8001 73.8039 23.0081 73.7323 23.1836L72.773 25.9342ZM82.964 29.7943H80.5305V19.6976H82.964V29.7943ZM86.1704 19.6976C86.2755 19.6976 86.3638 19.7021 86.4354 19.7113C86.507 19.7204 86.5713 19.7378 86.6287 19.7632C86.6861 19.7885 86.741 19.8242 86.7933 19.8707C86.8456 19.9171 86.9056 19.9794 86.972 20.0579L91.9244 26.1214C91.9051 25.9276 91.891 25.7392 91.8815 25.5565C91.8721 25.3739 91.8674 25.2021 91.8674 25.0402V19.6976H94V29.7943H92.7406C92.5545 29.7943 92.3972 29.7665 92.2682 29.7112C92.1392 29.656 92.0153 29.5544 91.8961 29.4062L86.9793 23.3912C86.9935 23.5667 87.0055 23.739 87.0149 23.9075C87.0243 24.076 87.0291 24.2342 87.0291 24.3823V29.7943H84.8965V19.6976H86.1704Z" fill="black"/>
<path opacity="0.5" d="M96.2804 20.1082C96.386 20.1082 96.4747 20.1126 96.5467 20.1215C96.6186 20.1303 96.6833 20.1472 96.741 20.1718C96.7987 20.1963 96.8539 20.2309 96.9064 20.2759C96.959 20.321 97.0193 20.3813 97.0861 20.4574L102.064 26.3339C102.044 26.146 102.03 25.9634 102.02 25.7864C102.011 25.6094 102.006 25.4429 102.006 25.286V20.1082H104.15V29.8934H102.884C102.697 29.8934 102.539 29.8665 102.409 29.813C102.279 29.7595 102.155 29.6609 102.035 29.5173L97.0934 23.6879C97.1076 23.858 97.1197 24.0249 97.1292 24.1883C97.1387 24.3516 97.1434 24.5048 97.1434 24.6484V29.8934H95V20.1082H96.2804ZM112.623 20.1082V21.8544H108.322V24.138H111.616V25.817H108.322V28.1472H112.623V29.8934H105.876V20.1082H112.623ZM113.213 20.1082H115.256C115.467 20.1082 115.643 20.1529 115.785 20.2426C115.926 20.3323 116.019 20.4509 116.062 20.5986L117.5 25.7027C117.548 25.8685 117.596 26.0451 117.644 26.2333C117.692 26.4216 117.728 26.6183 117.752 26.8242C117.8 26.6138 117.853 26.4155 117.91 26.2297C117.967 26.0438 118.023 25.8681 118.076 25.7023L119.773 20.5981C119.816 20.4726 119.908 20.3596 120.05 20.2591C120.192 20.1585 120.363 20.1078 120.564 20.1078H121.284C121.495 20.1078 121.669 20.1516 121.805 20.2389C121.942 20.3262 122.037 20.4461 122.089 20.5981L123.772 25.7023C123.825 25.8592 123.88 26.0257 123.938 26.2027C123.996 26.3797 124.046 26.5688 124.089 26.7703C124.127 26.5732 124.167 26.3854 124.208 26.2064C124.248 26.0274 124.29 25.8592 124.333 25.7027L125.772 20.5986C125.81 20.4686 125.902 20.3544 126.045 20.2562C126.189 20.1581 126.362 20.1086 126.563 20.1086H128.476L125.239 29.8938H123.038L121.067 23.8294C121.034 23.7353 120.999 23.6323 120.963 23.5205C120.927 23.4087 120.892 23.29 120.859 23.1645C120.825 23.29 120.79 23.4087 120.754 23.5205C120.719 23.6323 120.684 23.7353 120.65 23.8294L118.651 29.8938H116.45L113.213 20.1082ZM135.253 22.0961C135.181 22.2035 135.105 22.284 135.026 22.3379C134.947 22.3918 134.845 22.4183 134.72 22.4183C134.61 22.4183 134.491 22.3858 134.364 22.321C134.237 22.2562 134.093 22.1834 133.932 22.1026C133.772 22.0217 133.588 21.9493 133.382 21.8842C133.176 21.819 132.941 21.7868 132.677 21.7868C132.222 21.7868 131.883 21.8773 131.66 22.0587C131.437 22.2401 131.325 22.4851 131.325 22.794C131.325 22.9912 131.393 23.1545 131.527 23.2844C131.661 23.4143 131.837 23.5261 132.055 23.6203C132.273 23.7144 132.523 23.8005 132.803 23.8789C133.084 23.9574 133.37 24.0447 133.663 24.1408C133.955 24.2369 134.242 24.35 134.522 24.4799C134.803 24.6098 135.052 24.7755 135.27 24.9767C135.488 25.1778 135.664 25.4232 135.799 25.712C135.933 26.0008 136 26.3488 136 26.7562C136 27.2084 135.916 27.6315 135.748 28.0253C135.581 28.4191 135.337 28.7631 135.018 29.0563C134.699 29.3496 134.306 29.58 133.839 29.7482C133.371 29.9163 132.84 30 132.245 30C131.919 30 131.587 29.9686 131.249 29.9059C130.911 29.8431 130.584 29.7546 130.267 29.6408C129.951 29.527 129.653 29.391 129.375 29.2345C129.098 29.078 128.855 28.9031 128.649 28.7108L129.369 27.6496C129.421 27.5692 129.496 27.504 129.592 27.4549C129.688 27.4059 129.791 27.3809 129.901 27.3809C130.045 27.3809 130.19 27.4236 130.336 27.5084C130.482 27.5933 130.648 27.6874 130.833 27.7904C131.017 27.8934 131.229 27.9875 131.469 28.0724C131.709 28.1573 131.992 28.1999 132.318 28.1999C132.759 28.1999 133.102 28.1094 133.346 27.928C133.591 27.7466 133.713 27.459 133.713 27.0652C133.713 26.8367 133.646 26.6508 133.512 26.5076C133.378 26.3644 133.201 26.2458 132.983 26.1516C132.765 26.0575 132.517 25.9747 132.239 25.9031C131.96 25.8315 131.675 25.7518 131.383 25.6645C131.09 25.5772 130.805 25.4698 130.527 25.3423C130.248 25.2148 130 25.0467 129.782 24.8387C129.564 24.6307 129.388 24.3709 129.254 24.0595C129.119 23.7482 129.052 23.3644 129.052 22.9079C129.052 22.5406 129.132 22.1826 129.29 21.8335C129.448 21.4843 129.681 21.173 129.987 20.8998C130.294 20.6267 130.671 20.4083 131.116 20.245C131.562 20.0817 132.073 20 132.649 20C132.97 20 133.283 20.0233 133.587 20.0704C133.892 20.1175 134.181 20.1866 134.454 20.2788C134.728 20.3709 134.983 20.4803 135.22 20.6078C135.458 20.7353 135.67 20.8797 135.857 21.041L135.253 22.0961Z" fill="black"/>
<defs>
<filter id="filter0_d" x="0" y="0" width="154" height="53" filterUnits="userSpaceOnUse" color-interpolation-filters="sRGB">
<feFlood flood-opacity="0" result="BackgroundImageFix"/>
<feColorMatrix in="SourceAlpha" type="matrix" values="0 0 0 0 0 0 0 0 0 0 0 0 0 0 0 0 0 0 127 0"/>
<feOffset dx="2" dy="2"/>
<feGaussianBlur stdDeviation="2"/>
<feColorMatrix type="matrix" values="0 0 0 0 0 0 0 0 0 0 0 0 0 0 0 0 0 0 0.05 0"/>
<feBlend mode="normal" in2="BackgroundImageFix" result="effect1_dropShadow"/>
<feBlend mode="normal" in="SourceGraphic" in2="effect1_dropShadow" result="shape"/>
</filter>
</defs>
</svg>
