<svg width="154" height="53" viewBox="0 0 154 53" fill="none" xmlns="http://www.w3.org/2000/svg">
<g filter="url(#filter0_d)">
<rect x="2" y="2" width="146" height="45" rx="10" fill="#006BFF"/>
</g>
<path fill-rule="evenodd" clip-rule="evenodd" d="M34.3865 12C28.6672 12 23.6845 15.6662 21.9873 21.1232L26.1838 22.4283C27.3059 18.8194 30.6026 16.3947 34.3865 16.3947C39.1222 16.3947 42.9749 20.2476 42.9749 24.9833C42.9749 29.719 39.1222 33.5716 34.3865 33.5716C32.2406 33.5716 30.1866 32.7766 28.6027 31.3324L25.6422 34.5801C28.0372 36.7638 31.1433 37.9663 34.3865 37.9663C41.5456 37.9663 47.3696 32.1421 47.3696 24.9833C47.3696 17.8242 41.5456 12 34.3865 12Z" fill="url(#paint0_linear)"/>
<path fill-rule="evenodd" clip-rule="evenodd" d="M12 28.4215V28.5462C12.0339 33.6408 16.1886 37.775 21.2911 37.775C24.0796 37.775 26.5855 36.5398 28.2899 34.5879C28.3477 34.5217 28.3935 34.4553 28.4332 34.3894L36.4953 26.3276L38.1776 28.0097L38.3057 21.3119L31.8389 21.6712L33.3878 23.2201L24.1708 32.4373C23.3615 33.0284 22.3675 33.3803 21.2911 33.3803C18.5912 33.3803 16.3947 31.1835 16.3947 28.4839C16.3947 25.7841 18.5912 23.5878 21.2911 23.5878C23.2636 23.5878 25.0346 24.762 25.803 26.579L29.0307 23.351C27.3309 20.7838 24.4496 19.1931 21.2911 19.1931C16.1886 19.1931 12.0339 23.3276 12 28.4215Z" fill="url(#paint1_linear)"/>
<path fill-rule="evenodd" clip-rule="evenodd" d="M125.79 30.0781H129.42C130.769 30.0781 132.541 29.8382 132.36 27.7657C132.198 25.9138 130.303 25.9138 129.494 25.9138H126.3L125.79 30.0781ZM126.595 23.4641H129.902C131.783 23.4641 132.639 22.7981 132.52 21.4282C132.388 19.9223 130.719 19.9223 130.006 19.9223H127.019L126.595 23.4641ZM121.622 33.0121L123.564 16.9883H131.063C135.402 16.9883 136.137 18.6967 136.283 20.3681C136.461 22.4113 135.537 23.8125 133.746 24.2136L133.58 24.2506L133.614 24.6401L133.783 24.6797C135.083 24.9825 136.081 26.2231 136.209 27.6964C136.499 31.0025 133.953 32.9901 129.4 33.0121H121.622ZM116.039 23.7557C115.803 21.0522 114.578 19.7379 112.293 19.7379C108.644 19.7379 107.637 23.7712 107.859 26.3136C108.075 28.7862 109.517 30.2625 111.715 30.2625C114.908 30.2625 116.278 26.4833 116.039 23.7557ZM119.863 23.3869C120.385 29.351 117.08 33.3571 111.64 33.3571C107.179 33.3571 104.395 30.7815 104.002 26.2908C103.505 20.6102 106.859 16.6428 112.16 16.6428C118.349 16.6428 119.643 20.8682 119.863 23.3869ZM95.3381 16.6428C90.5643 16.6428 89.1113 19.3941 89.3172 21.7509C89.5296 24.1783 91.4185 25.154 93.2381 25.7881C93.6292 25.9216 94.072 26.0375 94.5006 26.1499C96.063 26.5587 97.6789 26.9822 97.8038 28.4106C97.9059 29.5698 96.9728 30.2625 95.3083 30.2625C93.761 30.2625 92.1555 29.9773 91.8734 27.9118H88.0133C88.1705 29.4505 88.7568 30.701 89.7579 31.6314C90.9722 32.7609 92.7457 33.3571 94.8875 33.3571C99.8646 33.3571 101.865 30.757 101.64 28.1806C101.368 25.0713 98.733 23.9732 96.468 23.3641L96.0243 23.2478C93.9979 22.7175 93.2398 22.5189 93.1446 21.4282C93.0425 20.2604 94.1926 19.7379 95.3781 19.7379C96.2052 19.7379 96.8277 19.8956 97.2795 20.2199C97.6948 20.5124 97.952 20.9466 98.0455 21.5122H101.912C101.793 20.1342 101.305 19.0327 100.461 18.2362C99.3421 17.1791 97.6177 16.6428 95.3381 16.6428ZM82.7402 23.7557C82.5042 21.0522 81.2786 19.7379 78.9938 19.7379C75.3452 19.7379 74.3381 23.7712 74.5599 26.3136C74.7766 28.7862 76.2184 30.2625 78.4166 30.2625C81.6094 30.2625 82.9793 26.4833 82.7402 23.7557ZM86.5642 23.3869C87.0858 29.351 83.7814 33.3571 78.3416 33.3571C73.8797 33.3571 71.0957 30.7815 70.7028 26.2908C70.2057 20.6102 73.5605 16.6428 78.8611 16.6428C85.05 16.6428 86.344 20.8682 86.5642 23.3869ZM67.1623 18.2362C68.0062 19.0327 68.4938 20.1342 68.614 21.5122H64.7465C64.6531 20.9466 64.3963 20.5124 63.9811 20.2199C63.5288 19.8956 62.9067 19.7379 62.0797 19.7379C60.8942 19.7379 59.7436 20.2604 59.8457 21.4282C59.9413 22.5189 60.699 22.7175 62.7258 23.2478L63.1691 23.3641C65.4345 23.9732 68.0691 25.0713 68.3413 28.1806C68.5662 30.757 66.5661 33.3571 61.5886 33.3571C59.4468 33.3571 57.6733 32.7609 56.459 31.6314C55.4579 30.701 54.8716 29.4505 54.7144 27.9118H58.5745C58.8566 29.9773 60.4625 30.2625 62.0094 30.2625C63.6739 30.2625 64.607 29.5698 64.5049 28.4106C64.38 26.9822 62.7641 26.5587 61.2017 26.1499C60.7731 26.0375 60.3303 25.9216 59.9392 25.7881C58.1196 25.154 56.2307 24.1783 56.0183 21.7509C55.8124 19.3941 57.2654 16.6428 62.0392 16.6428C64.3188 16.6428 66.0432 17.1791 67.1623 18.2362Z" fill="white"/>
<defs>
<filter id="filter0_d" x="0" y="0" width="154" height="53" filterUnits="userSpaceOnUse" color-interpolation-filters="sRGB">
<feFlood flood-opacity="0" result="BackgroundImageFix"/>
<feColorMatrix in="SourceAlpha" type="matrix" values="0 0 0 0 0 0 0 0 0 0 0 0 0 0 0 0 0 0 127 0"/>
<feOffset dx="2" dy="2"/>
<feGaussianBlur stdDeviation="2"/>
<feColorMatrix type="matrix" values="0 0 0 0 0 0 0 0 0 0 0 0 0 0 0 0 0 0 0.05 0"/>
<feBlend mode="normal" in2="BackgroundImageFix" result="effect1_dropShadow"/>
<feBlend mode="normal" in="SourceGraphic" in2="effect1_dropShadow" result="shape"/>
</filter>
<linearGradient id="paint0_linear" x1="41.7157" y1="16.7748" x2="29.1274" y2="34.7089" gradientUnits="userSpaceOnUse">
<stop stop-color="white"/>
<stop offset="1" stop-color="white" stop-opacity="0.684031"/>
</linearGradient>
<linearGradient id="paint1_linear" x1="27.2014" y1="28.1324" x2="21.5124" y2="33.9696" gradientUnits="userSpaceOnUse">
<stop stop-color="white"/>
<stop offset="1" stop-color="white" stop-opacity="0.861861"/>
</linearGradient>
</defs>
</svg>
