<svg width="154" height="53" viewBox="0 0 154 53" fill="none" xmlns="http://www.w3.org/2000/svg">
<g filter="url(#filter0_d)">
<rect x="2" y="2" width="146" height="45" rx="10" fill="white"/>
</g>
<g clip-path="url(#clip0)">
<path d="M41.498 22.84H45.54V33.4133H48.034V22.84H52.076V20.6733H41.498V22.84Z" fill="#231F20"/>
<path d="M61.8799 25.7867H56.3759V20.6733H53.7959V33.4133H56.3759V28.04H61.8799V33.4133H64.4599V20.6733H61.8799V25.7867Z" fill="#231F20"/>
<path d="M69.1039 27.9533H74.6079V25.8733H69.1039V22.84H75.2959V20.6733H66.5239V33.4133H75.4679V31.2467H69.1039V27.9533Z" fill="#231F20"/>
<path d="M89.3141 26.74C90.0021 26.48 91.2061 25.6133 91.2061 23.7933C91.2061 21.9733 89.8301 20.5867 87.6801 20.5867H82.0901V33.3267H87.9381C90.0881 33.3267 91.7221 31.94 91.7221 29.86C91.6361 28.1267 90.4321 27.0867 89.3141 26.74ZM84.4981 22.6667H86.9061C88.0241 22.6667 88.7121 23.1867 88.7121 24.3133C88.7121 25.3533 88.1101 25.96 86.9921 25.96H84.5841V22.6667H84.4981ZM87.2501 31.42H84.4981V27.8667H87.1641C88.3681 27.8667 89.1421 28.4733 89.1421 29.6867C89.0561 30.8133 88.3681 31.42 87.2501 31.42Z" fill="#231F20"/>
<path d="M95.9359 20.6733H93.4419V33.4133H102.128V31.16H95.9359V20.6733Z" fill="#231F20"/>
<path d="M109.008 20.5867C105.396 20.5867 102.73 23.1 102.73 27.0867C102.73 31.0733 105.396 33.5 109.008 33.5C112.62 33.5 115.286 30.9867 115.286 27C115.286 23.0133 112.534 20.5867 109.008 20.5867ZM109.008 31.2467C106.944 31.2467 105.31 29.6867 105.31 27C105.31 24.3133 106.944 22.7533 109.008 22.7533C111.072 22.7533 112.706 24.3133 112.706 27C112.706 29.6867 111.072 31.2467 109.008 31.2467Z" fill="#231F20"/>
<path d="M122.682 22.7533C124.746 22.7533 125.606 23.9667 125.864 25.3533H128.358C128.1 22.58 126.294 20.5 122.682 20.5C119.242 20.5 116.748 23.1 116.748 27C116.748 30.9867 119.242 33.5 122.682 33.5C126.38 33.5 128.1 31.42 128.358 28.6467H125.864C125.692 30.0333 124.832 31.2467 122.768 31.2467C120.79 31.2467 119.328 29.6867 119.328 27C119.242 24.4 120.79 22.7533 122.682 22.7533Z" fill="#231F20"/>
<path d="M136.012 26.1333L140.656 20.6733H137.646L132.486 27V20.6733H129.992V33.4133H132.486V30.0333L134.292 27.9533L138.076 33.4133H141L136.012 26.1333Z" fill="#231F20"/>
<path d="M22.664 38.6134L12.43 34.3668C12.086 34.1934 12 34.1934 12 33.7601V20.0668C12 19.7201 12.086 19.6334 12.43 19.4601L22.664 15.4734C23.008 15.3868 23.094 15.3868 23.438 15.4734L33.672 19.4601C34.016 19.6334 34.102 19.7201 34.102 20.0668V33.8468C34.102 34.1934 34.016 34.2801 33.672 34.4534L23.438 38.6134C23.094 38.7001 23.008 38.7868 22.664 38.6134ZM23.008 37.4868L31.952 33.9334L23.008 30.6401L14.064 33.8468L23.008 37.4868ZM13.204 32.9801L21.288 29.9468L19.826 29.3401C19.74 29.2534 19.654 29.1668 19.654 29.0801V24.8334C19.654 24.6601 19.74 24.5734 19.826 24.5734L21.288 23.9668L13.204 20.8468V32.9801ZM32.812 32.9801V20.9334L24.728 23.9668L26.19 24.5734C26.276 24.6601 26.362 24.7468 26.362 24.8334V29.0801C26.362 29.1668 26.276 29.3401 26.19 29.3401L24.728 29.9468L32.812 32.9801ZM23.008 29.2534L25.158 28.3868V25.3534L23.008 24.4868L20.858 25.3534V28.3868L23.008 29.2534ZM23.008 23.2734L31.952 19.9801L23.008 16.5134L14.064 19.9801L23.008 23.2734Z" fill="#231F20"/>
<path d="M33.5859 19.5467L23.3519 15.4734C23.2659 15.4734 23.0939 15.3867 23.0079 15.3867C22.9219 15.3867 22.7499 15.3867 22.6639 15.4734L12.4299 19.5467C12.2579 19.5467 12.0859 19.8067 12.0859 20.0667V33.8467C12.0859 34.1067 12.2579 34.2801 12.4299 34.3667L22.5779 38.5267C22.6639 38.5267 22.8359 38.6134 22.9219 38.6134C23.0079 38.6134 23.1799 38.6134 23.2659 38.5267L33.4139 34.3667C33.5859 34.2801 33.7579 34.1067 33.7579 33.8467V20.0667C33.9299 19.8067 33.7579 19.5467 33.5859 19.5467ZM23.0079 16.4267L32.2099 19.9801L23.0079 23.3601L13.8059 19.9801L23.0079 16.4267ZM23.0079 24.4001L25.2439 25.3534V28.4734L23.0079 29.4267L20.7719 28.4734V25.3534L23.0079 24.4001ZM13.1179 20.7601L21.5459 23.9667L19.8259 24.6601C19.7399 24.6601 19.6539 24.7467 19.6539 24.8334V29.0801C19.6539 29.1667 19.7399 29.2534 19.7399 29.2534L21.4599 29.9467L13.1179 33.0667V20.7601ZM23.0079 37.5734L13.8059 33.8467L23.0079 30.4667L32.2099 33.8467L23.0079 37.5734ZM32.8979 33.0667L24.4699 29.9467L26.1899 29.2534C26.2759 29.2534 26.2759 29.1667 26.2759 29.0801V24.7467C26.2759 24.6601 26.1899 24.5734 26.1899 24.5734L24.4699 23.8801L32.8979 20.6734V33.0667Z" fill="#231F20"/>
</g>
<defs>
<filter id="filter0_d" x="0" y="0" width="154" height="53" filterUnits="userSpaceOnUse" color-interpolation-filters="sRGB">
<feFlood flood-opacity="0" result="BackgroundImageFix"/>
<feColorMatrix in="SourceAlpha" type="matrix" values="0 0 0 0 0 0 0 0 0 0 0 0 0 0 0 0 0 0 127 0"/>
<feOffset dx="2" dy="2"/>
<feGaussianBlur stdDeviation="2"/>
<feColorMatrix type="matrix" values="0 0 0 0 0 0 0 0 0 0 0 0 0 0 0 0 0 0 0.05 0"/>
<feBlend mode="normal" in2="BackgroundImageFix" result="effect1_dropShadow"/>
<feBlend mode="normal" in="SourceGraphic" in2="effect1_dropShadow" result="shape"/>
</filter>
<clipPath id="clip0">
<rect width="129" height="26" fill="white" transform="translate(12 14)"/>
</clipPath>
</defs>
</svg>
